%TF.GenerationSoftware,KiCad,Pcbnew,(5.1.4-0-10_14)*%
%TF.CreationDate,2019-10-07T11:49:19-07:00*%
%TF.ProjectId,OPL3_VGM_Player,4f504c33-5f56-4474-9d5f-506c61796572,rev?*%
%TF.SameCoordinates,Original*%
%TF.FileFunction,Paste,Top*%
%TF.FilePolarity,Positive*%
%FSLAX46Y46*%
G04 Gerber Fmt 4.6, Leading zero omitted, Abs format (unit mm)*
G04 Created by KiCad (PCBNEW (5.1.4-0-10_14)) date 2019-10-07 11:49:19*
%MOMM*%
%LPD*%
G04 APERTURE LIST*
%ADD10C,0.150000*%
%ADD11C,1.250000*%
%ADD12R,1.400000X2.200000*%
%ADD13R,1.800000X1.400000*%
%ADD14R,1.600000X1.400000*%
%ADD15R,0.700000X1.400000*%
%ADD16R,1.000000X1.600000*%
%ADD17R,1.250000X1.000000*%
%ADD18R,1.000000X1.250000*%
%ADD19C,0.750000*%
%ADD20C,1.000000*%
%ADD21R,0.750000X0.800000*%
%ADD22R,2.000000X2.500000*%
%ADD23R,0.500000X2.300000*%
%ADD24R,0.500000X0.900000*%
%ADD25R,0.950000X3.300000*%
%ADD26R,3.300000X0.950000*%
%ADD27R,1.300000X0.700000*%
%ADD28R,0.700000X1.300000*%
%ADD29R,1.500000X2.000000*%
%ADD30R,3.800000X2.000000*%
%ADD31C,0.250000*%
%ADD32R,0.300000X1.400000*%
%ADD33R,2.000000X0.600000*%
%ADD34R,1.500000X0.600000*%
%ADD35C,2.000000*%
G04 APERTURE END LIST*
D10*
X153670000Y-140970000D02*
X226060000Y-140970000D01*
X149860000Y-87630000D02*
X149860000Y-137160000D01*
X226060000Y-83820000D02*
X153670000Y-83820000D01*
X229870000Y-137160000D02*
X229870000Y-87630000D01*
X229870000Y-137160000D02*
G75*
G02X226060000Y-140970000I-3810000J0D01*
G01*
X153670000Y-140970000D02*
G75*
G02X149860000Y-137160000I0J3810000D01*
G01*
X149860000Y-87630000D02*
G75*
G02X153670000Y-83820000I3810000J0D01*
G01*
X226060000Y-83820000D02*
G75*
G02X229870000Y-87630000I0J-3810000D01*
G01*
G36*
X227344504Y-102751204D02*
G01*
X227368773Y-102754804D01*
X227392571Y-102760765D01*
X227415671Y-102769030D01*
X227437849Y-102779520D01*
X227458893Y-102792133D01*
X227478598Y-102806747D01*
X227496777Y-102823223D01*
X227513253Y-102841402D01*
X227527867Y-102861107D01*
X227540480Y-102882151D01*
X227550970Y-102904329D01*
X227559235Y-102927429D01*
X227565196Y-102951227D01*
X227568796Y-102975496D01*
X227570000Y-103000000D01*
X227570000Y-103750000D01*
X227568796Y-103774504D01*
X227565196Y-103798773D01*
X227559235Y-103822571D01*
X227550970Y-103845671D01*
X227540480Y-103867849D01*
X227527867Y-103888893D01*
X227513253Y-103908598D01*
X227496777Y-103926777D01*
X227478598Y-103943253D01*
X227458893Y-103957867D01*
X227437849Y-103970480D01*
X227415671Y-103980970D01*
X227392571Y-103989235D01*
X227368773Y-103995196D01*
X227344504Y-103998796D01*
X227320000Y-104000000D01*
X226070000Y-104000000D01*
X226045496Y-103998796D01*
X226021227Y-103995196D01*
X225997429Y-103989235D01*
X225974329Y-103980970D01*
X225952151Y-103970480D01*
X225931107Y-103957867D01*
X225911402Y-103943253D01*
X225893223Y-103926777D01*
X225876747Y-103908598D01*
X225862133Y-103888893D01*
X225849520Y-103867849D01*
X225839030Y-103845671D01*
X225830765Y-103822571D01*
X225824804Y-103798773D01*
X225821204Y-103774504D01*
X225820000Y-103750000D01*
X225820000Y-103000000D01*
X225821204Y-102975496D01*
X225824804Y-102951227D01*
X225830765Y-102927429D01*
X225839030Y-102904329D01*
X225849520Y-102882151D01*
X225862133Y-102861107D01*
X225876747Y-102841402D01*
X225893223Y-102823223D01*
X225911402Y-102806747D01*
X225931107Y-102792133D01*
X225952151Y-102779520D01*
X225974329Y-102769030D01*
X225997429Y-102760765D01*
X226021227Y-102754804D01*
X226045496Y-102751204D01*
X226070000Y-102750000D01*
X227320000Y-102750000D01*
X227344504Y-102751204D01*
X227344504Y-102751204D01*
G37*
D11*
X226695000Y-103375000D03*
D10*
G36*
X227344504Y-105551204D02*
G01*
X227368773Y-105554804D01*
X227392571Y-105560765D01*
X227415671Y-105569030D01*
X227437849Y-105579520D01*
X227458893Y-105592133D01*
X227478598Y-105606747D01*
X227496777Y-105623223D01*
X227513253Y-105641402D01*
X227527867Y-105661107D01*
X227540480Y-105682151D01*
X227550970Y-105704329D01*
X227559235Y-105727429D01*
X227565196Y-105751227D01*
X227568796Y-105775496D01*
X227570000Y-105800000D01*
X227570000Y-106550000D01*
X227568796Y-106574504D01*
X227565196Y-106598773D01*
X227559235Y-106622571D01*
X227550970Y-106645671D01*
X227540480Y-106667849D01*
X227527867Y-106688893D01*
X227513253Y-106708598D01*
X227496777Y-106726777D01*
X227478598Y-106743253D01*
X227458893Y-106757867D01*
X227437849Y-106770480D01*
X227415671Y-106780970D01*
X227392571Y-106789235D01*
X227368773Y-106795196D01*
X227344504Y-106798796D01*
X227320000Y-106800000D01*
X226070000Y-106800000D01*
X226045496Y-106798796D01*
X226021227Y-106795196D01*
X225997429Y-106789235D01*
X225974329Y-106780970D01*
X225952151Y-106770480D01*
X225931107Y-106757867D01*
X225911402Y-106743253D01*
X225893223Y-106726777D01*
X225876747Y-106708598D01*
X225862133Y-106688893D01*
X225849520Y-106667849D01*
X225839030Y-106645671D01*
X225830765Y-106622571D01*
X225824804Y-106598773D01*
X225821204Y-106574504D01*
X225820000Y-106550000D01*
X225820000Y-105800000D01*
X225821204Y-105775496D01*
X225824804Y-105751227D01*
X225830765Y-105727429D01*
X225839030Y-105704329D01*
X225849520Y-105682151D01*
X225862133Y-105661107D01*
X225876747Y-105641402D01*
X225893223Y-105623223D01*
X225911402Y-105606747D01*
X225931107Y-105592133D01*
X225952151Y-105579520D01*
X225974329Y-105569030D01*
X225997429Y-105560765D01*
X226021227Y-105554804D01*
X226045496Y-105551204D01*
X226070000Y-105550000D01*
X227320000Y-105550000D01*
X227344504Y-105551204D01*
X227344504Y-105551204D01*
G37*
D11*
X226695000Y-106175000D03*
D10*
G36*
X223534504Y-102751204D02*
G01*
X223558773Y-102754804D01*
X223582571Y-102760765D01*
X223605671Y-102769030D01*
X223627849Y-102779520D01*
X223648893Y-102792133D01*
X223668598Y-102806747D01*
X223686777Y-102823223D01*
X223703253Y-102841402D01*
X223717867Y-102861107D01*
X223730480Y-102882151D01*
X223740970Y-102904329D01*
X223749235Y-102927429D01*
X223755196Y-102951227D01*
X223758796Y-102975496D01*
X223760000Y-103000000D01*
X223760000Y-103750000D01*
X223758796Y-103774504D01*
X223755196Y-103798773D01*
X223749235Y-103822571D01*
X223740970Y-103845671D01*
X223730480Y-103867849D01*
X223717867Y-103888893D01*
X223703253Y-103908598D01*
X223686777Y-103926777D01*
X223668598Y-103943253D01*
X223648893Y-103957867D01*
X223627849Y-103970480D01*
X223605671Y-103980970D01*
X223582571Y-103989235D01*
X223558773Y-103995196D01*
X223534504Y-103998796D01*
X223510000Y-104000000D01*
X222260000Y-104000000D01*
X222235496Y-103998796D01*
X222211227Y-103995196D01*
X222187429Y-103989235D01*
X222164329Y-103980970D01*
X222142151Y-103970480D01*
X222121107Y-103957867D01*
X222101402Y-103943253D01*
X222083223Y-103926777D01*
X222066747Y-103908598D01*
X222052133Y-103888893D01*
X222039520Y-103867849D01*
X222029030Y-103845671D01*
X222020765Y-103822571D01*
X222014804Y-103798773D01*
X222011204Y-103774504D01*
X222010000Y-103750000D01*
X222010000Y-103000000D01*
X222011204Y-102975496D01*
X222014804Y-102951227D01*
X222020765Y-102927429D01*
X222029030Y-102904329D01*
X222039520Y-102882151D01*
X222052133Y-102861107D01*
X222066747Y-102841402D01*
X222083223Y-102823223D01*
X222101402Y-102806747D01*
X222121107Y-102792133D01*
X222142151Y-102779520D01*
X222164329Y-102769030D01*
X222187429Y-102760765D01*
X222211227Y-102754804D01*
X222235496Y-102751204D01*
X222260000Y-102750000D01*
X223510000Y-102750000D01*
X223534504Y-102751204D01*
X223534504Y-102751204D01*
G37*
D11*
X222885000Y-103375000D03*
D10*
G36*
X223534504Y-105551204D02*
G01*
X223558773Y-105554804D01*
X223582571Y-105560765D01*
X223605671Y-105569030D01*
X223627849Y-105579520D01*
X223648893Y-105592133D01*
X223668598Y-105606747D01*
X223686777Y-105623223D01*
X223703253Y-105641402D01*
X223717867Y-105661107D01*
X223730480Y-105682151D01*
X223740970Y-105704329D01*
X223749235Y-105727429D01*
X223755196Y-105751227D01*
X223758796Y-105775496D01*
X223760000Y-105800000D01*
X223760000Y-106550000D01*
X223758796Y-106574504D01*
X223755196Y-106598773D01*
X223749235Y-106622571D01*
X223740970Y-106645671D01*
X223730480Y-106667849D01*
X223717867Y-106688893D01*
X223703253Y-106708598D01*
X223686777Y-106726777D01*
X223668598Y-106743253D01*
X223648893Y-106757867D01*
X223627849Y-106770480D01*
X223605671Y-106780970D01*
X223582571Y-106789235D01*
X223558773Y-106795196D01*
X223534504Y-106798796D01*
X223510000Y-106800000D01*
X222260000Y-106800000D01*
X222235496Y-106798796D01*
X222211227Y-106795196D01*
X222187429Y-106789235D01*
X222164329Y-106780970D01*
X222142151Y-106770480D01*
X222121107Y-106757867D01*
X222101402Y-106743253D01*
X222083223Y-106726777D01*
X222066747Y-106708598D01*
X222052133Y-106688893D01*
X222039520Y-106667849D01*
X222029030Y-106645671D01*
X222020765Y-106622571D01*
X222014804Y-106598773D01*
X222011204Y-106574504D01*
X222010000Y-106550000D01*
X222010000Y-105800000D01*
X222011204Y-105775496D01*
X222014804Y-105751227D01*
X222020765Y-105727429D01*
X222029030Y-105704329D01*
X222039520Y-105682151D01*
X222052133Y-105661107D01*
X222066747Y-105641402D01*
X222083223Y-105623223D01*
X222101402Y-105606747D01*
X222121107Y-105592133D01*
X222142151Y-105579520D01*
X222164329Y-105569030D01*
X222187429Y-105560765D01*
X222211227Y-105554804D01*
X222235496Y-105551204D01*
X222260000Y-105550000D01*
X223510000Y-105550000D01*
X223534504Y-105551204D01*
X223534504Y-105551204D01*
G37*
D11*
X222885000Y-106175000D03*
D10*
G36*
X218105904Y-119179304D02*
G01*
X218130173Y-119182904D01*
X218153971Y-119188865D01*
X218177071Y-119197130D01*
X218199249Y-119207620D01*
X218220293Y-119220233D01*
X218239998Y-119234847D01*
X218258177Y-119251323D01*
X218274653Y-119269502D01*
X218289267Y-119289207D01*
X218301880Y-119310251D01*
X218312370Y-119332429D01*
X218320635Y-119355529D01*
X218326596Y-119379327D01*
X218330196Y-119403596D01*
X218331400Y-119428100D01*
X218331400Y-120678100D01*
X218330196Y-120702604D01*
X218326596Y-120726873D01*
X218320635Y-120750671D01*
X218312370Y-120773771D01*
X218301880Y-120795949D01*
X218289267Y-120816993D01*
X218274653Y-120836698D01*
X218258177Y-120854877D01*
X218239998Y-120871353D01*
X218220293Y-120885967D01*
X218199249Y-120898580D01*
X218177071Y-120909070D01*
X218153971Y-120917335D01*
X218130173Y-120923296D01*
X218105904Y-120926896D01*
X218081400Y-120928100D01*
X217331400Y-120928100D01*
X217306896Y-120926896D01*
X217282627Y-120923296D01*
X217258829Y-120917335D01*
X217235729Y-120909070D01*
X217213551Y-120898580D01*
X217192507Y-120885967D01*
X217172802Y-120871353D01*
X217154623Y-120854877D01*
X217138147Y-120836698D01*
X217123533Y-120816993D01*
X217110920Y-120795949D01*
X217100430Y-120773771D01*
X217092165Y-120750671D01*
X217086204Y-120726873D01*
X217082604Y-120702604D01*
X217081400Y-120678100D01*
X217081400Y-119428100D01*
X217082604Y-119403596D01*
X217086204Y-119379327D01*
X217092165Y-119355529D01*
X217100430Y-119332429D01*
X217110920Y-119310251D01*
X217123533Y-119289207D01*
X217138147Y-119269502D01*
X217154623Y-119251323D01*
X217172802Y-119234847D01*
X217192507Y-119220233D01*
X217213551Y-119207620D01*
X217235729Y-119197130D01*
X217258829Y-119188865D01*
X217282627Y-119182904D01*
X217306896Y-119179304D01*
X217331400Y-119178100D01*
X218081400Y-119178100D01*
X218105904Y-119179304D01*
X218105904Y-119179304D01*
G37*
D11*
X217706400Y-120053100D03*
D10*
G36*
X215305904Y-119179304D02*
G01*
X215330173Y-119182904D01*
X215353971Y-119188865D01*
X215377071Y-119197130D01*
X215399249Y-119207620D01*
X215420293Y-119220233D01*
X215439998Y-119234847D01*
X215458177Y-119251323D01*
X215474653Y-119269502D01*
X215489267Y-119289207D01*
X215501880Y-119310251D01*
X215512370Y-119332429D01*
X215520635Y-119355529D01*
X215526596Y-119379327D01*
X215530196Y-119403596D01*
X215531400Y-119428100D01*
X215531400Y-120678100D01*
X215530196Y-120702604D01*
X215526596Y-120726873D01*
X215520635Y-120750671D01*
X215512370Y-120773771D01*
X215501880Y-120795949D01*
X215489267Y-120816993D01*
X215474653Y-120836698D01*
X215458177Y-120854877D01*
X215439998Y-120871353D01*
X215420293Y-120885967D01*
X215399249Y-120898580D01*
X215377071Y-120909070D01*
X215353971Y-120917335D01*
X215330173Y-120923296D01*
X215305904Y-120926896D01*
X215281400Y-120928100D01*
X214531400Y-120928100D01*
X214506896Y-120926896D01*
X214482627Y-120923296D01*
X214458829Y-120917335D01*
X214435729Y-120909070D01*
X214413551Y-120898580D01*
X214392507Y-120885967D01*
X214372802Y-120871353D01*
X214354623Y-120854877D01*
X214338147Y-120836698D01*
X214323533Y-120816993D01*
X214310920Y-120795949D01*
X214300430Y-120773771D01*
X214292165Y-120750671D01*
X214286204Y-120726873D01*
X214282604Y-120702604D01*
X214281400Y-120678100D01*
X214281400Y-119428100D01*
X214282604Y-119403596D01*
X214286204Y-119379327D01*
X214292165Y-119355529D01*
X214300430Y-119332429D01*
X214310920Y-119310251D01*
X214323533Y-119289207D01*
X214338147Y-119269502D01*
X214354623Y-119251323D01*
X214372802Y-119234847D01*
X214392507Y-119220233D01*
X214413551Y-119207620D01*
X214435729Y-119197130D01*
X214458829Y-119188865D01*
X214482627Y-119182904D01*
X214506896Y-119179304D01*
X214531400Y-119178100D01*
X215281400Y-119178100D01*
X215305904Y-119179304D01*
X215305904Y-119179304D01*
G37*
D11*
X214906400Y-120053100D03*
D10*
G36*
X211349504Y-100726204D02*
G01*
X211373773Y-100729804D01*
X211397571Y-100735765D01*
X211420671Y-100744030D01*
X211442849Y-100754520D01*
X211463893Y-100767133D01*
X211483598Y-100781747D01*
X211501777Y-100798223D01*
X211518253Y-100816402D01*
X211532867Y-100836107D01*
X211545480Y-100857151D01*
X211555970Y-100879329D01*
X211564235Y-100902429D01*
X211570196Y-100926227D01*
X211573796Y-100950496D01*
X211575000Y-100975000D01*
X211575000Y-102225000D01*
X211573796Y-102249504D01*
X211570196Y-102273773D01*
X211564235Y-102297571D01*
X211555970Y-102320671D01*
X211545480Y-102342849D01*
X211532867Y-102363893D01*
X211518253Y-102383598D01*
X211501777Y-102401777D01*
X211483598Y-102418253D01*
X211463893Y-102432867D01*
X211442849Y-102445480D01*
X211420671Y-102455970D01*
X211397571Y-102464235D01*
X211373773Y-102470196D01*
X211349504Y-102473796D01*
X211325000Y-102475000D01*
X210575000Y-102475000D01*
X210550496Y-102473796D01*
X210526227Y-102470196D01*
X210502429Y-102464235D01*
X210479329Y-102455970D01*
X210457151Y-102445480D01*
X210436107Y-102432867D01*
X210416402Y-102418253D01*
X210398223Y-102401777D01*
X210381747Y-102383598D01*
X210367133Y-102363893D01*
X210354520Y-102342849D01*
X210344030Y-102320671D01*
X210335765Y-102297571D01*
X210329804Y-102273773D01*
X210326204Y-102249504D01*
X210325000Y-102225000D01*
X210325000Y-100975000D01*
X210326204Y-100950496D01*
X210329804Y-100926227D01*
X210335765Y-100902429D01*
X210344030Y-100879329D01*
X210354520Y-100857151D01*
X210367133Y-100836107D01*
X210381747Y-100816402D01*
X210398223Y-100798223D01*
X210416402Y-100781747D01*
X210436107Y-100767133D01*
X210457151Y-100754520D01*
X210479329Y-100744030D01*
X210502429Y-100735765D01*
X210526227Y-100729804D01*
X210550496Y-100726204D01*
X210575000Y-100725000D01*
X211325000Y-100725000D01*
X211349504Y-100726204D01*
X211349504Y-100726204D01*
G37*
D11*
X210950000Y-101600000D03*
D10*
G36*
X208549504Y-100726204D02*
G01*
X208573773Y-100729804D01*
X208597571Y-100735765D01*
X208620671Y-100744030D01*
X208642849Y-100754520D01*
X208663893Y-100767133D01*
X208683598Y-100781747D01*
X208701777Y-100798223D01*
X208718253Y-100816402D01*
X208732867Y-100836107D01*
X208745480Y-100857151D01*
X208755970Y-100879329D01*
X208764235Y-100902429D01*
X208770196Y-100926227D01*
X208773796Y-100950496D01*
X208775000Y-100975000D01*
X208775000Y-102225000D01*
X208773796Y-102249504D01*
X208770196Y-102273773D01*
X208764235Y-102297571D01*
X208755970Y-102320671D01*
X208745480Y-102342849D01*
X208732867Y-102363893D01*
X208718253Y-102383598D01*
X208701777Y-102401777D01*
X208683598Y-102418253D01*
X208663893Y-102432867D01*
X208642849Y-102445480D01*
X208620671Y-102455970D01*
X208597571Y-102464235D01*
X208573773Y-102470196D01*
X208549504Y-102473796D01*
X208525000Y-102475000D01*
X207775000Y-102475000D01*
X207750496Y-102473796D01*
X207726227Y-102470196D01*
X207702429Y-102464235D01*
X207679329Y-102455970D01*
X207657151Y-102445480D01*
X207636107Y-102432867D01*
X207616402Y-102418253D01*
X207598223Y-102401777D01*
X207581747Y-102383598D01*
X207567133Y-102363893D01*
X207554520Y-102342849D01*
X207544030Y-102320671D01*
X207535765Y-102297571D01*
X207529804Y-102273773D01*
X207526204Y-102249504D01*
X207525000Y-102225000D01*
X207525000Y-100975000D01*
X207526204Y-100950496D01*
X207529804Y-100926227D01*
X207535765Y-100902429D01*
X207544030Y-100879329D01*
X207554520Y-100857151D01*
X207567133Y-100836107D01*
X207581747Y-100816402D01*
X207598223Y-100798223D01*
X207616402Y-100781747D01*
X207636107Y-100767133D01*
X207657151Y-100754520D01*
X207679329Y-100744030D01*
X207702429Y-100735765D01*
X207726227Y-100729804D01*
X207750496Y-100726204D01*
X207775000Y-100725000D01*
X208525000Y-100725000D01*
X208549504Y-100726204D01*
X208549504Y-100726204D01*
G37*
D11*
X208150000Y-101600000D03*
D10*
G36*
X183529504Y-103011204D02*
G01*
X183553773Y-103014804D01*
X183577571Y-103020765D01*
X183600671Y-103029030D01*
X183622849Y-103039520D01*
X183643893Y-103052133D01*
X183663598Y-103066747D01*
X183681777Y-103083223D01*
X183698253Y-103101402D01*
X183712867Y-103121107D01*
X183725480Y-103142151D01*
X183735970Y-103164329D01*
X183744235Y-103187429D01*
X183750196Y-103211227D01*
X183753796Y-103235496D01*
X183755000Y-103260000D01*
X183755000Y-104010000D01*
X183753796Y-104034504D01*
X183750196Y-104058773D01*
X183744235Y-104082571D01*
X183735970Y-104105671D01*
X183725480Y-104127849D01*
X183712867Y-104148893D01*
X183698253Y-104168598D01*
X183681777Y-104186777D01*
X183663598Y-104203253D01*
X183643893Y-104217867D01*
X183622849Y-104230480D01*
X183600671Y-104240970D01*
X183577571Y-104249235D01*
X183553773Y-104255196D01*
X183529504Y-104258796D01*
X183505000Y-104260000D01*
X182255000Y-104260000D01*
X182230496Y-104258796D01*
X182206227Y-104255196D01*
X182182429Y-104249235D01*
X182159329Y-104240970D01*
X182137151Y-104230480D01*
X182116107Y-104217867D01*
X182096402Y-104203253D01*
X182078223Y-104186777D01*
X182061747Y-104168598D01*
X182047133Y-104148893D01*
X182034520Y-104127849D01*
X182024030Y-104105671D01*
X182015765Y-104082571D01*
X182009804Y-104058773D01*
X182006204Y-104034504D01*
X182005000Y-104010000D01*
X182005000Y-103260000D01*
X182006204Y-103235496D01*
X182009804Y-103211227D01*
X182015765Y-103187429D01*
X182024030Y-103164329D01*
X182034520Y-103142151D01*
X182047133Y-103121107D01*
X182061747Y-103101402D01*
X182078223Y-103083223D01*
X182096402Y-103066747D01*
X182116107Y-103052133D01*
X182137151Y-103039520D01*
X182159329Y-103029030D01*
X182182429Y-103020765D01*
X182206227Y-103014804D01*
X182230496Y-103011204D01*
X182255000Y-103010000D01*
X183505000Y-103010000D01*
X183529504Y-103011204D01*
X183529504Y-103011204D01*
G37*
D11*
X182880000Y-103635000D03*
D10*
G36*
X183529504Y-100211204D02*
G01*
X183553773Y-100214804D01*
X183577571Y-100220765D01*
X183600671Y-100229030D01*
X183622849Y-100239520D01*
X183643893Y-100252133D01*
X183663598Y-100266747D01*
X183681777Y-100283223D01*
X183698253Y-100301402D01*
X183712867Y-100321107D01*
X183725480Y-100342151D01*
X183735970Y-100364329D01*
X183744235Y-100387429D01*
X183750196Y-100411227D01*
X183753796Y-100435496D01*
X183755000Y-100460000D01*
X183755000Y-101210000D01*
X183753796Y-101234504D01*
X183750196Y-101258773D01*
X183744235Y-101282571D01*
X183735970Y-101305671D01*
X183725480Y-101327849D01*
X183712867Y-101348893D01*
X183698253Y-101368598D01*
X183681777Y-101386777D01*
X183663598Y-101403253D01*
X183643893Y-101417867D01*
X183622849Y-101430480D01*
X183600671Y-101440970D01*
X183577571Y-101449235D01*
X183553773Y-101455196D01*
X183529504Y-101458796D01*
X183505000Y-101460000D01*
X182255000Y-101460000D01*
X182230496Y-101458796D01*
X182206227Y-101455196D01*
X182182429Y-101449235D01*
X182159329Y-101440970D01*
X182137151Y-101430480D01*
X182116107Y-101417867D01*
X182096402Y-101403253D01*
X182078223Y-101386777D01*
X182061747Y-101368598D01*
X182047133Y-101348893D01*
X182034520Y-101327849D01*
X182024030Y-101305671D01*
X182015765Y-101282571D01*
X182009804Y-101258773D01*
X182006204Y-101234504D01*
X182005000Y-101210000D01*
X182005000Y-100460000D01*
X182006204Y-100435496D01*
X182009804Y-100411227D01*
X182015765Y-100387429D01*
X182024030Y-100364329D01*
X182034520Y-100342151D01*
X182047133Y-100321107D01*
X182061747Y-100301402D01*
X182078223Y-100283223D01*
X182096402Y-100266747D01*
X182116107Y-100252133D01*
X182137151Y-100239520D01*
X182159329Y-100229030D01*
X182182429Y-100220765D01*
X182206227Y-100214804D01*
X182230496Y-100211204D01*
X182255000Y-100210000D01*
X183505000Y-100210000D01*
X183529504Y-100211204D01*
X183529504Y-100211204D01*
G37*
D11*
X182880000Y-100835000D03*
D12*
X174081000Y-88626000D03*
X158331000Y-88824000D03*
D13*
X159332000Y-97925000D03*
D14*
X173880000Y-97925000D03*
D15*
X172630000Y-98425000D03*
X171530000Y-98425000D03*
X170430000Y-98425000D03*
X169330000Y-98425000D03*
X168230000Y-98425000D03*
X167130000Y-98425000D03*
X166030000Y-98425000D03*
X164930000Y-98425000D03*
X163830000Y-98425000D03*
D16*
X163425000Y-125793500D03*
X160425000Y-125793500D03*
X158345000Y-125730000D03*
X155345000Y-125730000D03*
D17*
X189674500Y-103267000D03*
X189674500Y-105267000D03*
D18*
X179543200Y-96621600D03*
X181543200Y-96621600D03*
X185690000Y-96520000D03*
X187690000Y-96520000D03*
D19*
X174577270Y-105762530D03*
D10*
G36*
X174594948Y-105214522D02*
G01*
X175125278Y-105744852D01*
X174559592Y-106310538D01*
X174029262Y-105780208D01*
X174594948Y-105214522D01*
X174594948Y-105214522D01*
G37*
D19*
X175637930Y-104701870D03*
D10*
G36*
X175655608Y-104153862D02*
G01*
X176185938Y-104684192D01*
X175620252Y-105249878D01*
X175089922Y-104719548D01*
X175655608Y-104153862D01*
X175655608Y-104153862D01*
G37*
D19*
X170310070Y-109991630D03*
D10*
G36*
X170292392Y-110539638D02*
G01*
X169762062Y-110009308D01*
X170327748Y-109443622D01*
X170858078Y-109973952D01*
X170292392Y-110539638D01*
X170292392Y-110539638D01*
G37*
D19*
X171370730Y-108930970D03*
D10*
G36*
X171353052Y-109478978D02*
G01*
X170822722Y-108948648D01*
X171388408Y-108382962D01*
X171918738Y-108913292D01*
X171353052Y-109478978D01*
X171353052Y-109478978D01*
G37*
D20*
X178710307Y-119782307D03*
D10*
G36*
X179505802Y-119693919D02*
G01*
X178621919Y-120577802D01*
X177914812Y-119870695D01*
X178798695Y-118986812D01*
X179505802Y-119693919D01*
X179505802Y-119693919D01*
G37*
D20*
X177296093Y-118368093D03*
D10*
G36*
X178091588Y-118279705D02*
G01*
X177207705Y-119163588D01*
X176500598Y-118456481D01*
X177384481Y-117572598D01*
X178091588Y-118279705D01*
X178091588Y-118279705D01*
G37*
D20*
X184056586Y-105926186D03*
D10*
G36*
X184852081Y-105837798D02*
G01*
X183968198Y-106721681D01*
X183261091Y-106014574D01*
X184144974Y-105130691D01*
X184852081Y-105837798D01*
X184852081Y-105837798D01*
G37*
D20*
X185470800Y-107340400D03*
D10*
G36*
X186266295Y-107252012D02*
G01*
X185382412Y-108135895D01*
X184675305Y-107428788D01*
X185559188Y-106544905D01*
X186266295Y-107252012D01*
X186266295Y-107252012D01*
G37*
D20*
X188353700Y-116801900D03*
D10*
G36*
X188265312Y-116006405D02*
G01*
X189149195Y-116890288D01*
X188442088Y-117597395D01*
X187558205Y-116713512D01*
X188265312Y-116006405D01*
X188265312Y-116006405D01*
G37*
D20*
X189767914Y-115387686D03*
D10*
G36*
X189679526Y-114592191D02*
G01*
X190563409Y-115476074D01*
X189856302Y-116183181D01*
X188972419Y-115299298D01*
X189679526Y-114592191D01*
X189679526Y-114592191D01*
G37*
D17*
X167132000Y-102219000D03*
X167132000Y-100219000D03*
X192151000Y-105559100D03*
X192151000Y-103559100D03*
D18*
X206905100Y-106972100D03*
X204905100Y-106972100D03*
D21*
X215734900Y-116040600D03*
X215734900Y-114540600D03*
X224739200Y-110159100D03*
X224739200Y-111659100D03*
X224726500Y-114516600D03*
X224726500Y-113016600D03*
D18*
X216493600Y-107530900D03*
X214493600Y-107530900D03*
D16*
X178039900Y-127190500D03*
X181039900Y-127190500D03*
D22*
X177160000Y-86735000D03*
X177160000Y-92235000D03*
X186060000Y-86735000D03*
X186060000Y-92235000D03*
D23*
X180010000Y-92335000D03*
X180810000Y-92335000D03*
X181610000Y-92335000D03*
X182410000Y-92335000D03*
X183210000Y-92335000D03*
D24*
X182917400Y-96621600D03*
X184417400Y-96621600D03*
D25*
X200480200Y-104495600D03*
X203530200Y-104495600D03*
D26*
X183756300Y-127012700D03*
X183756300Y-123962700D03*
D27*
X189865000Y-93665000D03*
X189865000Y-95565000D03*
X191770000Y-95565000D03*
X191770000Y-93665000D03*
D28*
X158866800Y-108978700D03*
X160766800Y-108978700D03*
D27*
X162915600Y-118209100D03*
X162915600Y-116309100D03*
X194741800Y-103558300D03*
X194741800Y-105458300D03*
X214058500Y-116177100D03*
X214058500Y-114277100D03*
D28*
X178907400Y-121488200D03*
X180807400Y-121488200D03*
X180172400Y-125183900D03*
X178272400Y-125183900D03*
X178907400Y-123317000D03*
X180807400Y-123317000D03*
D29*
X155967400Y-123431700D03*
X160567400Y-123431700D03*
X158267400Y-123431700D03*
D30*
X158267400Y-117131700D03*
D31*
X184062171Y-108492142D03*
D10*
G36*
X183690940Y-109040150D02*
G01*
X183514163Y-108863373D01*
X184433402Y-107944134D01*
X184610179Y-108120911D01*
X183690940Y-109040150D01*
X183690940Y-109040150D01*
G37*
D31*
X184415724Y-108845695D03*
D10*
G36*
X184044493Y-109393703D02*
G01*
X183867716Y-109216926D01*
X184786955Y-108297687D01*
X184963732Y-108474464D01*
X184044493Y-109393703D01*
X184044493Y-109393703D01*
G37*
D31*
X184769278Y-109199249D03*
D10*
G36*
X184398047Y-109747257D02*
G01*
X184221270Y-109570480D01*
X185140509Y-108651241D01*
X185317286Y-108828018D01*
X184398047Y-109747257D01*
X184398047Y-109747257D01*
G37*
D31*
X185122831Y-109552802D03*
D10*
G36*
X184751600Y-110100810D02*
G01*
X184574823Y-109924033D01*
X185494062Y-109004794D01*
X185670839Y-109181571D01*
X184751600Y-110100810D01*
X184751600Y-110100810D01*
G37*
D31*
X185476384Y-109906355D03*
D10*
G36*
X185105153Y-110454363D02*
G01*
X184928376Y-110277586D01*
X185847615Y-109358347D01*
X186024392Y-109535124D01*
X185105153Y-110454363D01*
X185105153Y-110454363D01*
G37*
D31*
X185829938Y-110259909D03*
D10*
G36*
X185458707Y-110807917D02*
G01*
X185281930Y-110631140D01*
X186201169Y-109711901D01*
X186377946Y-109888678D01*
X185458707Y-110807917D01*
X185458707Y-110807917D01*
G37*
D31*
X186183491Y-110613462D03*
D10*
G36*
X185812260Y-111161470D02*
G01*
X185635483Y-110984693D01*
X186554722Y-110065454D01*
X186731499Y-110242231D01*
X185812260Y-111161470D01*
X185812260Y-111161470D01*
G37*
D31*
X186537045Y-110967016D03*
D10*
G36*
X186165814Y-111515024D02*
G01*
X185989037Y-111338247D01*
X186908276Y-110419008D01*
X187085053Y-110595785D01*
X186165814Y-111515024D01*
X186165814Y-111515024D01*
G37*
D31*
X186890598Y-111320569D03*
D10*
G36*
X186519367Y-111868577D02*
G01*
X186342590Y-111691800D01*
X187261829Y-110772561D01*
X187438606Y-110949338D01*
X186519367Y-111868577D01*
X186519367Y-111868577D01*
G37*
D31*
X187244151Y-111674122D03*
D10*
G36*
X186872920Y-112222130D02*
G01*
X186696143Y-112045353D01*
X187615382Y-111126114D01*
X187792159Y-111302891D01*
X186872920Y-112222130D01*
X186872920Y-112222130D01*
G37*
D31*
X187597705Y-112027676D03*
D10*
G36*
X187226474Y-112575684D02*
G01*
X187049697Y-112398907D01*
X187968936Y-111479668D01*
X188145713Y-111656445D01*
X187226474Y-112575684D01*
X187226474Y-112575684D01*
G37*
D31*
X187951258Y-112381229D03*
D10*
G36*
X187580027Y-112929237D02*
G01*
X187403250Y-112752460D01*
X188322489Y-111833221D01*
X188499266Y-112009998D01*
X187580027Y-112929237D01*
X187580027Y-112929237D01*
G37*
D31*
X187951258Y-114643971D03*
D10*
G36*
X187403250Y-114272740D02*
G01*
X187580027Y-114095963D01*
X188499266Y-115015202D01*
X188322489Y-115191979D01*
X187403250Y-114272740D01*
X187403250Y-114272740D01*
G37*
D31*
X187597705Y-114997524D03*
D10*
G36*
X187049697Y-114626293D02*
G01*
X187226474Y-114449516D01*
X188145713Y-115368755D01*
X187968936Y-115545532D01*
X187049697Y-114626293D01*
X187049697Y-114626293D01*
G37*
D31*
X187244151Y-115351078D03*
D10*
G36*
X186696143Y-114979847D02*
G01*
X186872920Y-114803070D01*
X187792159Y-115722309D01*
X187615382Y-115899086D01*
X186696143Y-114979847D01*
X186696143Y-114979847D01*
G37*
D31*
X186890598Y-115704631D03*
D10*
G36*
X186342590Y-115333400D02*
G01*
X186519367Y-115156623D01*
X187438606Y-116075862D01*
X187261829Y-116252639D01*
X186342590Y-115333400D01*
X186342590Y-115333400D01*
G37*
D31*
X186537045Y-116058184D03*
D10*
G36*
X185989037Y-115686953D02*
G01*
X186165814Y-115510176D01*
X187085053Y-116429415D01*
X186908276Y-116606192D01*
X185989037Y-115686953D01*
X185989037Y-115686953D01*
G37*
D31*
X186183491Y-116411738D03*
D10*
G36*
X185635483Y-116040507D02*
G01*
X185812260Y-115863730D01*
X186731499Y-116782969D01*
X186554722Y-116959746D01*
X185635483Y-116040507D01*
X185635483Y-116040507D01*
G37*
D31*
X185829938Y-116765291D03*
D10*
G36*
X185281930Y-116394060D02*
G01*
X185458707Y-116217283D01*
X186377946Y-117136522D01*
X186201169Y-117313299D01*
X185281930Y-116394060D01*
X185281930Y-116394060D01*
G37*
D31*
X185476384Y-117118845D03*
D10*
G36*
X184928376Y-116747614D02*
G01*
X185105153Y-116570837D01*
X186024392Y-117490076D01*
X185847615Y-117666853D01*
X184928376Y-116747614D01*
X184928376Y-116747614D01*
G37*
D31*
X185122831Y-117472398D03*
D10*
G36*
X184574823Y-117101167D02*
G01*
X184751600Y-116924390D01*
X185670839Y-117843629D01*
X185494062Y-118020406D01*
X184574823Y-117101167D01*
X184574823Y-117101167D01*
G37*
D31*
X184769278Y-117825951D03*
D10*
G36*
X184221270Y-117454720D02*
G01*
X184398047Y-117277943D01*
X185317286Y-118197182D01*
X185140509Y-118373959D01*
X184221270Y-117454720D01*
X184221270Y-117454720D01*
G37*
D31*
X184415724Y-118179505D03*
D10*
G36*
X183867716Y-117808274D02*
G01*
X184044493Y-117631497D01*
X184963732Y-118550736D01*
X184786955Y-118727513D01*
X183867716Y-117808274D01*
X183867716Y-117808274D01*
G37*
D31*
X184062171Y-118533058D03*
D10*
G36*
X183514163Y-118161827D02*
G01*
X183690940Y-117985050D01*
X184610179Y-118904289D01*
X184433402Y-119081066D01*
X183514163Y-118161827D01*
X183514163Y-118161827D01*
G37*
D31*
X181799429Y-118533058D03*
D10*
G36*
X181428198Y-119081066D02*
G01*
X181251421Y-118904289D01*
X182170660Y-117985050D01*
X182347437Y-118161827D01*
X181428198Y-119081066D01*
X181428198Y-119081066D01*
G37*
D31*
X181445876Y-118179505D03*
D10*
G36*
X181074645Y-118727513D02*
G01*
X180897868Y-118550736D01*
X181817107Y-117631497D01*
X181993884Y-117808274D01*
X181074645Y-118727513D01*
X181074645Y-118727513D01*
G37*
D31*
X181092322Y-117825951D03*
D10*
G36*
X180721091Y-118373959D02*
G01*
X180544314Y-118197182D01*
X181463553Y-117277943D01*
X181640330Y-117454720D01*
X180721091Y-118373959D01*
X180721091Y-118373959D01*
G37*
D31*
X180738769Y-117472398D03*
D10*
G36*
X180367538Y-118020406D02*
G01*
X180190761Y-117843629D01*
X181110000Y-116924390D01*
X181286777Y-117101167D01*
X180367538Y-118020406D01*
X180367538Y-118020406D01*
G37*
D31*
X180385216Y-117118845D03*
D10*
G36*
X180013985Y-117666853D02*
G01*
X179837208Y-117490076D01*
X180756447Y-116570837D01*
X180933224Y-116747614D01*
X180013985Y-117666853D01*
X180013985Y-117666853D01*
G37*
D31*
X180031662Y-116765291D03*
D10*
G36*
X179660431Y-117313299D02*
G01*
X179483654Y-117136522D01*
X180402893Y-116217283D01*
X180579670Y-116394060D01*
X179660431Y-117313299D01*
X179660431Y-117313299D01*
G37*
D31*
X179678109Y-116411738D03*
D10*
G36*
X179306878Y-116959746D02*
G01*
X179130101Y-116782969D01*
X180049340Y-115863730D01*
X180226117Y-116040507D01*
X179306878Y-116959746D01*
X179306878Y-116959746D01*
G37*
D31*
X179324555Y-116058184D03*
D10*
G36*
X178953324Y-116606192D02*
G01*
X178776547Y-116429415D01*
X179695786Y-115510176D01*
X179872563Y-115686953D01*
X178953324Y-116606192D01*
X178953324Y-116606192D01*
G37*
D31*
X178971002Y-115704631D03*
D10*
G36*
X178599771Y-116252639D02*
G01*
X178422994Y-116075862D01*
X179342233Y-115156623D01*
X179519010Y-115333400D01*
X178599771Y-116252639D01*
X178599771Y-116252639D01*
G37*
D31*
X178617449Y-115351078D03*
D10*
G36*
X178246218Y-115899086D02*
G01*
X178069441Y-115722309D01*
X178988680Y-114803070D01*
X179165457Y-114979847D01*
X178246218Y-115899086D01*
X178246218Y-115899086D01*
G37*
D31*
X178263895Y-114997524D03*
D10*
G36*
X177892664Y-115545532D02*
G01*
X177715887Y-115368755D01*
X178635126Y-114449516D01*
X178811903Y-114626293D01*
X177892664Y-115545532D01*
X177892664Y-115545532D01*
G37*
D31*
X177910342Y-114643971D03*
D10*
G36*
X177539111Y-115191979D02*
G01*
X177362334Y-115015202D01*
X178281573Y-114095963D01*
X178458350Y-114272740D01*
X177539111Y-115191979D01*
X177539111Y-115191979D01*
G37*
D31*
X177910342Y-112381229D03*
D10*
G36*
X177362334Y-112009998D02*
G01*
X177539111Y-111833221D01*
X178458350Y-112752460D01*
X178281573Y-112929237D01*
X177362334Y-112009998D01*
X177362334Y-112009998D01*
G37*
D31*
X178263895Y-112027676D03*
D10*
G36*
X177715887Y-111656445D02*
G01*
X177892664Y-111479668D01*
X178811903Y-112398907D01*
X178635126Y-112575684D01*
X177715887Y-111656445D01*
X177715887Y-111656445D01*
G37*
D31*
X178617449Y-111674122D03*
D10*
G36*
X178069441Y-111302891D02*
G01*
X178246218Y-111126114D01*
X179165457Y-112045353D01*
X178988680Y-112222130D01*
X178069441Y-111302891D01*
X178069441Y-111302891D01*
G37*
D31*
X178971002Y-111320569D03*
D10*
G36*
X178422994Y-110949338D02*
G01*
X178599771Y-110772561D01*
X179519010Y-111691800D01*
X179342233Y-111868577D01*
X178422994Y-110949338D01*
X178422994Y-110949338D01*
G37*
D31*
X179324555Y-110967016D03*
D10*
G36*
X178776547Y-110595785D02*
G01*
X178953324Y-110419008D01*
X179872563Y-111338247D01*
X179695786Y-111515024D01*
X178776547Y-110595785D01*
X178776547Y-110595785D01*
G37*
D31*
X179678109Y-110613462D03*
D10*
G36*
X179130101Y-110242231D02*
G01*
X179306878Y-110065454D01*
X180226117Y-110984693D01*
X180049340Y-111161470D01*
X179130101Y-110242231D01*
X179130101Y-110242231D01*
G37*
D31*
X180031662Y-110259909D03*
D10*
G36*
X179483654Y-109888678D02*
G01*
X179660431Y-109711901D01*
X180579670Y-110631140D01*
X180402893Y-110807917D01*
X179483654Y-109888678D01*
X179483654Y-109888678D01*
G37*
D31*
X180385216Y-109906355D03*
D10*
G36*
X179837208Y-109535124D02*
G01*
X180013985Y-109358347D01*
X180933224Y-110277586D01*
X180756447Y-110454363D01*
X179837208Y-109535124D01*
X179837208Y-109535124D01*
G37*
D31*
X180738769Y-109552802D03*
D10*
G36*
X180190761Y-109181571D02*
G01*
X180367538Y-109004794D01*
X181286777Y-109924033D01*
X181110000Y-110100810D01*
X180190761Y-109181571D01*
X180190761Y-109181571D01*
G37*
D31*
X181092322Y-109199249D03*
D10*
G36*
X180544314Y-108828018D02*
G01*
X180721091Y-108651241D01*
X181640330Y-109570480D01*
X181463553Y-109747257D01*
X180544314Y-108828018D01*
X180544314Y-108828018D01*
G37*
D31*
X181445876Y-108845695D03*
D10*
G36*
X180897868Y-108474464D02*
G01*
X181074645Y-108297687D01*
X181993884Y-109216926D01*
X181817107Y-109393703D01*
X180897868Y-108474464D01*
X180897868Y-108474464D01*
G37*
D31*
X181799429Y-108492142D03*
D10*
G36*
X181251421Y-108120911D02*
G01*
X181428198Y-107944134D01*
X182347437Y-108863373D01*
X182170660Y-109040150D01*
X181251421Y-108120911D01*
X181251421Y-108120911D01*
G37*
D32*
X187880500Y-105057300D03*
X187380500Y-105057300D03*
X186880500Y-105057300D03*
X186380500Y-105057300D03*
X185880500Y-105057300D03*
X185880500Y-100657300D03*
X186380500Y-100657300D03*
X186880500Y-100657300D03*
X187380500Y-100657300D03*
X187880500Y-100657300D03*
D33*
X201778600Y-107543600D03*
X201778600Y-108813600D03*
X201778600Y-110083600D03*
X201778600Y-111353600D03*
X201778600Y-112623600D03*
X201778600Y-113893600D03*
X201778600Y-115163600D03*
X201778600Y-116433600D03*
X201778600Y-117703600D03*
X201778600Y-118973600D03*
X201778600Y-120243600D03*
X201778600Y-121513600D03*
X192378600Y-121513600D03*
X192378600Y-120243600D03*
X192378600Y-118973600D03*
X192378600Y-117703600D03*
X192378600Y-116433600D03*
X192378600Y-115163600D03*
X192378600Y-113893600D03*
X192378600Y-112623600D03*
X192378600Y-111353600D03*
X192378600Y-110083600D03*
X192378600Y-108813600D03*
X192378600Y-107543600D03*
D34*
X212058600Y-108991400D03*
X212058600Y-110261400D03*
X212058600Y-111531400D03*
X212058600Y-112801400D03*
X212058600Y-114071400D03*
X212058600Y-115341400D03*
X212058600Y-116611400D03*
X212058600Y-117881400D03*
X204958600Y-117881400D03*
X204958600Y-116611400D03*
X204958600Y-115341400D03*
X204958600Y-114071400D03*
X204958600Y-112801400D03*
X204958600Y-111531400D03*
X204958600Y-110261400D03*
X204958600Y-108991400D03*
X222956100Y-109448600D03*
X222956100Y-110718600D03*
X222956100Y-111988600D03*
X222956100Y-113258600D03*
X222956100Y-114528600D03*
X222956100Y-115798600D03*
X222956100Y-117068600D03*
X217556100Y-117068600D03*
X217556100Y-115798600D03*
X217556100Y-114528600D03*
X217556100Y-113258600D03*
X217556100Y-111988600D03*
X217556100Y-110718600D03*
X217556100Y-109448600D03*
D35*
X178684304Y-106430696D03*
D10*
G36*
X177800421Y-108728793D02*
G01*
X176386207Y-107314579D01*
X179568187Y-104132599D01*
X180982401Y-105546813D01*
X177800421Y-108728793D01*
X177800421Y-108728793D01*
G37*
D35*
X172673896Y-112441104D03*
D10*
G36*
X171790013Y-114739201D02*
G01*
X170375799Y-113324987D01*
X173557779Y-110143007D01*
X174971993Y-111557221D01*
X171790013Y-114739201D01*
X171790013Y-114739201D01*
G37*
M02*
