%TF.GenerationSoftware,KiCad,Pcbnew,(5.1.4-0-10_14)*%
%TF.CreationDate,2019-10-07T11:49:19-07:00*%
%TF.ProjectId,OPL3_VGM_Player,4f504c33-5f56-4474-9d5f-506c61796572,rev?*%
%TF.SameCoordinates,Original*%
%TF.FileFunction,Legend,Bot*%
%TF.FilePolarity,Positive*%
%FSLAX46Y46*%
G04 Gerber Fmt 4.6, Leading zero omitted, Abs format (unit mm)*
G04 Created by KiCad (PCBNEW (5.1.4-0-10_14)) date 2019-10-07 11:49:19*
%MOMM*%
%LPD*%
G04 APERTURE LIST*
%ADD10C,0.300000*%
%ADD11C,0.150000*%
%ADD12C,0.010000*%
G04 APERTURE END LIST*
D10*
X208946428Y-133296428D02*
X208875000Y-133225000D01*
X208732142Y-133153571D01*
X208375000Y-133153571D01*
X208232142Y-133225000D01*
X208160714Y-133296428D01*
X208089285Y-133439285D01*
X208089285Y-133582142D01*
X208160714Y-133796428D01*
X209017857Y-134653571D01*
X208089285Y-134653571D01*
X207160714Y-133153571D02*
X207017857Y-133153571D01*
X206875000Y-133225000D01*
X206803571Y-133296428D01*
X206732142Y-133439285D01*
X206660714Y-133725000D01*
X206660714Y-134082142D01*
X206732142Y-134367857D01*
X206803571Y-134510714D01*
X206875000Y-134582142D01*
X207017857Y-134653571D01*
X207160714Y-134653571D01*
X207303571Y-134582142D01*
X207375000Y-134510714D01*
X207446428Y-134367857D01*
X207517857Y-134082142D01*
X207517857Y-133725000D01*
X207446428Y-133439285D01*
X207375000Y-133296428D01*
X207303571Y-133225000D01*
X207160714Y-133153571D01*
X205232142Y-134653571D02*
X206089285Y-134653571D01*
X205660714Y-134653571D02*
X205660714Y-133153571D01*
X205803571Y-133367857D01*
X205946428Y-133510714D01*
X206089285Y-133582142D01*
X204517857Y-134653571D02*
X204232142Y-134653571D01*
X204089285Y-134582142D01*
X204017857Y-134510714D01*
X203875000Y-134296428D01*
X203803571Y-134010714D01*
X203803571Y-133439285D01*
X203875000Y-133296428D01*
X203946428Y-133225000D01*
X204089285Y-133153571D01*
X204375000Y-133153571D01*
X204517857Y-133225000D01*
X204589285Y-133296428D01*
X204660714Y-133439285D01*
X204660714Y-133796428D01*
X204589285Y-133939285D01*
X204517857Y-134010714D01*
X204375000Y-134082142D01*
X204089285Y-134082142D01*
X203946428Y-134010714D01*
X203875000Y-133939285D01*
X203803571Y-133796428D01*
X214839285Y-136775000D02*
X214125000Y-136775000D01*
X214982142Y-137203571D02*
X214482142Y-135703571D01*
X213982142Y-137203571D01*
X213482142Y-137203571D02*
X213482142Y-136203571D01*
X213482142Y-135703571D02*
X213553571Y-135775000D01*
X213482142Y-135846428D01*
X213410714Y-135775000D01*
X213482142Y-135703571D01*
X213482142Y-135846428D01*
X212125000Y-137203571D02*
X212125000Y-135703571D01*
X212125000Y-137132142D02*
X212267857Y-137203571D01*
X212553571Y-137203571D01*
X212696428Y-137132142D01*
X212767857Y-137060714D01*
X212839285Y-136917857D01*
X212839285Y-136489285D01*
X212767857Y-136346428D01*
X212696428Y-136275000D01*
X212553571Y-136203571D01*
X212267857Y-136203571D01*
X212125000Y-136275000D01*
X210767857Y-137203571D02*
X210767857Y-136417857D01*
X210839285Y-136275000D01*
X210982142Y-136203571D01*
X211267857Y-136203571D01*
X211410714Y-136275000D01*
X210767857Y-137132142D02*
X210910714Y-137203571D01*
X211267857Y-137203571D01*
X211410714Y-137132142D01*
X211482142Y-136989285D01*
X211482142Y-136846428D01*
X211410714Y-136703571D01*
X211267857Y-136632142D01*
X210910714Y-136632142D01*
X210767857Y-136560714D01*
X210053571Y-136203571D02*
X210053571Y-137203571D01*
X210053571Y-136346428D02*
X209982142Y-136275000D01*
X209839285Y-136203571D01*
X209625000Y-136203571D01*
X209482142Y-136275000D01*
X209410714Y-136417857D01*
X209410714Y-137203571D01*
X206839285Y-137203571D02*
X207553571Y-137203571D01*
X207553571Y-135703571D01*
X205696428Y-137203571D02*
X205696428Y-136417857D01*
X205767857Y-136275000D01*
X205910714Y-136203571D01*
X206196428Y-136203571D01*
X206339285Y-136275000D01*
X205696428Y-137132142D02*
X205839285Y-137203571D01*
X206196428Y-137203571D01*
X206339285Y-137132142D01*
X206410714Y-136989285D01*
X206410714Y-136846428D01*
X206339285Y-136703571D01*
X206196428Y-136632142D01*
X205839285Y-136632142D01*
X205696428Y-136560714D01*
X205125000Y-136203571D02*
X204839285Y-137203571D01*
X204553571Y-136489285D01*
X204267857Y-137203571D01*
X203982142Y-136203571D01*
X203410714Y-137203571D02*
X203410714Y-136203571D01*
X203410714Y-136489285D02*
X203339285Y-136346428D01*
X203267857Y-136275000D01*
X203125000Y-136203571D01*
X202982142Y-136203571D01*
X201910714Y-137132142D02*
X202053571Y-137203571D01*
X202339285Y-137203571D01*
X202482142Y-137132142D01*
X202553571Y-136989285D01*
X202553571Y-136417857D01*
X202482142Y-136275000D01*
X202339285Y-136203571D01*
X202053571Y-136203571D01*
X201910714Y-136275000D01*
X201839285Y-136417857D01*
X201839285Y-136560714D01*
X202553571Y-136703571D01*
X201196428Y-136203571D02*
X201196428Y-137203571D01*
X201196428Y-136346428D02*
X201125000Y-136275000D01*
X200982142Y-136203571D01*
X200767857Y-136203571D01*
X200625000Y-136275000D01*
X200553571Y-136417857D01*
X200553571Y-137203571D01*
X199196428Y-137132142D02*
X199339285Y-137203571D01*
X199625000Y-137203571D01*
X199767857Y-137132142D01*
X199839285Y-137060714D01*
X199910714Y-136917857D01*
X199910714Y-136489285D01*
X199839285Y-136346428D01*
X199767857Y-136275000D01*
X199625000Y-136203571D01*
X199339285Y-136203571D01*
X199196428Y-136275000D01*
X197982142Y-137132142D02*
X198125000Y-137203571D01*
X198410714Y-137203571D01*
X198553571Y-137132142D01*
X198625000Y-136989285D01*
X198625000Y-136417857D01*
X198553571Y-136275000D01*
X198410714Y-136203571D01*
X198125000Y-136203571D01*
X197982142Y-136275000D01*
X197910714Y-136417857D01*
X197910714Y-136560714D01*
X198625000Y-136703571D01*
X219553571Y-138753571D02*
X219267857Y-139753571D01*
X218982142Y-139039285D01*
X218696428Y-139753571D01*
X218410714Y-138753571D01*
X217982142Y-138753571D02*
X217696428Y-139753571D01*
X217410714Y-139039285D01*
X217125000Y-139753571D01*
X216839285Y-138753571D01*
X216410714Y-138753571D02*
X216125000Y-139753571D01*
X215839285Y-139039285D01*
X215553571Y-139753571D01*
X215267857Y-138753571D01*
X214696428Y-139610714D02*
X214625000Y-139682142D01*
X214696428Y-139753571D01*
X214767857Y-139682142D01*
X214696428Y-139610714D01*
X214696428Y-139753571D01*
X213339285Y-139753571D02*
X213339285Y-138967857D01*
X213410714Y-138825000D01*
X213553571Y-138753571D01*
X213839285Y-138753571D01*
X213982142Y-138825000D01*
X213339285Y-139682142D02*
X213482142Y-139753571D01*
X213839285Y-139753571D01*
X213982142Y-139682142D01*
X214053571Y-139539285D01*
X214053571Y-139396428D01*
X213982142Y-139253571D01*
X213839285Y-139182142D01*
X213482142Y-139182142D01*
X213339285Y-139110714D01*
X212625000Y-139753571D02*
X212625000Y-138753571D01*
X212625000Y-138253571D02*
X212696428Y-138325000D01*
X212625000Y-138396428D01*
X212553571Y-138325000D01*
X212625000Y-138253571D01*
X212625000Y-138396428D01*
X211267857Y-139753571D02*
X211267857Y-138253571D01*
X211267857Y-139682142D02*
X211410714Y-139753571D01*
X211696428Y-139753571D01*
X211839285Y-139682142D01*
X211910714Y-139610714D01*
X211982142Y-139467857D01*
X211982142Y-139039285D01*
X211910714Y-138896428D01*
X211839285Y-138825000D01*
X211696428Y-138753571D01*
X211410714Y-138753571D01*
X211267857Y-138825000D01*
X209910714Y-139753571D02*
X209910714Y-138967857D01*
X209982142Y-138825000D01*
X210125000Y-138753571D01*
X210410714Y-138753571D01*
X210553571Y-138825000D01*
X209910714Y-139682142D02*
X210053571Y-139753571D01*
X210410714Y-139753571D01*
X210553571Y-139682142D01*
X210625000Y-139539285D01*
X210625000Y-139396428D01*
X210553571Y-139253571D01*
X210410714Y-139182142D01*
X210053571Y-139182142D01*
X209910714Y-139110714D01*
X209196428Y-138753571D02*
X209196428Y-139753571D01*
X209196428Y-138896428D02*
X209125000Y-138825000D01*
X208982142Y-138753571D01*
X208767857Y-138753571D01*
X208625000Y-138825000D01*
X208553571Y-138967857D01*
X208553571Y-139753571D01*
X207625000Y-139753571D02*
X207767857Y-139682142D01*
X207839285Y-139539285D01*
X207839285Y-138253571D01*
X206410714Y-139753571D02*
X206410714Y-138967857D01*
X206482142Y-138825000D01*
X206625000Y-138753571D01*
X206910714Y-138753571D01*
X207053571Y-138825000D01*
X206410714Y-139682142D02*
X206553571Y-139753571D01*
X206910714Y-139753571D01*
X207053571Y-139682142D01*
X207125000Y-139539285D01*
X207125000Y-139396428D01*
X207053571Y-139253571D01*
X206910714Y-139182142D01*
X206553571Y-139182142D01*
X206410714Y-139110714D01*
X205839285Y-138753571D02*
X205553571Y-139753571D01*
X205267857Y-139039285D01*
X204982142Y-139753571D01*
X204696428Y-138753571D01*
X204125000Y-139753571D02*
X204125000Y-138753571D01*
X204125000Y-139039285D02*
X204053571Y-138896428D01*
X203982142Y-138825000D01*
X203839285Y-138753571D01*
X203696428Y-138753571D01*
X202625000Y-139682142D02*
X202767857Y-139753571D01*
X203053571Y-139753571D01*
X203196428Y-139682142D01*
X203267857Y-139539285D01*
X203267857Y-138967857D01*
X203196428Y-138825000D01*
X203053571Y-138753571D01*
X202767857Y-138753571D01*
X202625000Y-138825000D01*
X202553571Y-138967857D01*
X202553571Y-139110714D01*
X203267857Y-139253571D01*
X201910714Y-138753571D02*
X201910714Y-139753571D01*
X201910714Y-138896428D02*
X201839285Y-138825000D01*
X201696428Y-138753571D01*
X201482142Y-138753571D01*
X201339285Y-138825000D01*
X201267857Y-138967857D01*
X201267857Y-139753571D01*
X199910714Y-139682142D02*
X200053571Y-139753571D01*
X200339285Y-139753571D01*
X200482142Y-139682142D01*
X200553571Y-139610714D01*
X200625000Y-139467857D01*
X200625000Y-139039285D01*
X200553571Y-138896428D01*
X200482142Y-138825000D01*
X200339285Y-138753571D01*
X200053571Y-138753571D01*
X199910714Y-138825000D01*
X198696428Y-139682142D02*
X198839285Y-139753571D01*
X199125000Y-139753571D01*
X199267857Y-139682142D01*
X199339285Y-139539285D01*
X199339285Y-138967857D01*
X199267857Y-138825000D01*
X199125000Y-138753571D01*
X198839285Y-138753571D01*
X198696428Y-138825000D01*
X198625000Y-138967857D01*
X198625000Y-139110714D01*
X199339285Y-139253571D01*
X197982142Y-139610714D02*
X197910714Y-139682142D01*
X197982142Y-139753571D01*
X198053571Y-139682142D01*
X197982142Y-139610714D01*
X197982142Y-139753571D01*
X196625000Y-139682142D02*
X196767857Y-139753571D01*
X197053571Y-139753571D01*
X197196428Y-139682142D01*
X197267857Y-139610714D01*
X197339285Y-139467857D01*
X197339285Y-139039285D01*
X197267857Y-138896428D01*
X197196428Y-138825000D01*
X197053571Y-138753571D01*
X196767857Y-138753571D01*
X196625000Y-138825000D01*
X195767857Y-139753571D02*
X195910714Y-139682142D01*
X195982142Y-139610714D01*
X196053571Y-139467857D01*
X196053571Y-139039285D01*
X195982142Y-138896428D01*
X195910714Y-138825000D01*
X195767857Y-138753571D01*
X195553571Y-138753571D01*
X195410714Y-138825000D01*
X195339285Y-138896428D01*
X195267857Y-139039285D01*
X195267857Y-139467857D01*
X195339285Y-139610714D01*
X195410714Y-139682142D01*
X195553571Y-139753571D01*
X195767857Y-139753571D01*
X194625000Y-139753571D02*
X194625000Y-138753571D01*
X194625000Y-138896428D02*
X194553571Y-138825000D01*
X194410714Y-138753571D01*
X194196428Y-138753571D01*
X194053571Y-138825000D01*
X193982142Y-138967857D01*
X193982142Y-139753571D01*
X193982142Y-138967857D02*
X193910714Y-138825000D01*
X193767857Y-138753571D01*
X193553571Y-138753571D01*
X193410714Y-138825000D01*
X193339285Y-138967857D01*
X193339285Y-139753571D01*
D11*
X153670000Y-140970000D02*
X226060000Y-140970000D01*
X149860000Y-87630000D02*
X149860000Y-137160000D01*
X226060000Y-83820000D02*
X153670000Y-83820000D01*
X229870000Y-137160000D02*
X229870000Y-87630000D01*
X229870000Y-137160000D02*
G75*
G02X226060000Y-140970000I-3810000J0D01*
G01*
X153670000Y-140970000D02*
G75*
G02X149860000Y-137160000I0J3810000D01*
G01*
X149860000Y-87630000D02*
G75*
G02X153670000Y-83820000I3810000J0D01*
G01*
X226060000Y-83820000D02*
G75*
G02X229870000Y-87630000I0J-3810000D01*
G01*
D12*
G36*
X157889871Y-101686602D02*
G01*
X157345563Y-101692052D01*
X156877288Y-101700476D01*
X156509267Y-101711337D01*
X156265720Y-101724095D01*
X156174591Y-101736058D01*
X156116275Y-101784152D01*
X156077278Y-101893994D01*
X156054054Y-102093535D01*
X156043054Y-102410726D01*
X156040666Y-102791412D01*
X156043128Y-103222507D01*
X156053584Y-103515015D01*
X156076642Y-103699653D01*
X156116910Y-103807133D01*
X156178996Y-103868169D01*
X156204434Y-103883021D01*
X156353305Y-103918786D01*
X156629003Y-103947509D01*
X156989058Y-103965806D01*
X157305100Y-103970666D01*
X158242000Y-103970666D01*
X158242000Y-105325333D01*
X157402258Y-105325333D01*
X157029574Y-105330317D01*
X156711950Y-105343719D01*
X156493435Y-105363213D01*
X156428591Y-105376725D01*
X156368751Y-105426436D01*
X156329317Y-105539965D01*
X156306443Y-105746014D01*
X156296280Y-106073282D01*
X156294666Y-106375791D01*
X156304614Y-106879315D01*
X156334165Y-107224583D01*
X156382882Y-107407073D01*
X156396266Y-107425066D01*
X156541646Y-107478654D01*
X156844976Y-107512812D01*
X157295870Y-107526455D01*
X157369933Y-107526666D01*
X158242000Y-107526666D01*
X158242000Y-108966000D01*
X157242933Y-108966000D01*
X156717704Y-108975491D01*
X156358360Y-109003902D01*
X156165960Y-109051133D01*
X156142266Y-109067600D01*
X156089736Y-109213377D01*
X156056048Y-109525811D01*
X156041357Y-110003260D01*
X156040666Y-110159208D01*
X156044178Y-110594348D01*
X156057125Y-110888389D01*
X156083126Y-111069463D01*
X156125798Y-111165704D01*
X156174591Y-111200608D01*
X156292981Y-111214558D01*
X156556480Y-111227069D01*
X156940870Y-111237603D01*
X157421927Y-111245621D01*
X157975433Y-111250584D01*
X158485991Y-111252000D01*
X159217981Y-111249443D01*
X159793032Y-111241408D01*
X160223467Y-111227344D01*
X160521609Y-111206703D01*
X160699781Y-111178935D01*
X160765066Y-111150400D01*
X160788403Y-111044191D01*
X160808958Y-110787713D01*
X160826733Y-110400007D01*
X160841726Y-109900114D01*
X160853939Y-109307074D01*
X160863372Y-108639928D01*
X160870023Y-107917719D01*
X160873893Y-107159486D01*
X160874983Y-106384271D01*
X160873292Y-105611115D01*
X160868820Y-104859059D01*
X160861567Y-104147144D01*
X160851534Y-103494410D01*
X160838720Y-102919900D01*
X160823124Y-102442654D01*
X160804749Y-102081713D01*
X160783592Y-101856118D01*
X160765067Y-101786266D01*
X160676244Y-101752231D01*
X160477576Y-101725774D01*
X160156741Y-101706347D01*
X159701414Y-101693399D01*
X159099273Y-101686381D01*
X158485991Y-101684666D01*
X157889871Y-101686602D01*
X157889871Y-101686602D01*
G37*
X157889871Y-101686602D02*
X157345563Y-101692052D01*
X156877288Y-101700476D01*
X156509267Y-101711337D01*
X156265720Y-101724095D01*
X156174591Y-101736058D01*
X156116275Y-101784152D01*
X156077278Y-101893994D01*
X156054054Y-102093535D01*
X156043054Y-102410726D01*
X156040666Y-102791412D01*
X156043128Y-103222507D01*
X156053584Y-103515015D01*
X156076642Y-103699653D01*
X156116910Y-103807133D01*
X156178996Y-103868169D01*
X156204434Y-103883021D01*
X156353305Y-103918786D01*
X156629003Y-103947509D01*
X156989058Y-103965806D01*
X157305100Y-103970666D01*
X158242000Y-103970666D01*
X158242000Y-105325333D01*
X157402258Y-105325333D01*
X157029574Y-105330317D01*
X156711950Y-105343719D01*
X156493435Y-105363213D01*
X156428591Y-105376725D01*
X156368751Y-105426436D01*
X156329317Y-105539965D01*
X156306443Y-105746014D01*
X156296280Y-106073282D01*
X156294666Y-106375791D01*
X156304614Y-106879315D01*
X156334165Y-107224583D01*
X156382882Y-107407073D01*
X156396266Y-107425066D01*
X156541646Y-107478654D01*
X156844976Y-107512812D01*
X157295870Y-107526455D01*
X157369933Y-107526666D01*
X158242000Y-107526666D01*
X158242000Y-108966000D01*
X157242933Y-108966000D01*
X156717704Y-108975491D01*
X156358360Y-109003902D01*
X156165960Y-109051133D01*
X156142266Y-109067600D01*
X156089736Y-109213377D01*
X156056048Y-109525811D01*
X156041357Y-110003260D01*
X156040666Y-110159208D01*
X156044178Y-110594348D01*
X156057125Y-110888389D01*
X156083126Y-111069463D01*
X156125798Y-111165704D01*
X156174591Y-111200608D01*
X156292981Y-111214558D01*
X156556480Y-111227069D01*
X156940870Y-111237603D01*
X157421927Y-111245621D01*
X157975433Y-111250584D01*
X158485991Y-111252000D01*
X159217981Y-111249443D01*
X159793032Y-111241408D01*
X160223467Y-111227344D01*
X160521609Y-111206703D01*
X160699781Y-111178935D01*
X160765066Y-111150400D01*
X160788403Y-111044191D01*
X160808958Y-110787713D01*
X160826733Y-110400007D01*
X160841726Y-109900114D01*
X160853939Y-109307074D01*
X160863372Y-108639928D01*
X160870023Y-107917719D01*
X160873893Y-107159486D01*
X160874983Y-106384271D01*
X160873292Y-105611115D01*
X160868820Y-104859059D01*
X160861567Y-104147144D01*
X160851534Y-103494410D01*
X160838720Y-102919900D01*
X160823124Y-102442654D01*
X160804749Y-102081713D01*
X160783592Y-101856118D01*
X160765067Y-101786266D01*
X160676244Y-101752231D01*
X160477576Y-101725774D01*
X160156741Y-101706347D01*
X159701414Y-101693399D01*
X159099273Y-101686381D01*
X158485991Y-101684666D01*
X157889871Y-101686602D01*
G36*
X166776050Y-101690598D02*
G01*
X166438499Y-101709721D01*
X166229671Y-101744023D01*
X166129445Y-101795495D01*
X166128334Y-101796804D01*
X166091407Y-101926462D01*
X166059932Y-102211210D01*
X166034894Y-102636867D01*
X166017281Y-103189250D01*
X166012134Y-103468971D01*
X165989000Y-105029000D01*
X164803666Y-105029000D01*
X164780568Y-103424136D01*
X164767931Y-102803834D01*
X164749580Y-102339607D01*
X164724513Y-102018260D01*
X164691726Y-101826599D01*
X164653568Y-101753265D01*
X164525998Y-101725507D01*
X164270308Y-101705528D01*
X163927533Y-101693300D01*
X163538705Y-101688793D01*
X163144859Y-101691978D01*
X162787029Y-101702826D01*
X162506247Y-101721310D01*
X162343549Y-101747398D01*
X162326442Y-101754907D01*
X162302683Y-101803238D01*
X162282882Y-101922922D01*
X162266840Y-102125138D01*
X162254358Y-102421066D01*
X162245237Y-102821887D01*
X162239279Y-103338780D01*
X162236285Y-103982926D01*
X162236055Y-104765503D01*
X162238392Y-105697694D01*
X162241776Y-106516111D01*
X162263666Y-111209666D01*
X163322000Y-111234137D01*
X163783101Y-111249325D01*
X164134234Y-111257636D01*
X164390473Y-111239339D01*
X164566892Y-111174702D01*
X164678567Y-111043993D01*
X164740573Y-110827480D01*
X164767985Y-110505433D01*
X164775877Y-110058118D01*
X164779325Y-109465805D01*
X164780852Y-109324633D01*
X164803666Y-107484333D01*
X165417500Y-107459457D01*
X166031333Y-107434581D01*
X166031333Y-109241690D01*
X166034708Y-109911471D01*
X166045264Y-110424249D01*
X166063651Y-110792226D01*
X166090520Y-111027606D01*
X166126519Y-111142594D01*
X166132933Y-111150400D01*
X166248895Y-111185734D01*
X166494007Y-111214750D01*
X166828844Y-111236701D01*
X167213978Y-111250840D01*
X167609982Y-111256418D01*
X167977431Y-111252688D01*
X168276897Y-111238903D01*
X168468954Y-111214316D01*
X168514889Y-111195555D01*
X168525431Y-111102671D01*
X168535332Y-110855954D01*
X168544409Y-110470904D01*
X168552475Y-109963019D01*
X168559347Y-109347799D01*
X168564839Y-108640743D01*
X168568765Y-107857352D01*
X168570943Y-107013124D01*
X168571333Y-106463280D01*
X168570950Y-105447632D01*
X168569553Y-104588312D01*
X168566776Y-103872315D01*
X168562249Y-103286636D01*
X168555604Y-102818272D01*
X168546473Y-102454217D01*
X168534487Y-102181467D01*
X168519278Y-101987018D01*
X168500477Y-101857866D01*
X168477715Y-101781005D01*
X168450626Y-101743431D01*
X168437408Y-101736058D01*
X168304070Y-101716175D01*
X168039512Y-101699872D01*
X167681838Y-101688814D01*
X167269152Y-101684667D01*
X167262442Y-101684666D01*
X166776050Y-101690598D01*
X166776050Y-101690598D01*
G37*
X166776050Y-101690598D02*
X166438499Y-101709721D01*
X166229671Y-101744023D01*
X166129445Y-101795495D01*
X166128334Y-101796804D01*
X166091407Y-101926462D01*
X166059932Y-102211210D01*
X166034894Y-102636867D01*
X166017281Y-103189250D01*
X166012134Y-103468971D01*
X165989000Y-105029000D01*
X164803666Y-105029000D01*
X164780568Y-103424136D01*
X164767931Y-102803834D01*
X164749580Y-102339607D01*
X164724513Y-102018260D01*
X164691726Y-101826599D01*
X164653568Y-101753265D01*
X164525998Y-101725507D01*
X164270308Y-101705528D01*
X163927533Y-101693300D01*
X163538705Y-101688793D01*
X163144859Y-101691978D01*
X162787029Y-101702826D01*
X162506247Y-101721310D01*
X162343549Y-101747398D01*
X162326442Y-101754907D01*
X162302683Y-101803238D01*
X162282882Y-101922922D01*
X162266840Y-102125138D01*
X162254358Y-102421066D01*
X162245237Y-102821887D01*
X162239279Y-103338780D01*
X162236285Y-103982926D01*
X162236055Y-104765503D01*
X162238392Y-105697694D01*
X162241776Y-106516111D01*
X162263666Y-111209666D01*
X163322000Y-111234137D01*
X163783101Y-111249325D01*
X164134234Y-111257636D01*
X164390473Y-111239339D01*
X164566892Y-111174702D01*
X164678567Y-111043993D01*
X164740573Y-110827480D01*
X164767985Y-110505433D01*
X164775877Y-110058118D01*
X164779325Y-109465805D01*
X164780852Y-109324633D01*
X164803666Y-107484333D01*
X165417500Y-107459457D01*
X166031333Y-107434581D01*
X166031333Y-109241690D01*
X166034708Y-109911471D01*
X166045264Y-110424249D01*
X166063651Y-110792226D01*
X166090520Y-111027606D01*
X166126519Y-111142594D01*
X166132933Y-111150400D01*
X166248895Y-111185734D01*
X166494007Y-111214750D01*
X166828844Y-111236701D01*
X167213978Y-111250840D01*
X167609982Y-111256418D01*
X167977431Y-111252688D01*
X168276897Y-111238903D01*
X168468954Y-111214316D01*
X168514889Y-111195555D01*
X168525431Y-111102671D01*
X168535332Y-110855954D01*
X168544409Y-110470904D01*
X168552475Y-109963019D01*
X168559347Y-109347799D01*
X168564839Y-108640743D01*
X168568765Y-107857352D01*
X168570943Y-107013124D01*
X168571333Y-106463280D01*
X168570950Y-105447632D01*
X168569553Y-104588312D01*
X168566776Y-103872315D01*
X168562249Y-103286636D01*
X168555604Y-102818272D01*
X168546473Y-102454217D01*
X168534487Y-102181467D01*
X168519278Y-101987018D01*
X168500477Y-101857866D01*
X168477715Y-101781005D01*
X168450626Y-101743431D01*
X168437408Y-101736058D01*
X168304070Y-101716175D01*
X168039512Y-101699872D01*
X167681838Y-101688814D01*
X167269152Y-101684667D01*
X167262442Y-101684666D01*
X166776050Y-101690598D01*
G36*
X171337896Y-101682577D02*
G01*
X170798353Y-101692346D01*
X170321557Y-101707167D01*
X169933285Y-101727040D01*
X169659318Y-101751963D01*
X169525432Y-101781938D01*
X169519600Y-101786266D01*
X169480558Y-101906393D01*
X169449550Y-102152653D01*
X169427632Y-102481990D01*
X169415857Y-102851349D01*
X169415280Y-103217673D01*
X169426954Y-103537907D01*
X169451935Y-103768994D01*
X169469392Y-103836741D01*
X169535431Y-103909650D01*
X169686461Y-103951448D01*
X169956300Y-103968923D01*
X170136358Y-103970666D01*
X170543115Y-103988497D01*
X170785100Y-104042070D01*
X170846016Y-104084030D01*
X170872912Y-104188074D01*
X170896194Y-104434079D01*
X170916014Y-104826788D01*
X170932525Y-105370944D01*
X170945880Y-106071293D01*
X170956229Y-106932578D01*
X170962216Y-107703530D01*
X170984333Y-111209666D01*
X172136216Y-111233142D01*
X172630254Y-111239181D01*
X172979336Y-111232697D01*
X173207495Y-111211913D01*
X173338767Y-111175053D01*
X173384099Y-111140945D01*
X173411076Y-111043514D01*
X173434330Y-110816470D01*
X173454075Y-110453181D01*
X173470529Y-109947016D01*
X173483908Y-109291342D01*
X173494428Y-108479528D01*
X173502216Y-107519136D01*
X173524333Y-104013000D01*
X174156862Y-103987746D01*
X174499870Y-103961012D01*
X174744938Y-103915564D01*
X174854066Y-103860746D01*
X174889735Y-103719332D01*
X174912082Y-103457781D01*
X174921821Y-103119218D01*
X174919664Y-102746773D01*
X174906326Y-102383570D01*
X174882520Y-102072738D01*
X174848960Y-101857404D01*
X174819733Y-101786266D01*
X174706234Y-101755625D01*
X174449255Y-101730036D01*
X174074575Y-101709498D01*
X173607972Y-101694011D01*
X173075225Y-101683575D01*
X172502110Y-101678191D01*
X171914408Y-101677858D01*
X171337896Y-101682577D01*
X171337896Y-101682577D01*
G37*
X171337896Y-101682577D02*
X170798353Y-101692346D01*
X170321557Y-101707167D01*
X169933285Y-101727040D01*
X169659318Y-101751963D01*
X169525432Y-101781938D01*
X169519600Y-101786266D01*
X169480558Y-101906393D01*
X169449550Y-102152653D01*
X169427632Y-102481990D01*
X169415857Y-102851349D01*
X169415280Y-103217673D01*
X169426954Y-103537907D01*
X169451935Y-103768994D01*
X169469392Y-103836741D01*
X169535431Y-103909650D01*
X169686461Y-103951448D01*
X169956300Y-103968923D01*
X170136358Y-103970666D01*
X170543115Y-103988497D01*
X170785100Y-104042070D01*
X170846016Y-104084030D01*
X170872912Y-104188074D01*
X170896194Y-104434079D01*
X170916014Y-104826788D01*
X170932525Y-105370944D01*
X170945880Y-106071293D01*
X170956229Y-106932578D01*
X170962216Y-107703530D01*
X170984333Y-111209666D01*
X172136216Y-111233142D01*
X172630254Y-111239181D01*
X172979336Y-111232697D01*
X173207495Y-111211913D01*
X173338767Y-111175053D01*
X173384099Y-111140945D01*
X173411076Y-111043514D01*
X173434330Y-110816470D01*
X173454075Y-110453181D01*
X173470529Y-109947016D01*
X173483908Y-109291342D01*
X173494428Y-108479528D01*
X173502216Y-107519136D01*
X173524333Y-104013000D01*
X174156862Y-103987746D01*
X174499870Y-103961012D01*
X174744938Y-103915564D01*
X174854066Y-103860746D01*
X174889735Y-103719332D01*
X174912082Y-103457781D01*
X174921821Y-103119218D01*
X174919664Y-102746773D01*
X174906326Y-102383570D01*
X174882520Y-102072738D01*
X174848960Y-101857404D01*
X174819733Y-101786266D01*
X174706234Y-101755625D01*
X174449255Y-101730036D01*
X174074575Y-101709498D01*
X173607972Y-101694011D01*
X173075225Y-101683575D01*
X172502110Y-101678191D01*
X171914408Y-101677858D01*
X171337896Y-101682577D01*
G36*
X178814159Y-101700863D02*
G01*
X178457724Y-101707693D01*
X178227958Y-101717872D01*
X178159833Y-101725923D01*
X178080497Y-101752689D01*
X178026937Y-101806371D01*
X177994098Y-101916017D01*
X177976923Y-102110674D01*
X177970355Y-102419389D01*
X177969333Y-102820221D01*
X177972530Y-103269048D01*
X177984345Y-103576026D01*
X178008118Y-103768557D01*
X178047188Y-103874045D01*
X178103258Y-103919274D01*
X178242061Y-103941288D01*
X178506133Y-103958589D01*
X178851426Y-103968853D01*
X179076925Y-103970666D01*
X179916666Y-103970666D01*
X179916666Y-105325333D01*
X179086933Y-105325333D01*
X178635193Y-105336490D01*
X178322244Y-105368933D01*
X178162218Y-105421122D01*
X178155600Y-105426933D01*
X178102234Y-105572452D01*
X178068184Y-105877989D01*
X178054295Y-106335238D01*
X178054000Y-106426000D01*
X178064432Y-106907829D01*
X178095167Y-107239335D01*
X178145358Y-107412214D01*
X178155600Y-107425066D01*
X178300665Y-107479015D01*
X178599967Y-107513363D01*
X179039377Y-107526567D01*
X179086933Y-107526666D01*
X179916666Y-107526666D01*
X179916666Y-109287733D01*
X179920178Y-109949542D01*
X179931155Y-110454282D01*
X179950257Y-110814081D01*
X179978147Y-111041067D01*
X180015487Y-111147368D01*
X180018266Y-111150400D01*
X180143077Y-111194703D01*
X180391818Y-111227254D01*
X180726552Y-111248120D01*
X181109345Y-111257368D01*
X181502262Y-111255065D01*
X181867369Y-111241278D01*
X182166729Y-111216073D01*
X182362409Y-111179518D01*
X182417818Y-111146166D01*
X182425017Y-111043810D01*
X182431022Y-110787874D01*
X182435771Y-110394110D01*
X182439204Y-109878268D01*
X182441260Y-109256098D01*
X182441877Y-108543351D01*
X182440993Y-107755777D01*
X182438549Y-106909127D01*
X182436327Y-106383666D01*
X182414333Y-101727000D01*
X180382333Y-101703144D01*
X179802576Y-101698321D01*
X179271147Y-101697650D01*
X178814159Y-101700863D01*
X178814159Y-101700863D01*
G37*
X178814159Y-101700863D02*
X178457724Y-101707693D01*
X178227958Y-101717872D01*
X178159833Y-101725923D01*
X178080497Y-101752689D01*
X178026937Y-101806371D01*
X177994098Y-101916017D01*
X177976923Y-102110674D01*
X177970355Y-102419389D01*
X177969333Y-102820221D01*
X177972530Y-103269048D01*
X177984345Y-103576026D01*
X178008118Y-103768557D01*
X178047188Y-103874045D01*
X178103258Y-103919274D01*
X178242061Y-103941288D01*
X178506133Y-103958589D01*
X178851426Y-103968853D01*
X179076925Y-103970666D01*
X179916666Y-103970666D01*
X179916666Y-105325333D01*
X179086933Y-105325333D01*
X178635193Y-105336490D01*
X178322244Y-105368933D01*
X178162218Y-105421122D01*
X178155600Y-105426933D01*
X178102234Y-105572452D01*
X178068184Y-105877989D01*
X178054295Y-106335238D01*
X178054000Y-106426000D01*
X178064432Y-106907829D01*
X178095167Y-107239335D01*
X178145358Y-107412214D01*
X178155600Y-107425066D01*
X178300665Y-107479015D01*
X178599967Y-107513363D01*
X179039377Y-107526567D01*
X179086933Y-107526666D01*
X179916666Y-107526666D01*
X179916666Y-109287733D01*
X179920178Y-109949542D01*
X179931155Y-110454282D01*
X179950257Y-110814081D01*
X179978147Y-111041067D01*
X180015487Y-111147368D01*
X180018266Y-111150400D01*
X180143077Y-111194703D01*
X180391818Y-111227254D01*
X180726552Y-111248120D01*
X181109345Y-111257368D01*
X181502262Y-111255065D01*
X181867369Y-111241278D01*
X182166729Y-111216073D01*
X182362409Y-111179518D01*
X182417818Y-111146166D01*
X182425017Y-111043810D01*
X182431022Y-110787874D01*
X182435771Y-110394110D01*
X182439204Y-109878268D01*
X182441260Y-109256098D01*
X182441877Y-108543351D01*
X182440993Y-107755777D01*
X182438549Y-106909127D01*
X182436327Y-106383666D01*
X182414333Y-101727000D01*
X180382333Y-101703144D01*
X179802576Y-101698321D01*
X179271147Y-101697650D01*
X178814159Y-101700863D01*
G36*
X196121640Y-101685249D02*
G01*
X195599095Y-101687935D01*
X195206276Y-101694125D01*
X194923377Y-101705224D01*
X194730596Y-101722634D01*
X194608128Y-101747759D01*
X194536171Y-101782001D01*
X194494920Y-101826764D01*
X194482312Y-101848433D01*
X194442183Y-102009870D01*
X194414849Y-102288973D01*
X194400431Y-102638507D01*
X194399049Y-103011237D01*
X194410827Y-103359930D01*
X194435885Y-103637350D01*
X194474344Y-103796262D01*
X194477291Y-103801333D01*
X194554766Y-103859753D01*
X194719122Y-103903579D01*
X194994822Y-103936507D01*
X195406330Y-103962235D01*
X195597828Y-103970666D01*
X196638333Y-104013000D01*
X196638333Y-105283000D01*
X195754223Y-105307308D01*
X195375481Y-105325860D01*
X195054808Y-105356642D01*
X194833384Y-105394845D01*
X194759390Y-105423508D01*
X194703813Y-105534783D01*
X194668356Y-105770194D01*
X194651098Y-106147135D01*
X194648666Y-106425999D01*
X194656588Y-106889641D01*
X194681635Y-107202029D01*
X194725727Y-107380556D01*
X194759390Y-107428491D01*
X194886542Y-107469029D01*
X195141849Y-107505523D01*
X195484133Y-107533164D01*
X195754223Y-107544691D01*
X196638333Y-107569000D01*
X196638333Y-108923666D01*
X195622333Y-108946560D01*
X195173535Y-108960648D01*
X194864798Y-108981950D01*
X194666873Y-109014748D01*
X194550513Y-109063329D01*
X194500500Y-109110909D01*
X194451853Y-109262013D01*
X194417754Y-109534945D01*
X194398636Y-109882787D01*
X194394930Y-110258623D01*
X194407067Y-110615537D01*
X194435479Y-110906613D01*
X194480598Y-111084932D01*
X194482312Y-111088232D01*
X194516566Y-111137715D01*
X194573105Y-111176000D01*
X194671757Y-111204436D01*
X194832350Y-111224374D01*
X195074710Y-111237163D01*
X195418666Y-111244154D01*
X195884044Y-111246696D01*
X196490672Y-111246140D01*
X196789479Y-111245315D01*
X197389508Y-111241946D01*
X197936098Y-111235898D01*
X198405679Y-111227674D01*
X198774684Y-111217772D01*
X199019544Y-111206695D01*
X199114833Y-111195926D01*
X199138600Y-111104253D01*
X199159642Y-110861993D01*
X199177952Y-110487873D01*
X199193520Y-110000618D01*
X199206339Y-109418953D01*
X199216400Y-108761604D01*
X199223694Y-108047297D01*
X199228213Y-107294756D01*
X199229949Y-106522708D01*
X199228893Y-105749877D01*
X199225037Y-104994990D01*
X199218373Y-104276772D01*
X199208891Y-103613948D01*
X199196584Y-103025244D01*
X199181443Y-102529385D01*
X199163460Y-102145097D01*
X199142626Y-101891105D01*
X199119067Y-101786266D01*
X199031108Y-101752592D01*
X198834154Y-101726333D01*
X198515902Y-101706950D01*
X198064052Y-101693907D01*
X197466304Y-101686666D01*
X196793712Y-101684666D01*
X196121640Y-101685249D01*
X196121640Y-101685249D01*
G37*
X196121640Y-101685249D02*
X195599095Y-101687935D01*
X195206276Y-101694125D01*
X194923377Y-101705224D01*
X194730596Y-101722634D01*
X194608128Y-101747759D01*
X194536171Y-101782001D01*
X194494920Y-101826764D01*
X194482312Y-101848433D01*
X194442183Y-102009870D01*
X194414849Y-102288973D01*
X194400431Y-102638507D01*
X194399049Y-103011237D01*
X194410827Y-103359930D01*
X194435885Y-103637350D01*
X194474344Y-103796262D01*
X194477291Y-103801333D01*
X194554766Y-103859753D01*
X194719122Y-103903579D01*
X194994822Y-103936507D01*
X195406330Y-103962235D01*
X195597828Y-103970666D01*
X196638333Y-104013000D01*
X196638333Y-105283000D01*
X195754223Y-105307308D01*
X195375481Y-105325860D01*
X195054808Y-105356642D01*
X194833384Y-105394845D01*
X194759390Y-105423508D01*
X194703813Y-105534783D01*
X194668356Y-105770194D01*
X194651098Y-106147135D01*
X194648666Y-106425999D01*
X194656588Y-106889641D01*
X194681635Y-107202029D01*
X194725727Y-107380556D01*
X194759390Y-107428491D01*
X194886542Y-107469029D01*
X195141849Y-107505523D01*
X195484133Y-107533164D01*
X195754223Y-107544691D01*
X196638333Y-107569000D01*
X196638333Y-108923666D01*
X195622333Y-108946560D01*
X195173535Y-108960648D01*
X194864798Y-108981950D01*
X194666873Y-109014748D01*
X194550513Y-109063329D01*
X194500500Y-109110909D01*
X194451853Y-109262013D01*
X194417754Y-109534945D01*
X194398636Y-109882787D01*
X194394930Y-110258623D01*
X194407067Y-110615537D01*
X194435479Y-110906613D01*
X194480598Y-111084932D01*
X194482312Y-111088232D01*
X194516566Y-111137715D01*
X194573105Y-111176000D01*
X194671757Y-111204436D01*
X194832350Y-111224374D01*
X195074710Y-111237163D01*
X195418666Y-111244154D01*
X195884044Y-111246696D01*
X196490672Y-111246140D01*
X196789479Y-111245315D01*
X197389508Y-111241946D01*
X197936098Y-111235898D01*
X198405679Y-111227674D01*
X198774684Y-111217772D01*
X199019544Y-111206695D01*
X199114833Y-111195926D01*
X199138600Y-111104253D01*
X199159642Y-110861993D01*
X199177952Y-110487873D01*
X199193520Y-110000618D01*
X199206339Y-109418953D01*
X199216400Y-108761604D01*
X199223694Y-108047297D01*
X199228213Y-107294756D01*
X199229949Y-106522708D01*
X199228893Y-105749877D01*
X199225037Y-104994990D01*
X199218373Y-104276772D01*
X199208891Y-103613948D01*
X199196584Y-103025244D01*
X199181443Y-102529385D01*
X199163460Y-102145097D01*
X199142626Y-101891105D01*
X199119067Y-101786266D01*
X199031108Y-101752592D01*
X198834154Y-101726333D01*
X198515902Y-101706950D01*
X198064052Y-101693907D01*
X197466304Y-101686666D01*
X196793712Y-101684666D01*
X196121640Y-101685249D01*
G36*
X208219442Y-101683747D02*
G01*
X207833953Y-101696673D01*
X207494441Y-101718245D01*
X207241163Y-101747588D01*
X207114374Y-101783824D01*
X207111600Y-101786266D01*
X207088264Y-101892475D01*
X207067708Y-102148952D01*
X207049934Y-102536659D01*
X207034940Y-103036552D01*
X207022727Y-103629592D01*
X207013295Y-104296737D01*
X207006643Y-105018947D01*
X207002773Y-105777180D01*
X207001683Y-106552395D01*
X207003374Y-107325551D01*
X207007846Y-108077607D01*
X207015099Y-108789522D01*
X207025132Y-109442255D01*
X207037947Y-110016766D01*
X207053542Y-110494012D01*
X207071918Y-110854953D01*
X207093075Y-111080548D01*
X207111600Y-111150400D01*
X207227562Y-111185734D01*
X207472674Y-111214750D01*
X207807510Y-111236701D01*
X208192644Y-111250840D01*
X208588649Y-111256418D01*
X208956097Y-111252688D01*
X209255564Y-111238903D01*
X209447620Y-111214316D01*
X209493555Y-111195555D01*
X209504097Y-111102671D01*
X209513999Y-110855954D01*
X209523076Y-110470904D01*
X209531142Y-109963019D01*
X209538014Y-109347799D01*
X209543505Y-108640743D01*
X209547432Y-107857352D01*
X209549610Y-107013124D01*
X209550000Y-106463280D01*
X209549616Y-105447632D01*
X209548220Y-104588312D01*
X209545443Y-103872315D01*
X209540916Y-103286636D01*
X209534271Y-102818272D01*
X209525140Y-102454217D01*
X209513154Y-102181467D01*
X209497944Y-101987018D01*
X209479143Y-101857866D01*
X209456382Y-101781005D01*
X209429293Y-101743431D01*
X209416075Y-101736058D01*
X209249226Y-101705624D01*
X208967334Y-101687346D01*
X208610655Y-101680346D01*
X208219442Y-101683747D01*
X208219442Y-101683747D01*
G37*
X208219442Y-101683747D02*
X207833953Y-101696673D01*
X207494441Y-101718245D01*
X207241163Y-101747588D01*
X207114374Y-101783824D01*
X207111600Y-101786266D01*
X207088264Y-101892475D01*
X207067708Y-102148952D01*
X207049934Y-102536659D01*
X207034940Y-103036552D01*
X207022727Y-103629592D01*
X207013295Y-104296737D01*
X207006643Y-105018947D01*
X207002773Y-105777180D01*
X207001683Y-106552395D01*
X207003374Y-107325551D01*
X207007846Y-108077607D01*
X207015099Y-108789522D01*
X207025132Y-109442255D01*
X207037947Y-110016766D01*
X207053542Y-110494012D01*
X207071918Y-110854953D01*
X207093075Y-111080548D01*
X207111600Y-111150400D01*
X207227562Y-111185734D01*
X207472674Y-111214750D01*
X207807510Y-111236701D01*
X208192644Y-111250840D01*
X208588649Y-111256418D01*
X208956097Y-111252688D01*
X209255564Y-111238903D01*
X209447620Y-111214316D01*
X209493555Y-111195555D01*
X209504097Y-111102671D01*
X209513999Y-110855954D01*
X209523076Y-110470904D01*
X209531142Y-109963019D01*
X209538014Y-109347799D01*
X209543505Y-108640743D01*
X209547432Y-107857352D01*
X209549610Y-107013124D01*
X209550000Y-106463280D01*
X209549616Y-105447632D01*
X209548220Y-104588312D01*
X209545443Y-103872315D01*
X209540916Y-103286636D01*
X209534271Y-102818272D01*
X209525140Y-102454217D01*
X209513154Y-102181467D01*
X209497944Y-101987018D01*
X209479143Y-101857866D01*
X209456382Y-101781005D01*
X209429293Y-101743431D01*
X209416075Y-101736058D01*
X209249226Y-101705624D01*
X208967334Y-101687346D01*
X208610655Y-101680346D01*
X208219442Y-101683747D01*
G36*
X219140687Y-101687719D02*
G01*
X218767862Y-101703679D01*
X218521715Y-101742749D01*
X218380929Y-101815131D01*
X218324187Y-101931027D01*
X218330172Y-102100639D01*
X218370431Y-102302573D01*
X218408708Y-102459521D01*
X218478647Y-102729635D01*
X218582103Y-103119791D01*
X218720931Y-103636866D01*
X218896987Y-104287735D01*
X219112128Y-105079275D01*
X219368208Y-106018363D01*
X219667084Y-107111874D01*
X219757414Y-107442000D01*
X219843784Y-107753273D01*
X219924910Y-108038667D01*
X219960939Y-108161666D01*
X220009084Y-108329575D01*
X220091973Y-108626098D01*
X220199961Y-109016436D01*
X220323404Y-109465792D01*
X220395076Y-109728000D01*
X220521779Y-110180830D01*
X220639302Y-110579661D01*
X220738226Y-110894095D01*
X220809130Y-111093736D01*
X220834599Y-111146166D01*
X220929955Y-111192460D01*
X221143660Y-111224630D01*
X221491374Y-111243956D01*
X221988754Y-111251716D01*
X222130388Y-111252000D01*
X222609330Y-111250373D01*
X222946635Y-111243120D01*
X223169989Y-111226682D01*
X223307075Y-111197501D01*
X223385578Y-111152016D01*
X223433184Y-111086670D01*
X223434427Y-111084359D01*
X223476850Y-110959427D01*
X223550649Y-110692821D01*
X223649892Y-110308041D01*
X223768650Y-109828586D01*
X223900993Y-109277956D01*
X224038016Y-108692526D01*
X224227449Y-107872498D01*
X224382903Y-107199163D01*
X224508550Y-106654237D01*
X224608560Y-106219433D01*
X224687104Y-105876464D01*
X224748352Y-105607046D01*
X224796476Y-105392890D01*
X224835644Y-105215712D01*
X224870029Y-105057226D01*
X224903801Y-104899144D01*
X224912187Y-104859666D01*
X224973516Y-104580254D01*
X225062553Y-104186746D01*
X225167731Y-103729761D01*
X225277484Y-103259918D01*
X225286010Y-103223738D01*
X225405696Y-102708215D01*
X225486190Y-102332936D01*
X225529619Y-102073929D01*
X225538111Y-101907225D01*
X225513794Y-101808852D01*
X225458796Y-101754841D01*
X225418075Y-101736058D01*
X225285783Y-101716586D01*
X225021193Y-101700499D01*
X224661329Y-101689356D01*
X224243218Y-101684713D01*
X224196456Y-101684666D01*
X223704320Y-101689881D01*
X223358075Y-101707034D01*
X223134559Y-101738386D01*
X223010606Y-101786200D01*
X222991082Y-101802346D01*
X222929657Y-101930699D01*
X222854722Y-102186777D01*
X222776724Y-102530675D01*
X222719590Y-102839513D01*
X222641223Y-103308416D01*
X222558591Y-103803547D01*
X222484456Y-104248403D01*
X222453189Y-104436333D01*
X222391089Y-104840877D01*
X222323816Y-105328017D01*
X222263050Y-105811855D01*
X222245949Y-105960333D01*
X222198315Y-106357854D01*
X222148756Y-106724502D01*
X222104847Y-107006066D01*
X222086222Y-107103333D01*
X222021147Y-107399666D01*
X221970885Y-107103333D01*
X221936955Y-106893954D01*
X221886036Y-106568588D01*
X221826131Y-106178726D01*
X221786602Y-105918000D01*
X221709314Y-105432590D01*
X221616639Y-104893925D01*
X221513799Y-104328084D01*
X221406016Y-103761142D01*
X221298515Y-103219178D01*
X221196517Y-102728270D01*
X221105245Y-102314493D01*
X221029922Y-102003927D01*
X220975771Y-101822648D01*
X220959947Y-101790500D01*
X220861805Y-101744048D01*
X220644153Y-101711801D01*
X220291571Y-101692502D01*
X219788643Y-101684896D01*
X219661507Y-101684666D01*
X219140687Y-101687719D01*
X219140687Y-101687719D01*
G37*
X219140687Y-101687719D02*
X218767862Y-101703679D01*
X218521715Y-101742749D01*
X218380929Y-101815131D01*
X218324187Y-101931027D01*
X218330172Y-102100639D01*
X218370431Y-102302573D01*
X218408708Y-102459521D01*
X218478647Y-102729635D01*
X218582103Y-103119791D01*
X218720931Y-103636866D01*
X218896987Y-104287735D01*
X219112128Y-105079275D01*
X219368208Y-106018363D01*
X219667084Y-107111874D01*
X219757414Y-107442000D01*
X219843784Y-107753273D01*
X219924910Y-108038667D01*
X219960939Y-108161666D01*
X220009084Y-108329575D01*
X220091973Y-108626098D01*
X220199961Y-109016436D01*
X220323404Y-109465792D01*
X220395076Y-109728000D01*
X220521779Y-110180830D01*
X220639302Y-110579661D01*
X220738226Y-110894095D01*
X220809130Y-111093736D01*
X220834599Y-111146166D01*
X220929955Y-111192460D01*
X221143660Y-111224630D01*
X221491374Y-111243956D01*
X221988754Y-111251716D01*
X222130388Y-111252000D01*
X222609330Y-111250373D01*
X222946635Y-111243120D01*
X223169989Y-111226682D01*
X223307075Y-111197501D01*
X223385578Y-111152016D01*
X223433184Y-111086670D01*
X223434427Y-111084359D01*
X223476850Y-110959427D01*
X223550649Y-110692821D01*
X223649892Y-110308041D01*
X223768650Y-109828586D01*
X223900993Y-109277956D01*
X224038016Y-108692526D01*
X224227449Y-107872498D01*
X224382903Y-107199163D01*
X224508550Y-106654237D01*
X224608560Y-106219433D01*
X224687104Y-105876464D01*
X224748352Y-105607046D01*
X224796476Y-105392890D01*
X224835644Y-105215712D01*
X224870029Y-105057226D01*
X224903801Y-104899144D01*
X224912187Y-104859666D01*
X224973516Y-104580254D01*
X225062553Y-104186746D01*
X225167731Y-103729761D01*
X225277484Y-103259918D01*
X225286010Y-103223738D01*
X225405696Y-102708215D01*
X225486190Y-102332936D01*
X225529619Y-102073929D01*
X225538111Y-101907225D01*
X225513794Y-101808852D01*
X225458796Y-101754841D01*
X225418075Y-101736058D01*
X225285783Y-101716586D01*
X225021193Y-101700499D01*
X224661329Y-101689356D01*
X224243218Y-101684713D01*
X224196456Y-101684666D01*
X223704320Y-101689881D01*
X223358075Y-101707034D01*
X223134559Y-101738386D01*
X223010606Y-101786200D01*
X222991082Y-101802346D01*
X222929657Y-101930699D01*
X222854722Y-102186777D01*
X222776724Y-102530675D01*
X222719590Y-102839513D01*
X222641223Y-103308416D01*
X222558591Y-103803547D01*
X222484456Y-104248403D01*
X222453189Y-104436333D01*
X222391089Y-104840877D01*
X222323816Y-105328017D01*
X222263050Y-105811855D01*
X222245949Y-105960333D01*
X222198315Y-106357854D01*
X222148756Y-106724502D01*
X222104847Y-107006066D01*
X222086222Y-107103333D01*
X222021147Y-107399666D01*
X221970885Y-107103333D01*
X221936955Y-106893954D01*
X221886036Y-106568588D01*
X221826131Y-106178726D01*
X221786602Y-105918000D01*
X221709314Y-105432590D01*
X221616639Y-104893925D01*
X221513799Y-104328084D01*
X221406016Y-103761142D01*
X221298515Y-103219178D01*
X221196517Y-102728270D01*
X221105245Y-102314493D01*
X221029922Y-102003927D01*
X220975771Y-101822648D01*
X220959947Y-101790500D01*
X220861805Y-101744048D01*
X220644153Y-101711801D01*
X220291571Y-101692502D01*
X219788643Y-101684896D01*
X219661507Y-101684666D01*
X219140687Y-101687719D01*
G36*
X186338157Y-101657812D02*
G01*
X185666566Y-101940547D01*
X185461280Y-102062686D01*
X184942733Y-102491704D01*
X184494887Y-103064795D01*
X184126312Y-103768512D01*
X183845573Y-104589406D01*
X183841247Y-104605666D01*
X183755894Y-105060241D01*
X183700954Y-105630786D01*
X183676422Y-106267002D01*
X183682296Y-106918584D01*
X183718570Y-107535232D01*
X183785241Y-108066644D01*
X183841557Y-108330190D01*
X184129428Y-109163102D01*
X184517020Y-109884121D01*
X184995428Y-110481059D01*
X185555745Y-110941728D01*
X185885666Y-111127813D01*
X186426157Y-111315282D01*
X187034959Y-111406355D01*
X187648580Y-111397470D01*
X188203529Y-111285064D01*
X188270824Y-111261641D01*
X188957944Y-110920944D01*
X189556733Y-110447490D01*
X190043624Y-109862920D01*
X190309837Y-109389333D01*
X190469575Y-109039759D01*
X190577037Y-108780151D01*
X190651791Y-108548477D01*
X190713403Y-108282702D01*
X190781439Y-107920795D01*
X190792624Y-107858735D01*
X190901979Y-106937628D01*
X190904935Y-106395771D01*
X188207305Y-106395771D01*
X188190811Y-107028962D01*
X188132330Y-107620481D01*
X188033174Y-108132307D01*
X187894652Y-108526419D01*
X187854747Y-108600876D01*
X187624677Y-108870868D01*
X187358078Y-108995232D01*
X187085654Y-108970469D01*
X186838107Y-108793084D01*
X186782662Y-108723017D01*
X186600984Y-108391860D01*
X186471931Y-107972194D01*
X186391229Y-107441595D01*
X186354603Y-106777640D01*
X186351333Y-106460509D01*
X186378664Y-105654973D01*
X186461025Y-105008235D01*
X186598967Y-104518759D01*
X186793040Y-104185014D01*
X187043796Y-104005465D01*
X187245929Y-103970666D01*
X187504871Y-104044897D01*
X187754484Y-104236931D01*
X187942464Y-104500786D01*
X187991762Y-104626376D01*
X188109092Y-105156457D01*
X188180502Y-105758929D01*
X188207305Y-106395771D01*
X190904935Y-106395771D01*
X190907044Y-106009424D01*
X190811495Y-105114335D01*
X190619006Y-104292573D01*
X190417985Y-103759000D01*
X190023970Y-103063488D01*
X189537909Y-102489796D01*
X188977266Y-102043900D01*
X188359506Y-101731777D01*
X187702091Y-101559403D01*
X187022487Y-101532756D01*
X186338157Y-101657812D01*
X186338157Y-101657812D01*
G37*
X186338157Y-101657812D02*
X185666566Y-101940547D01*
X185461280Y-102062686D01*
X184942733Y-102491704D01*
X184494887Y-103064795D01*
X184126312Y-103768512D01*
X183845573Y-104589406D01*
X183841247Y-104605666D01*
X183755894Y-105060241D01*
X183700954Y-105630786D01*
X183676422Y-106267002D01*
X183682296Y-106918584D01*
X183718570Y-107535232D01*
X183785241Y-108066644D01*
X183841557Y-108330190D01*
X184129428Y-109163102D01*
X184517020Y-109884121D01*
X184995428Y-110481059D01*
X185555745Y-110941728D01*
X185885666Y-111127813D01*
X186426157Y-111315282D01*
X187034959Y-111406355D01*
X187648580Y-111397470D01*
X188203529Y-111285064D01*
X188270824Y-111261641D01*
X188957944Y-110920944D01*
X189556733Y-110447490D01*
X190043624Y-109862920D01*
X190309837Y-109389333D01*
X190469575Y-109039759D01*
X190577037Y-108780151D01*
X190651791Y-108548477D01*
X190713403Y-108282702D01*
X190781439Y-107920795D01*
X190792624Y-107858735D01*
X190901979Y-106937628D01*
X190904935Y-106395771D01*
X188207305Y-106395771D01*
X188190811Y-107028962D01*
X188132330Y-107620481D01*
X188033174Y-108132307D01*
X187894652Y-108526419D01*
X187854747Y-108600876D01*
X187624677Y-108870868D01*
X187358078Y-108995232D01*
X187085654Y-108970469D01*
X186838107Y-108793084D01*
X186782662Y-108723017D01*
X186600984Y-108391860D01*
X186471931Y-107972194D01*
X186391229Y-107441595D01*
X186354603Y-106777640D01*
X186351333Y-106460509D01*
X186378664Y-105654973D01*
X186461025Y-105008235D01*
X186598967Y-104518759D01*
X186793040Y-104185014D01*
X187043796Y-104005465D01*
X187245929Y-103970666D01*
X187504871Y-104044897D01*
X187754484Y-104236931D01*
X187942464Y-104500786D01*
X187991762Y-104626376D01*
X188109092Y-105156457D01*
X188180502Y-105758929D01*
X188207305Y-106395771D01*
X190904935Y-106395771D01*
X190907044Y-106009424D01*
X190811495Y-105114335D01*
X190619006Y-104292573D01*
X190417985Y-103759000D01*
X190023970Y-103063488D01*
X189537909Y-102489796D01*
X188977266Y-102043900D01*
X188359506Y-101731777D01*
X187702091Y-101559403D01*
X187022487Y-101532756D01*
X186338157Y-101657812D01*
G36*
X201120886Y-101554942D02*
G01*
X200750678Y-101635990D01*
X200492778Y-101760391D01*
X200424088Y-101828179D01*
X200372590Y-101952290D01*
X200342046Y-102172116D01*
X200330686Y-102511725D01*
X200336743Y-102995190D01*
X200337154Y-103011353D01*
X200352491Y-103414224D01*
X200374789Y-103754508D01*
X200401087Y-103996920D01*
X200428424Y-104106172D01*
X200429089Y-104106887D01*
X200538935Y-104116981D01*
X200750854Y-104072971D01*
X200920385Y-104018926D01*
X201433493Y-103913138D01*
X201922468Y-103962359D01*
X202360788Y-104159449D01*
X202721931Y-104497269D01*
X202728295Y-104505558D01*
X202929303Y-104815618D01*
X203067753Y-105154029D01*
X203152704Y-105558632D01*
X203193212Y-106067271D01*
X203200000Y-106476564D01*
X203195192Y-106923836D01*
X203176363Y-107248381D01*
X203136907Y-107496644D01*
X203070217Y-107715068D01*
X202999767Y-107884085D01*
X202761573Y-108312447D01*
X202473537Y-108613336D01*
X202095420Y-108828340D01*
X202079730Y-108834959D01*
X201686854Y-108948175D01*
X201308525Y-108935016D01*
X200883807Y-108793312D01*
X200881453Y-108792273D01*
X200640724Y-108701976D01*
X200459704Y-108663235D01*
X200405024Y-108670269D01*
X200373148Y-108770604D01*
X200350307Y-109000029D01*
X200336693Y-109318529D01*
X200332499Y-109686093D01*
X200337919Y-110062706D01*
X200353143Y-110408356D01*
X200378366Y-110683030D01*
X200394861Y-110781593D01*
X200500810Y-111018369D01*
X200713441Y-111191766D01*
X201049279Y-111308828D01*
X201524855Y-111376598D01*
X201833664Y-111394727D01*
X202279131Y-111402736D01*
X202610760Y-111383051D01*
X202882592Y-111330139D01*
X203073000Y-111267847D01*
X203540938Y-111076246D01*
X203905718Y-110879070D01*
X204230053Y-110636667D01*
X204556138Y-110330077D01*
X205036393Y-109735383D01*
X205431990Y-109008342D01*
X205709687Y-108246333D01*
X205788012Y-107857529D01*
X205839604Y-107350729D01*
X205864489Y-106774361D01*
X205862694Y-106176853D01*
X205834245Y-105606632D01*
X205779169Y-105112128D01*
X205707797Y-104775000D01*
X205378564Y-103907545D01*
X204943984Y-103167411D01*
X204407813Y-102558350D01*
X203773809Y-102084116D01*
X203045727Y-101748463D01*
X202539666Y-101609685D01*
X202051951Y-101538012D01*
X201566834Y-101521024D01*
X201120886Y-101554942D01*
X201120886Y-101554942D01*
G37*
X201120886Y-101554942D02*
X200750678Y-101635990D01*
X200492778Y-101760391D01*
X200424088Y-101828179D01*
X200372590Y-101952290D01*
X200342046Y-102172116D01*
X200330686Y-102511725D01*
X200336743Y-102995190D01*
X200337154Y-103011353D01*
X200352491Y-103414224D01*
X200374789Y-103754508D01*
X200401087Y-103996920D01*
X200428424Y-104106172D01*
X200429089Y-104106887D01*
X200538935Y-104116981D01*
X200750854Y-104072971D01*
X200920385Y-104018926D01*
X201433493Y-103913138D01*
X201922468Y-103962359D01*
X202360788Y-104159449D01*
X202721931Y-104497269D01*
X202728295Y-104505558D01*
X202929303Y-104815618D01*
X203067753Y-105154029D01*
X203152704Y-105558632D01*
X203193212Y-106067271D01*
X203200000Y-106476564D01*
X203195192Y-106923836D01*
X203176363Y-107248381D01*
X203136907Y-107496644D01*
X203070217Y-107715068D01*
X202999767Y-107884085D01*
X202761573Y-108312447D01*
X202473537Y-108613336D01*
X202095420Y-108828340D01*
X202079730Y-108834959D01*
X201686854Y-108948175D01*
X201308525Y-108935016D01*
X200883807Y-108793312D01*
X200881453Y-108792273D01*
X200640724Y-108701976D01*
X200459704Y-108663235D01*
X200405024Y-108670269D01*
X200373148Y-108770604D01*
X200350307Y-109000029D01*
X200336693Y-109318529D01*
X200332499Y-109686093D01*
X200337919Y-110062706D01*
X200353143Y-110408356D01*
X200378366Y-110683030D01*
X200394861Y-110781593D01*
X200500810Y-111018369D01*
X200713441Y-111191766D01*
X201049279Y-111308828D01*
X201524855Y-111376598D01*
X201833664Y-111394727D01*
X202279131Y-111402736D01*
X202610760Y-111383051D01*
X202882592Y-111330139D01*
X203073000Y-111267847D01*
X203540938Y-111076246D01*
X203905718Y-110879070D01*
X204230053Y-110636667D01*
X204556138Y-110330077D01*
X205036393Y-109735383D01*
X205431990Y-109008342D01*
X205709687Y-108246333D01*
X205788012Y-107857529D01*
X205839604Y-107350729D01*
X205864489Y-106774361D01*
X205862694Y-106176853D01*
X205834245Y-105606632D01*
X205779169Y-105112128D01*
X205707797Y-104775000D01*
X205378564Y-103907545D01*
X204943984Y-103167411D01*
X204407813Y-102558350D01*
X203773809Y-102084116D01*
X203045727Y-101748463D01*
X202539666Y-101609685D01*
X202051951Y-101538012D01*
X201566834Y-101521024D01*
X201120886Y-101554942D01*
G36*
X213487000Y-101630149D02*
G01*
X213007816Y-101788710D01*
X212610395Y-102001485D01*
X212230427Y-102306991D01*
X212031249Y-102502090D01*
X211544294Y-103121181D01*
X211170217Y-103863314D01*
X210910476Y-104724017D01*
X210766529Y-105698821D01*
X210735402Y-106476781D01*
X210793649Y-107491058D01*
X210965252Y-108411661D01*
X211245746Y-109229332D01*
X211630664Y-109934815D01*
X212115540Y-110518852D01*
X212695907Y-110972184D01*
X212979000Y-111127195D01*
X213523676Y-111315125D01*
X214139340Y-111404112D01*
X214761186Y-111390659D01*
X215324406Y-111271271D01*
X215367706Y-111256050D01*
X216056937Y-110920041D01*
X216644883Y-110450883D01*
X217132791Y-109847037D01*
X217521907Y-109106967D01*
X217809042Y-108246333D01*
X217889987Y-107810309D01*
X217943650Y-107263681D01*
X217967190Y-106716399D01*
X215284799Y-106716399D01*
X215281390Y-106807000D01*
X215226123Y-107535711D01*
X215125712Y-108106670D01*
X214977334Y-108526082D01*
X214778170Y-108800153D01*
X214525399Y-108935089D01*
X214307588Y-108949489D01*
X214054331Y-108887014D01*
X213866812Y-108720078D01*
X213816154Y-108649230D01*
X213705179Y-108411674D01*
X213595062Y-108052636D01*
X213495765Y-107619719D01*
X213417254Y-107160531D01*
X213369493Y-106722675D01*
X213359655Y-106468333D01*
X213381643Y-106070672D01*
X213440961Y-105620235D01*
X213527647Y-105164629D01*
X213631736Y-104751459D01*
X213743261Y-104428329D01*
X213816154Y-104287435D01*
X213999449Y-104083182D01*
X214226794Y-103996700D01*
X214307373Y-103987190D01*
X214522784Y-103990996D01*
X214678501Y-104072080D01*
X214836304Y-104252444D01*
X215052547Y-104656499D01*
X215200370Y-105207545D01*
X215278285Y-105897030D01*
X215284799Y-106716399D01*
X217967190Y-106716399D01*
X217969828Y-106655085D01*
X217968322Y-106033157D01*
X217938931Y-105446533D01*
X217881453Y-104943850D01*
X217823820Y-104665807D01*
X217534571Y-103846311D01*
X217146296Y-103135854D01*
X216671330Y-102543071D01*
X216122008Y-102076595D01*
X215510665Y-101745060D01*
X214849637Y-101557102D01*
X214151257Y-101521353D01*
X213487000Y-101630149D01*
X213487000Y-101630149D01*
G37*
X213487000Y-101630149D02*
X213007816Y-101788710D01*
X212610395Y-102001485D01*
X212230427Y-102306991D01*
X212031249Y-102502090D01*
X211544294Y-103121181D01*
X211170217Y-103863314D01*
X210910476Y-104724017D01*
X210766529Y-105698821D01*
X210735402Y-106476781D01*
X210793649Y-107491058D01*
X210965252Y-108411661D01*
X211245746Y-109229332D01*
X211630664Y-109934815D01*
X212115540Y-110518852D01*
X212695907Y-110972184D01*
X212979000Y-111127195D01*
X213523676Y-111315125D01*
X214139340Y-111404112D01*
X214761186Y-111390659D01*
X215324406Y-111271271D01*
X215367706Y-111256050D01*
X216056937Y-110920041D01*
X216644883Y-110450883D01*
X217132791Y-109847037D01*
X217521907Y-109106967D01*
X217809042Y-108246333D01*
X217889987Y-107810309D01*
X217943650Y-107263681D01*
X217967190Y-106716399D01*
X215284799Y-106716399D01*
X215281390Y-106807000D01*
X215226123Y-107535711D01*
X215125712Y-108106670D01*
X214977334Y-108526082D01*
X214778170Y-108800153D01*
X214525399Y-108935089D01*
X214307588Y-108949489D01*
X214054331Y-108887014D01*
X213866812Y-108720078D01*
X213816154Y-108649230D01*
X213705179Y-108411674D01*
X213595062Y-108052636D01*
X213495765Y-107619719D01*
X213417254Y-107160531D01*
X213369493Y-106722675D01*
X213359655Y-106468333D01*
X213381643Y-106070672D01*
X213440961Y-105620235D01*
X213527647Y-105164629D01*
X213631736Y-104751459D01*
X213743261Y-104428329D01*
X213816154Y-104287435D01*
X213999449Y-104083182D01*
X214226794Y-103996700D01*
X214307373Y-103987190D01*
X214522784Y-103990996D01*
X214678501Y-104072080D01*
X214836304Y-104252444D01*
X215052547Y-104656499D01*
X215200370Y-105207545D01*
X215278285Y-105897030D01*
X215284799Y-106716399D01*
X217967190Y-106716399D01*
X217969828Y-106655085D01*
X217968322Y-106033157D01*
X217938931Y-105446533D01*
X217881453Y-104943850D01*
X217823820Y-104665807D01*
X217534571Y-103846311D01*
X217146296Y-103135854D01*
X216671330Y-102543071D01*
X216122008Y-102076595D01*
X215510665Y-101745060D01*
X214849637Y-101557102D01*
X214151257Y-101521353D01*
X213487000Y-101630149D01*
G36*
X167670035Y-114559513D02*
G01*
X167132276Y-114567762D01*
X166788333Y-114574253D01*
X166082495Y-114591345D01*
X165519599Y-114615170D01*
X165073267Y-114650518D01*
X164717119Y-114702180D01*
X164424775Y-114774945D01*
X164169857Y-114873605D01*
X163925985Y-115002949D01*
X163722128Y-115131070D01*
X163374954Y-115431583D01*
X163045220Y-115846811D01*
X162772231Y-116323556D01*
X162678492Y-116543666D01*
X162578470Y-116929211D01*
X162523922Y-117399519D01*
X162514227Y-117901704D01*
X162548761Y-118382882D01*
X162626901Y-118790168D01*
X162707468Y-119003479D01*
X162978786Y-119407150D01*
X163340894Y-119785344D01*
X163681833Y-120039854D01*
X163842857Y-120151452D01*
X163914444Y-120232131D01*
X163914666Y-120234728D01*
X163879206Y-120323820D01*
X163779785Y-120542835D01*
X163626843Y-120869581D01*
X163430818Y-121281866D01*
X163202152Y-121757501D01*
X163068000Y-122034466D01*
X162825308Y-122538971D01*
X162609777Y-122996080D01*
X162431939Y-123382709D01*
X162302325Y-123675772D01*
X162231466Y-123852185D01*
X162221333Y-123890393D01*
X162242867Y-124009703D01*
X162322702Y-124095304D01*
X162483684Y-124152461D01*
X162748662Y-124186438D01*
X163140482Y-124202500D01*
X163590981Y-124206000D01*
X164057315Y-124204642D01*
X164383507Y-124197688D01*
X164598745Y-124180821D01*
X164732216Y-124149720D01*
X164813106Y-124100067D01*
X164870603Y-124027542D01*
X164878332Y-124015500D01*
X164944126Y-123878521D01*
X165055574Y-123610157D01*
X165201619Y-123238579D01*
X165371208Y-122791957D01*
X165553286Y-122298461D01*
X165567747Y-122258666D01*
X165746623Y-121771944D01*
X165910101Y-121338560D01*
X166048117Y-120984285D01*
X166150610Y-120734888D01*
X166207515Y-120616139D01*
X166210796Y-120611900D01*
X166234516Y-120666134D01*
X166254696Y-120870308D01*
X166270463Y-121205050D01*
X166280944Y-121650986D01*
X166285269Y-122188745D01*
X166285333Y-122267133D01*
X166288925Y-122924523D01*
X166300147Y-123424799D01*
X166319667Y-123780040D01*
X166348151Y-124002322D01*
X166386269Y-124103722D01*
X166386933Y-124104400D01*
X166520365Y-124153412D01*
X166809468Y-124186212D01*
X167259225Y-124203211D01*
X167611621Y-124206000D01*
X168070637Y-124204011D01*
X168389165Y-124195447D01*
X168596031Y-124176409D01*
X168720060Y-124142996D01*
X168790077Y-124091312D01*
X168822354Y-124042232D01*
X168844872Y-123916423D01*
X168864263Y-123641850D01*
X168880576Y-123237722D01*
X168893858Y-122723246D01*
X168904156Y-122117631D01*
X168911520Y-121440086D01*
X168915995Y-120709819D01*
X168917630Y-119946039D01*
X168916472Y-119167954D01*
X168915406Y-118956666D01*
X166290248Y-118956666D01*
X166002875Y-118956666D01*
X165717951Y-118900533D01*
X165494317Y-118782681D01*
X165321114Y-118574911D01*
X165176080Y-118273175D01*
X165149063Y-118190917D01*
X165079278Y-117914172D01*
X165072543Y-117703649D01*
X165129638Y-117468099D01*
X165155927Y-117388879D01*
X165337050Y-117047225D01*
X165613852Y-116836007D01*
X165995240Y-116739711D01*
X166243000Y-116713000D01*
X166290248Y-118956666D01*
X168915406Y-118956666D01*
X168912570Y-118394772D01*
X168905969Y-117645703D01*
X168896719Y-116939953D01*
X168884867Y-116296733D01*
X168870460Y-115735250D01*
X168853546Y-115274713D01*
X168834173Y-114934330D01*
X168812388Y-114733310D01*
X168799167Y-114688791D01*
X168751948Y-114639770D01*
X168677334Y-114603390D01*
X168553581Y-114578413D01*
X168358942Y-114563600D01*
X168071675Y-114557713D01*
X167670035Y-114559513D01*
X167670035Y-114559513D01*
G37*
X167670035Y-114559513D02*
X167132276Y-114567762D01*
X166788333Y-114574253D01*
X166082495Y-114591345D01*
X165519599Y-114615170D01*
X165073267Y-114650518D01*
X164717119Y-114702180D01*
X164424775Y-114774945D01*
X164169857Y-114873605D01*
X163925985Y-115002949D01*
X163722128Y-115131070D01*
X163374954Y-115431583D01*
X163045220Y-115846811D01*
X162772231Y-116323556D01*
X162678492Y-116543666D01*
X162578470Y-116929211D01*
X162523922Y-117399519D01*
X162514227Y-117901704D01*
X162548761Y-118382882D01*
X162626901Y-118790168D01*
X162707468Y-119003479D01*
X162978786Y-119407150D01*
X163340894Y-119785344D01*
X163681833Y-120039854D01*
X163842857Y-120151452D01*
X163914444Y-120232131D01*
X163914666Y-120234728D01*
X163879206Y-120323820D01*
X163779785Y-120542835D01*
X163626843Y-120869581D01*
X163430818Y-121281866D01*
X163202152Y-121757501D01*
X163068000Y-122034466D01*
X162825308Y-122538971D01*
X162609777Y-122996080D01*
X162431939Y-123382709D01*
X162302325Y-123675772D01*
X162231466Y-123852185D01*
X162221333Y-123890393D01*
X162242867Y-124009703D01*
X162322702Y-124095304D01*
X162483684Y-124152461D01*
X162748662Y-124186438D01*
X163140482Y-124202500D01*
X163590981Y-124206000D01*
X164057315Y-124204642D01*
X164383507Y-124197688D01*
X164598745Y-124180821D01*
X164732216Y-124149720D01*
X164813106Y-124100067D01*
X164870603Y-124027542D01*
X164878332Y-124015500D01*
X164944126Y-123878521D01*
X165055574Y-123610157D01*
X165201619Y-123238579D01*
X165371208Y-122791957D01*
X165553286Y-122298461D01*
X165567747Y-122258666D01*
X165746623Y-121771944D01*
X165910101Y-121338560D01*
X166048117Y-120984285D01*
X166150610Y-120734888D01*
X166207515Y-120616139D01*
X166210796Y-120611900D01*
X166234516Y-120666134D01*
X166254696Y-120870308D01*
X166270463Y-121205050D01*
X166280944Y-121650986D01*
X166285269Y-122188745D01*
X166285333Y-122267133D01*
X166288925Y-122924523D01*
X166300147Y-123424799D01*
X166319667Y-123780040D01*
X166348151Y-124002322D01*
X166386269Y-124103722D01*
X166386933Y-124104400D01*
X166520365Y-124153412D01*
X166809468Y-124186212D01*
X167259225Y-124203211D01*
X167611621Y-124206000D01*
X168070637Y-124204011D01*
X168389165Y-124195447D01*
X168596031Y-124176409D01*
X168720060Y-124142996D01*
X168790077Y-124091312D01*
X168822354Y-124042232D01*
X168844872Y-123916423D01*
X168864263Y-123641850D01*
X168880576Y-123237722D01*
X168893858Y-122723246D01*
X168904156Y-122117631D01*
X168911520Y-121440086D01*
X168915995Y-120709819D01*
X168917630Y-119946039D01*
X168916472Y-119167954D01*
X168915406Y-118956666D01*
X166290248Y-118956666D01*
X166002875Y-118956666D01*
X165717951Y-118900533D01*
X165494317Y-118782681D01*
X165321114Y-118574911D01*
X165176080Y-118273175D01*
X165149063Y-118190917D01*
X165079278Y-117914172D01*
X165072543Y-117703649D01*
X165129638Y-117468099D01*
X165155927Y-117388879D01*
X165337050Y-117047225D01*
X165613852Y-116836007D01*
X165995240Y-116739711D01*
X166243000Y-116713000D01*
X166290248Y-118956666D01*
X168915406Y-118956666D01*
X168912570Y-118394772D01*
X168905969Y-117645703D01*
X168896719Y-116939953D01*
X168884867Y-116296733D01*
X168870460Y-115735250D01*
X168853546Y-115274713D01*
X168834173Y-114934330D01*
X168812388Y-114733310D01*
X168799167Y-114688791D01*
X168751948Y-114639770D01*
X168677334Y-114603390D01*
X168553581Y-114578413D01*
X168358942Y-114563600D01*
X168071675Y-114557713D01*
X167670035Y-114559513D01*
G36*
X172898147Y-114569529D02*
G01*
X172375478Y-114573778D01*
X170053000Y-114596333D01*
X170029067Y-115600325D01*
X170025883Y-116132250D01*
X170045591Y-116498339D01*
X170088134Y-116697724D01*
X170102934Y-116722158D01*
X170195186Y-116776331D01*
X170381423Y-116812319D01*
X170685493Y-116832658D01*
X171131244Y-116839889D01*
X171209928Y-116840000D01*
X172219123Y-116840000D01*
X172194395Y-117496166D01*
X172169666Y-118152333D01*
X171256150Y-118194666D01*
X170814535Y-118221584D01*
X170517661Y-118256732D01*
X170340987Y-118304292D01*
X170262613Y-118364000D01*
X170218722Y-118522190D01*
X170191695Y-118797942D01*
X170180940Y-119143095D01*
X170185864Y-119509489D01*
X170205874Y-119848964D01*
X170240378Y-120113359D01*
X170285833Y-120250849D01*
X170368983Y-120317918D01*
X170519985Y-120363626D01*
X170769805Y-120393091D01*
X171149412Y-120411426D01*
X171280666Y-120415198D01*
X172169666Y-120438333D01*
X172194257Y-121136833D01*
X172198037Y-121457977D01*
X172186642Y-121703579D01*
X172162468Y-121833590D01*
X172151924Y-121844327D01*
X172044741Y-121849696D01*
X171805578Y-121857346D01*
X171471754Y-121866188D01*
X171145317Y-121873742D01*
X170756817Y-121887183D01*
X170427743Y-121907874D01*
X170196985Y-121932792D01*
X170108150Y-121954411D01*
X170063713Y-122063423D01*
X170032110Y-122300143D01*
X170013264Y-122623441D01*
X170007095Y-122992186D01*
X170013524Y-123365246D01*
X170032474Y-123701491D01*
X170063864Y-123959788D01*
X170107617Y-124099008D01*
X170112266Y-124104399D01*
X170227874Y-124137097D01*
X170484940Y-124163948D01*
X170855690Y-124184954D01*
X171312350Y-124200113D01*
X171827147Y-124209427D01*
X172372306Y-124212895D01*
X172920053Y-124210516D01*
X173442614Y-124202292D01*
X173912215Y-124188222D01*
X174301082Y-124168306D01*
X174581442Y-124142544D01*
X174725519Y-124110937D01*
X174735066Y-124104400D01*
X174754058Y-124003052D01*
X174771332Y-123751247D01*
X174786826Y-123367851D01*
X174800480Y-122871732D01*
X174812230Y-122281759D01*
X174822016Y-121616797D01*
X174829775Y-120895715D01*
X174835446Y-120137381D01*
X174838967Y-119360660D01*
X174840275Y-118584423D01*
X174839310Y-117827534D01*
X174836009Y-117108863D01*
X174830310Y-116447276D01*
X174822152Y-115861641D01*
X174811474Y-115370826D01*
X174798212Y-114993698D01*
X174782305Y-114749125D01*
X174766015Y-114658444D01*
X174707440Y-114625389D01*
X174568596Y-114600366D01*
X174333865Y-114582821D01*
X173987626Y-114572203D01*
X173514260Y-114567956D01*
X172898147Y-114569529D01*
X172898147Y-114569529D01*
G37*
X172898147Y-114569529D02*
X172375478Y-114573778D01*
X170053000Y-114596333D01*
X170029067Y-115600325D01*
X170025883Y-116132250D01*
X170045591Y-116498339D01*
X170088134Y-116697724D01*
X170102934Y-116722158D01*
X170195186Y-116776331D01*
X170381423Y-116812319D01*
X170685493Y-116832658D01*
X171131244Y-116839889D01*
X171209928Y-116840000D01*
X172219123Y-116840000D01*
X172194395Y-117496166D01*
X172169666Y-118152333D01*
X171256150Y-118194666D01*
X170814535Y-118221584D01*
X170517661Y-118256732D01*
X170340987Y-118304292D01*
X170262613Y-118364000D01*
X170218722Y-118522190D01*
X170191695Y-118797942D01*
X170180940Y-119143095D01*
X170185864Y-119509489D01*
X170205874Y-119848964D01*
X170240378Y-120113359D01*
X170285833Y-120250849D01*
X170368983Y-120317918D01*
X170519985Y-120363626D01*
X170769805Y-120393091D01*
X171149412Y-120411426D01*
X171280666Y-120415198D01*
X172169666Y-120438333D01*
X172194257Y-121136833D01*
X172198037Y-121457977D01*
X172186642Y-121703579D01*
X172162468Y-121833590D01*
X172151924Y-121844327D01*
X172044741Y-121849696D01*
X171805578Y-121857346D01*
X171471754Y-121866188D01*
X171145317Y-121873742D01*
X170756817Y-121887183D01*
X170427743Y-121907874D01*
X170196985Y-121932792D01*
X170108150Y-121954411D01*
X170063713Y-122063423D01*
X170032110Y-122300143D01*
X170013264Y-122623441D01*
X170007095Y-122992186D01*
X170013524Y-123365246D01*
X170032474Y-123701491D01*
X170063864Y-123959788D01*
X170107617Y-124099008D01*
X170112266Y-124104399D01*
X170227874Y-124137097D01*
X170484940Y-124163948D01*
X170855690Y-124184954D01*
X171312350Y-124200113D01*
X171827147Y-124209427D01*
X172372306Y-124212895D01*
X172920053Y-124210516D01*
X173442614Y-124202292D01*
X173912215Y-124188222D01*
X174301082Y-124168306D01*
X174581442Y-124142544D01*
X174725519Y-124110937D01*
X174735066Y-124104400D01*
X174754058Y-124003052D01*
X174771332Y-123751247D01*
X174786826Y-123367851D01*
X174800480Y-122871732D01*
X174812230Y-122281759D01*
X174822016Y-121616797D01*
X174829775Y-120895715D01*
X174835446Y-120137381D01*
X174838967Y-119360660D01*
X174840275Y-118584423D01*
X174839310Y-117827534D01*
X174836009Y-117108863D01*
X174830310Y-116447276D01*
X174822152Y-115861641D01*
X174811474Y-115370826D01*
X174798212Y-114993698D01*
X174782305Y-114749125D01*
X174766015Y-114658444D01*
X174707440Y-114625389D01*
X174568596Y-114600366D01*
X174333865Y-114582821D01*
X173987626Y-114572203D01*
X173514260Y-114567956D01*
X172898147Y-114569529D01*
G36*
X177645395Y-114554445D02*
G01*
X177063210Y-114556520D01*
X176613957Y-114561331D01*
X176279434Y-114569985D01*
X176041443Y-114583590D01*
X175881781Y-114603252D01*
X175782250Y-114630079D01*
X175724647Y-114665177D01*
X175690774Y-114709654D01*
X175686312Y-114717767D01*
X175643745Y-114887042D01*
X175615724Y-115175785D01*
X175602250Y-115534755D01*
X175603324Y-115914713D01*
X175618944Y-116266418D01*
X175649110Y-116540631D01*
X175686312Y-116676232D01*
X175753486Y-116759656D01*
X175870341Y-116809229D01*
X176075431Y-116833234D01*
X176407306Y-116839959D01*
X176448312Y-116840000D01*
X177122666Y-116840000D01*
X177122666Y-120359232D01*
X177124835Y-121329635D01*
X177131251Y-122161363D01*
X177141785Y-122848893D01*
X177156305Y-123386702D01*
X177174679Y-123769267D01*
X177196776Y-123991063D01*
X177210312Y-124042232D01*
X177259395Y-124108705D01*
X177342099Y-124154383D01*
X177487077Y-124183106D01*
X177722984Y-124198711D01*
X178078473Y-124205036D01*
X178432982Y-124206000D01*
X178946106Y-124200465D01*
X179306276Y-124182921D01*
X179529537Y-124151956D01*
X179631936Y-124106159D01*
X179636503Y-124100166D01*
X179652120Y-123995266D01*
X179668486Y-123739229D01*
X179685051Y-123350244D01*
X179701263Y-122846502D01*
X179716573Y-122246195D01*
X179730430Y-121567512D01*
X179742283Y-120828645D01*
X179747333Y-120438333D01*
X179789666Y-116882333D01*
X180382333Y-116858341D01*
X180743686Y-116829977D01*
X180967623Y-116775689D01*
X181080833Y-116693992D01*
X181130606Y-116543692D01*
X181165324Y-116274359D01*
X181184894Y-115930487D01*
X181189225Y-115556572D01*
X181178224Y-115197110D01*
X181151798Y-114896596D01*
X181109855Y-114699524D01*
X181085067Y-114655600D01*
X181003013Y-114624494D01*
X180817676Y-114599690D01*
X180517068Y-114580739D01*
X180089200Y-114567190D01*
X179522084Y-114558593D01*
X178803733Y-114554499D01*
X178378712Y-114554000D01*
X177645395Y-114554445D01*
X177645395Y-114554445D01*
G37*
X177645395Y-114554445D02*
X177063210Y-114556520D01*
X176613957Y-114561331D01*
X176279434Y-114569985D01*
X176041443Y-114583590D01*
X175881781Y-114603252D01*
X175782250Y-114630079D01*
X175724647Y-114665177D01*
X175690774Y-114709654D01*
X175686312Y-114717767D01*
X175643745Y-114887042D01*
X175615724Y-115175785D01*
X175602250Y-115534755D01*
X175603324Y-115914713D01*
X175618944Y-116266418D01*
X175649110Y-116540631D01*
X175686312Y-116676232D01*
X175753486Y-116759656D01*
X175870341Y-116809229D01*
X176075431Y-116833234D01*
X176407306Y-116839959D01*
X176448312Y-116840000D01*
X177122666Y-116840000D01*
X177122666Y-120359232D01*
X177124835Y-121329635D01*
X177131251Y-122161363D01*
X177141785Y-122848893D01*
X177156305Y-123386702D01*
X177174679Y-123769267D01*
X177196776Y-123991063D01*
X177210312Y-124042232D01*
X177259395Y-124108705D01*
X177342099Y-124154383D01*
X177487077Y-124183106D01*
X177722984Y-124198711D01*
X178078473Y-124205036D01*
X178432982Y-124206000D01*
X178946106Y-124200465D01*
X179306276Y-124182921D01*
X179529537Y-124151956D01*
X179631936Y-124106159D01*
X179636503Y-124100166D01*
X179652120Y-123995266D01*
X179668486Y-123739229D01*
X179685051Y-123350244D01*
X179701263Y-122846502D01*
X179716573Y-122246195D01*
X179730430Y-121567512D01*
X179742283Y-120828645D01*
X179747333Y-120438333D01*
X179789666Y-116882333D01*
X180382333Y-116858341D01*
X180743686Y-116829977D01*
X180967623Y-116775689D01*
X181080833Y-116693992D01*
X181130606Y-116543692D01*
X181165324Y-116274359D01*
X181184894Y-115930487D01*
X181189225Y-115556572D01*
X181178224Y-115197110D01*
X181151798Y-114896596D01*
X181109855Y-114699524D01*
X181085067Y-114655600D01*
X181003013Y-114624494D01*
X180817676Y-114599690D01*
X180517068Y-114580739D01*
X180089200Y-114567190D01*
X179522084Y-114558593D01*
X178803733Y-114554499D01*
X178378712Y-114554000D01*
X177645395Y-114554445D01*
G36*
X192859069Y-114573437D02*
G01*
X192440893Y-114593206D01*
X192103859Y-114627657D01*
X191818678Y-114678189D01*
X191812333Y-114679588D01*
X191124930Y-114892883D01*
X190560158Y-115209674D01*
X190094526Y-115647896D01*
X189704541Y-116225482D01*
X189647607Y-116332000D01*
X189526762Y-116674199D01*
X189444012Y-117129524D01*
X189401805Y-117645562D01*
X189402593Y-118169898D01*
X189448826Y-118650118D01*
X189523866Y-118978883D01*
X189791158Y-119612472D01*
X190148895Y-120120635D01*
X190608710Y-120511541D01*
X191182236Y-120793358D01*
X191881106Y-120974255D01*
X192468500Y-121046601D01*
X193124666Y-121098431D01*
X193124666Y-122519168D01*
X193127118Y-123059920D01*
X193135885Y-123456110D01*
X193153084Y-123732459D01*
X193180831Y-123913686D01*
X193221243Y-124024511D01*
X193257714Y-124072952D01*
X193399595Y-124131431D01*
X193666654Y-124175026D01*
X194018480Y-124203439D01*
X194414664Y-124216371D01*
X194814795Y-124213525D01*
X195178464Y-124194603D01*
X195465261Y-124159307D01*
X195634776Y-124107340D01*
X195655022Y-124090621D01*
X195677338Y-124008980D01*
X195695768Y-123817377D01*
X195710433Y-123507955D01*
X195721453Y-123072859D01*
X195728949Y-122504229D01*
X195733043Y-121794211D01*
X195733854Y-120934947D01*
X195731504Y-119918580D01*
X195728889Y-119285787D01*
X195722945Y-118012262D01*
X193124047Y-118012262D01*
X193117904Y-118356093D01*
X193103312Y-118629051D01*
X193079822Y-118791117D01*
X193068222Y-118815555D01*
X192976542Y-118865345D01*
X192832388Y-118847424D01*
X192588920Y-118756551D01*
X192284354Y-118559152D01*
X192100067Y-118262815D01*
X192026346Y-117850119D01*
X192024000Y-117743396D01*
X192049961Y-117399205D01*
X192139422Y-117152595D01*
X192207549Y-117052824D01*
X192390027Y-116879182D01*
X192622467Y-116730908D01*
X192850466Y-116635472D01*
X193019621Y-116620342D01*
X193043727Y-116630636D01*
X193073100Y-116728563D01*
X193096267Y-116955707D01*
X193112780Y-117272050D01*
X193122189Y-117637575D01*
X193124047Y-118012262D01*
X195722945Y-118012262D01*
X195707000Y-114596333D01*
X194056000Y-114572343D01*
X193387675Y-114566949D01*
X192859069Y-114573437D01*
X192859069Y-114573437D01*
G37*
X192859069Y-114573437D02*
X192440893Y-114593206D01*
X192103859Y-114627657D01*
X191818678Y-114678189D01*
X191812333Y-114679588D01*
X191124930Y-114892883D01*
X190560158Y-115209674D01*
X190094526Y-115647896D01*
X189704541Y-116225482D01*
X189647607Y-116332000D01*
X189526762Y-116674199D01*
X189444012Y-117129524D01*
X189401805Y-117645562D01*
X189402593Y-118169898D01*
X189448826Y-118650118D01*
X189523866Y-118978883D01*
X189791158Y-119612472D01*
X190148895Y-120120635D01*
X190608710Y-120511541D01*
X191182236Y-120793358D01*
X191881106Y-120974255D01*
X192468500Y-121046601D01*
X193124666Y-121098431D01*
X193124666Y-122519168D01*
X193127118Y-123059920D01*
X193135885Y-123456110D01*
X193153084Y-123732459D01*
X193180831Y-123913686D01*
X193221243Y-124024511D01*
X193257714Y-124072952D01*
X193399595Y-124131431D01*
X193666654Y-124175026D01*
X194018480Y-124203439D01*
X194414664Y-124216371D01*
X194814795Y-124213525D01*
X195178464Y-124194603D01*
X195465261Y-124159307D01*
X195634776Y-124107340D01*
X195655022Y-124090621D01*
X195677338Y-124008980D01*
X195695768Y-123817377D01*
X195710433Y-123507955D01*
X195721453Y-123072859D01*
X195728949Y-122504229D01*
X195733043Y-121794211D01*
X195733854Y-120934947D01*
X195731504Y-119918580D01*
X195728889Y-119285787D01*
X195722945Y-118012262D01*
X193124047Y-118012262D01*
X193117904Y-118356093D01*
X193103312Y-118629051D01*
X193079822Y-118791117D01*
X193068222Y-118815555D01*
X192976542Y-118865345D01*
X192832388Y-118847424D01*
X192588920Y-118756551D01*
X192284354Y-118559152D01*
X192100067Y-118262815D01*
X192026346Y-117850119D01*
X192024000Y-117743396D01*
X192049961Y-117399205D01*
X192139422Y-117152595D01*
X192207549Y-117052824D01*
X192390027Y-116879182D01*
X192622467Y-116730908D01*
X192850466Y-116635472D01*
X193019621Y-116620342D01*
X193043727Y-116630636D01*
X193073100Y-116728563D01*
X193096267Y-116955707D01*
X193112780Y-117272050D01*
X193122189Y-117637575D01*
X193124047Y-118012262D01*
X195722945Y-118012262D01*
X195707000Y-114596333D01*
X194056000Y-114572343D01*
X193387675Y-114566949D01*
X192859069Y-114573437D01*
G36*
X199055681Y-114550513D02*
G01*
X198639060Y-114558526D01*
X198287636Y-114574677D01*
X198034692Y-114599208D01*
X197913514Y-114632359D01*
X197909367Y-114636993D01*
X197889430Y-114711249D01*
X197861793Y-114886735D01*
X197825534Y-115172114D01*
X197779728Y-115576049D01*
X197723453Y-116107202D01*
X197655786Y-116774235D01*
X197575803Y-117585810D01*
X197482581Y-118550590D01*
X197399392Y-119422333D01*
X197342144Y-120015069D01*
X197278379Y-120659318D01*
X197214680Y-121289502D01*
X197157631Y-121840041D01*
X197140143Y-122004666D01*
X197071399Y-122699427D01*
X197031516Y-123241244D01*
X197020579Y-123644042D01*
X197038674Y-123921749D01*
X197085884Y-124088289D01*
X197153258Y-124154608D01*
X197285644Y-124174117D01*
X197550232Y-124190223D01*
X197909901Y-124201360D01*
X198327529Y-124205959D01*
X198370558Y-124206000D01*
X198863664Y-124200596D01*
X199208597Y-124183050D01*
X199426213Y-124151358D01*
X199537370Y-124103520D01*
X199547738Y-124092970D01*
X199579590Y-123975743D01*
X199615917Y-123704504D01*
X199655389Y-123294477D01*
X199696675Y-122760883D01*
X199738445Y-122118946D01*
X199771624Y-121531804D01*
X199805809Y-120897659D01*
X199838268Y-120312823D01*
X199867650Y-119800316D01*
X199892604Y-119383161D01*
X199911777Y-119084378D01*
X199923819Y-118926989D01*
X199925277Y-118914333D01*
X199941121Y-118871478D01*
X199967908Y-118915430D01*
X200008673Y-119059667D01*
X200066447Y-119317669D01*
X200144263Y-119702917D01*
X200245154Y-120228890D01*
X200363371Y-120861666D01*
X200454878Y-121352102D01*
X200547289Y-121841693D01*
X200630555Y-122277547D01*
X200694626Y-122606772D01*
X200701158Y-122639666D01*
X200770782Y-123001583D01*
X200834647Y-123354711D01*
X200874355Y-123593844D01*
X200925737Y-123847792D01*
X201008281Y-124020079D01*
X201151737Y-124126269D01*
X201385855Y-124181928D01*
X201740381Y-124202619D01*
X202041881Y-124204703D01*
X202416273Y-124197399D01*
X202732834Y-124178759D01*
X202949537Y-124151938D01*
X203017072Y-124131527D01*
X203068309Y-124022696D01*
X203139450Y-123752235D01*
X203229188Y-123326509D01*
X203336218Y-122751889D01*
X203459232Y-122034742D01*
X203507490Y-121740990D01*
X203634581Y-120958240D01*
X203736966Y-120327543D01*
X203817662Y-119833905D01*
X203879688Y-119462332D01*
X203926060Y-119197827D01*
X203959796Y-119025397D01*
X203983913Y-118930047D01*
X204001430Y-118896781D01*
X204015363Y-118910606D01*
X204028730Y-118956525D01*
X204044548Y-119019545D01*
X204050759Y-119041333D01*
X204076243Y-119206108D01*
X204098742Y-119499027D01*
X204115842Y-119878902D01*
X204125129Y-120304547D01*
X204125199Y-120311333D01*
X204136746Y-120926459D01*
X204157968Y-121551110D01*
X204187066Y-122159224D01*
X204222240Y-122724735D01*
X204261688Y-123221580D01*
X204303612Y-123623694D01*
X204346211Y-123905013D01*
X204382074Y-124030577D01*
X204430116Y-124100717D01*
X204505162Y-124149207D01*
X204635709Y-124180013D01*
X204850253Y-124197102D01*
X205177292Y-124204442D01*
X205642130Y-124206000D01*
X206190888Y-124199359D01*
X206584960Y-124178655D01*
X206838502Y-124142712D01*
X206957667Y-124096781D01*
X207018465Y-124041645D01*
X207054527Y-123963280D01*
X207066330Y-123831403D01*
X207054350Y-123615729D01*
X207019063Y-123285977D01*
X206975979Y-122932615D01*
X206872730Y-122086832D01*
X206755449Y-121100009D01*
X206627319Y-119999561D01*
X206491520Y-118812905D01*
X206351233Y-117567456D01*
X206298468Y-117094000D01*
X206212595Y-116336281D01*
X206140499Y-115734827D01*
X206080450Y-115277279D01*
X206030716Y-114951280D01*
X205989566Y-114744472D01*
X205955344Y-114644617D01*
X205857141Y-114616144D01*
X205622738Y-114592652D01*
X205285201Y-114574412D01*
X204877598Y-114561696D01*
X204432997Y-114554774D01*
X203984464Y-114553918D01*
X203565067Y-114559399D01*
X203207874Y-114571489D01*
X202945951Y-114590459D01*
X202812366Y-114616581D01*
X202808503Y-114618796D01*
X202769914Y-114715892D01*
X202709800Y-114957745D01*
X202632707Y-115321799D01*
X202543184Y-115785497D01*
X202445776Y-116326282D01*
X202348270Y-116901878D01*
X202250351Y-117489543D01*
X202160012Y-118016503D01*
X202081114Y-118461452D01*
X202017514Y-118803088D01*
X201973073Y-119020106D01*
X201951664Y-119091219D01*
X201924483Y-118998897D01*
X201879340Y-118780096D01*
X201824408Y-118475644D01*
X201803658Y-118352008D01*
X201736742Y-117957457D01*
X201667180Y-117566564D01*
X201608573Y-117255500D01*
X201601682Y-117221000D01*
X201551699Y-116965708D01*
X201481345Y-116596150D01*
X201400508Y-116164663D01*
X201329724Y-115781666D01*
X201250930Y-115379419D01*
X201173988Y-115033985D01*
X201107687Y-114782003D01*
X201060817Y-114660110D01*
X201060602Y-114659833D01*
X200951776Y-114624081D01*
X200708439Y-114595021D01*
X200363877Y-114572893D01*
X199951374Y-114557938D01*
X199504214Y-114550398D01*
X199055681Y-114550513D01*
X199055681Y-114550513D01*
G37*
X199055681Y-114550513D02*
X198639060Y-114558526D01*
X198287636Y-114574677D01*
X198034692Y-114599208D01*
X197913514Y-114632359D01*
X197909367Y-114636993D01*
X197889430Y-114711249D01*
X197861793Y-114886735D01*
X197825534Y-115172114D01*
X197779728Y-115576049D01*
X197723453Y-116107202D01*
X197655786Y-116774235D01*
X197575803Y-117585810D01*
X197482581Y-118550590D01*
X197399392Y-119422333D01*
X197342144Y-120015069D01*
X197278379Y-120659318D01*
X197214680Y-121289502D01*
X197157631Y-121840041D01*
X197140143Y-122004666D01*
X197071399Y-122699427D01*
X197031516Y-123241244D01*
X197020579Y-123644042D01*
X197038674Y-123921749D01*
X197085884Y-124088289D01*
X197153258Y-124154608D01*
X197285644Y-124174117D01*
X197550232Y-124190223D01*
X197909901Y-124201360D01*
X198327529Y-124205959D01*
X198370558Y-124206000D01*
X198863664Y-124200596D01*
X199208597Y-124183050D01*
X199426213Y-124151358D01*
X199537370Y-124103520D01*
X199547738Y-124092970D01*
X199579590Y-123975743D01*
X199615917Y-123704504D01*
X199655389Y-123294477D01*
X199696675Y-122760883D01*
X199738445Y-122118946D01*
X199771624Y-121531804D01*
X199805809Y-120897659D01*
X199838268Y-120312823D01*
X199867650Y-119800316D01*
X199892604Y-119383161D01*
X199911777Y-119084378D01*
X199923819Y-118926989D01*
X199925277Y-118914333D01*
X199941121Y-118871478D01*
X199967908Y-118915430D01*
X200008673Y-119059667D01*
X200066447Y-119317669D01*
X200144263Y-119702917D01*
X200245154Y-120228890D01*
X200363371Y-120861666D01*
X200454878Y-121352102D01*
X200547289Y-121841693D01*
X200630555Y-122277547D01*
X200694626Y-122606772D01*
X200701158Y-122639666D01*
X200770782Y-123001583D01*
X200834647Y-123354711D01*
X200874355Y-123593844D01*
X200925737Y-123847792D01*
X201008281Y-124020079D01*
X201151737Y-124126269D01*
X201385855Y-124181928D01*
X201740381Y-124202619D01*
X202041881Y-124204703D01*
X202416273Y-124197399D01*
X202732834Y-124178759D01*
X202949537Y-124151938D01*
X203017072Y-124131527D01*
X203068309Y-124022696D01*
X203139450Y-123752235D01*
X203229188Y-123326509D01*
X203336218Y-122751889D01*
X203459232Y-122034742D01*
X203507490Y-121740990D01*
X203634581Y-120958240D01*
X203736966Y-120327543D01*
X203817662Y-119833905D01*
X203879688Y-119462332D01*
X203926060Y-119197827D01*
X203959796Y-119025397D01*
X203983913Y-118930047D01*
X204001430Y-118896781D01*
X204015363Y-118910606D01*
X204028730Y-118956525D01*
X204044548Y-119019545D01*
X204050759Y-119041333D01*
X204076243Y-119206108D01*
X204098742Y-119499027D01*
X204115842Y-119878902D01*
X204125129Y-120304547D01*
X204125199Y-120311333D01*
X204136746Y-120926459D01*
X204157968Y-121551110D01*
X204187066Y-122159224D01*
X204222240Y-122724735D01*
X204261688Y-123221580D01*
X204303612Y-123623694D01*
X204346211Y-123905013D01*
X204382074Y-124030577D01*
X204430116Y-124100717D01*
X204505162Y-124149207D01*
X204635709Y-124180013D01*
X204850253Y-124197102D01*
X205177292Y-124204442D01*
X205642130Y-124206000D01*
X206190888Y-124199359D01*
X206584960Y-124178655D01*
X206838502Y-124142712D01*
X206957667Y-124096781D01*
X207018465Y-124041645D01*
X207054527Y-123963280D01*
X207066330Y-123831403D01*
X207054350Y-123615729D01*
X207019063Y-123285977D01*
X206975979Y-122932615D01*
X206872730Y-122086832D01*
X206755449Y-121100009D01*
X206627319Y-119999561D01*
X206491520Y-118812905D01*
X206351233Y-117567456D01*
X206298468Y-117094000D01*
X206212595Y-116336281D01*
X206140499Y-115734827D01*
X206080450Y-115277279D01*
X206030716Y-114951280D01*
X205989566Y-114744472D01*
X205955344Y-114644617D01*
X205857141Y-114616144D01*
X205622738Y-114592652D01*
X205285201Y-114574412D01*
X204877598Y-114561696D01*
X204432997Y-114554774D01*
X203984464Y-114553918D01*
X203565067Y-114559399D01*
X203207874Y-114571489D01*
X202945951Y-114590459D01*
X202812366Y-114616581D01*
X202808503Y-114618796D01*
X202769914Y-114715892D01*
X202709800Y-114957745D01*
X202632707Y-115321799D01*
X202543184Y-115785497D01*
X202445776Y-116326282D01*
X202348270Y-116901878D01*
X202250351Y-117489543D01*
X202160012Y-118016503D01*
X202081114Y-118461452D01*
X202017514Y-118803088D01*
X201973073Y-119020106D01*
X201951664Y-119091219D01*
X201924483Y-118998897D01*
X201879340Y-118780096D01*
X201824408Y-118475644D01*
X201803658Y-118352008D01*
X201736742Y-117957457D01*
X201667180Y-117566564D01*
X201608573Y-117255500D01*
X201601682Y-117221000D01*
X201551699Y-116965708D01*
X201481345Y-116596150D01*
X201400508Y-116164663D01*
X201329724Y-115781666D01*
X201250930Y-115379419D01*
X201173988Y-115033985D01*
X201107687Y-114782003D01*
X201060817Y-114660110D01*
X201060602Y-114659833D01*
X200951776Y-114624081D01*
X200708439Y-114595021D01*
X200363877Y-114572893D01*
X199951374Y-114557938D01*
X199504214Y-114550398D01*
X199055681Y-114550513D01*
G36*
X182747967Y-114554955D02*
G01*
X182422677Y-114560713D01*
X182212106Y-114575609D01*
X182088949Y-114603981D01*
X182025898Y-114650166D01*
X181995647Y-114718499D01*
X181987625Y-114748971D01*
X181977900Y-114872815D01*
X181970009Y-115147552D01*
X181964059Y-115554751D01*
X181960159Y-116075979D01*
X181958417Y-116692805D01*
X181958943Y-117386797D01*
X181961843Y-118139524D01*
X181964845Y-118622471D01*
X181971389Y-119508941D01*
X181977820Y-120242520D01*
X181984991Y-120839647D01*
X181993757Y-121316761D01*
X182004972Y-121690301D01*
X182019490Y-121976706D01*
X182038165Y-122192416D01*
X182061851Y-122353870D01*
X182091403Y-122477507D01*
X182127674Y-122579766D01*
X182171518Y-122677087D01*
X182175990Y-122686427D01*
X182387384Y-123018091D01*
X182697611Y-123375277D01*
X183054962Y-123705980D01*
X183407728Y-123958191D01*
X183480523Y-123998465D01*
X184107655Y-124235891D01*
X184810973Y-124352040D01*
X185545018Y-124343431D01*
X186250577Y-124210544D01*
X186811288Y-123988803D01*
X187336011Y-123668086D01*
X187771332Y-123284115D01*
X187936090Y-123083324D01*
X188059906Y-122903081D01*
X188163152Y-122726665D01*
X188247561Y-122537451D01*
X188314864Y-122318814D01*
X188366793Y-122054128D01*
X188405080Y-121726770D01*
X188431458Y-121320115D01*
X188447659Y-120817536D01*
X188455415Y-120202410D01*
X188456457Y-119458112D01*
X188452519Y-118568017D01*
X188449834Y-118152333D01*
X188425666Y-114596333D01*
X187241042Y-114572644D01*
X186763196Y-114565355D01*
X186426497Y-114567563D01*
X186202894Y-114581918D01*
X186064340Y-114611072D01*
X185982785Y-114657674D01*
X185949875Y-114694659D01*
X185921326Y-114774505D01*
X185897909Y-114937058D01*
X185879236Y-115195038D01*
X185864916Y-115561162D01*
X185854560Y-116048150D01*
X185847778Y-116668719D01*
X185844180Y-117435588D01*
X185843333Y-118172364D01*
X185843333Y-121504363D01*
X185635515Y-121712181D01*
X185363681Y-121886744D01*
X185075335Y-121895076D01*
X184815546Y-121758239D01*
X184615666Y-121596478D01*
X184573333Y-118181072D01*
X184562458Y-117434193D01*
X184549218Y-116738510D01*
X184534198Y-116112615D01*
X184517984Y-115575099D01*
X184501161Y-115144553D01*
X184484314Y-114839566D01*
X184468028Y-114678731D01*
X184462503Y-114659833D01*
X184374469Y-114613250D01*
X184169734Y-114581044D01*
X183832052Y-114561835D01*
X183345179Y-114554247D01*
X183215283Y-114554000D01*
X182747967Y-114554955D01*
X182747967Y-114554955D01*
G37*
X182747967Y-114554955D02*
X182422677Y-114560713D01*
X182212106Y-114575609D01*
X182088949Y-114603981D01*
X182025898Y-114650166D01*
X181995647Y-114718499D01*
X181987625Y-114748971D01*
X181977900Y-114872815D01*
X181970009Y-115147552D01*
X181964059Y-115554751D01*
X181960159Y-116075979D01*
X181958417Y-116692805D01*
X181958943Y-117386797D01*
X181961843Y-118139524D01*
X181964845Y-118622471D01*
X181971389Y-119508941D01*
X181977820Y-120242520D01*
X181984991Y-120839647D01*
X181993757Y-121316761D01*
X182004972Y-121690301D01*
X182019490Y-121976706D01*
X182038165Y-122192416D01*
X182061851Y-122353870D01*
X182091403Y-122477507D01*
X182127674Y-122579766D01*
X182171518Y-122677087D01*
X182175990Y-122686427D01*
X182387384Y-123018091D01*
X182697611Y-123375277D01*
X183054962Y-123705980D01*
X183407728Y-123958191D01*
X183480523Y-123998465D01*
X184107655Y-124235891D01*
X184810973Y-124352040D01*
X185545018Y-124343431D01*
X186250577Y-124210544D01*
X186811288Y-123988803D01*
X187336011Y-123668086D01*
X187771332Y-123284115D01*
X187936090Y-123083324D01*
X188059906Y-122903081D01*
X188163152Y-122726665D01*
X188247561Y-122537451D01*
X188314864Y-122318814D01*
X188366793Y-122054128D01*
X188405080Y-121726770D01*
X188431458Y-121320115D01*
X188447659Y-120817536D01*
X188455415Y-120202410D01*
X188456457Y-119458112D01*
X188452519Y-118568017D01*
X188449834Y-118152333D01*
X188425666Y-114596333D01*
X187241042Y-114572644D01*
X186763196Y-114565355D01*
X186426497Y-114567563D01*
X186202894Y-114581918D01*
X186064340Y-114611072D01*
X185982785Y-114657674D01*
X185949875Y-114694659D01*
X185921326Y-114774505D01*
X185897909Y-114937058D01*
X185879236Y-115195038D01*
X185864916Y-115561162D01*
X185854560Y-116048150D01*
X185847778Y-116668719D01*
X185844180Y-117435588D01*
X185843333Y-118172364D01*
X185843333Y-121504363D01*
X185635515Y-121712181D01*
X185363681Y-121886744D01*
X185075335Y-121895076D01*
X184815546Y-121758239D01*
X184615666Y-121596478D01*
X184573333Y-118181072D01*
X184562458Y-117434193D01*
X184549218Y-116738510D01*
X184534198Y-116112615D01*
X184517984Y-115575099D01*
X184501161Y-115144553D01*
X184484314Y-114839566D01*
X184468028Y-114678731D01*
X184462503Y-114659833D01*
X184374469Y-114613250D01*
X184169734Y-114581044D01*
X183832052Y-114561835D01*
X183345179Y-114554247D01*
X183215283Y-114554000D01*
X182747967Y-114554955D01*
G36*
X211201069Y-114432376D02*
G01*
X210900524Y-114448684D01*
X210676135Y-114485253D01*
X210481339Y-114550138D01*
X210269572Y-114651394D01*
X210237257Y-114668230D01*
X209589733Y-115100509D01*
X209055819Y-115657024D01*
X208672622Y-116269899D01*
X208453890Y-116741829D01*
X208293101Y-117184271D01*
X208180655Y-117641276D01*
X208106951Y-118156897D01*
X208062389Y-118775186D01*
X208048067Y-119135618D01*
X208045195Y-119940712D01*
X208099042Y-120628387D01*
X208218160Y-121243561D01*
X208411100Y-121831155D01*
X208670349Y-122404313D01*
X209072876Y-123043587D01*
X209568952Y-123567711D01*
X210138614Y-123967311D01*
X210761902Y-124233014D01*
X211418852Y-124355446D01*
X212089504Y-124325233D01*
X212530462Y-124216950D01*
X213263534Y-123893627D01*
X213885073Y-123444250D01*
X214395901Y-122867810D01*
X214796838Y-122163300D01*
X215088705Y-121329710D01*
X215172804Y-120971069D01*
X215244389Y-120486338D01*
X215287832Y-119899259D01*
X215301181Y-119337666D01*
X212554619Y-119337666D01*
X212546099Y-120019714D01*
X212516093Y-120556233D01*
X212459594Y-120970224D01*
X212371595Y-121284686D01*
X212247091Y-121522622D01*
X212081075Y-121707031D01*
X212029594Y-121749756D01*
X211774306Y-121895689D01*
X211540090Y-121890520D01*
X211339598Y-121783127D01*
X211188426Y-121625085D01*
X211028880Y-121381178D01*
X210964008Y-121253960D01*
X210897718Y-121094231D01*
X210849733Y-120927597D01*
X210817079Y-120723641D01*
X210796780Y-120451943D01*
X210785862Y-120082084D01*
X210781351Y-119583646D01*
X210780749Y-119380000D01*
X210782192Y-118815608D01*
X210790833Y-118390561D01*
X210809115Y-118074938D01*
X210839483Y-117838816D01*
X210884383Y-117652273D01*
X210932935Y-117517333D01*
X211102811Y-117162635D01*
X211275633Y-116950237D01*
X211477212Y-116854657D01*
X211616289Y-116842692D01*
X211876677Y-116884308D01*
X212081596Y-117021744D01*
X212263793Y-117283102D01*
X212363419Y-117483822D01*
X212433967Y-117651135D01*
X212484687Y-117818558D01*
X212518827Y-118017586D01*
X212539638Y-118279715D01*
X212550365Y-118636439D01*
X212554259Y-119119255D01*
X212554619Y-119337666D01*
X215301181Y-119337666D01*
X215302907Y-119265066D01*
X215289385Y-118638990D01*
X215247039Y-118076267D01*
X215186352Y-117680156D01*
X214939922Y-116873333D01*
X214565439Y-116138321D01*
X214078999Y-115497864D01*
X213496698Y-114974705D01*
X213088390Y-114715858D01*
X212845554Y-114588608D01*
X212647730Y-114505606D01*
X212447220Y-114457481D01*
X212196327Y-114434866D01*
X211847355Y-114428391D01*
X211624333Y-114428274D01*
X211201069Y-114432376D01*
X211201069Y-114432376D01*
G37*
X211201069Y-114432376D02*
X210900524Y-114448684D01*
X210676135Y-114485253D01*
X210481339Y-114550138D01*
X210269572Y-114651394D01*
X210237257Y-114668230D01*
X209589733Y-115100509D01*
X209055819Y-115657024D01*
X208672622Y-116269899D01*
X208453890Y-116741829D01*
X208293101Y-117184271D01*
X208180655Y-117641276D01*
X208106951Y-118156897D01*
X208062389Y-118775186D01*
X208048067Y-119135618D01*
X208045195Y-119940712D01*
X208099042Y-120628387D01*
X208218160Y-121243561D01*
X208411100Y-121831155D01*
X208670349Y-122404313D01*
X209072876Y-123043587D01*
X209568952Y-123567711D01*
X210138614Y-123967311D01*
X210761902Y-124233014D01*
X211418852Y-124355446D01*
X212089504Y-124325233D01*
X212530462Y-124216950D01*
X213263534Y-123893627D01*
X213885073Y-123444250D01*
X214395901Y-122867810D01*
X214796838Y-122163300D01*
X215088705Y-121329710D01*
X215172804Y-120971069D01*
X215244389Y-120486338D01*
X215287832Y-119899259D01*
X215301181Y-119337666D01*
X212554619Y-119337666D01*
X212546099Y-120019714D01*
X212516093Y-120556233D01*
X212459594Y-120970224D01*
X212371595Y-121284686D01*
X212247091Y-121522622D01*
X212081075Y-121707031D01*
X212029594Y-121749756D01*
X211774306Y-121895689D01*
X211540090Y-121890520D01*
X211339598Y-121783127D01*
X211188426Y-121625085D01*
X211028880Y-121381178D01*
X210964008Y-121253960D01*
X210897718Y-121094231D01*
X210849733Y-120927597D01*
X210817079Y-120723641D01*
X210796780Y-120451943D01*
X210785862Y-120082084D01*
X210781351Y-119583646D01*
X210780749Y-119380000D01*
X210782192Y-118815608D01*
X210790833Y-118390561D01*
X210809115Y-118074938D01*
X210839483Y-117838816D01*
X210884383Y-117652273D01*
X210932935Y-117517333D01*
X211102811Y-117162635D01*
X211275633Y-116950237D01*
X211477212Y-116854657D01*
X211616289Y-116842692D01*
X211876677Y-116884308D01*
X212081596Y-117021744D01*
X212263793Y-117283102D01*
X212363419Y-117483822D01*
X212433967Y-117651135D01*
X212484687Y-117818558D01*
X212518827Y-118017586D01*
X212539638Y-118279715D01*
X212550365Y-118636439D01*
X212554259Y-119119255D01*
X212554619Y-119337666D01*
X215301181Y-119337666D01*
X215302907Y-119265066D01*
X215289385Y-118638990D01*
X215247039Y-118076267D01*
X215186352Y-117680156D01*
X214939922Y-116873333D01*
X214565439Y-116138321D01*
X214078999Y-115497864D01*
X213496698Y-114974705D01*
X213088390Y-114715858D01*
X212845554Y-114588608D01*
X212647730Y-114505606D01*
X212447220Y-114457481D01*
X212196327Y-114434866D01*
X211847355Y-114428391D01*
X211624333Y-114428274D01*
X211201069Y-114432376D01*
G36*
X216580959Y-114447185D02*
G01*
X216332144Y-114505514D01*
X216180566Y-114628384D01*
X216102218Y-114838962D01*
X216073091Y-115160418D01*
X216069179Y-115615919D01*
X216069333Y-115779648D01*
X216075100Y-116208709D01*
X216090961Y-116569107D01*
X216114757Y-116829328D01*
X216144329Y-116957856D01*
X216150533Y-116964857D01*
X216271103Y-116968694D01*
X216492252Y-116924191D01*
X216658256Y-116875532D01*
X217195001Y-116775091D01*
X217684386Y-116835874D01*
X218117217Y-117054130D01*
X218484300Y-117426104D01*
X218651666Y-117689049D01*
X218752455Y-117879338D01*
X218822269Y-118043713D01*
X218866760Y-118218997D01*
X218891584Y-118442013D01*
X218902394Y-118749582D01*
X218904843Y-119178526D01*
X218904791Y-119337666D01*
X218901738Y-119824134D01*
X218890637Y-120176064D01*
X218867319Y-120428209D01*
X218827619Y-120615322D01*
X218767368Y-120772152D01*
X218722045Y-120861666D01*
X218396235Y-121321930D01*
X217999005Y-121640984D01*
X217549109Y-121811921D01*
X217065297Y-121827836D01*
X216566319Y-121681822D01*
X216535000Y-121667135D01*
X216336688Y-121584230D01*
X216195508Y-121568299D01*
X216103280Y-121638100D01*
X216051819Y-121812393D01*
X216032945Y-122109938D01*
X216038474Y-122549492D01*
X216046340Y-122787472D01*
X216064575Y-123227629D01*
X216086074Y-123531724D01*
X216117303Y-123732999D01*
X216164728Y-123864694D01*
X216234816Y-123960051D01*
X216283668Y-124007502D01*
X216581224Y-124184446D01*
X216995862Y-124302484D01*
X217484611Y-124357999D01*
X218004501Y-124347372D01*
X218512561Y-124266987D01*
X218711128Y-124211858D01*
X219467061Y-123887701D01*
X220114162Y-123435134D01*
X220649971Y-122857501D01*
X221072028Y-122158146D01*
X221377871Y-121340414D01*
X221565040Y-120407649D01*
X221575925Y-120318650D01*
X221632499Y-119301565D01*
X221563855Y-118336969D01*
X221374053Y-117444394D01*
X221067151Y-116643374D01*
X220676889Y-115993202D01*
X220288956Y-115535065D01*
X219847617Y-115160160D01*
X219305135Y-114830815D01*
X219032666Y-114695605D01*
X218785292Y-114584112D01*
X218575029Y-114509839D01*
X218356081Y-114465063D01*
X218082650Y-114442060D01*
X217708937Y-114433108D01*
X217466333Y-114431471D01*
X216951020Y-114430226D01*
X216580959Y-114447185D01*
X216580959Y-114447185D01*
G37*
X216580959Y-114447185D02*
X216332144Y-114505514D01*
X216180566Y-114628384D01*
X216102218Y-114838962D01*
X216073091Y-115160418D01*
X216069179Y-115615919D01*
X216069333Y-115779648D01*
X216075100Y-116208709D01*
X216090961Y-116569107D01*
X216114757Y-116829328D01*
X216144329Y-116957856D01*
X216150533Y-116964857D01*
X216271103Y-116968694D01*
X216492252Y-116924191D01*
X216658256Y-116875532D01*
X217195001Y-116775091D01*
X217684386Y-116835874D01*
X218117217Y-117054130D01*
X218484300Y-117426104D01*
X218651666Y-117689049D01*
X218752455Y-117879338D01*
X218822269Y-118043713D01*
X218866760Y-118218997D01*
X218891584Y-118442013D01*
X218902394Y-118749582D01*
X218904843Y-119178526D01*
X218904791Y-119337666D01*
X218901738Y-119824134D01*
X218890637Y-120176064D01*
X218867319Y-120428209D01*
X218827619Y-120615322D01*
X218767368Y-120772152D01*
X218722045Y-120861666D01*
X218396235Y-121321930D01*
X217999005Y-121640984D01*
X217549109Y-121811921D01*
X217065297Y-121827836D01*
X216566319Y-121681822D01*
X216535000Y-121667135D01*
X216336688Y-121584230D01*
X216195508Y-121568299D01*
X216103280Y-121638100D01*
X216051819Y-121812393D01*
X216032945Y-122109938D01*
X216038474Y-122549492D01*
X216046340Y-122787472D01*
X216064575Y-123227629D01*
X216086074Y-123531724D01*
X216117303Y-123732999D01*
X216164728Y-123864694D01*
X216234816Y-123960051D01*
X216283668Y-124007502D01*
X216581224Y-124184446D01*
X216995862Y-124302484D01*
X217484611Y-124357999D01*
X218004501Y-124347372D01*
X218512561Y-124266987D01*
X218711128Y-124211858D01*
X219467061Y-123887701D01*
X220114162Y-123435134D01*
X220649971Y-122857501D01*
X221072028Y-122158146D01*
X221377871Y-121340414D01*
X221565040Y-120407649D01*
X221575925Y-120318650D01*
X221632499Y-119301565D01*
X221563855Y-118336969D01*
X221374053Y-117444394D01*
X221067151Y-116643374D01*
X220676889Y-115993202D01*
X220288956Y-115535065D01*
X219847617Y-115160160D01*
X219305135Y-114830815D01*
X219032666Y-114695605D01*
X218785292Y-114584112D01*
X218575029Y-114509839D01*
X218356081Y-114465063D01*
X218082650Y-114442060D01*
X217708937Y-114433108D01*
X217466333Y-114431471D01*
X216951020Y-114430226D01*
X216580959Y-114447185D01*
M02*
