M48
; DRILL file {KiCad (5.1.4-0-10_14)} date Monday, October 07, 2019 at 11:50:46 AM
; FORMAT={-:-/ absolute / inch / decimal}
; #@! TF.CreationDate,2019-10-07T11:50:46-07:00
; #@! TF.GenerationSoftware,Kicad,Pcbnew,(5.1.4-0-10_14)
; #@! TF.FileFunction,Plated,1,2,PTH
FMAT,2
INCH
T1C0.0157
T2C0.0256
T3C0.0300
T4C0.0394
%
G90
G05
T1
X5.95Y-4.55
X5.95Y-4.6
X6.0Y-4.55
X6.0Y-4.6
X6.05Y-4.55
X6.05Y-4.6
X6.231Y-4.6115
X6.231Y-4.8595
X6.249Y-4.037
X6.277Y-4.07
X6.302Y-4.034
X6.357Y-4.733
X6.375Y-4.775
X6.4Y-4.725
X6.575Y-3.8
X6.669Y-4.963
X6.716Y-3.9227
X6.765Y-3.9405
X6.777Y-5.053
X6.793Y-4.159
X6.806Y-3.957
X6.8269Y-4.5234
X6.866Y-4.519
X6.901Y-4.607
X6.916Y-4.71
X6.919Y-4.864
X6.9265Y-4.4138
X6.956Y-3.84
X6.956Y-3.86
X6.956Y-3.88
X6.956Y-3.9
X6.9633Y-4.377
X6.974Y-4.808
X6.98Y-3.84
X6.98Y-3.86
X6.98Y-3.88
X6.98Y-3.9
X6.981Y-4.658
X7.0Y-3.84
X7.0Y-3.86
X7.0Y-3.88
X7.0Y-3.9
X7.06Y-4.45
X7.065Y-4.6768
X7.075Y-3.3535
X7.075Y-3.4
X7.075Y-3.45
X7.084Y-5.126
X7.09Y-4.065
X7.0934Y-4.9285
X7.125Y-3.3535
X7.125Y-3.4
X7.125Y-3.45
X7.125Y-3.45
X7.125Y-3.45
X7.1274Y-4.0259
X7.1285Y-4.855
X7.149Y-4.468
X7.15Y-3.7
X7.158Y-4.5504
X7.1696Y-4.588
X7.175Y-3.3535
X7.175Y-3.4
X7.175Y-3.45
X7.175Y-4.825
X7.1778Y-3.7285
X7.185Y-4.357
X7.2Y-4.082
X7.2031Y-4.5669
X7.2144Y-4.425
X7.218Y-4.469
X7.2224Y-4.3208
X7.225Y-3.3535
X7.225Y-3.4
X7.225Y-3.45
X7.2332Y-4.5106
X7.234Y-4.788
X7.2422Y-4.3549
X7.2571Y-4.5655
X7.2752Y-4.406
X7.283Y-4.053
X7.2865Y-4.5393
X7.3Y-5.275
X7.3012Y-3.8815
X7.3218Y-4.5218
X7.347Y-4.445
X7.3582Y-3.8736
X7.367Y-4.632
X7.3948Y-4.7074
X7.3956Y-4.0848
X7.3971Y-4.3527
X7.4Y-3.875
X7.4Y-4.04
X7.4047Y-4.2388
X7.4062Y-4.6502
X7.4091Y-4.2779
X7.425Y-4.1815
X7.437Y-3.9859
X7.444Y-4.2381
X7.4464Y-4.3902
X7.4509Y-4.3188
X7.4535Y-4.7107
X7.46Y-4.745
X7.461Y-3.9
X7.4622Y-4.8187
X7.466Y-5.0
X7.4662Y-4.7796
X7.4825Y-4.2953
X7.4861Y-4.618
X7.487Y-4.697
X7.499Y-3.821
X7.5Y-3.95
X7.503Y-4.5
X7.509Y-4.671
X7.5168Y-4.173
X7.56Y-4.08
X7.581Y-4.838
X7.5949Y-4.3706
X7.6033Y-4.4384
X7.611Y-4.047
X7.613Y-3.79
X7.623Y-3.458
X7.625Y-4.95
X7.6351Y-4.413
X7.7045Y-4.197
X7.795Y-4.246
X7.872Y-4.788
X7.875Y-4.586
X7.876Y-4.687
X7.877Y-4.535
X7.877Y-4.635
X7.877Y-4.738
X8.025Y-3.45
X8.025Y-3.475
X8.025Y-3.5
X8.025Y-3.525
X8.025Y-3.55
X8.05Y-3.45
X8.05Y-3.475
X8.05Y-3.5
X8.05Y-3.525
X8.05Y-3.55
X8.14Y-4.32
X8.25Y-4.225
X8.25Y-4.775
X8.26Y-4.18
X8.275Y-4.55
X8.275Y-4.6
X8.2778Y-4.7472
X8.3Y-4.2
X8.3488Y-4.291
X8.405Y-3.72
X8.4569Y-4.7265
X8.499Y-4.425
X8.5652Y-4.409
X8.85Y-3.975
X8.85Y-4.1
X8.85Y-4.25
X8.89Y-4.448
T3
X7.3877Y-4.9575
X7.3877Y-5.0575
X7.3877Y-5.1575
X7.3877Y-5.2575
T4
X8.7266Y-3.7031
X8.7266Y-3.8016
X8.7266Y-3.9
X8.825Y-3.7031
X8.825Y-3.8016
X8.825Y-3.9
X7.7Y-3.4
X7.7Y-3.5
X7.7Y-3.6
X7.7Y-3.7
X6.95Y-5.1145
X6.95Y-5.2917
X7.2059Y-5.1145
X7.2059Y-5.2917
X6.588Y-4.825
X6.588Y-5.0022
X6.8439Y-4.825
X6.8439Y-5.0022
X6.225Y-5.1145
X6.225Y-5.2917
X6.4809Y-5.1145
X6.4809Y-5.2917
X6.588Y-5.1145
X6.588Y-5.2917
X6.8439Y-5.1145
X6.8439Y-5.2917
X7.45Y-3.4
X7.45Y-3.5
X7.45Y-3.6
X7.55Y-3.4
X7.55Y-3.5
X7.55Y-3.6
X6.4068Y-4.249
X6.4068Y-4.5049
X6.584Y-4.249
X6.584Y-4.5049
T2
G00X8.1781Y-3.625
M15
G01X8.1781Y-3.6427
M16
G05
G00X8.2766Y-3.625
M15
G01X8.2766Y-3.6427
M16
G05
G00X8.3661Y-3.437
M15
G01X8.3839Y-3.437
M16
G05
G00X8.4734Y-3.625
M15
G01X8.4734Y-3.6427
M16
G05
G00X8.5719Y-3.625
M15
G01X8.5719Y-3.6427
M16
G05
T0
M30
