%TF.GenerationSoftware,KiCad,Pcbnew,(5.1.4-0-10_14)*%
%TF.CreationDate,2019-10-07T11:49:19-07:00*%
%TF.ProjectId,OPL3_VGM_Player,4f504c33-5f56-4474-9d5f-506c61796572,rev?*%
%TF.SameCoordinates,Original*%
%TF.FileFunction,Soldermask,Bot*%
%TF.FilePolarity,Negative*%
%FSLAX46Y46*%
G04 Gerber Fmt 4.6, Leading zero omitted, Abs format (unit mm)*
G04 Created by KiCad (PCBNEW (5.1.4-0-10_14)) date 2019-10-07 11:49:19*
%MOMM*%
%LPD*%
G04 APERTURE LIST*
%ADD10C,0.150000*%
G04 APERTURE END LIST*
D10*
X153670000Y-140970000D02*
X226060000Y-140970000D01*
X149860000Y-87630000D02*
X149860000Y-137160000D01*
X226060000Y-83820000D02*
X153670000Y-83820000D01*
X229870000Y-137160000D02*
X229870000Y-87630000D01*
X229870000Y-137160000D02*
G75*
G02X226060000Y-140970000I-3810000J0D01*
G01*
X153670000Y-140970000D02*
G75*
G02X149860000Y-137160000I0J3810000D01*
G01*
X149860000Y-87630000D02*
G75*
G02X153670000Y-83820000I3810000J0D01*
G01*
X226060000Y-83820000D02*
G75*
G02X229870000Y-87630000I0J-3810000D01*
G01*
G36*
X226435256Y-135551298D02*
G01*
X226541579Y-135572447D01*
X226842042Y-135696903D01*
X227112451Y-135877585D01*
X227342415Y-136107549D01*
X227523097Y-136377958D01*
X227647553Y-136678421D01*
X227711000Y-136997391D01*
X227711000Y-137322609D01*
X227647553Y-137641579D01*
X227523097Y-137942042D01*
X227342415Y-138212451D01*
X227112451Y-138442415D01*
X226842042Y-138623097D01*
X226541579Y-138747553D01*
X226435256Y-138768702D01*
X226222611Y-138811000D01*
X225897389Y-138811000D01*
X225684744Y-138768702D01*
X225578421Y-138747553D01*
X225277958Y-138623097D01*
X225007549Y-138442415D01*
X224777585Y-138212451D01*
X224596903Y-137942042D01*
X224472447Y-137641579D01*
X224409000Y-137322609D01*
X224409000Y-136997391D01*
X224472447Y-136678421D01*
X224596903Y-136377958D01*
X224777585Y-136107549D01*
X225007549Y-135877585D01*
X225277958Y-135696903D01*
X225578421Y-135572447D01*
X225684744Y-135551298D01*
X225897389Y-135509000D01*
X226222611Y-135509000D01*
X226435256Y-135551298D01*
X226435256Y-135551298D01*
G37*
G36*
X154045256Y-135551298D02*
G01*
X154151579Y-135572447D01*
X154452042Y-135696903D01*
X154722451Y-135877585D01*
X154952415Y-136107549D01*
X155133097Y-136377958D01*
X155257553Y-136678421D01*
X155321000Y-136997391D01*
X155321000Y-137322609D01*
X155257553Y-137641579D01*
X155133097Y-137942042D01*
X154952415Y-138212451D01*
X154722451Y-138442415D01*
X154452042Y-138623097D01*
X154151579Y-138747553D01*
X154045256Y-138768702D01*
X153832611Y-138811000D01*
X153507389Y-138811000D01*
X153294744Y-138768702D01*
X153188421Y-138747553D01*
X152887958Y-138623097D01*
X152617549Y-138442415D01*
X152387585Y-138212451D01*
X152206903Y-137942042D01*
X152082447Y-137641579D01*
X152019000Y-137322609D01*
X152019000Y-136997391D01*
X152082447Y-136678421D01*
X152206903Y-136377958D01*
X152387585Y-136107549D01*
X152617549Y-135877585D01*
X152887958Y-135696903D01*
X153188421Y-135572447D01*
X153294744Y-135551298D01*
X153507389Y-135509000D01*
X153832611Y-135509000D01*
X154045256Y-135551298D01*
X154045256Y-135551298D01*
G37*
G36*
X183143512Y-133512227D02*
G01*
X183292812Y-133541924D01*
X183456784Y-133609844D01*
X183604354Y-133708447D01*
X183729853Y-133833946D01*
X183828456Y-133981516D01*
X183896376Y-134145488D01*
X183931000Y-134319559D01*
X183931000Y-134497041D01*
X183896376Y-134671112D01*
X183828456Y-134835084D01*
X183729853Y-134982654D01*
X183604354Y-135108153D01*
X183456784Y-135206756D01*
X183292812Y-135274676D01*
X183143512Y-135304373D01*
X183118742Y-135309300D01*
X182941258Y-135309300D01*
X182916488Y-135304373D01*
X182767188Y-135274676D01*
X182603216Y-135206756D01*
X182455646Y-135108153D01*
X182330147Y-134982654D01*
X182231544Y-134835084D01*
X182163624Y-134671112D01*
X182129000Y-134497041D01*
X182129000Y-134319559D01*
X182163624Y-134145488D01*
X182231544Y-133981516D01*
X182330147Y-133833946D01*
X182455646Y-133708447D01*
X182603216Y-133609844D01*
X182767188Y-133541924D01*
X182916488Y-133512227D01*
X182941258Y-133507300D01*
X183118742Y-133507300D01*
X183143512Y-133512227D01*
X183143512Y-133512227D01*
G37*
G36*
X176643512Y-133512227D02*
G01*
X176792812Y-133541924D01*
X176956784Y-133609844D01*
X177104354Y-133708447D01*
X177229853Y-133833946D01*
X177328456Y-133981516D01*
X177396376Y-134145488D01*
X177431000Y-134319559D01*
X177431000Y-134497041D01*
X177396376Y-134671112D01*
X177328456Y-134835084D01*
X177229853Y-134982654D01*
X177104354Y-135108153D01*
X176956784Y-135206756D01*
X176792812Y-135274676D01*
X176643512Y-135304373D01*
X176618742Y-135309300D01*
X176441258Y-135309300D01*
X176416488Y-135304373D01*
X176267188Y-135274676D01*
X176103216Y-135206756D01*
X175955646Y-135108153D01*
X175830147Y-134982654D01*
X175731544Y-134835084D01*
X175663624Y-134671112D01*
X175629000Y-134497041D01*
X175629000Y-134319559D01*
X175663624Y-134145488D01*
X175731544Y-133981516D01*
X175830147Y-133833946D01*
X175955646Y-133708447D01*
X176103216Y-133609844D01*
X176267188Y-133541924D01*
X176416488Y-133512227D01*
X176441258Y-133507300D01*
X176618742Y-133507300D01*
X176643512Y-133512227D01*
X176643512Y-133512227D01*
G37*
G36*
X173948712Y-133512227D02*
G01*
X174098012Y-133541924D01*
X174261984Y-133609844D01*
X174409554Y-133708447D01*
X174535053Y-133833946D01*
X174633656Y-133981516D01*
X174701576Y-134145488D01*
X174736200Y-134319559D01*
X174736200Y-134497041D01*
X174701576Y-134671112D01*
X174633656Y-134835084D01*
X174535053Y-134982654D01*
X174409554Y-135108153D01*
X174261984Y-135206756D01*
X174098012Y-135274676D01*
X173948712Y-135304373D01*
X173923942Y-135309300D01*
X173746458Y-135309300D01*
X173721688Y-135304373D01*
X173572388Y-135274676D01*
X173408416Y-135206756D01*
X173260846Y-135108153D01*
X173135347Y-134982654D01*
X173036744Y-134835084D01*
X172968824Y-134671112D01*
X172934200Y-134497041D01*
X172934200Y-134319559D01*
X172968824Y-134145488D01*
X173036744Y-133981516D01*
X173135347Y-133833946D01*
X173260846Y-133708447D01*
X173408416Y-133609844D01*
X173572388Y-133541924D01*
X173721688Y-133512227D01*
X173746458Y-133507300D01*
X173923942Y-133507300D01*
X173948712Y-133512227D01*
X173948712Y-133512227D01*
G37*
G36*
X167448712Y-133512227D02*
G01*
X167598012Y-133541924D01*
X167761984Y-133609844D01*
X167909554Y-133708447D01*
X168035053Y-133833946D01*
X168133656Y-133981516D01*
X168201576Y-134145488D01*
X168236200Y-134319559D01*
X168236200Y-134497041D01*
X168201576Y-134671112D01*
X168133656Y-134835084D01*
X168035053Y-134982654D01*
X167909554Y-135108153D01*
X167761984Y-135206756D01*
X167598012Y-135274676D01*
X167448712Y-135304373D01*
X167423942Y-135309300D01*
X167246458Y-135309300D01*
X167221688Y-135304373D01*
X167072388Y-135274676D01*
X166908416Y-135206756D01*
X166760846Y-135108153D01*
X166635347Y-134982654D01*
X166536744Y-134835084D01*
X166468824Y-134671112D01*
X166434200Y-134497041D01*
X166434200Y-134319559D01*
X166468824Y-134145488D01*
X166536744Y-133981516D01*
X166635347Y-133833946D01*
X166760846Y-133708447D01*
X166908416Y-133609844D01*
X167072388Y-133541924D01*
X167221688Y-133512227D01*
X167246458Y-133507300D01*
X167423942Y-133507300D01*
X167448712Y-133512227D01*
X167448712Y-133512227D01*
G37*
G36*
X164728512Y-133512227D02*
G01*
X164877812Y-133541924D01*
X165041784Y-133609844D01*
X165189354Y-133708447D01*
X165314853Y-133833946D01*
X165413456Y-133981516D01*
X165481376Y-134145488D01*
X165516000Y-134319559D01*
X165516000Y-134497041D01*
X165481376Y-134671112D01*
X165413456Y-134835084D01*
X165314853Y-134982654D01*
X165189354Y-135108153D01*
X165041784Y-135206756D01*
X164877812Y-135274676D01*
X164728512Y-135304373D01*
X164703742Y-135309300D01*
X164526258Y-135309300D01*
X164501488Y-135304373D01*
X164352188Y-135274676D01*
X164188216Y-135206756D01*
X164040646Y-135108153D01*
X163915147Y-134982654D01*
X163816544Y-134835084D01*
X163748624Y-134671112D01*
X163714000Y-134497041D01*
X163714000Y-134319559D01*
X163748624Y-134145488D01*
X163816544Y-133981516D01*
X163915147Y-133833946D01*
X164040646Y-133708447D01*
X164188216Y-133609844D01*
X164352188Y-133541924D01*
X164501488Y-133512227D01*
X164526258Y-133507300D01*
X164703742Y-133507300D01*
X164728512Y-133512227D01*
X164728512Y-133512227D01*
G37*
G36*
X158228512Y-133512227D02*
G01*
X158377812Y-133541924D01*
X158541784Y-133609844D01*
X158689354Y-133708447D01*
X158814853Y-133833946D01*
X158913456Y-133981516D01*
X158981376Y-134145488D01*
X159016000Y-134319559D01*
X159016000Y-134497041D01*
X158981376Y-134671112D01*
X158913456Y-134835084D01*
X158814853Y-134982654D01*
X158689354Y-135108153D01*
X158541784Y-135206756D01*
X158377812Y-135274676D01*
X158228512Y-135304373D01*
X158203742Y-135309300D01*
X158026258Y-135309300D01*
X158001488Y-135304373D01*
X157852188Y-135274676D01*
X157688216Y-135206756D01*
X157540646Y-135108153D01*
X157415147Y-134982654D01*
X157316544Y-134835084D01*
X157248624Y-134671112D01*
X157214000Y-134497041D01*
X157214000Y-134319559D01*
X157248624Y-134145488D01*
X157316544Y-133981516D01*
X157415147Y-133833946D01*
X157540646Y-133708447D01*
X157688216Y-133609844D01*
X157852188Y-133541924D01*
X158001488Y-133512227D01*
X158026258Y-133507300D01*
X158203742Y-133507300D01*
X158228512Y-133512227D01*
X158228512Y-133512227D01*
G37*
G36*
X187885742Y-132758242D02*
G01*
X188033701Y-132819529D01*
X188166855Y-132908499D01*
X188280101Y-133021745D01*
X188369071Y-133154899D01*
X188430358Y-133302858D01*
X188461600Y-133459925D01*
X188461600Y-133620075D01*
X188430358Y-133777142D01*
X188369071Y-133925101D01*
X188280101Y-134058255D01*
X188166855Y-134171501D01*
X188033701Y-134260471D01*
X187885742Y-134321758D01*
X187728675Y-134353000D01*
X187568525Y-134353000D01*
X187411458Y-134321758D01*
X187263499Y-134260471D01*
X187130345Y-134171501D01*
X187017099Y-134058255D01*
X186928129Y-133925101D01*
X186866842Y-133777142D01*
X186835600Y-133620075D01*
X186835600Y-133459925D01*
X186866842Y-133302858D01*
X186928129Y-133154899D01*
X187017099Y-133021745D01*
X187130345Y-132908499D01*
X187263499Y-132819529D01*
X187411458Y-132758242D01*
X187568525Y-132727000D01*
X187728675Y-132727000D01*
X187885742Y-132758242D01*
X187885742Y-132758242D01*
G37*
G36*
X187885742Y-130218242D02*
G01*
X188033701Y-130279529D01*
X188166855Y-130368499D01*
X188280101Y-130481745D01*
X188369071Y-130614899D01*
X188430358Y-130762858D01*
X188461600Y-130919925D01*
X188461600Y-131080075D01*
X188430358Y-131237142D01*
X188369071Y-131385101D01*
X188280101Y-131518255D01*
X188166855Y-131631501D01*
X188033701Y-131720471D01*
X187885742Y-131781758D01*
X187728675Y-131813000D01*
X187568525Y-131813000D01*
X187411458Y-131781758D01*
X187263499Y-131720471D01*
X187130345Y-131631501D01*
X187017099Y-131518255D01*
X186928129Y-131385101D01*
X186866842Y-131237142D01*
X186835600Y-131080075D01*
X186835600Y-130919925D01*
X186866842Y-130762858D01*
X186928129Y-130614899D01*
X187017099Y-130481745D01*
X187130345Y-130368499D01*
X187263499Y-130279529D01*
X187411458Y-130218242D01*
X187568525Y-130187000D01*
X187728675Y-130187000D01*
X187885742Y-130218242D01*
X187885742Y-130218242D01*
G37*
G36*
X158228512Y-129012227D02*
G01*
X158377812Y-129041924D01*
X158541784Y-129109844D01*
X158689354Y-129208447D01*
X158814853Y-129333946D01*
X158913456Y-129481516D01*
X158981376Y-129645488D01*
X159016000Y-129819559D01*
X159016000Y-129997041D01*
X158981376Y-130171112D01*
X158913456Y-130335084D01*
X158814853Y-130482654D01*
X158689354Y-130608153D01*
X158541784Y-130706756D01*
X158377812Y-130774676D01*
X158228512Y-130804373D01*
X158203742Y-130809300D01*
X158026258Y-130809300D01*
X158001488Y-130804373D01*
X157852188Y-130774676D01*
X157688216Y-130706756D01*
X157540646Y-130608153D01*
X157415147Y-130482654D01*
X157316544Y-130335084D01*
X157248624Y-130171112D01*
X157214000Y-129997041D01*
X157214000Y-129819559D01*
X157248624Y-129645488D01*
X157316544Y-129481516D01*
X157415147Y-129333946D01*
X157540646Y-129208447D01*
X157688216Y-129109844D01*
X157852188Y-129041924D01*
X158001488Y-129012227D01*
X158026258Y-129007300D01*
X158203742Y-129007300D01*
X158228512Y-129012227D01*
X158228512Y-129012227D01*
G37*
G36*
X164728512Y-129012227D02*
G01*
X164877812Y-129041924D01*
X165041784Y-129109844D01*
X165189354Y-129208447D01*
X165314853Y-129333946D01*
X165413456Y-129481516D01*
X165481376Y-129645488D01*
X165516000Y-129819559D01*
X165516000Y-129997041D01*
X165481376Y-130171112D01*
X165413456Y-130335084D01*
X165314853Y-130482654D01*
X165189354Y-130608153D01*
X165041784Y-130706756D01*
X164877812Y-130774676D01*
X164728512Y-130804373D01*
X164703742Y-130809300D01*
X164526258Y-130809300D01*
X164501488Y-130804373D01*
X164352188Y-130774676D01*
X164188216Y-130706756D01*
X164040646Y-130608153D01*
X163915147Y-130482654D01*
X163816544Y-130335084D01*
X163748624Y-130171112D01*
X163714000Y-129997041D01*
X163714000Y-129819559D01*
X163748624Y-129645488D01*
X163816544Y-129481516D01*
X163915147Y-129333946D01*
X164040646Y-129208447D01*
X164188216Y-129109844D01*
X164352188Y-129041924D01*
X164501488Y-129012227D01*
X164526258Y-129007300D01*
X164703742Y-129007300D01*
X164728512Y-129012227D01*
X164728512Y-129012227D01*
G37*
G36*
X183143512Y-129012227D02*
G01*
X183292812Y-129041924D01*
X183456784Y-129109844D01*
X183604354Y-129208447D01*
X183729853Y-129333946D01*
X183828456Y-129481516D01*
X183896376Y-129645488D01*
X183931000Y-129819559D01*
X183931000Y-129997041D01*
X183896376Y-130171112D01*
X183828456Y-130335084D01*
X183729853Y-130482654D01*
X183604354Y-130608153D01*
X183456784Y-130706756D01*
X183292812Y-130774676D01*
X183143512Y-130804373D01*
X183118742Y-130809300D01*
X182941258Y-130809300D01*
X182916488Y-130804373D01*
X182767188Y-130774676D01*
X182603216Y-130706756D01*
X182455646Y-130608153D01*
X182330147Y-130482654D01*
X182231544Y-130335084D01*
X182163624Y-130171112D01*
X182129000Y-129997041D01*
X182129000Y-129819559D01*
X182163624Y-129645488D01*
X182231544Y-129481516D01*
X182330147Y-129333946D01*
X182455646Y-129208447D01*
X182603216Y-129109844D01*
X182767188Y-129041924D01*
X182916488Y-129012227D01*
X182941258Y-129007300D01*
X183118742Y-129007300D01*
X183143512Y-129012227D01*
X183143512Y-129012227D01*
G37*
G36*
X176643512Y-129012227D02*
G01*
X176792812Y-129041924D01*
X176956784Y-129109844D01*
X177104354Y-129208447D01*
X177229853Y-129333946D01*
X177328456Y-129481516D01*
X177396376Y-129645488D01*
X177431000Y-129819559D01*
X177431000Y-129997041D01*
X177396376Y-130171112D01*
X177328456Y-130335084D01*
X177229853Y-130482654D01*
X177104354Y-130608153D01*
X176956784Y-130706756D01*
X176792812Y-130774676D01*
X176643512Y-130804373D01*
X176618742Y-130809300D01*
X176441258Y-130809300D01*
X176416488Y-130804373D01*
X176267188Y-130774676D01*
X176103216Y-130706756D01*
X175955646Y-130608153D01*
X175830147Y-130482654D01*
X175731544Y-130335084D01*
X175663624Y-130171112D01*
X175629000Y-129997041D01*
X175629000Y-129819559D01*
X175663624Y-129645488D01*
X175731544Y-129481516D01*
X175830147Y-129333946D01*
X175955646Y-129208447D01*
X176103216Y-129109844D01*
X176267188Y-129041924D01*
X176416488Y-129012227D01*
X176441258Y-129007300D01*
X176618742Y-129007300D01*
X176643512Y-129012227D01*
X176643512Y-129012227D01*
G37*
G36*
X167448712Y-129012227D02*
G01*
X167598012Y-129041924D01*
X167761984Y-129109844D01*
X167909554Y-129208447D01*
X168035053Y-129333946D01*
X168133656Y-129481516D01*
X168201576Y-129645488D01*
X168236200Y-129819559D01*
X168236200Y-129997041D01*
X168201576Y-130171112D01*
X168133656Y-130335084D01*
X168035053Y-130482654D01*
X167909554Y-130608153D01*
X167761984Y-130706756D01*
X167598012Y-130774676D01*
X167448712Y-130804373D01*
X167423942Y-130809300D01*
X167246458Y-130809300D01*
X167221688Y-130804373D01*
X167072388Y-130774676D01*
X166908416Y-130706756D01*
X166760846Y-130608153D01*
X166635347Y-130482654D01*
X166536744Y-130335084D01*
X166468824Y-130171112D01*
X166434200Y-129997041D01*
X166434200Y-129819559D01*
X166468824Y-129645488D01*
X166536744Y-129481516D01*
X166635347Y-129333946D01*
X166760846Y-129208447D01*
X166908416Y-129109844D01*
X167072388Y-129041924D01*
X167221688Y-129012227D01*
X167246458Y-129007300D01*
X167423942Y-129007300D01*
X167448712Y-129012227D01*
X167448712Y-129012227D01*
G37*
G36*
X173948712Y-129012227D02*
G01*
X174098012Y-129041924D01*
X174261984Y-129109844D01*
X174409554Y-129208447D01*
X174535053Y-129333946D01*
X174633656Y-129481516D01*
X174701576Y-129645488D01*
X174736200Y-129819559D01*
X174736200Y-129997041D01*
X174701576Y-130171112D01*
X174633656Y-130335084D01*
X174535053Y-130482654D01*
X174409554Y-130608153D01*
X174261984Y-130706756D01*
X174098012Y-130774676D01*
X173948712Y-130804373D01*
X173923942Y-130809300D01*
X173746458Y-130809300D01*
X173721688Y-130804373D01*
X173572388Y-130774676D01*
X173408416Y-130706756D01*
X173260846Y-130608153D01*
X173135347Y-130482654D01*
X173036744Y-130335084D01*
X172968824Y-130171112D01*
X172934200Y-129997041D01*
X172934200Y-129819559D01*
X172968824Y-129645488D01*
X173036744Y-129481516D01*
X173135347Y-129333946D01*
X173260846Y-129208447D01*
X173408416Y-129109844D01*
X173572388Y-129041924D01*
X173721688Y-129012227D01*
X173746458Y-129007300D01*
X173923942Y-129007300D01*
X173948712Y-129012227D01*
X173948712Y-129012227D01*
G37*
G36*
X187885742Y-127678242D02*
G01*
X188033701Y-127739529D01*
X188166855Y-127828499D01*
X188280101Y-127941745D01*
X188369071Y-128074899D01*
X188430358Y-128222858D01*
X188461600Y-128379925D01*
X188461600Y-128540075D01*
X188430358Y-128697142D01*
X188369071Y-128845101D01*
X188280101Y-128978255D01*
X188166855Y-129091501D01*
X188033701Y-129180471D01*
X187885742Y-129241758D01*
X187728675Y-129273000D01*
X187568525Y-129273000D01*
X187411458Y-129241758D01*
X187263499Y-129180471D01*
X187130345Y-129091501D01*
X187017099Y-128978255D01*
X186928129Y-128845101D01*
X186866842Y-128697142D01*
X186835600Y-128540075D01*
X186835600Y-128379925D01*
X186866842Y-128222858D01*
X186928129Y-128074899D01*
X187017099Y-127941745D01*
X187130345Y-127828499D01*
X187263499Y-127739529D01*
X187411458Y-127678242D01*
X187568525Y-127647000D01*
X187728675Y-127647000D01*
X187885742Y-127678242D01*
X187885742Y-127678242D01*
G37*
G36*
X167448712Y-126158927D02*
G01*
X167598012Y-126188624D01*
X167761984Y-126256544D01*
X167909554Y-126355147D01*
X168035053Y-126480646D01*
X168133656Y-126628216D01*
X168201576Y-126792188D01*
X168236200Y-126966259D01*
X168236200Y-127143741D01*
X168201576Y-127317812D01*
X168133656Y-127481784D01*
X168035053Y-127629354D01*
X167909554Y-127754853D01*
X167761984Y-127853456D01*
X167598012Y-127921376D01*
X167448712Y-127951073D01*
X167423942Y-127956000D01*
X167246458Y-127956000D01*
X167221688Y-127951073D01*
X167072388Y-127921376D01*
X166908416Y-127853456D01*
X166760846Y-127754853D01*
X166635347Y-127629354D01*
X166536744Y-127481784D01*
X166468824Y-127317812D01*
X166434200Y-127143741D01*
X166434200Y-126966259D01*
X166468824Y-126792188D01*
X166536744Y-126628216D01*
X166635347Y-126480646D01*
X166760846Y-126355147D01*
X166908416Y-126256544D01*
X167072388Y-126188624D01*
X167221688Y-126158927D01*
X167246458Y-126154000D01*
X167423942Y-126154000D01*
X167448712Y-126158927D01*
X167448712Y-126158927D01*
G37*
G36*
X173948712Y-126158927D02*
G01*
X174098012Y-126188624D01*
X174261984Y-126256544D01*
X174409554Y-126355147D01*
X174535053Y-126480646D01*
X174633656Y-126628216D01*
X174701576Y-126792188D01*
X174736200Y-126966259D01*
X174736200Y-127143741D01*
X174701576Y-127317812D01*
X174633656Y-127481784D01*
X174535053Y-127629354D01*
X174409554Y-127754853D01*
X174261984Y-127853456D01*
X174098012Y-127921376D01*
X173948712Y-127951073D01*
X173923942Y-127956000D01*
X173746458Y-127956000D01*
X173721688Y-127951073D01*
X173572388Y-127921376D01*
X173408416Y-127853456D01*
X173260846Y-127754853D01*
X173135347Y-127629354D01*
X173036744Y-127481784D01*
X172968824Y-127317812D01*
X172934200Y-127143741D01*
X172934200Y-126966259D01*
X172968824Y-126792188D01*
X173036744Y-126628216D01*
X173135347Y-126480646D01*
X173260846Y-126355147D01*
X173408416Y-126256544D01*
X173572388Y-126188624D01*
X173721688Y-126158927D01*
X173746458Y-126154000D01*
X173923942Y-126154000D01*
X173948712Y-126158927D01*
X173948712Y-126158927D01*
G37*
G36*
X187885742Y-125138242D02*
G01*
X188033701Y-125199529D01*
X188166855Y-125288499D01*
X188280101Y-125401745D01*
X188369071Y-125534899D01*
X188430358Y-125682858D01*
X188461600Y-125839925D01*
X188461600Y-126000075D01*
X188430358Y-126157142D01*
X188369071Y-126305101D01*
X188280101Y-126438255D01*
X188166855Y-126551501D01*
X188033701Y-126640471D01*
X187885742Y-126701758D01*
X187728675Y-126733000D01*
X187568525Y-126733000D01*
X187411458Y-126701758D01*
X187263499Y-126640471D01*
X187130345Y-126551501D01*
X187017099Y-126438255D01*
X186928129Y-126305101D01*
X186866842Y-126157142D01*
X186835600Y-126000075D01*
X186835600Y-125839925D01*
X186866842Y-125682858D01*
X186928129Y-125534899D01*
X187017099Y-125401745D01*
X187130345Y-125288499D01*
X187263499Y-125199529D01*
X187411458Y-125138242D01*
X187568525Y-125107000D01*
X187728675Y-125107000D01*
X187885742Y-125138242D01*
X187885742Y-125138242D01*
G37*
G36*
X167448712Y-121658927D02*
G01*
X167598012Y-121688624D01*
X167761984Y-121756544D01*
X167909554Y-121855147D01*
X168035053Y-121980646D01*
X168133656Y-122128216D01*
X168201576Y-122292188D01*
X168236200Y-122466259D01*
X168236200Y-122643741D01*
X168201576Y-122817812D01*
X168133656Y-122981784D01*
X168035053Y-123129354D01*
X167909554Y-123254853D01*
X167761984Y-123353456D01*
X167598012Y-123421376D01*
X167448712Y-123451073D01*
X167423942Y-123456000D01*
X167246458Y-123456000D01*
X167221688Y-123451073D01*
X167072388Y-123421376D01*
X166908416Y-123353456D01*
X166760846Y-123254853D01*
X166635347Y-123129354D01*
X166536744Y-122981784D01*
X166468824Y-122817812D01*
X166434200Y-122643741D01*
X166434200Y-122466259D01*
X166468824Y-122292188D01*
X166536744Y-122128216D01*
X166635347Y-121980646D01*
X166760846Y-121855147D01*
X166908416Y-121756544D01*
X167072388Y-121688624D01*
X167221688Y-121658927D01*
X167246458Y-121654000D01*
X167423942Y-121654000D01*
X167448712Y-121658927D01*
X167448712Y-121658927D01*
G37*
G36*
X173948712Y-121658927D02*
G01*
X174098012Y-121688624D01*
X174261984Y-121756544D01*
X174409554Y-121855147D01*
X174535053Y-121980646D01*
X174633656Y-122128216D01*
X174701576Y-122292188D01*
X174736200Y-122466259D01*
X174736200Y-122643741D01*
X174701576Y-122817812D01*
X174633656Y-122981784D01*
X174535053Y-123129354D01*
X174409554Y-123254853D01*
X174261984Y-123353456D01*
X174098012Y-123421376D01*
X173948712Y-123451073D01*
X173923942Y-123456000D01*
X173746458Y-123456000D01*
X173721688Y-123451073D01*
X173572388Y-123421376D01*
X173408416Y-123353456D01*
X173260846Y-123254853D01*
X173135347Y-123129354D01*
X173036744Y-122981784D01*
X172968824Y-122817812D01*
X172934200Y-122643741D01*
X172934200Y-122466259D01*
X172968824Y-122292188D01*
X173036744Y-122128216D01*
X173135347Y-121980646D01*
X173260846Y-121855147D01*
X173408416Y-121756544D01*
X173572388Y-121688624D01*
X173721688Y-121658927D01*
X173746458Y-121654000D01*
X173923942Y-121654000D01*
X173948712Y-121658927D01*
X173948712Y-121658927D01*
G37*
G36*
X162847112Y-113528527D02*
G01*
X162996412Y-113558224D01*
X163160384Y-113626144D01*
X163307954Y-113724747D01*
X163433453Y-113850246D01*
X163532056Y-113997816D01*
X163599976Y-114161788D01*
X163634600Y-114335859D01*
X163634600Y-114513341D01*
X163599976Y-114687412D01*
X163532056Y-114851384D01*
X163433453Y-114998954D01*
X163307954Y-115124453D01*
X163160384Y-115223056D01*
X162996412Y-115290976D01*
X162847112Y-115320673D01*
X162822342Y-115325600D01*
X162644858Y-115325600D01*
X162620088Y-115320673D01*
X162470788Y-115290976D01*
X162306816Y-115223056D01*
X162159246Y-115124453D01*
X162033747Y-114998954D01*
X161935144Y-114851384D01*
X161867224Y-114687412D01*
X161832600Y-114513341D01*
X161832600Y-114335859D01*
X161867224Y-114161788D01*
X161935144Y-113997816D01*
X162033747Y-113850246D01*
X162159246Y-113724747D01*
X162306816Y-113626144D01*
X162470788Y-113558224D01*
X162620088Y-113528527D01*
X162644858Y-113523600D01*
X162822342Y-113523600D01*
X162847112Y-113528527D01*
X162847112Y-113528527D01*
G37*
G36*
X167347112Y-113528527D02*
G01*
X167496412Y-113558224D01*
X167660384Y-113626144D01*
X167807954Y-113724747D01*
X167933453Y-113850246D01*
X168032056Y-113997816D01*
X168099976Y-114161788D01*
X168134600Y-114335859D01*
X168134600Y-114513341D01*
X168099976Y-114687412D01*
X168032056Y-114851384D01*
X167933453Y-114998954D01*
X167807954Y-115124453D01*
X167660384Y-115223056D01*
X167496412Y-115290976D01*
X167347112Y-115320673D01*
X167322342Y-115325600D01*
X167144858Y-115325600D01*
X167120088Y-115320673D01*
X166970788Y-115290976D01*
X166806816Y-115223056D01*
X166659246Y-115124453D01*
X166533747Y-114998954D01*
X166435144Y-114851384D01*
X166367224Y-114687412D01*
X166332600Y-114513341D01*
X166332600Y-114335859D01*
X166367224Y-114161788D01*
X166435144Y-113997816D01*
X166533747Y-113850246D01*
X166659246Y-113724747D01*
X166806816Y-113626144D01*
X166970788Y-113558224D01*
X167120088Y-113528527D01*
X167144858Y-113523600D01*
X167322342Y-113523600D01*
X167347112Y-113528527D01*
X167347112Y-113528527D01*
G37*
G36*
X162847112Y-107028527D02*
G01*
X162996412Y-107058224D01*
X163160384Y-107126144D01*
X163307954Y-107224747D01*
X163433453Y-107350246D01*
X163532056Y-107497816D01*
X163599976Y-107661788D01*
X163634600Y-107835859D01*
X163634600Y-108013341D01*
X163599976Y-108187412D01*
X163532056Y-108351384D01*
X163433453Y-108498954D01*
X163307954Y-108624453D01*
X163160384Y-108723056D01*
X162996412Y-108790976D01*
X162847112Y-108820673D01*
X162822342Y-108825600D01*
X162644858Y-108825600D01*
X162620088Y-108820673D01*
X162470788Y-108790976D01*
X162306816Y-108723056D01*
X162159246Y-108624453D01*
X162033747Y-108498954D01*
X161935144Y-108351384D01*
X161867224Y-108187412D01*
X161832600Y-108013341D01*
X161832600Y-107835859D01*
X161867224Y-107661788D01*
X161935144Y-107497816D01*
X162033747Y-107350246D01*
X162159246Y-107224747D01*
X162306816Y-107126144D01*
X162470788Y-107058224D01*
X162620088Y-107028527D01*
X162644858Y-107023600D01*
X162822342Y-107023600D01*
X162847112Y-107028527D01*
X162847112Y-107028527D01*
G37*
G36*
X167347112Y-107028527D02*
G01*
X167496412Y-107058224D01*
X167660384Y-107126144D01*
X167807954Y-107224747D01*
X167933453Y-107350246D01*
X168032056Y-107497816D01*
X168099976Y-107661788D01*
X168134600Y-107835859D01*
X168134600Y-108013341D01*
X168099976Y-108187412D01*
X168032056Y-108351384D01*
X167933453Y-108498954D01*
X167807954Y-108624453D01*
X167660384Y-108723056D01*
X167496412Y-108790976D01*
X167347112Y-108820673D01*
X167322342Y-108825600D01*
X167144858Y-108825600D01*
X167120088Y-108820673D01*
X166970788Y-108790976D01*
X166806816Y-108723056D01*
X166659246Y-108624453D01*
X166533747Y-108498954D01*
X166435144Y-108351384D01*
X166367224Y-108187412D01*
X166332600Y-108013341D01*
X166332600Y-107835859D01*
X166367224Y-107661788D01*
X166435144Y-107497816D01*
X166533747Y-107350246D01*
X166659246Y-107224747D01*
X166806816Y-107126144D01*
X166970788Y-107058224D01*
X167120088Y-107028527D01*
X167144858Y-107023600D01*
X167322342Y-107023600D01*
X167347112Y-107028527D01*
X167347112Y-107028527D01*
G37*
G36*
X224432395Y-98145546D02*
G01*
X224605466Y-98217234D01*
X224605467Y-98217235D01*
X224761227Y-98321310D01*
X224893690Y-98453773D01*
X224893691Y-98453775D01*
X224997766Y-98609534D01*
X225069454Y-98782605D01*
X225106000Y-98966333D01*
X225106000Y-99153667D01*
X225069454Y-99337395D01*
X224997766Y-99510466D01*
X224997765Y-99510467D01*
X224893690Y-99666227D01*
X224761227Y-99798690D01*
X224682818Y-99851081D01*
X224605466Y-99902766D01*
X224432395Y-99974454D01*
X224248667Y-100011000D01*
X224061333Y-100011000D01*
X223877605Y-99974454D01*
X223704534Y-99902766D01*
X223627182Y-99851081D01*
X223548773Y-99798690D01*
X223416310Y-99666227D01*
X223312235Y-99510467D01*
X223312234Y-99510466D01*
X223240546Y-99337395D01*
X223204000Y-99153667D01*
X223204000Y-98966333D01*
X223240546Y-98782605D01*
X223312234Y-98609534D01*
X223416309Y-98453775D01*
X223416310Y-98453773D01*
X223548773Y-98321310D01*
X223704533Y-98217235D01*
X223704534Y-98217234D01*
X223877605Y-98145546D01*
X224061333Y-98109000D01*
X224248667Y-98109000D01*
X224432395Y-98145546D01*
X224432395Y-98145546D01*
G37*
G36*
X221932395Y-98145546D02*
G01*
X222105466Y-98217234D01*
X222105467Y-98217235D01*
X222261227Y-98321310D01*
X222393690Y-98453773D01*
X222393691Y-98453775D01*
X222497766Y-98609534D01*
X222569454Y-98782605D01*
X222606000Y-98966333D01*
X222606000Y-99153667D01*
X222569454Y-99337395D01*
X222497766Y-99510466D01*
X222497765Y-99510467D01*
X222393690Y-99666227D01*
X222261227Y-99798690D01*
X222182818Y-99851081D01*
X222105466Y-99902766D01*
X221932395Y-99974454D01*
X221748667Y-100011000D01*
X221561333Y-100011000D01*
X221377605Y-99974454D01*
X221204534Y-99902766D01*
X221127182Y-99851081D01*
X221048773Y-99798690D01*
X220916310Y-99666227D01*
X220812235Y-99510467D01*
X220812234Y-99510466D01*
X220740546Y-99337395D01*
X220704000Y-99153667D01*
X220704000Y-98966333D01*
X220740546Y-98782605D01*
X220812234Y-98609534D01*
X220916309Y-98453775D01*
X220916310Y-98453773D01*
X221048773Y-98321310D01*
X221204533Y-98217235D01*
X221204534Y-98217234D01*
X221377605Y-98145546D01*
X221561333Y-98109000D01*
X221748667Y-98109000D01*
X221932395Y-98145546D01*
X221932395Y-98145546D01*
G37*
G36*
X224432395Y-95645546D02*
G01*
X224605466Y-95717234D01*
X224605467Y-95717235D01*
X224761227Y-95821310D01*
X224893690Y-95953773D01*
X224893691Y-95953775D01*
X224997766Y-96109534D01*
X225069454Y-96282605D01*
X225106000Y-96466333D01*
X225106000Y-96653667D01*
X225069454Y-96837395D01*
X224997766Y-97010466D01*
X224997765Y-97010467D01*
X224893690Y-97166227D01*
X224761227Y-97298690D01*
X224682818Y-97351081D01*
X224605466Y-97402766D01*
X224432395Y-97474454D01*
X224248667Y-97511000D01*
X224061333Y-97511000D01*
X223877605Y-97474454D01*
X223704534Y-97402766D01*
X223627182Y-97351081D01*
X223548773Y-97298690D01*
X223416310Y-97166227D01*
X223312235Y-97010467D01*
X223312234Y-97010466D01*
X223240546Y-96837395D01*
X223204000Y-96653667D01*
X223204000Y-96466333D01*
X223240546Y-96282605D01*
X223312234Y-96109534D01*
X223416309Y-95953775D01*
X223416310Y-95953773D01*
X223548773Y-95821310D01*
X223704533Y-95717235D01*
X223704534Y-95717234D01*
X223877605Y-95645546D01*
X224061333Y-95609000D01*
X224248667Y-95609000D01*
X224432395Y-95645546D01*
X224432395Y-95645546D01*
G37*
G36*
X221932395Y-95645546D02*
G01*
X222105466Y-95717234D01*
X222105467Y-95717235D01*
X222261227Y-95821310D01*
X222393690Y-95953773D01*
X222393691Y-95953775D01*
X222497766Y-96109534D01*
X222569454Y-96282605D01*
X222606000Y-96466333D01*
X222606000Y-96653667D01*
X222569454Y-96837395D01*
X222497766Y-97010466D01*
X222497765Y-97010467D01*
X222393690Y-97166227D01*
X222261227Y-97298690D01*
X222182818Y-97351081D01*
X222105466Y-97402766D01*
X221932395Y-97474454D01*
X221748667Y-97511000D01*
X221561333Y-97511000D01*
X221377605Y-97474454D01*
X221204534Y-97402766D01*
X221127182Y-97351081D01*
X221048773Y-97298690D01*
X220916310Y-97166227D01*
X220812235Y-97010467D01*
X220812234Y-97010466D01*
X220740546Y-96837395D01*
X220704000Y-96653667D01*
X220704000Y-96466333D01*
X220740546Y-96282605D01*
X220812234Y-96109534D01*
X220916309Y-95953775D01*
X220916310Y-95953773D01*
X221048773Y-95821310D01*
X221204533Y-95717235D01*
X221204534Y-95717234D01*
X221377605Y-95645546D01*
X221561333Y-95609000D01*
X221748667Y-95609000D01*
X221932395Y-95645546D01*
X221932395Y-95645546D01*
G37*
G36*
X224432395Y-93145546D02*
G01*
X224605466Y-93217234D01*
X224620414Y-93227222D01*
X224761227Y-93321310D01*
X224893690Y-93453773D01*
X224909217Y-93477011D01*
X224997766Y-93609534D01*
X225069454Y-93782605D01*
X225106000Y-93966333D01*
X225106000Y-94153667D01*
X225069454Y-94337395D01*
X224997766Y-94510466D01*
X224997765Y-94510467D01*
X224893690Y-94666227D01*
X224761227Y-94798690D01*
X224682818Y-94851081D01*
X224605466Y-94902766D01*
X224432395Y-94974454D01*
X224248667Y-95011000D01*
X224061333Y-95011000D01*
X223877605Y-94974454D01*
X223704534Y-94902766D01*
X223627182Y-94851081D01*
X223548773Y-94798690D01*
X223416310Y-94666227D01*
X223312235Y-94510467D01*
X223312234Y-94510466D01*
X223240546Y-94337395D01*
X223204000Y-94153667D01*
X223204000Y-93966333D01*
X223240546Y-93782605D01*
X223312234Y-93609534D01*
X223400783Y-93477011D01*
X223416310Y-93453773D01*
X223548773Y-93321310D01*
X223689586Y-93227222D01*
X223704534Y-93217234D01*
X223877605Y-93145546D01*
X224061333Y-93109000D01*
X224248667Y-93109000D01*
X224432395Y-93145546D01*
X224432395Y-93145546D01*
G37*
G36*
X221932395Y-93145546D02*
G01*
X222105466Y-93217234D01*
X222120414Y-93227222D01*
X222261227Y-93321310D01*
X222393690Y-93453773D01*
X222409217Y-93477011D01*
X222497766Y-93609534D01*
X222569454Y-93782605D01*
X222606000Y-93966333D01*
X222606000Y-94153667D01*
X222569454Y-94337395D01*
X222497766Y-94510466D01*
X222497765Y-94510467D01*
X222393690Y-94666227D01*
X222261227Y-94798690D01*
X222182818Y-94851081D01*
X222105466Y-94902766D01*
X221932395Y-94974454D01*
X221748667Y-95011000D01*
X221561333Y-95011000D01*
X221377605Y-94974454D01*
X221204534Y-94902766D01*
X221127182Y-94851081D01*
X221048773Y-94798690D01*
X220916310Y-94666227D01*
X220812235Y-94510467D01*
X220812234Y-94510466D01*
X220740546Y-94337395D01*
X220704000Y-94153667D01*
X220704000Y-93966333D01*
X220740546Y-93782605D01*
X220812234Y-93609534D01*
X220900783Y-93477011D01*
X220916310Y-93453773D01*
X221048773Y-93321310D01*
X221189586Y-93227222D01*
X221204534Y-93217234D01*
X221377605Y-93145546D01*
X221561333Y-93109000D01*
X221748667Y-93109000D01*
X221932395Y-93145546D01*
X221932395Y-93145546D01*
G37*
G36*
X195690443Y-93085519D02*
G01*
X195756627Y-93092037D01*
X195926466Y-93143557D01*
X196082991Y-93227222D01*
X196118729Y-93256552D01*
X196220186Y-93339814D01*
X196303448Y-93441271D01*
X196332778Y-93477009D01*
X196416443Y-93633534D01*
X196467963Y-93803373D01*
X196485359Y-93980000D01*
X196467963Y-94156627D01*
X196416443Y-94326466D01*
X196332778Y-94482991D01*
X196310230Y-94510466D01*
X196220186Y-94620186D01*
X196118729Y-94703448D01*
X196082991Y-94732778D01*
X195926466Y-94816443D01*
X195756627Y-94867963D01*
X195690443Y-94874481D01*
X195624260Y-94881000D01*
X195535740Y-94881000D01*
X195469557Y-94874481D01*
X195403373Y-94867963D01*
X195233534Y-94816443D01*
X195077009Y-94732778D01*
X195041271Y-94703448D01*
X194939814Y-94620186D01*
X194849770Y-94510466D01*
X194827222Y-94482991D01*
X194743557Y-94326466D01*
X194692037Y-94156627D01*
X194674641Y-93980000D01*
X194692037Y-93803373D01*
X194743557Y-93633534D01*
X194827222Y-93477009D01*
X194856552Y-93441271D01*
X194939814Y-93339814D01*
X195041271Y-93256552D01*
X195077009Y-93227222D01*
X195233534Y-93143557D01*
X195403373Y-93092037D01*
X195469557Y-93085519D01*
X195535740Y-93079000D01*
X195624260Y-93079000D01*
X195690443Y-93085519D01*
X195690443Y-93085519D01*
G37*
G36*
X207862421Y-90959143D02*
G01*
X207994557Y-90999227D01*
X207994559Y-90999228D01*
X208116339Y-91064320D01*
X208223080Y-91151920D01*
X208310680Y-91258661D01*
X208375772Y-91380441D01*
X208375773Y-91380443D01*
X208415857Y-91512579D01*
X208426000Y-91615568D01*
X208426000Y-92984432D01*
X208415857Y-93087421D01*
X208376477Y-93217235D01*
X208375772Y-93219559D01*
X208310681Y-93341338D01*
X208310679Y-93341340D01*
X208223080Y-93448080D01*
X208135480Y-93519971D01*
X208116338Y-93535680D01*
X207994558Y-93600772D01*
X207994556Y-93600773D01*
X207862420Y-93640857D01*
X207725000Y-93654391D01*
X207587579Y-93640857D01*
X207455443Y-93600773D01*
X207455441Y-93600772D01*
X207333661Y-93535680D01*
X207262173Y-93477011D01*
X207226920Y-93448080D01*
X207139321Y-93341339D01*
X207138506Y-93339814D01*
X207074228Y-93219558D01*
X207073523Y-93217234D01*
X207034143Y-93087420D01*
X207024000Y-92984431D01*
X207024001Y-91615568D01*
X207034144Y-91512579D01*
X207074228Y-91380443D01*
X207074229Y-91380441D01*
X207139321Y-91258661D01*
X207226921Y-91151920D01*
X207333662Y-91064320D01*
X207455442Y-90999228D01*
X207455444Y-90999227D01*
X207587580Y-90959143D01*
X207725000Y-90945609D01*
X207862421Y-90959143D01*
X207862421Y-90959143D01*
G37*
G36*
X217862421Y-90959143D02*
G01*
X217994557Y-90999227D01*
X217994559Y-90999228D01*
X218116339Y-91064320D01*
X218223080Y-91151920D01*
X218310680Y-91258661D01*
X218375772Y-91380441D01*
X218375773Y-91380443D01*
X218415857Y-91512579D01*
X218426000Y-91615568D01*
X218426000Y-92984432D01*
X218415857Y-93087421D01*
X218376477Y-93217235D01*
X218375772Y-93219559D01*
X218310681Y-93341338D01*
X218310679Y-93341340D01*
X218223080Y-93448080D01*
X218135480Y-93519971D01*
X218116338Y-93535680D01*
X217994558Y-93600772D01*
X217994556Y-93600773D01*
X217862420Y-93640857D01*
X217725000Y-93654391D01*
X217587579Y-93640857D01*
X217455443Y-93600773D01*
X217455441Y-93600772D01*
X217333661Y-93535680D01*
X217262173Y-93477011D01*
X217226920Y-93448080D01*
X217139321Y-93341339D01*
X217138506Y-93339814D01*
X217074228Y-93219558D01*
X217073523Y-93217234D01*
X217034143Y-93087420D01*
X217024000Y-92984431D01*
X217024001Y-91615568D01*
X217034144Y-91512579D01*
X217074228Y-91380443D01*
X217074229Y-91380441D01*
X217139321Y-91258661D01*
X217226921Y-91151920D01*
X217333662Y-91064320D01*
X217455442Y-90999228D01*
X217455444Y-90999227D01*
X217587580Y-90959143D01*
X217725000Y-90945609D01*
X217862421Y-90959143D01*
X217862421Y-90959143D01*
G37*
G36*
X215362421Y-90959143D02*
G01*
X215494557Y-90999227D01*
X215494559Y-90999228D01*
X215616339Y-91064320D01*
X215723080Y-91151920D01*
X215810680Y-91258661D01*
X215875772Y-91380441D01*
X215875773Y-91380443D01*
X215915857Y-91512579D01*
X215926000Y-91615568D01*
X215926000Y-92984432D01*
X215915857Y-93087421D01*
X215876477Y-93217235D01*
X215875772Y-93219559D01*
X215810681Y-93341338D01*
X215810679Y-93341340D01*
X215723080Y-93448080D01*
X215635480Y-93519971D01*
X215616338Y-93535680D01*
X215494558Y-93600772D01*
X215494556Y-93600773D01*
X215362420Y-93640857D01*
X215225000Y-93654391D01*
X215087579Y-93640857D01*
X214955443Y-93600773D01*
X214955441Y-93600772D01*
X214833661Y-93535680D01*
X214762173Y-93477011D01*
X214726920Y-93448080D01*
X214639321Y-93341339D01*
X214638506Y-93339814D01*
X214574228Y-93219558D01*
X214573523Y-93217234D01*
X214534143Y-93087420D01*
X214524000Y-92984431D01*
X214524001Y-91615568D01*
X214534144Y-91512579D01*
X214574228Y-91380443D01*
X214574229Y-91380441D01*
X214639321Y-91258661D01*
X214726921Y-91151920D01*
X214833662Y-91064320D01*
X214955442Y-90999228D01*
X214955444Y-90999227D01*
X215087580Y-90959143D01*
X215225000Y-90945609D01*
X215362421Y-90959143D01*
X215362421Y-90959143D01*
G37*
G36*
X210362421Y-90959143D02*
G01*
X210494557Y-90999227D01*
X210494559Y-90999228D01*
X210616339Y-91064320D01*
X210723080Y-91151920D01*
X210810680Y-91258661D01*
X210875772Y-91380441D01*
X210875773Y-91380443D01*
X210915857Y-91512579D01*
X210926000Y-91615568D01*
X210926000Y-92984432D01*
X210915857Y-93087421D01*
X210876477Y-93217235D01*
X210875772Y-93219559D01*
X210810681Y-93341338D01*
X210810679Y-93341340D01*
X210723080Y-93448080D01*
X210635480Y-93519971D01*
X210616338Y-93535680D01*
X210494558Y-93600772D01*
X210494556Y-93600773D01*
X210362420Y-93640857D01*
X210225000Y-93654391D01*
X210087579Y-93640857D01*
X209955443Y-93600773D01*
X209955441Y-93600772D01*
X209833661Y-93535680D01*
X209762173Y-93477011D01*
X209726920Y-93448080D01*
X209639321Y-93341339D01*
X209638506Y-93339814D01*
X209574228Y-93219558D01*
X209573523Y-93217234D01*
X209534143Y-93087420D01*
X209524000Y-92984431D01*
X209524001Y-91615568D01*
X209534144Y-91512579D01*
X209574228Y-91380443D01*
X209574229Y-91380441D01*
X209639321Y-91258661D01*
X209726921Y-91151920D01*
X209833662Y-91064320D01*
X209955442Y-90999228D01*
X209955444Y-90999227D01*
X210087580Y-90959143D01*
X210225000Y-90945609D01*
X210362421Y-90959143D01*
X210362421Y-90959143D01*
G37*
G36*
X212914890Y-91674017D02*
G01*
X213033364Y-91723091D01*
X213128211Y-91786466D01*
X213139988Y-91794335D01*
X213230665Y-91885012D01*
X213301910Y-91991638D01*
X213350983Y-92110110D01*
X213367427Y-92192779D01*
X213376000Y-92235882D01*
X213376000Y-92364118D01*
X213350983Y-92489890D01*
X213301909Y-92608364D01*
X213230665Y-92714988D01*
X213139988Y-92805665D01*
X213033364Y-92876909D01*
X213033363Y-92876910D01*
X213033362Y-92876910D01*
X212914890Y-92925983D01*
X212789119Y-92951000D01*
X212660881Y-92951000D01*
X212535110Y-92925983D01*
X212416638Y-92876910D01*
X212416637Y-92876910D01*
X212416636Y-92876909D01*
X212310012Y-92805665D01*
X212219335Y-92714988D01*
X212148091Y-92608364D01*
X212099017Y-92489890D01*
X212074000Y-92364118D01*
X212074000Y-92235882D01*
X212082574Y-92192779D01*
X212099017Y-92110110D01*
X212148090Y-91991638D01*
X212219335Y-91885012D01*
X212310012Y-91794335D01*
X212321789Y-91786466D01*
X212416636Y-91723091D01*
X212535110Y-91674017D01*
X212660881Y-91649000D01*
X212789119Y-91649000D01*
X212914890Y-91674017D01*
X212914890Y-91674017D01*
G37*
G36*
X189340443Y-90545519D02*
G01*
X189406627Y-90552037D01*
X189576466Y-90603557D01*
X189732991Y-90687222D01*
X189768729Y-90716552D01*
X189870186Y-90799814D01*
X189953448Y-90901271D01*
X189982778Y-90937009D01*
X190066443Y-91093534D01*
X190117963Y-91263373D01*
X190135359Y-91440000D01*
X190117963Y-91616627D01*
X190066443Y-91786466D01*
X189982778Y-91942991D01*
X189953448Y-91978729D01*
X189870186Y-92080186D01*
X189768729Y-92163448D01*
X189732991Y-92192778D01*
X189576466Y-92276443D01*
X189406627Y-92327963D01*
X189340443Y-92334481D01*
X189274260Y-92341000D01*
X189185740Y-92341000D01*
X189119557Y-92334481D01*
X189053373Y-92327963D01*
X188883534Y-92276443D01*
X188727009Y-92192778D01*
X188691271Y-92163448D01*
X188589814Y-92080186D01*
X188506552Y-91978729D01*
X188477222Y-91942991D01*
X188393557Y-91786466D01*
X188342037Y-91616627D01*
X188324641Y-91440000D01*
X188342037Y-91263373D01*
X188393557Y-91093534D01*
X188477222Y-90937009D01*
X188506552Y-90901271D01*
X188589814Y-90799814D01*
X188691271Y-90716552D01*
X188727009Y-90687222D01*
X188883534Y-90603557D01*
X189053373Y-90552037D01*
X189119558Y-90545518D01*
X189185740Y-90539000D01*
X189274260Y-90539000D01*
X189340443Y-90545519D01*
X189340443Y-90545519D01*
G37*
G36*
X191880443Y-90545519D02*
G01*
X191946627Y-90552037D01*
X192116466Y-90603557D01*
X192272991Y-90687222D01*
X192308729Y-90716552D01*
X192410186Y-90799814D01*
X192493448Y-90901271D01*
X192522778Y-90937009D01*
X192606443Y-91093534D01*
X192657963Y-91263373D01*
X192675359Y-91440000D01*
X192657963Y-91616627D01*
X192606443Y-91786466D01*
X192522778Y-91942991D01*
X192493448Y-91978729D01*
X192410186Y-92080186D01*
X192308729Y-92163448D01*
X192272991Y-92192778D01*
X192116466Y-92276443D01*
X191946627Y-92327963D01*
X191880443Y-92334481D01*
X191814260Y-92341000D01*
X191725740Y-92341000D01*
X191659557Y-92334481D01*
X191593373Y-92327963D01*
X191423534Y-92276443D01*
X191267009Y-92192778D01*
X191231271Y-92163448D01*
X191129814Y-92080186D01*
X191046552Y-91978729D01*
X191017222Y-91942991D01*
X190933557Y-91786466D01*
X190882037Y-91616627D01*
X190864641Y-91440000D01*
X190882037Y-91263373D01*
X190933557Y-91093534D01*
X191017222Y-90937009D01*
X191046552Y-90901271D01*
X191129814Y-90799814D01*
X191231271Y-90716552D01*
X191267009Y-90687222D01*
X191423534Y-90603557D01*
X191593373Y-90552037D01*
X191659558Y-90545518D01*
X191725740Y-90539000D01*
X191814260Y-90539000D01*
X191880443Y-90545519D01*
X191880443Y-90545519D01*
G37*
G36*
X195690443Y-90545519D02*
G01*
X195756627Y-90552037D01*
X195926466Y-90603557D01*
X196082991Y-90687222D01*
X196118729Y-90716552D01*
X196220186Y-90799814D01*
X196303448Y-90901271D01*
X196332778Y-90937009D01*
X196416443Y-91093534D01*
X196467963Y-91263373D01*
X196485359Y-91440000D01*
X196467963Y-91616627D01*
X196416443Y-91786466D01*
X196332778Y-91942991D01*
X196303448Y-91978729D01*
X196220186Y-92080186D01*
X196118729Y-92163448D01*
X196082991Y-92192778D01*
X195926466Y-92276443D01*
X195756627Y-92327963D01*
X195690443Y-92334481D01*
X195624260Y-92341000D01*
X195535740Y-92341000D01*
X195469557Y-92334481D01*
X195403373Y-92327963D01*
X195233534Y-92276443D01*
X195077009Y-92192778D01*
X195041271Y-92163448D01*
X194939814Y-92080186D01*
X194856552Y-91978729D01*
X194827222Y-91942991D01*
X194743557Y-91786466D01*
X194692037Y-91616627D01*
X194674641Y-91440000D01*
X194692037Y-91263373D01*
X194743557Y-91093534D01*
X194827222Y-90937009D01*
X194856552Y-90901271D01*
X194939814Y-90799814D01*
X195041271Y-90716552D01*
X195077009Y-90687222D01*
X195233534Y-90603557D01*
X195403373Y-90552037D01*
X195469558Y-90545518D01*
X195535740Y-90539000D01*
X195624260Y-90539000D01*
X195690443Y-90545519D01*
X195690443Y-90545519D01*
G37*
G36*
X179507740Y-89243627D02*
G01*
X179556136Y-89253253D01*
X179593902Y-89268896D01*
X179647311Y-89291019D01*
X179647312Y-89291020D01*
X179729369Y-89345848D01*
X179799152Y-89415631D01*
X179799153Y-89415633D01*
X179853981Y-89497689D01*
X179891747Y-89588865D01*
X179911000Y-89685655D01*
X179911000Y-89784345D01*
X179891747Y-89881135D01*
X179853981Y-89972311D01*
X179853980Y-89972312D01*
X179799152Y-90054369D01*
X179729369Y-90124152D01*
X179688062Y-90151752D01*
X179647311Y-90178981D01*
X179593902Y-90201104D01*
X179556136Y-90216747D01*
X179507740Y-90226374D01*
X179459345Y-90236000D01*
X179360655Y-90236000D01*
X179312260Y-90226374D01*
X179263864Y-90216747D01*
X179226098Y-90201104D01*
X179172689Y-90178981D01*
X179131938Y-90151752D01*
X179090631Y-90124152D01*
X179020848Y-90054369D01*
X178966020Y-89972312D01*
X178966019Y-89972311D01*
X178928253Y-89881135D01*
X178909000Y-89784345D01*
X178909000Y-89685655D01*
X178928253Y-89588865D01*
X178966019Y-89497689D01*
X179020847Y-89415633D01*
X179020848Y-89415631D01*
X179090631Y-89345848D01*
X179172688Y-89291020D01*
X179172689Y-89291019D01*
X179226098Y-89268896D01*
X179263864Y-89253253D01*
X179312260Y-89243626D01*
X179360655Y-89234000D01*
X179459345Y-89234000D01*
X179507740Y-89243627D01*
X179507740Y-89243627D01*
G37*
G36*
X183907740Y-89243627D02*
G01*
X183956136Y-89253253D01*
X183993902Y-89268896D01*
X184047311Y-89291019D01*
X184047312Y-89291020D01*
X184129369Y-89345848D01*
X184199152Y-89415631D01*
X184199153Y-89415633D01*
X184253981Y-89497689D01*
X184291747Y-89588865D01*
X184311000Y-89685655D01*
X184311000Y-89784345D01*
X184291747Y-89881135D01*
X184253981Y-89972311D01*
X184253980Y-89972312D01*
X184199152Y-90054369D01*
X184129369Y-90124152D01*
X184088062Y-90151752D01*
X184047311Y-90178981D01*
X183993902Y-90201104D01*
X183956136Y-90216747D01*
X183907740Y-90226374D01*
X183859345Y-90236000D01*
X183760655Y-90236000D01*
X183712260Y-90226374D01*
X183663864Y-90216747D01*
X183626098Y-90201104D01*
X183572689Y-90178981D01*
X183531938Y-90151752D01*
X183490631Y-90124152D01*
X183420848Y-90054369D01*
X183366020Y-89972312D01*
X183366019Y-89972311D01*
X183328253Y-89881135D01*
X183309000Y-89784345D01*
X183309000Y-89685655D01*
X183328253Y-89588865D01*
X183366019Y-89497689D01*
X183420847Y-89415633D01*
X183420848Y-89415631D01*
X183490631Y-89345848D01*
X183572688Y-89291020D01*
X183572689Y-89291019D01*
X183626098Y-89268896D01*
X183663864Y-89253253D01*
X183712260Y-89243626D01*
X183760655Y-89234000D01*
X183859345Y-89234000D01*
X183907740Y-89243627D01*
X183907740Y-89243627D01*
G37*
G36*
X189340443Y-88005519D02*
G01*
X189406627Y-88012037D01*
X189576466Y-88063557D01*
X189732991Y-88147222D01*
X189768729Y-88176552D01*
X189870186Y-88259814D01*
X189953448Y-88361271D01*
X189982778Y-88397009D01*
X189982779Y-88397011D01*
X190062045Y-88545305D01*
X190066443Y-88553534D01*
X190117963Y-88723373D01*
X190135359Y-88900000D01*
X190117963Y-89076627D01*
X190066443Y-89246466D01*
X189982778Y-89402991D01*
X189953448Y-89438729D01*
X189870186Y-89540186D01*
X189768729Y-89623448D01*
X189732991Y-89652778D01*
X189576466Y-89736443D01*
X189406627Y-89787963D01*
X189340443Y-89794481D01*
X189274260Y-89801000D01*
X189185740Y-89801000D01*
X189119557Y-89794481D01*
X189053373Y-89787963D01*
X188883534Y-89736443D01*
X188727009Y-89652778D01*
X188691271Y-89623448D01*
X188589814Y-89540186D01*
X188506552Y-89438729D01*
X188477222Y-89402991D01*
X188393557Y-89246466D01*
X188342037Y-89076627D01*
X188324641Y-88900000D01*
X188342037Y-88723373D01*
X188393557Y-88553534D01*
X188397956Y-88545305D01*
X188477221Y-88397011D01*
X188477222Y-88397009D01*
X188506552Y-88361271D01*
X188589814Y-88259814D01*
X188691271Y-88176552D01*
X188727009Y-88147222D01*
X188883534Y-88063557D01*
X189053373Y-88012037D01*
X189119558Y-88005518D01*
X189185740Y-87999000D01*
X189274260Y-87999000D01*
X189340443Y-88005519D01*
X189340443Y-88005519D01*
G37*
G36*
X191880443Y-88005519D02*
G01*
X191946627Y-88012037D01*
X192116466Y-88063557D01*
X192272991Y-88147222D01*
X192308729Y-88176552D01*
X192410186Y-88259814D01*
X192493448Y-88361271D01*
X192522778Y-88397009D01*
X192522779Y-88397011D01*
X192602045Y-88545305D01*
X192606443Y-88553534D01*
X192657963Y-88723373D01*
X192675359Y-88900000D01*
X192657963Y-89076627D01*
X192606443Y-89246466D01*
X192522778Y-89402991D01*
X192493448Y-89438729D01*
X192410186Y-89540186D01*
X192308729Y-89623448D01*
X192272991Y-89652778D01*
X192116466Y-89736443D01*
X191946627Y-89787963D01*
X191880443Y-89794481D01*
X191814260Y-89801000D01*
X191725740Y-89801000D01*
X191659557Y-89794481D01*
X191593373Y-89787963D01*
X191423534Y-89736443D01*
X191267009Y-89652778D01*
X191231271Y-89623448D01*
X191129814Y-89540186D01*
X191046552Y-89438729D01*
X191017222Y-89402991D01*
X190933557Y-89246466D01*
X190882037Y-89076627D01*
X190864641Y-88900000D01*
X190882037Y-88723373D01*
X190933557Y-88553534D01*
X190937956Y-88545305D01*
X191017221Y-88397011D01*
X191017222Y-88397009D01*
X191046552Y-88361271D01*
X191129814Y-88259814D01*
X191231271Y-88176552D01*
X191267009Y-88147222D01*
X191423534Y-88063557D01*
X191593373Y-88012037D01*
X191659558Y-88005518D01*
X191725740Y-87999000D01*
X191814260Y-87999000D01*
X191880443Y-88005519D01*
X191880443Y-88005519D01*
G37*
G36*
X195690443Y-88005519D02*
G01*
X195756627Y-88012037D01*
X195926466Y-88063557D01*
X196082991Y-88147222D01*
X196118729Y-88176552D01*
X196220186Y-88259814D01*
X196303448Y-88361271D01*
X196332778Y-88397009D01*
X196332779Y-88397011D01*
X196412045Y-88545305D01*
X196416443Y-88553534D01*
X196467963Y-88723373D01*
X196485359Y-88900000D01*
X196467963Y-89076627D01*
X196416443Y-89246466D01*
X196332778Y-89402991D01*
X196303448Y-89438729D01*
X196220186Y-89540186D01*
X196118729Y-89623448D01*
X196082991Y-89652778D01*
X195926466Y-89736443D01*
X195756627Y-89787963D01*
X195690443Y-89794481D01*
X195624260Y-89801000D01*
X195535740Y-89801000D01*
X195469557Y-89794481D01*
X195403373Y-89787963D01*
X195233534Y-89736443D01*
X195077009Y-89652778D01*
X195041271Y-89623448D01*
X194939814Y-89540186D01*
X194856552Y-89438729D01*
X194827222Y-89402991D01*
X194743557Y-89246466D01*
X194692037Y-89076627D01*
X194674641Y-88900000D01*
X194692037Y-88723373D01*
X194743557Y-88553534D01*
X194747956Y-88545305D01*
X194827221Y-88397011D01*
X194827222Y-88397009D01*
X194856552Y-88361271D01*
X194939814Y-88259814D01*
X195041271Y-88176552D01*
X195077009Y-88147222D01*
X195233534Y-88063557D01*
X195403373Y-88012037D01*
X195469558Y-88005518D01*
X195535740Y-87999000D01*
X195624260Y-87999000D01*
X195690443Y-88005519D01*
X195690443Y-88005519D01*
G37*
G36*
X226435256Y-86021298D02*
G01*
X226541579Y-86042447D01*
X226842042Y-86166903D01*
X227112451Y-86347585D01*
X227342415Y-86577549D01*
X227523097Y-86847958D01*
X227632790Y-87112779D01*
X227647553Y-87148422D01*
X227711000Y-87467389D01*
X227711000Y-87792611D01*
X227679539Y-87950773D01*
X227647553Y-88111579D01*
X227523097Y-88412042D01*
X227342415Y-88682451D01*
X227112451Y-88912415D01*
X226842042Y-89093097D01*
X226541579Y-89217553D01*
X226458894Y-89234000D01*
X226222611Y-89281000D01*
X225897389Y-89281000D01*
X225661106Y-89234000D01*
X225578421Y-89217553D01*
X225277958Y-89093097D01*
X225007549Y-88912415D01*
X224777585Y-88682451D01*
X224596903Y-88412042D01*
X224472447Y-88111579D01*
X224440461Y-87950773D01*
X224409000Y-87792611D01*
X224409000Y-87467389D01*
X224472447Y-87148422D01*
X224487211Y-87112779D01*
X224596903Y-86847958D01*
X224777585Y-86577549D01*
X225007549Y-86347585D01*
X225277958Y-86166903D01*
X225578421Y-86042447D01*
X225684744Y-86021298D01*
X225897389Y-85979000D01*
X226222611Y-85979000D01*
X226435256Y-86021298D01*
X226435256Y-86021298D01*
G37*
G36*
X154045256Y-86021298D02*
G01*
X154151579Y-86042447D01*
X154452042Y-86166903D01*
X154722451Y-86347585D01*
X154952415Y-86577549D01*
X155133097Y-86847958D01*
X155242790Y-87112779D01*
X155257553Y-87148422D01*
X155321000Y-87467389D01*
X155321000Y-87792611D01*
X155289539Y-87950773D01*
X155257553Y-88111579D01*
X155133097Y-88412042D01*
X154952415Y-88682451D01*
X154722451Y-88912415D01*
X154452042Y-89093097D01*
X154151579Y-89217553D01*
X154068894Y-89234000D01*
X153832611Y-89281000D01*
X153507389Y-89281000D01*
X153271106Y-89234000D01*
X153188421Y-89217553D01*
X152887958Y-89093097D01*
X152617549Y-88912415D01*
X152387585Y-88682451D01*
X152206903Y-88412042D01*
X152082447Y-88111579D01*
X152050461Y-87950773D01*
X152019000Y-87792611D01*
X152019000Y-87467389D01*
X152082447Y-87148422D01*
X152097211Y-87112779D01*
X152206903Y-86847958D01*
X152387585Y-86577549D01*
X152617549Y-86347585D01*
X152887958Y-86166903D01*
X153188421Y-86042447D01*
X153294744Y-86021298D01*
X153507389Y-85979000D01*
X153832611Y-85979000D01*
X154045256Y-86021298D01*
X154045256Y-86021298D01*
G37*
G36*
X163166601Y-87784397D02*
G01*
X163205305Y-87792096D01*
X163237340Y-87805365D01*
X163314680Y-87837400D01*
X163413115Y-87903173D01*
X163496827Y-87986885D01*
X163562600Y-88085320D01*
X163607904Y-88194696D01*
X163631000Y-88310805D01*
X163631000Y-88429195D01*
X163607904Y-88545304D01*
X163562600Y-88654680D01*
X163496827Y-88753115D01*
X163413115Y-88836827D01*
X163314680Y-88902600D01*
X163237340Y-88934635D01*
X163205305Y-88947904D01*
X163166601Y-88955603D01*
X163089195Y-88971000D01*
X162970805Y-88971000D01*
X162893399Y-88955603D01*
X162854695Y-88947904D01*
X162822660Y-88934635D01*
X162745320Y-88902600D01*
X162646885Y-88836827D01*
X162563173Y-88753115D01*
X162497400Y-88654680D01*
X162452096Y-88545304D01*
X162429000Y-88429195D01*
X162429000Y-88310805D01*
X162452096Y-88194696D01*
X162497400Y-88085320D01*
X162563173Y-87986885D01*
X162646885Y-87903173D01*
X162745320Y-87837400D01*
X162822660Y-87805365D01*
X162854695Y-87792096D01*
X162893399Y-87784397D01*
X162970805Y-87769000D01*
X163089195Y-87769000D01*
X163166601Y-87784397D01*
X163166601Y-87784397D01*
G37*
G36*
X171166601Y-87784397D02*
G01*
X171205305Y-87792096D01*
X171237340Y-87805365D01*
X171314680Y-87837400D01*
X171413115Y-87903173D01*
X171496827Y-87986885D01*
X171562600Y-88085320D01*
X171607904Y-88194696D01*
X171631000Y-88310805D01*
X171631000Y-88429195D01*
X171607904Y-88545304D01*
X171562600Y-88654680D01*
X171496827Y-88753115D01*
X171413115Y-88836827D01*
X171314680Y-88902600D01*
X171237340Y-88934635D01*
X171205305Y-88947904D01*
X171166601Y-88955603D01*
X171089195Y-88971000D01*
X170970805Y-88971000D01*
X170893399Y-88955603D01*
X170854695Y-88947904D01*
X170822660Y-88934635D01*
X170745320Y-88902600D01*
X170646885Y-88836827D01*
X170563173Y-88753115D01*
X170497400Y-88654680D01*
X170452096Y-88545304D01*
X170429000Y-88429195D01*
X170429000Y-88310805D01*
X170452096Y-88194696D01*
X170497400Y-88085320D01*
X170563173Y-87986885D01*
X170646885Y-87903173D01*
X170745320Y-87837400D01*
X170822660Y-87805365D01*
X170854695Y-87792096D01*
X170893399Y-87784397D01*
X170970805Y-87769000D01*
X171089195Y-87769000D01*
X171166601Y-87784397D01*
X171166601Y-87784397D01*
G37*
G36*
X213512421Y-86609143D02*
G01*
X213644557Y-86649227D01*
X213644559Y-86649228D01*
X213766339Y-86714320D01*
X213873080Y-86801920D01*
X213960680Y-86908661D01*
X214025772Y-87030441D01*
X214025773Y-87030443D01*
X214065857Y-87162579D01*
X214079391Y-87300000D01*
X214065857Y-87437421D01*
X214025773Y-87569557D01*
X214025772Y-87569559D01*
X213960680Y-87691339D01*
X213873080Y-87798080D01*
X213766339Y-87885680D01*
X213644559Y-87950772D01*
X213644557Y-87950773D01*
X213512421Y-87990857D01*
X213409432Y-88001000D01*
X212040568Y-88001000D01*
X211937579Y-87990857D01*
X211805443Y-87950773D01*
X211805441Y-87950772D01*
X211683661Y-87885680D01*
X211576920Y-87798080D01*
X211489320Y-87691339D01*
X211424228Y-87569559D01*
X211424227Y-87569557D01*
X211384143Y-87437421D01*
X211370609Y-87300000D01*
X211384143Y-87162579D01*
X211424227Y-87030443D01*
X211424228Y-87030441D01*
X211489320Y-86908661D01*
X211576920Y-86801920D01*
X211683661Y-86714320D01*
X211805441Y-86649228D01*
X211805443Y-86649227D01*
X211937579Y-86609143D01*
X212040568Y-86599000D01*
X213409432Y-86599000D01*
X213512421Y-86609143D01*
X213512421Y-86609143D01*
G37*
G36*
X207914890Y-86674017D02*
G01*
X208033364Y-86723091D01*
X208139988Y-86794335D01*
X208230665Y-86885012D01*
X208301910Y-86991638D01*
X208350983Y-87110110D01*
X208376000Y-87235881D01*
X208376000Y-87364119D01*
X208355459Y-87467389D01*
X208350983Y-87489890D01*
X208301909Y-87608364D01*
X208230665Y-87714988D01*
X208139988Y-87805665D01*
X208033364Y-87876909D01*
X208033363Y-87876910D01*
X208033362Y-87876910D01*
X207914890Y-87925983D01*
X207789119Y-87951000D01*
X207660881Y-87951000D01*
X207535110Y-87925983D01*
X207416638Y-87876910D01*
X207416637Y-87876910D01*
X207416636Y-87876909D01*
X207310012Y-87805665D01*
X207219335Y-87714988D01*
X207148091Y-87608364D01*
X207099017Y-87489890D01*
X207094541Y-87467389D01*
X207074000Y-87364119D01*
X207074000Y-87235881D01*
X207099017Y-87110110D01*
X207148090Y-86991638D01*
X207219335Y-86885012D01*
X207310012Y-86794335D01*
X207416636Y-86723091D01*
X207535110Y-86674017D01*
X207660881Y-86649000D01*
X207789119Y-86649000D01*
X207914890Y-86674017D01*
X207914890Y-86674017D01*
G37*
G36*
X217914890Y-86674017D02*
G01*
X218033364Y-86723091D01*
X218139988Y-86794335D01*
X218230665Y-86885012D01*
X218301910Y-86991638D01*
X218350983Y-87110110D01*
X218376000Y-87235881D01*
X218376000Y-87364119D01*
X218355459Y-87467389D01*
X218350983Y-87489890D01*
X218301909Y-87608364D01*
X218230665Y-87714988D01*
X218139988Y-87805665D01*
X218033364Y-87876909D01*
X218033363Y-87876910D01*
X218033362Y-87876910D01*
X217914890Y-87925983D01*
X217789119Y-87951000D01*
X217660881Y-87951000D01*
X217535110Y-87925983D01*
X217416638Y-87876910D01*
X217416637Y-87876910D01*
X217416636Y-87876909D01*
X217310012Y-87805665D01*
X217219335Y-87714988D01*
X217148091Y-87608364D01*
X217099017Y-87489890D01*
X217094541Y-87467389D01*
X217074000Y-87364119D01*
X217074000Y-87235881D01*
X217099017Y-87110110D01*
X217148090Y-86991638D01*
X217219335Y-86885012D01*
X217310012Y-86794335D01*
X217416636Y-86723091D01*
X217535110Y-86674017D01*
X217660881Y-86649000D01*
X217789119Y-86649000D01*
X217914890Y-86674017D01*
X217914890Y-86674017D01*
G37*
G36*
X190131000Y-87261000D02*
G01*
X188329000Y-87261000D01*
X188329000Y-85459000D01*
X190131000Y-85459000D01*
X190131000Y-87261000D01*
X190131000Y-87261000D01*
G37*
G36*
X196481000Y-87261000D02*
G01*
X194679000Y-87261000D01*
X194679000Y-85459000D01*
X196481000Y-85459000D01*
X196481000Y-87261000D01*
X196481000Y-87261000D01*
G37*
G36*
X191880442Y-85465518D02*
G01*
X191946627Y-85472037D01*
X192116466Y-85523557D01*
X192272991Y-85607222D01*
X192308729Y-85636552D01*
X192410186Y-85719814D01*
X192493448Y-85821271D01*
X192522778Y-85857009D01*
X192606443Y-86013534D01*
X192657963Y-86183373D01*
X192675359Y-86360000D01*
X192657963Y-86536627D01*
X192606443Y-86706466D01*
X192522778Y-86862991D01*
X192493448Y-86898729D01*
X192410186Y-87000186D01*
X192308729Y-87083448D01*
X192272991Y-87112778D01*
X192116466Y-87196443D01*
X191946627Y-87247963D01*
X191880442Y-87254482D01*
X191814260Y-87261000D01*
X191725740Y-87261000D01*
X191659558Y-87254482D01*
X191593373Y-87247963D01*
X191423534Y-87196443D01*
X191267009Y-87112778D01*
X191231271Y-87083448D01*
X191129814Y-87000186D01*
X191046552Y-86898729D01*
X191017222Y-86862991D01*
X190933557Y-86706466D01*
X190882037Y-86536627D01*
X190864641Y-86360000D01*
X190882037Y-86183373D01*
X190933557Y-86013534D01*
X191017222Y-85857009D01*
X191046552Y-85821271D01*
X191129814Y-85719814D01*
X191231271Y-85636552D01*
X191267009Y-85607222D01*
X191423534Y-85523557D01*
X191593373Y-85472037D01*
X191659558Y-85465518D01*
X191725740Y-85459000D01*
X191814260Y-85459000D01*
X191880442Y-85465518D01*
X191880442Y-85465518D01*
G37*
G36*
X207914890Y-84174017D02*
G01*
X208033364Y-84223091D01*
X208139988Y-84294335D01*
X208230665Y-84385012D01*
X208301909Y-84491636D01*
X208350983Y-84610110D01*
X208376000Y-84735882D01*
X208376000Y-84864118D01*
X208350983Y-84989890D01*
X208301909Y-85108364D01*
X208230665Y-85214988D01*
X208139988Y-85305665D01*
X208033364Y-85376909D01*
X208033363Y-85376910D01*
X208033362Y-85376910D01*
X207914890Y-85425983D01*
X207789119Y-85451000D01*
X207660881Y-85451000D01*
X207535110Y-85425983D01*
X207416638Y-85376910D01*
X207416637Y-85376910D01*
X207416636Y-85376909D01*
X207310012Y-85305665D01*
X207219335Y-85214988D01*
X207148091Y-85108364D01*
X207099017Y-84989890D01*
X207074000Y-84864118D01*
X207074000Y-84735882D01*
X207099017Y-84610110D01*
X207148091Y-84491636D01*
X207219335Y-84385012D01*
X207310012Y-84294335D01*
X207416636Y-84223091D01*
X207535110Y-84174017D01*
X207660881Y-84149000D01*
X207789119Y-84149000D01*
X207914890Y-84174017D01*
X207914890Y-84174017D01*
G37*
G36*
X217914890Y-84174017D02*
G01*
X218033364Y-84223091D01*
X218139988Y-84294335D01*
X218230665Y-84385012D01*
X218301909Y-84491636D01*
X218350983Y-84610110D01*
X218376000Y-84735882D01*
X218376000Y-84864118D01*
X218350983Y-84989890D01*
X218301909Y-85108364D01*
X218230665Y-85214988D01*
X218139988Y-85305665D01*
X218033364Y-85376909D01*
X218033363Y-85376910D01*
X218033362Y-85376910D01*
X217914890Y-85425983D01*
X217789119Y-85451000D01*
X217660881Y-85451000D01*
X217535110Y-85425983D01*
X217416638Y-85376910D01*
X217416637Y-85376910D01*
X217416636Y-85376909D01*
X217310012Y-85305665D01*
X217219335Y-85214988D01*
X217148091Y-85108364D01*
X217099017Y-84989890D01*
X217074000Y-84864118D01*
X217074000Y-84735882D01*
X217099017Y-84610110D01*
X217148091Y-84491636D01*
X217219335Y-84385012D01*
X217310012Y-84294335D01*
X217416636Y-84223091D01*
X217535110Y-84174017D01*
X217660881Y-84149000D01*
X217789119Y-84149000D01*
X217914890Y-84174017D01*
X217914890Y-84174017D01*
G37*
M02*
