G04 #@! TF.GenerationSoftware,KiCad,Pcbnew,(5.0.2)-1*
G04 #@! TF.CreationDate,2019-06-18T18:23:23-07:00*
G04 #@! TF.ProjectId,OPL3_VGM_Player,4f504c33-5f56-4474-9d5f-506c61796572,rev?*
G04 #@! TF.SameCoordinates,Original*
G04 #@! TF.FileFunction,Soldermask,Bot*
G04 #@! TF.FilePolarity,Negative*
%FSLAX46Y46*%
G04 Gerber Fmt 4.6, Leading zero omitted, Abs format (unit mm)*
G04 Created by KiCad (PCBNEW (5.0.2)-1) date 6/18/2019 6:23:23 PM*
%MOMM*%
%LPD*%
G01*
G04 APERTURE LIST*
%ADD10C,0.100000*%
G04 APERTURE END LIST*
D10*
G36*
X226435256Y-135551298D02*
X226541579Y-135572447D01*
X226842042Y-135696903D01*
X227108852Y-135875180D01*
X227112454Y-135877587D01*
X227342413Y-136107546D01*
X227523098Y-136377960D01*
X227647553Y-136678422D01*
X227711000Y-136997389D01*
X227711000Y-137322611D01*
X227647553Y-137641578D01*
X227523098Y-137942040D01*
X227342413Y-138212454D01*
X227112454Y-138442413D01*
X227112451Y-138442415D01*
X226842042Y-138623097D01*
X226541579Y-138747553D01*
X226435256Y-138768702D01*
X226222611Y-138811000D01*
X225897389Y-138811000D01*
X225684744Y-138768702D01*
X225578421Y-138747553D01*
X225277958Y-138623097D01*
X225007549Y-138442415D01*
X225007546Y-138442413D01*
X224777587Y-138212454D01*
X224596902Y-137942040D01*
X224472447Y-137641578D01*
X224409000Y-137322611D01*
X224409000Y-136997389D01*
X224472447Y-136678422D01*
X224596902Y-136377960D01*
X224777587Y-136107546D01*
X225007546Y-135877587D01*
X225011148Y-135875180D01*
X225277958Y-135696903D01*
X225578421Y-135572447D01*
X225684744Y-135551298D01*
X225897389Y-135509000D01*
X226222611Y-135509000D01*
X226435256Y-135551298D01*
X226435256Y-135551298D01*
G37*
G36*
X154045256Y-135551298D02*
X154151579Y-135572447D01*
X154452042Y-135696903D01*
X154718852Y-135875180D01*
X154722454Y-135877587D01*
X154952413Y-136107546D01*
X155133098Y-136377960D01*
X155257553Y-136678422D01*
X155321000Y-136997389D01*
X155321000Y-137322611D01*
X155257553Y-137641578D01*
X155133098Y-137942040D01*
X154952413Y-138212454D01*
X154722454Y-138442413D01*
X154722451Y-138442415D01*
X154452042Y-138623097D01*
X154151579Y-138747553D01*
X154045256Y-138768702D01*
X153832611Y-138811000D01*
X153507389Y-138811000D01*
X153294744Y-138768702D01*
X153188421Y-138747553D01*
X152887958Y-138623097D01*
X152617549Y-138442415D01*
X152617546Y-138442413D01*
X152387587Y-138212454D01*
X152206902Y-137942040D01*
X152082447Y-137641578D01*
X152019000Y-137322611D01*
X152019000Y-136997389D01*
X152082447Y-136678422D01*
X152206902Y-136377960D01*
X152387587Y-136107546D01*
X152617546Y-135877587D01*
X152621148Y-135875180D01*
X152887958Y-135696903D01*
X153188421Y-135572447D01*
X153294744Y-135551298D01*
X153507389Y-135509000D01*
X153832611Y-135509000D01*
X154045256Y-135551298D01*
X154045256Y-135551298D01*
G37*
G36*
X183292812Y-133541924D02*
X183456784Y-133609844D01*
X183604354Y-133708447D01*
X183729853Y-133833946D01*
X183828456Y-133981516D01*
X183896376Y-134145488D01*
X183931000Y-134319559D01*
X183931000Y-134497041D01*
X183896376Y-134671112D01*
X183828456Y-134835084D01*
X183729853Y-134982654D01*
X183604354Y-135108153D01*
X183456784Y-135206756D01*
X183292812Y-135274676D01*
X183118741Y-135309300D01*
X182941259Y-135309300D01*
X182767188Y-135274676D01*
X182603216Y-135206756D01*
X182455646Y-135108153D01*
X182330147Y-134982654D01*
X182231544Y-134835084D01*
X182163624Y-134671112D01*
X182129000Y-134497041D01*
X182129000Y-134319559D01*
X182163624Y-134145488D01*
X182231544Y-133981516D01*
X182330147Y-133833946D01*
X182455646Y-133708447D01*
X182603216Y-133609844D01*
X182767188Y-133541924D01*
X182941259Y-133507300D01*
X183118741Y-133507300D01*
X183292812Y-133541924D01*
X183292812Y-133541924D01*
G37*
G36*
X176792812Y-133541924D02*
X176956784Y-133609844D01*
X177104354Y-133708447D01*
X177229853Y-133833946D01*
X177328456Y-133981516D01*
X177396376Y-134145488D01*
X177431000Y-134319559D01*
X177431000Y-134497041D01*
X177396376Y-134671112D01*
X177328456Y-134835084D01*
X177229853Y-134982654D01*
X177104354Y-135108153D01*
X176956784Y-135206756D01*
X176792812Y-135274676D01*
X176618741Y-135309300D01*
X176441259Y-135309300D01*
X176267188Y-135274676D01*
X176103216Y-135206756D01*
X175955646Y-135108153D01*
X175830147Y-134982654D01*
X175731544Y-134835084D01*
X175663624Y-134671112D01*
X175629000Y-134497041D01*
X175629000Y-134319559D01*
X175663624Y-134145488D01*
X175731544Y-133981516D01*
X175830147Y-133833946D01*
X175955646Y-133708447D01*
X176103216Y-133609844D01*
X176267188Y-133541924D01*
X176441259Y-133507300D01*
X176618741Y-133507300D01*
X176792812Y-133541924D01*
X176792812Y-133541924D01*
G37*
G36*
X167598012Y-133541924D02*
X167761984Y-133609844D01*
X167909554Y-133708447D01*
X168035053Y-133833946D01*
X168133656Y-133981516D01*
X168201576Y-134145488D01*
X168236200Y-134319559D01*
X168236200Y-134497041D01*
X168201576Y-134671112D01*
X168133656Y-134835084D01*
X168035053Y-134982654D01*
X167909554Y-135108153D01*
X167761984Y-135206756D01*
X167598012Y-135274676D01*
X167423941Y-135309300D01*
X167246459Y-135309300D01*
X167072388Y-135274676D01*
X166908416Y-135206756D01*
X166760846Y-135108153D01*
X166635347Y-134982654D01*
X166536744Y-134835084D01*
X166468824Y-134671112D01*
X166434200Y-134497041D01*
X166434200Y-134319559D01*
X166468824Y-134145488D01*
X166536744Y-133981516D01*
X166635347Y-133833946D01*
X166760846Y-133708447D01*
X166908416Y-133609844D01*
X167072388Y-133541924D01*
X167246459Y-133507300D01*
X167423941Y-133507300D01*
X167598012Y-133541924D01*
X167598012Y-133541924D01*
G37*
G36*
X164877812Y-133541924D02*
X165041784Y-133609844D01*
X165189354Y-133708447D01*
X165314853Y-133833946D01*
X165413456Y-133981516D01*
X165481376Y-134145488D01*
X165516000Y-134319559D01*
X165516000Y-134497041D01*
X165481376Y-134671112D01*
X165413456Y-134835084D01*
X165314853Y-134982654D01*
X165189354Y-135108153D01*
X165041784Y-135206756D01*
X164877812Y-135274676D01*
X164703741Y-135309300D01*
X164526259Y-135309300D01*
X164352188Y-135274676D01*
X164188216Y-135206756D01*
X164040646Y-135108153D01*
X163915147Y-134982654D01*
X163816544Y-134835084D01*
X163748624Y-134671112D01*
X163714000Y-134497041D01*
X163714000Y-134319559D01*
X163748624Y-134145488D01*
X163816544Y-133981516D01*
X163915147Y-133833946D01*
X164040646Y-133708447D01*
X164188216Y-133609844D01*
X164352188Y-133541924D01*
X164526259Y-133507300D01*
X164703741Y-133507300D01*
X164877812Y-133541924D01*
X164877812Y-133541924D01*
G37*
G36*
X158377812Y-133541924D02*
X158541784Y-133609844D01*
X158689354Y-133708447D01*
X158814853Y-133833946D01*
X158913456Y-133981516D01*
X158981376Y-134145488D01*
X159016000Y-134319559D01*
X159016000Y-134497041D01*
X158981376Y-134671112D01*
X158913456Y-134835084D01*
X158814853Y-134982654D01*
X158689354Y-135108153D01*
X158541784Y-135206756D01*
X158377812Y-135274676D01*
X158203741Y-135309300D01*
X158026259Y-135309300D01*
X157852188Y-135274676D01*
X157688216Y-135206756D01*
X157540646Y-135108153D01*
X157415147Y-134982654D01*
X157316544Y-134835084D01*
X157248624Y-134671112D01*
X157214000Y-134497041D01*
X157214000Y-134319559D01*
X157248624Y-134145488D01*
X157316544Y-133981516D01*
X157415147Y-133833946D01*
X157540646Y-133708447D01*
X157688216Y-133609844D01*
X157852188Y-133541924D01*
X158026259Y-133507300D01*
X158203741Y-133507300D01*
X158377812Y-133541924D01*
X158377812Y-133541924D01*
G37*
G36*
X174098012Y-133541924D02*
X174261984Y-133609844D01*
X174409554Y-133708447D01*
X174535053Y-133833946D01*
X174633656Y-133981516D01*
X174701576Y-134145488D01*
X174736200Y-134319559D01*
X174736200Y-134497041D01*
X174701576Y-134671112D01*
X174633656Y-134835084D01*
X174535053Y-134982654D01*
X174409554Y-135108153D01*
X174261984Y-135206756D01*
X174098012Y-135274676D01*
X173923941Y-135309300D01*
X173746459Y-135309300D01*
X173572388Y-135274676D01*
X173408416Y-135206756D01*
X173260846Y-135108153D01*
X173135347Y-134982654D01*
X173036744Y-134835084D01*
X172968824Y-134671112D01*
X172934200Y-134497041D01*
X172934200Y-134319559D01*
X172968824Y-134145488D01*
X173036744Y-133981516D01*
X173135347Y-133833946D01*
X173260846Y-133708447D01*
X173408416Y-133609844D01*
X173572388Y-133541924D01*
X173746459Y-133507300D01*
X173923941Y-133507300D01*
X174098012Y-133541924D01*
X174098012Y-133541924D01*
G37*
G36*
X187885742Y-132758242D02*
X188033702Y-132819530D01*
X188166858Y-132908502D01*
X188280098Y-133021742D01*
X188369070Y-133154898D01*
X188430358Y-133302858D01*
X188461600Y-133459925D01*
X188461600Y-133620075D01*
X188430358Y-133777142D01*
X188369070Y-133925102D01*
X188280098Y-134058258D01*
X188166858Y-134171498D01*
X188033702Y-134260470D01*
X187885742Y-134321758D01*
X187728675Y-134353000D01*
X187568525Y-134353000D01*
X187411458Y-134321758D01*
X187263498Y-134260470D01*
X187130342Y-134171498D01*
X187017102Y-134058258D01*
X186928130Y-133925102D01*
X186866842Y-133777142D01*
X186835600Y-133620075D01*
X186835600Y-133459925D01*
X186866842Y-133302858D01*
X186928130Y-133154898D01*
X187017102Y-133021742D01*
X187130342Y-132908502D01*
X187263498Y-132819530D01*
X187411458Y-132758242D01*
X187568525Y-132727000D01*
X187728675Y-132727000D01*
X187885742Y-132758242D01*
X187885742Y-132758242D01*
G37*
G36*
X187885742Y-130218242D02*
X188033702Y-130279530D01*
X188100730Y-130324317D01*
X188166857Y-130368501D01*
X188280099Y-130481743D01*
X188324283Y-130547870D01*
X188369070Y-130614898D01*
X188430358Y-130762858D01*
X188461600Y-130919925D01*
X188461600Y-131080075D01*
X188430358Y-131237142D01*
X188369070Y-131385102D01*
X188280098Y-131518258D01*
X188166858Y-131631498D01*
X188033702Y-131720470D01*
X187885742Y-131781758D01*
X187728675Y-131813000D01*
X187568525Y-131813000D01*
X187411458Y-131781758D01*
X187263498Y-131720470D01*
X187130342Y-131631498D01*
X187017102Y-131518258D01*
X186928130Y-131385102D01*
X186866842Y-131237142D01*
X186835600Y-131080075D01*
X186835600Y-130919925D01*
X186866842Y-130762858D01*
X186928130Y-130614898D01*
X186972917Y-130547870D01*
X187017101Y-130481743D01*
X187130343Y-130368501D01*
X187196470Y-130324317D01*
X187263498Y-130279530D01*
X187411458Y-130218242D01*
X187568525Y-130187000D01*
X187728675Y-130187000D01*
X187885742Y-130218242D01*
X187885742Y-130218242D01*
G37*
G36*
X183292812Y-129041924D02*
X183456784Y-129109844D01*
X183604354Y-129208447D01*
X183729853Y-129333946D01*
X183828456Y-129481516D01*
X183896376Y-129645488D01*
X183931000Y-129819559D01*
X183931000Y-129997041D01*
X183896376Y-130171112D01*
X183828456Y-130335084D01*
X183729853Y-130482654D01*
X183604354Y-130608153D01*
X183456784Y-130706756D01*
X183292812Y-130774676D01*
X183118741Y-130809300D01*
X182941259Y-130809300D01*
X182767188Y-130774676D01*
X182603216Y-130706756D01*
X182455646Y-130608153D01*
X182330147Y-130482654D01*
X182231544Y-130335084D01*
X182163624Y-130171112D01*
X182129000Y-129997041D01*
X182129000Y-129819559D01*
X182163624Y-129645488D01*
X182231544Y-129481516D01*
X182330147Y-129333946D01*
X182455646Y-129208447D01*
X182603216Y-129109844D01*
X182767188Y-129041924D01*
X182941259Y-129007300D01*
X183118741Y-129007300D01*
X183292812Y-129041924D01*
X183292812Y-129041924D01*
G37*
G36*
X176792812Y-129041924D02*
X176956784Y-129109844D01*
X177104354Y-129208447D01*
X177229853Y-129333946D01*
X177328456Y-129481516D01*
X177396376Y-129645488D01*
X177431000Y-129819559D01*
X177431000Y-129997041D01*
X177396376Y-130171112D01*
X177328456Y-130335084D01*
X177229853Y-130482654D01*
X177104354Y-130608153D01*
X176956784Y-130706756D01*
X176792812Y-130774676D01*
X176618741Y-130809300D01*
X176441259Y-130809300D01*
X176267188Y-130774676D01*
X176103216Y-130706756D01*
X175955646Y-130608153D01*
X175830147Y-130482654D01*
X175731544Y-130335084D01*
X175663624Y-130171112D01*
X175629000Y-129997041D01*
X175629000Y-129819559D01*
X175663624Y-129645488D01*
X175731544Y-129481516D01*
X175830147Y-129333946D01*
X175955646Y-129208447D01*
X176103216Y-129109844D01*
X176267188Y-129041924D01*
X176441259Y-129007300D01*
X176618741Y-129007300D01*
X176792812Y-129041924D01*
X176792812Y-129041924D01*
G37*
G36*
X167598012Y-129041924D02*
X167761984Y-129109844D01*
X167909554Y-129208447D01*
X168035053Y-129333946D01*
X168133656Y-129481516D01*
X168201576Y-129645488D01*
X168236200Y-129819559D01*
X168236200Y-129997041D01*
X168201576Y-130171112D01*
X168133656Y-130335084D01*
X168035053Y-130482654D01*
X167909554Y-130608153D01*
X167761984Y-130706756D01*
X167598012Y-130774676D01*
X167423941Y-130809300D01*
X167246459Y-130809300D01*
X167072388Y-130774676D01*
X166908416Y-130706756D01*
X166760846Y-130608153D01*
X166635347Y-130482654D01*
X166536744Y-130335084D01*
X166468824Y-130171112D01*
X166434200Y-129997041D01*
X166434200Y-129819559D01*
X166468824Y-129645488D01*
X166536744Y-129481516D01*
X166635347Y-129333946D01*
X166760846Y-129208447D01*
X166908416Y-129109844D01*
X167072388Y-129041924D01*
X167246459Y-129007300D01*
X167423941Y-129007300D01*
X167598012Y-129041924D01*
X167598012Y-129041924D01*
G37*
G36*
X174098012Y-129041924D02*
X174261984Y-129109844D01*
X174409554Y-129208447D01*
X174535053Y-129333946D01*
X174633656Y-129481516D01*
X174701576Y-129645488D01*
X174736200Y-129819559D01*
X174736200Y-129997041D01*
X174701576Y-130171112D01*
X174633656Y-130335084D01*
X174535053Y-130482654D01*
X174409554Y-130608153D01*
X174261984Y-130706756D01*
X174098012Y-130774676D01*
X173923941Y-130809300D01*
X173746459Y-130809300D01*
X173572388Y-130774676D01*
X173408416Y-130706756D01*
X173260846Y-130608153D01*
X173135347Y-130482654D01*
X173036744Y-130335084D01*
X172968824Y-130171112D01*
X172934200Y-129997041D01*
X172934200Y-129819559D01*
X172968824Y-129645488D01*
X173036744Y-129481516D01*
X173135347Y-129333946D01*
X173260846Y-129208447D01*
X173408416Y-129109844D01*
X173572388Y-129041924D01*
X173746459Y-129007300D01*
X173923941Y-129007300D01*
X174098012Y-129041924D01*
X174098012Y-129041924D01*
G37*
G36*
X158377812Y-129041924D02*
X158541784Y-129109844D01*
X158689354Y-129208447D01*
X158814853Y-129333946D01*
X158913456Y-129481516D01*
X158981376Y-129645488D01*
X159016000Y-129819559D01*
X159016000Y-129997041D01*
X158981376Y-130171112D01*
X158913456Y-130335084D01*
X158814853Y-130482654D01*
X158689354Y-130608153D01*
X158541784Y-130706756D01*
X158377812Y-130774676D01*
X158203741Y-130809300D01*
X158026259Y-130809300D01*
X157852188Y-130774676D01*
X157688216Y-130706756D01*
X157540646Y-130608153D01*
X157415147Y-130482654D01*
X157316544Y-130335084D01*
X157248624Y-130171112D01*
X157214000Y-129997041D01*
X157214000Y-129819559D01*
X157248624Y-129645488D01*
X157316544Y-129481516D01*
X157415147Y-129333946D01*
X157540646Y-129208447D01*
X157688216Y-129109844D01*
X157852188Y-129041924D01*
X158026259Y-129007300D01*
X158203741Y-129007300D01*
X158377812Y-129041924D01*
X158377812Y-129041924D01*
G37*
G36*
X164877812Y-129041924D02*
X165041784Y-129109844D01*
X165189354Y-129208447D01*
X165314853Y-129333946D01*
X165413456Y-129481516D01*
X165481376Y-129645488D01*
X165516000Y-129819559D01*
X165516000Y-129997041D01*
X165481376Y-130171112D01*
X165413456Y-130335084D01*
X165314853Y-130482654D01*
X165189354Y-130608153D01*
X165041784Y-130706756D01*
X164877812Y-130774676D01*
X164703741Y-130809300D01*
X164526259Y-130809300D01*
X164352188Y-130774676D01*
X164188216Y-130706756D01*
X164040646Y-130608153D01*
X163915147Y-130482654D01*
X163816544Y-130335084D01*
X163748624Y-130171112D01*
X163714000Y-129997041D01*
X163714000Y-129819559D01*
X163748624Y-129645488D01*
X163816544Y-129481516D01*
X163915147Y-129333946D01*
X164040646Y-129208447D01*
X164188216Y-129109844D01*
X164352188Y-129041924D01*
X164526259Y-129007300D01*
X164703741Y-129007300D01*
X164877812Y-129041924D01*
X164877812Y-129041924D01*
G37*
G36*
X187885742Y-127678242D02*
X188033702Y-127739530D01*
X188166858Y-127828502D01*
X188280098Y-127941742D01*
X188369070Y-128074898D01*
X188430358Y-128222858D01*
X188461600Y-128379925D01*
X188461600Y-128540075D01*
X188430358Y-128697142D01*
X188382954Y-128811583D01*
X188369071Y-128845100D01*
X188280099Y-128978257D01*
X188166857Y-129091499D01*
X188100730Y-129135683D01*
X188033702Y-129180470D01*
X187885742Y-129241758D01*
X187728675Y-129273000D01*
X187568525Y-129273000D01*
X187411458Y-129241758D01*
X187263498Y-129180470D01*
X187196470Y-129135683D01*
X187130343Y-129091499D01*
X187017101Y-128978257D01*
X186928129Y-128845100D01*
X186914246Y-128811583D01*
X186866842Y-128697142D01*
X186835600Y-128540075D01*
X186835600Y-128379925D01*
X186866842Y-128222858D01*
X186928130Y-128074898D01*
X187017102Y-127941742D01*
X187130342Y-127828502D01*
X187263498Y-127739530D01*
X187411458Y-127678242D01*
X187568525Y-127647000D01*
X187728675Y-127647000D01*
X187885742Y-127678242D01*
X187885742Y-127678242D01*
G37*
G36*
X167598012Y-126188624D02*
X167761984Y-126256544D01*
X167909554Y-126355147D01*
X168035053Y-126480646D01*
X168133656Y-126628216D01*
X168201576Y-126792188D01*
X168236200Y-126966259D01*
X168236200Y-127143741D01*
X168201576Y-127317812D01*
X168133656Y-127481784D01*
X168035053Y-127629354D01*
X167909554Y-127754853D01*
X167761984Y-127853456D01*
X167598012Y-127921376D01*
X167423941Y-127956000D01*
X167246459Y-127956000D01*
X167072388Y-127921376D01*
X166908416Y-127853456D01*
X166760846Y-127754853D01*
X166635347Y-127629354D01*
X166536744Y-127481784D01*
X166468824Y-127317812D01*
X166434200Y-127143741D01*
X166434200Y-126966259D01*
X166468824Y-126792188D01*
X166536744Y-126628216D01*
X166635347Y-126480646D01*
X166760846Y-126355147D01*
X166908416Y-126256544D01*
X167072388Y-126188624D01*
X167246459Y-126154000D01*
X167423941Y-126154000D01*
X167598012Y-126188624D01*
X167598012Y-126188624D01*
G37*
G36*
X174098012Y-126188624D02*
X174261984Y-126256544D01*
X174409554Y-126355147D01*
X174535053Y-126480646D01*
X174633656Y-126628216D01*
X174701576Y-126792188D01*
X174736200Y-126966259D01*
X174736200Y-127143741D01*
X174701576Y-127317812D01*
X174633656Y-127481784D01*
X174535053Y-127629354D01*
X174409554Y-127754853D01*
X174261984Y-127853456D01*
X174098012Y-127921376D01*
X173923941Y-127956000D01*
X173746459Y-127956000D01*
X173572388Y-127921376D01*
X173408416Y-127853456D01*
X173260846Y-127754853D01*
X173135347Y-127629354D01*
X173036744Y-127481784D01*
X172968824Y-127317812D01*
X172934200Y-127143741D01*
X172934200Y-126966259D01*
X172968824Y-126792188D01*
X173036744Y-126628216D01*
X173135347Y-126480646D01*
X173260846Y-126355147D01*
X173408416Y-126256544D01*
X173572388Y-126188624D01*
X173746459Y-126154000D01*
X173923941Y-126154000D01*
X174098012Y-126188624D01*
X174098012Y-126188624D01*
G37*
G36*
X187885742Y-125138242D02*
X188033702Y-125199530D01*
X188166858Y-125288502D01*
X188280098Y-125401742D01*
X188369070Y-125534898D01*
X188430358Y-125682858D01*
X188461600Y-125839925D01*
X188461600Y-126000075D01*
X188430358Y-126157142D01*
X188369070Y-126305102D01*
X188280098Y-126438258D01*
X188166858Y-126551498D01*
X188033702Y-126640470D01*
X187885742Y-126701758D01*
X187728675Y-126733000D01*
X187568525Y-126733000D01*
X187411458Y-126701758D01*
X187263498Y-126640470D01*
X187130342Y-126551498D01*
X187017102Y-126438258D01*
X186928130Y-126305102D01*
X186866842Y-126157142D01*
X186835600Y-126000075D01*
X186835600Y-125839925D01*
X186866842Y-125682858D01*
X186928130Y-125534898D01*
X187017102Y-125401742D01*
X187130342Y-125288502D01*
X187263498Y-125199530D01*
X187411458Y-125138242D01*
X187568525Y-125107000D01*
X187728675Y-125107000D01*
X187885742Y-125138242D01*
X187885742Y-125138242D01*
G37*
G36*
X174098012Y-121688624D02*
X174261984Y-121756544D01*
X174409554Y-121855147D01*
X174535053Y-121980646D01*
X174633656Y-122128216D01*
X174701576Y-122292188D01*
X174736200Y-122466259D01*
X174736200Y-122643741D01*
X174701576Y-122817812D01*
X174633656Y-122981784D01*
X174535053Y-123129354D01*
X174409554Y-123254853D01*
X174261984Y-123353456D01*
X174098012Y-123421376D01*
X173923941Y-123456000D01*
X173746459Y-123456000D01*
X173572388Y-123421376D01*
X173408416Y-123353456D01*
X173260846Y-123254853D01*
X173135347Y-123129354D01*
X173036744Y-122981784D01*
X172968824Y-122817812D01*
X172934200Y-122643741D01*
X172934200Y-122466259D01*
X172968824Y-122292188D01*
X173036744Y-122128216D01*
X173135347Y-121980646D01*
X173260846Y-121855147D01*
X173408416Y-121756544D01*
X173572388Y-121688624D01*
X173746459Y-121654000D01*
X173923941Y-121654000D01*
X174098012Y-121688624D01*
X174098012Y-121688624D01*
G37*
G36*
X167598012Y-121688624D02*
X167761984Y-121756544D01*
X167909554Y-121855147D01*
X168035053Y-121980646D01*
X168133656Y-122128216D01*
X168201576Y-122292188D01*
X168236200Y-122466259D01*
X168236200Y-122643741D01*
X168201576Y-122817812D01*
X168133656Y-122981784D01*
X168035053Y-123129354D01*
X167909554Y-123254853D01*
X167761984Y-123353456D01*
X167598012Y-123421376D01*
X167423941Y-123456000D01*
X167246459Y-123456000D01*
X167072388Y-123421376D01*
X166908416Y-123353456D01*
X166760846Y-123254853D01*
X166635347Y-123129354D01*
X166536744Y-122981784D01*
X166468824Y-122817812D01*
X166434200Y-122643741D01*
X166434200Y-122466259D01*
X166468824Y-122292188D01*
X166536744Y-122128216D01*
X166635347Y-121980646D01*
X166760846Y-121855147D01*
X166908416Y-121756544D01*
X167072388Y-121688624D01*
X167246459Y-121654000D01*
X167423941Y-121654000D01*
X167598012Y-121688624D01*
X167598012Y-121688624D01*
G37*
G36*
X167496412Y-113558224D02*
X167660384Y-113626144D01*
X167807954Y-113724747D01*
X167933453Y-113850246D01*
X168032056Y-113997816D01*
X168099976Y-114161788D01*
X168134600Y-114335859D01*
X168134600Y-114513341D01*
X168099976Y-114687412D01*
X168032056Y-114851384D01*
X167933453Y-114998954D01*
X167807954Y-115124453D01*
X167660384Y-115223056D01*
X167496412Y-115290976D01*
X167322341Y-115325600D01*
X167144859Y-115325600D01*
X166970788Y-115290976D01*
X166806816Y-115223056D01*
X166659246Y-115124453D01*
X166533747Y-114998954D01*
X166435144Y-114851384D01*
X166367224Y-114687412D01*
X166332600Y-114513341D01*
X166332600Y-114335859D01*
X166367224Y-114161788D01*
X166435144Y-113997816D01*
X166533747Y-113850246D01*
X166659246Y-113724747D01*
X166806816Y-113626144D01*
X166970788Y-113558224D01*
X167144859Y-113523600D01*
X167322341Y-113523600D01*
X167496412Y-113558224D01*
X167496412Y-113558224D01*
G37*
G36*
X162996412Y-113558224D02*
X163160384Y-113626144D01*
X163307954Y-113724747D01*
X163433453Y-113850246D01*
X163532056Y-113997816D01*
X163599976Y-114161788D01*
X163634600Y-114335859D01*
X163634600Y-114513341D01*
X163599976Y-114687412D01*
X163532056Y-114851384D01*
X163433453Y-114998954D01*
X163307954Y-115124453D01*
X163160384Y-115223056D01*
X162996412Y-115290976D01*
X162822341Y-115325600D01*
X162644859Y-115325600D01*
X162470788Y-115290976D01*
X162306816Y-115223056D01*
X162159246Y-115124453D01*
X162033747Y-114998954D01*
X161935144Y-114851384D01*
X161867224Y-114687412D01*
X161832600Y-114513341D01*
X161832600Y-114335859D01*
X161867224Y-114161788D01*
X161935144Y-113997816D01*
X162033747Y-113850246D01*
X162159246Y-113724747D01*
X162306816Y-113626144D01*
X162470788Y-113558224D01*
X162644859Y-113523600D01*
X162822341Y-113523600D01*
X162996412Y-113558224D01*
X162996412Y-113558224D01*
G37*
G36*
X162996412Y-107058224D02*
X163160384Y-107126144D01*
X163307954Y-107224747D01*
X163433453Y-107350246D01*
X163532056Y-107497816D01*
X163599976Y-107661788D01*
X163634600Y-107835859D01*
X163634600Y-108013341D01*
X163599976Y-108187412D01*
X163532056Y-108351384D01*
X163433453Y-108498954D01*
X163307954Y-108624453D01*
X163160384Y-108723056D01*
X162996412Y-108790976D01*
X162822341Y-108825600D01*
X162644859Y-108825600D01*
X162470788Y-108790976D01*
X162306816Y-108723056D01*
X162159246Y-108624453D01*
X162033747Y-108498954D01*
X161935144Y-108351384D01*
X161867224Y-108187412D01*
X161832600Y-108013341D01*
X161832600Y-107835859D01*
X161867224Y-107661788D01*
X161935144Y-107497816D01*
X162033747Y-107350246D01*
X162159246Y-107224747D01*
X162306816Y-107126144D01*
X162470788Y-107058224D01*
X162644859Y-107023600D01*
X162822341Y-107023600D01*
X162996412Y-107058224D01*
X162996412Y-107058224D01*
G37*
G36*
X167496412Y-107058224D02*
X167660384Y-107126144D01*
X167807954Y-107224747D01*
X167933453Y-107350246D01*
X168032056Y-107497816D01*
X168099976Y-107661788D01*
X168134600Y-107835859D01*
X168134600Y-108013341D01*
X168099976Y-108187412D01*
X168032056Y-108351384D01*
X167933453Y-108498954D01*
X167807954Y-108624453D01*
X167660384Y-108723056D01*
X167496412Y-108790976D01*
X167322341Y-108825600D01*
X167144859Y-108825600D01*
X166970788Y-108790976D01*
X166806816Y-108723056D01*
X166659246Y-108624453D01*
X166533747Y-108498954D01*
X166435144Y-108351384D01*
X166367224Y-108187412D01*
X166332600Y-108013341D01*
X166332600Y-107835859D01*
X166367224Y-107661788D01*
X166435144Y-107497816D01*
X166533747Y-107350246D01*
X166659246Y-107224747D01*
X166806816Y-107126144D01*
X166970788Y-107058224D01*
X167144859Y-107023600D01*
X167322341Y-107023600D01*
X167496412Y-107058224D01*
X167496412Y-107058224D01*
G37*
G36*
X221932396Y-98145546D02*
X222105466Y-98217234D01*
X222261230Y-98321312D01*
X222393688Y-98453770D01*
X222497766Y-98609534D01*
X222569454Y-98782604D01*
X222606000Y-98966333D01*
X222606000Y-99153667D01*
X222569454Y-99337396D01*
X222497766Y-99510466D01*
X222393688Y-99666230D01*
X222261230Y-99798688D01*
X222105466Y-99902766D01*
X221932396Y-99974454D01*
X221748667Y-100011000D01*
X221561333Y-100011000D01*
X221377604Y-99974454D01*
X221204534Y-99902766D01*
X221048770Y-99798688D01*
X220916312Y-99666230D01*
X220812234Y-99510466D01*
X220740546Y-99337396D01*
X220704000Y-99153667D01*
X220704000Y-98966333D01*
X220740546Y-98782604D01*
X220812234Y-98609534D01*
X220916312Y-98453770D01*
X221048770Y-98321312D01*
X221204534Y-98217234D01*
X221377604Y-98145546D01*
X221561333Y-98109000D01*
X221748667Y-98109000D01*
X221932396Y-98145546D01*
X221932396Y-98145546D01*
G37*
G36*
X224432396Y-98145546D02*
X224605466Y-98217234D01*
X224761230Y-98321312D01*
X224893688Y-98453770D01*
X224997766Y-98609534D01*
X225069454Y-98782604D01*
X225106000Y-98966333D01*
X225106000Y-99153667D01*
X225069454Y-99337396D01*
X224997766Y-99510466D01*
X224893688Y-99666230D01*
X224761230Y-99798688D01*
X224605466Y-99902766D01*
X224432396Y-99974454D01*
X224248667Y-100011000D01*
X224061333Y-100011000D01*
X223877604Y-99974454D01*
X223704534Y-99902766D01*
X223548770Y-99798688D01*
X223416312Y-99666230D01*
X223312234Y-99510466D01*
X223240546Y-99337396D01*
X223204000Y-99153667D01*
X223204000Y-98966333D01*
X223240546Y-98782604D01*
X223312234Y-98609534D01*
X223416312Y-98453770D01*
X223548770Y-98321312D01*
X223704534Y-98217234D01*
X223877604Y-98145546D01*
X224061333Y-98109000D01*
X224248667Y-98109000D01*
X224432396Y-98145546D01*
X224432396Y-98145546D01*
G37*
G36*
X221932396Y-95645546D02*
X222105466Y-95717234D01*
X222261230Y-95821312D01*
X222393688Y-95953770D01*
X222497766Y-96109534D01*
X222569454Y-96282604D01*
X222606000Y-96466333D01*
X222606000Y-96653667D01*
X222569454Y-96837396D01*
X222497766Y-97010466D01*
X222393688Y-97166230D01*
X222261230Y-97298688D01*
X222105466Y-97402766D01*
X221932396Y-97474454D01*
X221748667Y-97511000D01*
X221561333Y-97511000D01*
X221377604Y-97474454D01*
X221204534Y-97402766D01*
X221048770Y-97298688D01*
X220916312Y-97166230D01*
X220812234Y-97010466D01*
X220740546Y-96837396D01*
X220704000Y-96653667D01*
X220704000Y-96466333D01*
X220740546Y-96282604D01*
X220812234Y-96109534D01*
X220916312Y-95953770D01*
X221048770Y-95821312D01*
X221204534Y-95717234D01*
X221377604Y-95645546D01*
X221561333Y-95609000D01*
X221748667Y-95609000D01*
X221932396Y-95645546D01*
X221932396Y-95645546D01*
G37*
G36*
X224432396Y-95645546D02*
X224605466Y-95717234D01*
X224761230Y-95821312D01*
X224893688Y-95953770D01*
X224997766Y-96109534D01*
X225069454Y-96282604D01*
X225106000Y-96466333D01*
X225106000Y-96653667D01*
X225069454Y-96837396D01*
X224997766Y-97010466D01*
X224893688Y-97166230D01*
X224761230Y-97298688D01*
X224605466Y-97402766D01*
X224432396Y-97474454D01*
X224248667Y-97511000D01*
X224061333Y-97511000D01*
X223877604Y-97474454D01*
X223704534Y-97402766D01*
X223548770Y-97298688D01*
X223416312Y-97166230D01*
X223312234Y-97010466D01*
X223240546Y-96837396D01*
X223204000Y-96653667D01*
X223204000Y-96466333D01*
X223240546Y-96282604D01*
X223312234Y-96109534D01*
X223416312Y-95953770D01*
X223548770Y-95821312D01*
X223704534Y-95717234D01*
X223877604Y-95645546D01*
X224061333Y-95609000D01*
X224248667Y-95609000D01*
X224432396Y-95645546D01*
X224432396Y-95645546D01*
G37*
G36*
X210362421Y-94099143D02*
X210494557Y-94139227D01*
X210494559Y-94139228D01*
X210616339Y-94204320D01*
X210723080Y-94291920D01*
X210810680Y-94398661D01*
X210870440Y-94510466D01*
X210875773Y-94520443D01*
X210915857Y-94652579D01*
X210926000Y-94755568D01*
X210926000Y-96124432D01*
X210915857Y-96227421D01*
X210875773Y-96359556D01*
X210875772Y-96359559D01*
X210810680Y-96481339D01*
X210747691Y-96558090D01*
X210723078Y-96588082D01*
X210643161Y-96653667D01*
X210616338Y-96675680D01*
X210494558Y-96740772D01*
X210494556Y-96740773D01*
X210362420Y-96780857D01*
X210225000Y-96794391D01*
X210087579Y-96780857D01*
X209955443Y-96740773D01*
X209955441Y-96740772D01*
X209833661Y-96675680D01*
X209756910Y-96612691D01*
X209726918Y-96588078D01*
X209639321Y-96481339D01*
X209639320Y-96481337D01*
X209574228Y-96359558D01*
X209574227Y-96359556D01*
X209534143Y-96227420D01*
X209524000Y-96124431D01*
X209524001Y-94755568D01*
X209534144Y-94652579D01*
X209574228Y-94520443D01*
X209579561Y-94510466D01*
X209639321Y-94398661D01*
X209726921Y-94291920D01*
X209833662Y-94204320D01*
X209955442Y-94139228D01*
X209955444Y-94139227D01*
X210087580Y-94099143D01*
X210225000Y-94085609D01*
X210362421Y-94099143D01*
X210362421Y-94099143D01*
G37*
G36*
X215362421Y-94099143D02*
X215494557Y-94139227D01*
X215494559Y-94139228D01*
X215616339Y-94204320D01*
X215723080Y-94291920D01*
X215810680Y-94398661D01*
X215870440Y-94510466D01*
X215875773Y-94520443D01*
X215915857Y-94652579D01*
X215926000Y-94755568D01*
X215926000Y-96124432D01*
X215915857Y-96227421D01*
X215875773Y-96359556D01*
X215875772Y-96359559D01*
X215810680Y-96481339D01*
X215747691Y-96558090D01*
X215723078Y-96588082D01*
X215643161Y-96653667D01*
X215616338Y-96675680D01*
X215494558Y-96740772D01*
X215494556Y-96740773D01*
X215362420Y-96780857D01*
X215225000Y-96794391D01*
X215087579Y-96780857D01*
X214955443Y-96740773D01*
X214955441Y-96740772D01*
X214833661Y-96675680D01*
X214756910Y-96612691D01*
X214726918Y-96588078D01*
X214639321Y-96481339D01*
X214639320Y-96481337D01*
X214574228Y-96359558D01*
X214574227Y-96359556D01*
X214534143Y-96227420D01*
X214524000Y-96124431D01*
X214524001Y-94755568D01*
X214534144Y-94652579D01*
X214574228Y-94520443D01*
X214579561Y-94510466D01*
X214639321Y-94398661D01*
X214726921Y-94291920D01*
X214833662Y-94204320D01*
X214955442Y-94139228D01*
X214955444Y-94139227D01*
X215087580Y-94099143D01*
X215225000Y-94085609D01*
X215362421Y-94099143D01*
X215362421Y-94099143D01*
G37*
G36*
X217862421Y-94099143D02*
X217994557Y-94139227D01*
X217994559Y-94139228D01*
X218116339Y-94204320D01*
X218223080Y-94291920D01*
X218310680Y-94398661D01*
X218370440Y-94510466D01*
X218375773Y-94520443D01*
X218415857Y-94652579D01*
X218426000Y-94755568D01*
X218426000Y-96124432D01*
X218415857Y-96227421D01*
X218375773Y-96359556D01*
X218375772Y-96359559D01*
X218310680Y-96481339D01*
X218247691Y-96558090D01*
X218223078Y-96588082D01*
X218143161Y-96653667D01*
X218116338Y-96675680D01*
X217994558Y-96740772D01*
X217994556Y-96740773D01*
X217862420Y-96780857D01*
X217725000Y-96794391D01*
X217587579Y-96780857D01*
X217455443Y-96740773D01*
X217455441Y-96740772D01*
X217333661Y-96675680D01*
X217256910Y-96612691D01*
X217226918Y-96588078D01*
X217139321Y-96481339D01*
X217139320Y-96481337D01*
X217074228Y-96359558D01*
X217074227Y-96359556D01*
X217034143Y-96227420D01*
X217024000Y-96124431D01*
X217024001Y-94755568D01*
X217034144Y-94652579D01*
X217074228Y-94520443D01*
X217079561Y-94510466D01*
X217139321Y-94398661D01*
X217226921Y-94291920D01*
X217333662Y-94204320D01*
X217455442Y-94139228D01*
X217455444Y-94139227D01*
X217587580Y-94099143D01*
X217725000Y-94085609D01*
X217862421Y-94099143D01*
X217862421Y-94099143D01*
G37*
G36*
X207862421Y-94099143D02*
X207994557Y-94139227D01*
X207994559Y-94139228D01*
X208116339Y-94204320D01*
X208223080Y-94291920D01*
X208310680Y-94398661D01*
X208370440Y-94510466D01*
X208375773Y-94520443D01*
X208415857Y-94652579D01*
X208426000Y-94755568D01*
X208426000Y-96124432D01*
X208415857Y-96227421D01*
X208375773Y-96359556D01*
X208375772Y-96359559D01*
X208310680Y-96481339D01*
X208247691Y-96558090D01*
X208223078Y-96588082D01*
X208143161Y-96653667D01*
X208116338Y-96675680D01*
X207994558Y-96740772D01*
X207994556Y-96740773D01*
X207862420Y-96780857D01*
X207725000Y-96794391D01*
X207587579Y-96780857D01*
X207455443Y-96740773D01*
X207455441Y-96740772D01*
X207333661Y-96675680D01*
X207256910Y-96612691D01*
X207226918Y-96588078D01*
X207139321Y-96481339D01*
X207139320Y-96481337D01*
X207074228Y-96359558D01*
X207074227Y-96359556D01*
X207034143Y-96227420D01*
X207024000Y-96124431D01*
X207024001Y-94755568D01*
X207034144Y-94652579D01*
X207074228Y-94520443D01*
X207079561Y-94510466D01*
X207139321Y-94398661D01*
X207226921Y-94291920D01*
X207333662Y-94204320D01*
X207455442Y-94139228D01*
X207455444Y-94139227D01*
X207587580Y-94099143D01*
X207725000Y-94085609D01*
X207862421Y-94099143D01*
X207862421Y-94099143D01*
G37*
G36*
X212914890Y-94814017D02*
X213033361Y-94863089D01*
X213033364Y-94863091D01*
X213092742Y-94902766D01*
X213139992Y-94934338D01*
X213230662Y-95025008D01*
X213301911Y-95131639D01*
X213350983Y-95250110D01*
X213376000Y-95375881D01*
X213376000Y-95504119D01*
X213350983Y-95629890D01*
X213301911Y-95748361D01*
X213301909Y-95748364D01*
X213253167Y-95821312D01*
X213230662Y-95854992D01*
X213139992Y-95945662D01*
X213139989Y-95945664D01*
X213139988Y-95945665D01*
X213033364Y-96016909D01*
X213033361Y-96016911D01*
X212914890Y-96065983D01*
X212789119Y-96091000D01*
X212660881Y-96091000D01*
X212535110Y-96065983D01*
X212416639Y-96016911D01*
X212416636Y-96016909D01*
X212310012Y-95945665D01*
X212310011Y-95945664D01*
X212310008Y-95945662D01*
X212219338Y-95854992D01*
X212196834Y-95821312D01*
X212148091Y-95748364D01*
X212148089Y-95748361D01*
X212099017Y-95629890D01*
X212074000Y-95504119D01*
X212074000Y-95375881D01*
X212099017Y-95250110D01*
X212148089Y-95131639D01*
X212219338Y-95025008D01*
X212310008Y-94934338D01*
X212357259Y-94902766D01*
X212416636Y-94863091D01*
X212416639Y-94863089D01*
X212535110Y-94814017D01*
X212660881Y-94789000D01*
X212789119Y-94789000D01*
X212914890Y-94814017D01*
X212914890Y-94814017D01*
G37*
G36*
X221932396Y-93145546D02*
X222105466Y-93217234D01*
X222261230Y-93321312D01*
X222393688Y-93453770D01*
X222497766Y-93609534D01*
X222569454Y-93782604D01*
X222606000Y-93966333D01*
X222606000Y-94153667D01*
X222569454Y-94337396D01*
X222497766Y-94510466D01*
X222393688Y-94666230D01*
X222261230Y-94798688D01*
X222105466Y-94902766D01*
X221932396Y-94974454D01*
X221748667Y-95011000D01*
X221561333Y-95011000D01*
X221377604Y-94974454D01*
X221204534Y-94902766D01*
X221048770Y-94798688D01*
X220916312Y-94666230D01*
X220812234Y-94510466D01*
X220740546Y-94337396D01*
X220704000Y-94153667D01*
X220704000Y-93966333D01*
X220740546Y-93782604D01*
X220812234Y-93609534D01*
X220916312Y-93453770D01*
X221048770Y-93321312D01*
X221204534Y-93217234D01*
X221377604Y-93145546D01*
X221561333Y-93109000D01*
X221748667Y-93109000D01*
X221932396Y-93145546D01*
X221932396Y-93145546D01*
G37*
G36*
X224432396Y-93145546D02*
X224605466Y-93217234D01*
X224761230Y-93321312D01*
X224893688Y-93453770D01*
X224997766Y-93609534D01*
X225069454Y-93782604D01*
X225106000Y-93966333D01*
X225106000Y-94153667D01*
X225069454Y-94337396D01*
X224997766Y-94510466D01*
X224893688Y-94666230D01*
X224761230Y-94798688D01*
X224605466Y-94902766D01*
X224432396Y-94974454D01*
X224248667Y-95011000D01*
X224061333Y-95011000D01*
X223877604Y-94974454D01*
X223704534Y-94902766D01*
X223548770Y-94798688D01*
X223416312Y-94666230D01*
X223312234Y-94510466D01*
X223240546Y-94337396D01*
X223204000Y-94153667D01*
X223204000Y-93966333D01*
X223240546Y-93782604D01*
X223312234Y-93609534D01*
X223416312Y-93453770D01*
X223548770Y-93321312D01*
X223704534Y-93217234D01*
X223877604Y-93145546D01*
X224061333Y-93109000D01*
X224248667Y-93109000D01*
X224432396Y-93145546D01*
X224432396Y-93145546D01*
G37*
G36*
X195690443Y-93085519D02*
X195756627Y-93092037D01*
X195869853Y-93126384D01*
X195926467Y-93143557D01*
X196064305Y-93217234D01*
X196082991Y-93227222D01*
X196118729Y-93256552D01*
X196220186Y-93339814D01*
X196303448Y-93441271D01*
X196332778Y-93477009D01*
X196332779Y-93477011D01*
X196416443Y-93633533D01*
X196416443Y-93633534D01*
X196467963Y-93803373D01*
X196485359Y-93980000D01*
X196467963Y-94156627D01*
X196433616Y-94269853D01*
X196416443Y-94326467D01*
X196410601Y-94337396D01*
X196332778Y-94482991D01*
X196310230Y-94510466D01*
X196220186Y-94620186D01*
X196118729Y-94703448D01*
X196082991Y-94732778D01*
X196082989Y-94732779D01*
X195926467Y-94816443D01*
X195869853Y-94833616D01*
X195756627Y-94867963D01*
X195690443Y-94874481D01*
X195624260Y-94881000D01*
X195535740Y-94881000D01*
X195469557Y-94874481D01*
X195403373Y-94867963D01*
X195290147Y-94833616D01*
X195233533Y-94816443D01*
X195077011Y-94732779D01*
X195077009Y-94732778D01*
X195041271Y-94703448D01*
X194939814Y-94620186D01*
X194849770Y-94510466D01*
X194827222Y-94482991D01*
X194749399Y-94337396D01*
X194743557Y-94326467D01*
X194726384Y-94269853D01*
X194692037Y-94156627D01*
X194674641Y-93980000D01*
X194692037Y-93803373D01*
X194743557Y-93633534D01*
X194743557Y-93633533D01*
X194827221Y-93477011D01*
X194827222Y-93477009D01*
X194856552Y-93441271D01*
X194939814Y-93339814D01*
X195041271Y-93256552D01*
X195077009Y-93227222D01*
X195095695Y-93217234D01*
X195233533Y-93143557D01*
X195290147Y-93126384D01*
X195403373Y-93092037D01*
X195469557Y-93085519D01*
X195535740Y-93079000D01*
X195624260Y-93079000D01*
X195690443Y-93085519D01*
X195690443Y-93085519D01*
G37*
G36*
X195690443Y-90545519D02*
X195756627Y-90552037D01*
X195869853Y-90586384D01*
X195926467Y-90603557D01*
X196065087Y-90677652D01*
X196082991Y-90687222D01*
X196118729Y-90716552D01*
X196220186Y-90799814D01*
X196303448Y-90901271D01*
X196332778Y-90937009D01*
X196332779Y-90937011D01*
X196416443Y-91093533D01*
X196427765Y-91130857D01*
X196467963Y-91263373D01*
X196485359Y-91440000D01*
X196467963Y-91616627D01*
X196433616Y-91729853D01*
X196416443Y-91786467D01*
X196342348Y-91925087D01*
X196332778Y-91942991D01*
X196303448Y-91978729D01*
X196220186Y-92080186D01*
X196118729Y-92163448D01*
X196082991Y-92192778D01*
X196082989Y-92192779D01*
X195926467Y-92276443D01*
X195869853Y-92293616D01*
X195756627Y-92327963D01*
X195690443Y-92334481D01*
X195624260Y-92341000D01*
X195535740Y-92341000D01*
X195469557Y-92334481D01*
X195403373Y-92327963D01*
X195290147Y-92293616D01*
X195233533Y-92276443D01*
X195077011Y-92192779D01*
X195077009Y-92192778D01*
X195041271Y-92163448D01*
X194939814Y-92080186D01*
X194856552Y-91978729D01*
X194827222Y-91942991D01*
X194817652Y-91925087D01*
X194743557Y-91786467D01*
X194726384Y-91729853D01*
X194692037Y-91616627D01*
X194674641Y-91440000D01*
X194692037Y-91263373D01*
X194732235Y-91130857D01*
X194743557Y-91093533D01*
X194827221Y-90937011D01*
X194827222Y-90937009D01*
X194856552Y-90901271D01*
X194939814Y-90799814D01*
X195041271Y-90716552D01*
X195077009Y-90687222D01*
X195094913Y-90677652D01*
X195233533Y-90603557D01*
X195290147Y-90586384D01*
X195403373Y-90552037D01*
X195469558Y-90545518D01*
X195535740Y-90539000D01*
X195624260Y-90539000D01*
X195690443Y-90545519D01*
X195690443Y-90545519D01*
G37*
G36*
X191880443Y-90545519D02*
X191946627Y-90552037D01*
X192059853Y-90586384D01*
X192116467Y-90603557D01*
X192255087Y-90677652D01*
X192272991Y-90687222D01*
X192308729Y-90716552D01*
X192410186Y-90799814D01*
X192493448Y-90901271D01*
X192522778Y-90937009D01*
X192522779Y-90937011D01*
X192606443Y-91093533D01*
X192617765Y-91130857D01*
X192657963Y-91263373D01*
X192675359Y-91440000D01*
X192657963Y-91616627D01*
X192623616Y-91729853D01*
X192606443Y-91786467D01*
X192532348Y-91925087D01*
X192522778Y-91942991D01*
X192493448Y-91978729D01*
X192410186Y-92080186D01*
X192308729Y-92163448D01*
X192272991Y-92192778D01*
X192272989Y-92192779D01*
X192116467Y-92276443D01*
X192059853Y-92293616D01*
X191946627Y-92327963D01*
X191880443Y-92334481D01*
X191814260Y-92341000D01*
X191725740Y-92341000D01*
X191659557Y-92334481D01*
X191593373Y-92327963D01*
X191480147Y-92293616D01*
X191423533Y-92276443D01*
X191267011Y-92192779D01*
X191267009Y-92192778D01*
X191231271Y-92163448D01*
X191129814Y-92080186D01*
X191046552Y-91978729D01*
X191017222Y-91942991D01*
X191007652Y-91925087D01*
X190933557Y-91786467D01*
X190916384Y-91729853D01*
X190882037Y-91616627D01*
X190864641Y-91440000D01*
X190882037Y-91263373D01*
X190922235Y-91130857D01*
X190933557Y-91093533D01*
X191017221Y-90937011D01*
X191017222Y-90937009D01*
X191046552Y-90901271D01*
X191129814Y-90799814D01*
X191231271Y-90716552D01*
X191267009Y-90687222D01*
X191284913Y-90677652D01*
X191423533Y-90603557D01*
X191480147Y-90586384D01*
X191593373Y-90552037D01*
X191659558Y-90545518D01*
X191725740Y-90539000D01*
X191814260Y-90539000D01*
X191880443Y-90545519D01*
X191880443Y-90545519D01*
G37*
G36*
X189340443Y-90545519D02*
X189406627Y-90552037D01*
X189519853Y-90586384D01*
X189576467Y-90603557D01*
X189715087Y-90677652D01*
X189732991Y-90687222D01*
X189768729Y-90716552D01*
X189870186Y-90799814D01*
X189953448Y-90901271D01*
X189982778Y-90937009D01*
X189982779Y-90937011D01*
X190066443Y-91093533D01*
X190077765Y-91130857D01*
X190117963Y-91263373D01*
X190135359Y-91440000D01*
X190117963Y-91616627D01*
X190083616Y-91729853D01*
X190066443Y-91786467D01*
X189992348Y-91925087D01*
X189982778Y-91942991D01*
X189953448Y-91978729D01*
X189870186Y-92080186D01*
X189768729Y-92163448D01*
X189732991Y-92192778D01*
X189732989Y-92192779D01*
X189576467Y-92276443D01*
X189519853Y-92293616D01*
X189406627Y-92327963D01*
X189340443Y-92334481D01*
X189274260Y-92341000D01*
X189185740Y-92341000D01*
X189119557Y-92334481D01*
X189053373Y-92327963D01*
X188940147Y-92293616D01*
X188883533Y-92276443D01*
X188727011Y-92192779D01*
X188727009Y-92192778D01*
X188691271Y-92163448D01*
X188589814Y-92080186D01*
X188506552Y-91978729D01*
X188477222Y-91942991D01*
X188467652Y-91925087D01*
X188393557Y-91786467D01*
X188376384Y-91729853D01*
X188342037Y-91616627D01*
X188324641Y-91440000D01*
X188342037Y-91263373D01*
X188382235Y-91130857D01*
X188393557Y-91093533D01*
X188477221Y-90937011D01*
X188477222Y-90937009D01*
X188506552Y-90901271D01*
X188589814Y-90799814D01*
X188691271Y-90716552D01*
X188727009Y-90687222D01*
X188744913Y-90677652D01*
X188883533Y-90603557D01*
X188940147Y-90586384D01*
X189053373Y-90552037D01*
X189119558Y-90545518D01*
X189185740Y-90539000D01*
X189274260Y-90539000D01*
X189340443Y-90545519D01*
X189340443Y-90545519D01*
G37*
G36*
X213512421Y-89749143D02*
X213644557Y-89789227D01*
X213644559Y-89789228D01*
X213766339Y-89854320D01*
X213873080Y-89941920D01*
X213960680Y-90048661D01*
X214005032Y-90131639D01*
X214025773Y-90170443D01*
X214065857Y-90302579D01*
X214079391Y-90440000D01*
X214065857Y-90577421D01*
X214032548Y-90687222D01*
X214025772Y-90709559D01*
X213960680Y-90831339D01*
X213873080Y-90938080D01*
X213766339Y-91025680D01*
X213644559Y-91090772D01*
X213644557Y-91090773D01*
X213512421Y-91130857D01*
X213409432Y-91141000D01*
X212040568Y-91141000D01*
X211937579Y-91130857D01*
X211805443Y-91090773D01*
X211805441Y-91090772D01*
X211683661Y-91025680D01*
X211576920Y-90938080D01*
X211489320Y-90831339D01*
X211424228Y-90709559D01*
X211417452Y-90687222D01*
X211384143Y-90577421D01*
X211370609Y-90440000D01*
X211384143Y-90302579D01*
X211424227Y-90170443D01*
X211444968Y-90131639D01*
X211489320Y-90048661D01*
X211576920Y-89941920D01*
X211683661Y-89854320D01*
X211805441Y-89789228D01*
X211805443Y-89789227D01*
X211937579Y-89749143D01*
X212040568Y-89739000D01*
X213409432Y-89739000D01*
X213512421Y-89749143D01*
X213512421Y-89749143D01*
G37*
G36*
X217914890Y-89814017D02*
X218033361Y-89863089D01*
X218139992Y-89934338D01*
X218230662Y-90025008D01*
X218301911Y-90131639D01*
X218350983Y-90250110D01*
X218376000Y-90375881D01*
X218376000Y-90504119D01*
X218350983Y-90629890D01*
X218301911Y-90748361D01*
X218230662Y-90854992D01*
X218139992Y-90945662D01*
X218033361Y-91016911D01*
X217914890Y-91065983D01*
X217789119Y-91091000D01*
X217660881Y-91091000D01*
X217535110Y-91065983D01*
X217416639Y-91016911D01*
X217310008Y-90945662D01*
X217219338Y-90854992D01*
X217148089Y-90748361D01*
X217099017Y-90629890D01*
X217074000Y-90504119D01*
X217074000Y-90375881D01*
X217099017Y-90250110D01*
X217148089Y-90131639D01*
X217219338Y-90025008D01*
X217310008Y-89934338D01*
X217416639Y-89863089D01*
X217535110Y-89814017D01*
X217660881Y-89789000D01*
X217789119Y-89789000D01*
X217914890Y-89814017D01*
X217914890Y-89814017D01*
G37*
G36*
X207914890Y-89814017D02*
X208033361Y-89863089D01*
X208139992Y-89934338D01*
X208230662Y-90025008D01*
X208301911Y-90131639D01*
X208350983Y-90250110D01*
X208376000Y-90375881D01*
X208376000Y-90504119D01*
X208350983Y-90629890D01*
X208301911Y-90748361D01*
X208230662Y-90854992D01*
X208139992Y-90945662D01*
X208033361Y-91016911D01*
X207914890Y-91065983D01*
X207789119Y-91091000D01*
X207660881Y-91091000D01*
X207535110Y-91065983D01*
X207416639Y-91016911D01*
X207310008Y-90945662D01*
X207219338Y-90854992D01*
X207148089Y-90748361D01*
X207099017Y-90629890D01*
X207074000Y-90504119D01*
X207074000Y-90375881D01*
X207099017Y-90250110D01*
X207148089Y-90131639D01*
X207219338Y-90025008D01*
X207310008Y-89934338D01*
X207416639Y-89863089D01*
X207535110Y-89814017D01*
X207660881Y-89789000D01*
X207789119Y-89789000D01*
X207914890Y-89814017D01*
X207914890Y-89814017D01*
G37*
G36*
X183956136Y-89253253D02*
X184047312Y-89291019D01*
X184129372Y-89345850D01*
X184199150Y-89415628D01*
X184253981Y-89497688D01*
X184291747Y-89588864D01*
X184311000Y-89685656D01*
X184311000Y-89784344D01*
X184291747Y-89881136D01*
X184253981Y-89972312D01*
X184199150Y-90054372D01*
X184129372Y-90124150D01*
X184047312Y-90178981D01*
X183956136Y-90216747D01*
X183859344Y-90236000D01*
X183760656Y-90236000D01*
X183663864Y-90216747D01*
X183572688Y-90178981D01*
X183490628Y-90124150D01*
X183420850Y-90054372D01*
X183366019Y-89972312D01*
X183328253Y-89881136D01*
X183309000Y-89784344D01*
X183309000Y-89685656D01*
X183328253Y-89588864D01*
X183366019Y-89497688D01*
X183420850Y-89415628D01*
X183490628Y-89345850D01*
X183572688Y-89291019D01*
X183663864Y-89253253D01*
X183760656Y-89234000D01*
X183859344Y-89234000D01*
X183956136Y-89253253D01*
X183956136Y-89253253D01*
G37*
G36*
X179556136Y-89253253D02*
X179647312Y-89291019D01*
X179729372Y-89345850D01*
X179799150Y-89415628D01*
X179853981Y-89497688D01*
X179891747Y-89588864D01*
X179911000Y-89685656D01*
X179911000Y-89784344D01*
X179891747Y-89881136D01*
X179853981Y-89972312D01*
X179799150Y-90054372D01*
X179729372Y-90124150D01*
X179647312Y-90178981D01*
X179556136Y-90216747D01*
X179459344Y-90236000D01*
X179360656Y-90236000D01*
X179263864Y-90216747D01*
X179172688Y-90178981D01*
X179090628Y-90124150D01*
X179020850Y-90054372D01*
X178966019Y-89972312D01*
X178928253Y-89881136D01*
X178909000Y-89784344D01*
X178909000Y-89685656D01*
X178928253Y-89588864D01*
X178966019Y-89497688D01*
X179020850Y-89415628D01*
X179090628Y-89345850D01*
X179172688Y-89291019D01*
X179263864Y-89253253D01*
X179360656Y-89234000D01*
X179459344Y-89234000D01*
X179556136Y-89253253D01*
X179556136Y-89253253D01*
G37*
G36*
X191866223Y-88004118D02*
X191946627Y-88012037D01*
X192059853Y-88046384D01*
X192116467Y-88063557D01*
X192240565Y-88129890D01*
X192272991Y-88147222D01*
X192308729Y-88176552D01*
X192410186Y-88259814D01*
X192488292Y-88354988D01*
X192522778Y-88397009D01*
X192522779Y-88397011D01*
X192606443Y-88553533D01*
X192617808Y-88591000D01*
X192657963Y-88723373D01*
X192675359Y-88900000D01*
X192657963Y-89076627D01*
X192623616Y-89189853D01*
X192606443Y-89246467D01*
X192553322Y-89345848D01*
X192522778Y-89402991D01*
X192493448Y-89438729D01*
X192410186Y-89540186D01*
X192308729Y-89623448D01*
X192272991Y-89652778D01*
X192272989Y-89652779D01*
X192116467Y-89736443D01*
X192059853Y-89753616D01*
X191946627Y-89787963D01*
X191880443Y-89794481D01*
X191814260Y-89801000D01*
X191725740Y-89801000D01*
X191659557Y-89794481D01*
X191593373Y-89787963D01*
X191480147Y-89753616D01*
X191423533Y-89736443D01*
X191267011Y-89652779D01*
X191267009Y-89652778D01*
X191231271Y-89623448D01*
X191129814Y-89540186D01*
X191046552Y-89438729D01*
X191017222Y-89402991D01*
X190986678Y-89345848D01*
X190933557Y-89246467D01*
X190916384Y-89189853D01*
X190882037Y-89076627D01*
X190864641Y-88900000D01*
X190882037Y-88723373D01*
X190922192Y-88591000D01*
X190933557Y-88553533D01*
X191017221Y-88397011D01*
X191017222Y-88397009D01*
X191051708Y-88354988D01*
X191129814Y-88259814D01*
X191231271Y-88176552D01*
X191267009Y-88147222D01*
X191299435Y-88129890D01*
X191423533Y-88063557D01*
X191480147Y-88046384D01*
X191593373Y-88012037D01*
X191673777Y-88004118D01*
X191725740Y-87999000D01*
X191814260Y-87999000D01*
X191866223Y-88004118D01*
X191866223Y-88004118D01*
G37*
G36*
X189326223Y-88004118D02*
X189406627Y-88012037D01*
X189519853Y-88046384D01*
X189576467Y-88063557D01*
X189700565Y-88129890D01*
X189732991Y-88147222D01*
X189768729Y-88176552D01*
X189870186Y-88259814D01*
X189948292Y-88354988D01*
X189982778Y-88397009D01*
X189982779Y-88397011D01*
X190066443Y-88553533D01*
X190077808Y-88591000D01*
X190117963Y-88723373D01*
X190135359Y-88900000D01*
X190117963Y-89076627D01*
X190083616Y-89189853D01*
X190066443Y-89246467D01*
X190013322Y-89345848D01*
X189982778Y-89402991D01*
X189953448Y-89438729D01*
X189870186Y-89540186D01*
X189768729Y-89623448D01*
X189732991Y-89652778D01*
X189732989Y-89652779D01*
X189576467Y-89736443D01*
X189519853Y-89753616D01*
X189406627Y-89787963D01*
X189340443Y-89794481D01*
X189274260Y-89801000D01*
X189185740Y-89801000D01*
X189119557Y-89794481D01*
X189053373Y-89787963D01*
X188940147Y-89753616D01*
X188883533Y-89736443D01*
X188727011Y-89652779D01*
X188727009Y-89652778D01*
X188691271Y-89623448D01*
X188589814Y-89540186D01*
X188506552Y-89438729D01*
X188477222Y-89402991D01*
X188446678Y-89345848D01*
X188393557Y-89246467D01*
X188376384Y-89189853D01*
X188342037Y-89076627D01*
X188324641Y-88900000D01*
X188342037Y-88723373D01*
X188382192Y-88591000D01*
X188393557Y-88553533D01*
X188477221Y-88397011D01*
X188477222Y-88397009D01*
X188511708Y-88354988D01*
X188589814Y-88259814D01*
X188691271Y-88176552D01*
X188727009Y-88147222D01*
X188759435Y-88129890D01*
X188883533Y-88063557D01*
X188940147Y-88046384D01*
X189053373Y-88012037D01*
X189133777Y-88004118D01*
X189185740Y-87999000D01*
X189274260Y-87999000D01*
X189326223Y-88004118D01*
X189326223Y-88004118D01*
G37*
G36*
X195676223Y-88004118D02*
X195756627Y-88012037D01*
X195869853Y-88046384D01*
X195926467Y-88063557D01*
X196050565Y-88129890D01*
X196082991Y-88147222D01*
X196118729Y-88176552D01*
X196220186Y-88259814D01*
X196298292Y-88354988D01*
X196332778Y-88397009D01*
X196332779Y-88397011D01*
X196416443Y-88553533D01*
X196427808Y-88591000D01*
X196467963Y-88723373D01*
X196485359Y-88900000D01*
X196467963Y-89076627D01*
X196433616Y-89189853D01*
X196416443Y-89246467D01*
X196363322Y-89345848D01*
X196332778Y-89402991D01*
X196303448Y-89438729D01*
X196220186Y-89540186D01*
X196118729Y-89623448D01*
X196082991Y-89652778D01*
X196082989Y-89652779D01*
X195926467Y-89736443D01*
X195869853Y-89753616D01*
X195756627Y-89787963D01*
X195690443Y-89794481D01*
X195624260Y-89801000D01*
X195535740Y-89801000D01*
X195469557Y-89794481D01*
X195403373Y-89787963D01*
X195290147Y-89753616D01*
X195233533Y-89736443D01*
X195077011Y-89652779D01*
X195077009Y-89652778D01*
X195041271Y-89623448D01*
X194939814Y-89540186D01*
X194856552Y-89438729D01*
X194827222Y-89402991D01*
X194796678Y-89345848D01*
X194743557Y-89246467D01*
X194726384Y-89189853D01*
X194692037Y-89076627D01*
X194674641Y-88900000D01*
X194692037Y-88723373D01*
X194732192Y-88591000D01*
X194743557Y-88553533D01*
X194827221Y-88397011D01*
X194827222Y-88397009D01*
X194861708Y-88354988D01*
X194939814Y-88259814D01*
X195041271Y-88176552D01*
X195077009Y-88147222D01*
X195109435Y-88129890D01*
X195233533Y-88063557D01*
X195290147Y-88046384D01*
X195403373Y-88012037D01*
X195483777Y-88004118D01*
X195535740Y-87999000D01*
X195624260Y-87999000D01*
X195676223Y-88004118D01*
X195676223Y-88004118D01*
G37*
G36*
X226435256Y-86021298D02*
X226541579Y-86042447D01*
X226842042Y-86166903D01*
X226866691Y-86183373D01*
X227112454Y-86347587D01*
X227342413Y-86577546D01*
X227342415Y-86577549D01*
X227523097Y-86847958D01*
X227632790Y-87112779D01*
X227647553Y-87148422D01*
X227711000Y-87467389D01*
X227711000Y-87792611D01*
X227689007Y-87903175D01*
X227647553Y-88111579D01*
X227523097Y-88412042D01*
X227403521Y-88591000D01*
X227342413Y-88682454D01*
X227112454Y-88912413D01*
X227112451Y-88912415D01*
X226842042Y-89093097D01*
X226541579Y-89217553D01*
X226458894Y-89234000D01*
X226222611Y-89281000D01*
X225897389Y-89281000D01*
X225661106Y-89234000D01*
X225578421Y-89217553D01*
X225277958Y-89093097D01*
X225007549Y-88912415D01*
X225007546Y-88912413D01*
X224777587Y-88682454D01*
X224716479Y-88591000D01*
X224596903Y-88412042D01*
X224472447Y-88111579D01*
X224430993Y-87903175D01*
X224409000Y-87792611D01*
X224409000Y-87467389D01*
X224472447Y-87148422D01*
X224487211Y-87112779D01*
X224596903Y-86847958D01*
X224777585Y-86577549D01*
X224777587Y-86577546D01*
X225007546Y-86347587D01*
X225253309Y-86183373D01*
X225277958Y-86166903D01*
X225578421Y-86042447D01*
X225684744Y-86021298D01*
X225897389Y-85979000D01*
X226222611Y-85979000D01*
X226435256Y-86021298D01*
X226435256Y-86021298D01*
G37*
G36*
X154045256Y-86021298D02*
X154151579Y-86042447D01*
X154452042Y-86166903D01*
X154476691Y-86183373D01*
X154722454Y-86347587D01*
X154952413Y-86577546D01*
X154952415Y-86577549D01*
X155133097Y-86847958D01*
X155242790Y-87112779D01*
X155257553Y-87148422D01*
X155321000Y-87467389D01*
X155321000Y-87792611D01*
X155299007Y-87903175D01*
X155257553Y-88111579D01*
X155133097Y-88412042D01*
X155013521Y-88591000D01*
X154952413Y-88682454D01*
X154722454Y-88912413D01*
X154722451Y-88912415D01*
X154452042Y-89093097D01*
X154151579Y-89217553D01*
X154068894Y-89234000D01*
X153832611Y-89281000D01*
X153507389Y-89281000D01*
X153271106Y-89234000D01*
X153188421Y-89217553D01*
X152887958Y-89093097D01*
X152617549Y-88912415D01*
X152617546Y-88912413D01*
X152387587Y-88682454D01*
X152326479Y-88591000D01*
X152206903Y-88412042D01*
X152082447Y-88111579D01*
X152040993Y-87903175D01*
X152019000Y-87792611D01*
X152019000Y-87467389D01*
X152082447Y-87148422D01*
X152097211Y-87112779D01*
X152206903Y-86847958D01*
X152387585Y-86577549D01*
X152387587Y-86577546D01*
X152617546Y-86347587D01*
X152863309Y-86183373D01*
X152887958Y-86166903D01*
X153188421Y-86042447D01*
X153294744Y-86021298D01*
X153507389Y-85979000D01*
X153832611Y-85979000D01*
X154045256Y-86021298D01*
X154045256Y-86021298D01*
G37*
G36*
X163205305Y-87792096D02*
X163314680Y-87837400D01*
X163413118Y-87903175D01*
X163496825Y-87986882D01*
X163562600Y-88085320D01*
X163607904Y-88194695D01*
X163631000Y-88310806D01*
X163631000Y-88429194D01*
X163607904Y-88545305D01*
X163562600Y-88654680D01*
X163496825Y-88753118D01*
X163413118Y-88836825D01*
X163314680Y-88902600D01*
X163205305Y-88947904D01*
X163089194Y-88971000D01*
X162970806Y-88971000D01*
X162854695Y-88947904D01*
X162745320Y-88902600D01*
X162646882Y-88836825D01*
X162563175Y-88753118D01*
X162497400Y-88654680D01*
X162452096Y-88545305D01*
X162429000Y-88429194D01*
X162429000Y-88310806D01*
X162452096Y-88194695D01*
X162497400Y-88085320D01*
X162563175Y-87986882D01*
X162646882Y-87903175D01*
X162745320Y-87837400D01*
X162854695Y-87792096D01*
X162970806Y-87769000D01*
X163089194Y-87769000D01*
X163205305Y-87792096D01*
X163205305Y-87792096D01*
G37*
G36*
X171205305Y-87792096D02*
X171314680Y-87837400D01*
X171413118Y-87903175D01*
X171496825Y-87986882D01*
X171562600Y-88085320D01*
X171607904Y-88194695D01*
X171631000Y-88310806D01*
X171631000Y-88429194D01*
X171607904Y-88545305D01*
X171562600Y-88654680D01*
X171496825Y-88753118D01*
X171413118Y-88836825D01*
X171314680Y-88902600D01*
X171205305Y-88947904D01*
X171089194Y-88971000D01*
X170970806Y-88971000D01*
X170854695Y-88947904D01*
X170745320Y-88902600D01*
X170646882Y-88836825D01*
X170563175Y-88753118D01*
X170497400Y-88654680D01*
X170452096Y-88545305D01*
X170429000Y-88429194D01*
X170429000Y-88310806D01*
X170452096Y-88194695D01*
X170497400Y-88085320D01*
X170563175Y-87986882D01*
X170646882Y-87903175D01*
X170745320Y-87837400D01*
X170854695Y-87792096D01*
X170970806Y-87769000D01*
X171089194Y-87769000D01*
X171205305Y-87792096D01*
X171205305Y-87792096D01*
G37*
G36*
X207914890Y-87314017D02*
X208033361Y-87363089D01*
X208139992Y-87434338D01*
X208230662Y-87525008D01*
X208301911Y-87631639D01*
X208350983Y-87750110D01*
X208376000Y-87875881D01*
X208376000Y-88004119D01*
X208350983Y-88129890D01*
X208301911Y-88248361D01*
X208301909Y-88248364D01*
X208260187Y-88310806D01*
X208230662Y-88354992D01*
X208139992Y-88445662D01*
X208033361Y-88516911D01*
X207914890Y-88565983D01*
X207789119Y-88591000D01*
X207660881Y-88591000D01*
X207535110Y-88565983D01*
X207416639Y-88516911D01*
X207310008Y-88445662D01*
X207219338Y-88354992D01*
X207189814Y-88310806D01*
X207148091Y-88248364D01*
X207148089Y-88248361D01*
X207099017Y-88129890D01*
X207074000Y-88004119D01*
X207074000Y-87875881D01*
X207099017Y-87750110D01*
X207148089Y-87631639D01*
X207219338Y-87525008D01*
X207310008Y-87434338D01*
X207416639Y-87363089D01*
X207535110Y-87314017D01*
X207660881Y-87289000D01*
X207789119Y-87289000D01*
X207914890Y-87314017D01*
X207914890Y-87314017D01*
G37*
G36*
X217914890Y-87314017D02*
X218033361Y-87363089D01*
X218139992Y-87434338D01*
X218230662Y-87525008D01*
X218301911Y-87631639D01*
X218350983Y-87750110D01*
X218376000Y-87875881D01*
X218376000Y-88004119D01*
X218350983Y-88129890D01*
X218301911Y-88248361D01*
X218301909Y-88248364D01*
X218260187Y-88310806D01*
X218230662Y-88354992D01*
X218139992Y-88445662D01*
X218033361Y-88516911D01*
X217914890Y-88565983D01*
X217789119Y-88591000D01*
X217660881Y-88591000D01*
X217535110Y-88565983D01*
X217416639Y-88516911D01*
X217310008Y-88445662D01*
X217219338Y-88354992D01*
X217189814Y-88310806D01*
X217148091Y-88248364D01*
X217148089Y-88248361D01*
X217099017Y-88129890D01*
X217074000Y-88004119D01*
X217074000Y-87875881D01*
X217099017Y-87750110D01*
X217148089Y-87631639D01*
X217219338Y-87525008D01*
X217310008Y-87434338D01*
X217416639Y-87363089D01*
X217535110Y-87314017D01*
X217660881Y-87289000D01*
X217789119Y-87289000D01*
X217914890Y-87314017D01*
X217914890Y-87314017D01*
G37*
G36*
X190131000Y-87261000D02*
X188329000Y-87261000D01*
X188329000Y-85459000D01*
X190131000Y-85459000D01*
X190131000Y-87261000D01*
X190131000Y-87261000D01*
G37*
G36*
X191880442Y-85465518D02*
X191946627Y-85472037D01*
X192059853Y-85506384D01*
X192116467Y-85523557D01*
X192255087Y-85597652D01*
X192272991Y-85607222D01*
X192308729Y-85636552D01*
X192410186Y-85719814D01*
X192493448Y-85821271D01*
X192522778Y-85857009D01*
X192522779Y-85857011D01*
X192606443Y-86013533D01*
X192606443Y-86013534D01*
X192657963Y-86183373D01*
X192675359Y-86360000D01*
X192657963Y-86536627D01*
X192645550Y-86577546D01*
X192606443Y-86706467D01*
X192532348Y-86845087D01*
X192522778Y-86862991D01*
X192493448Y-86898729D01*
X192410186Y-87000186D01*
X192308729Y-87083448D01*
X192272991Y-87112778D01*
X192272989Y-87112779D01*
X192116467Y-87196443D01*
X192059853Y-87213616D01*
X191946627Y-87247963D01*
X191880442Y-87254482D01*
X191814260Y-87261000D01*
X191725740Y-87261000D01*
X191659558Y-87254482D01*
X191593373Y-87247963D01*
X191480147Y-87213616D01*
X191423533Y-87196443D01*
X191267011Y-87112779D01*
X191267009Y-87112778D01*
X191231271Y-87083448D01*
X191129814Y-87000186D01*
X191046552Y-86898729D01*
X191017222Y-86862991D01*
X191007652Y-86845087D01*
X190933557Y-86706467D01*
X190894450Y-86577546D01*
X190882037Y-86536627D01*
X190864641Y-86360000D01*
X190882037Y-86183373D01*
X190933557Y-86013534D01*
X190933557Y-86013533D01*
X191017221Y-85857011D01*
X191017222Y-85857009D01*
X191046552Y-85821271D01*
X191129814Y-85719814D01*
X191231271Y-85636552D01*
X191267009Y-85607222D01*
X191284913Y-85597652D01*
X191423533Y-85523557D01*
X191480147Y-85506384D01*
X191593373Y-85472037D01*
X191659558Y-85465518D01*
X191725740Y-85459000D01*
X191814260Y-85459000D01*
X191880442Y-85465518D01*
X191880442Y-85465518D01*
G37*
G36*
X196481000Y-87261000D02*
X194679000Y-87261000D01*
X194679000Y-85459000D01*
X196481000Y-85459000D01*
X196481000Y-87261000D01*
X196481000Y-87261000D01*
G37*
M02*
