%TF.GenerationSoftware,KiCad,Pcbnew,(5.1.4-0-10_14)*%
%TF.CreationDate,2019-10-07T11:49:19-07:00*%
%TF.ProjectId,OPL3_VGM_Player,4f504c33-5f56-4474-9d5f-506c61796572,rev?*%
%TF.SameCoordinates,Original*%
%TF.FileFunction,Legend,Top*%
%TF.FilePolarity,Positive*%
%FSLAX46Y46*%
G04 Gerber Fmt 4.6, Leading zero omitted, Abs format (unit mm)*
G04 Created by KiCad (PCBNEW (5.1.4-0-10_14)) date 2019-10-07 11:49:19*
%MOMM*%
%LPD*%
G04 APERTURE LIST*
%ADD10C,0.300000*%
%ADD11C,0.125000*%
%ADD12C,0.150000*%
%ADD13C,0.120000*%
%ADD14C,0.127000*%
%ADD15C,0.304800*%
%ADD16C,0.010000*%
%ADD17C,0.050000*%
G04 APERTURE END LIST*
D10*
X196638171Y-121457171D02*
X197709600Y-121457171D01*
X197923885Y-121528600D01*
X198066742Y-121671457D01*
X198138171Y-121885742D01*
X198138171Y-122028600D01*
X198138171Y-120028600D02*
X198138171Y-120742885D01*
X196638171Y-120742885D01*
X197995314Y-118671457D02*
X198066742Y-118742885D01*
X198138171Y-118957171D01*
X198138171Y-119100028D01*
X198066742Y-119314314D01*
X197923885Y-119457171D01*
X197781028Y-119528600D01*
X197495314Y-119600028D01*
X197281028Y-119600028D01*
X196995314Y-119528600D01*
X196852457Y-119457171D01*
X196709600Y-119314314D01*
X196638171Y-119100028D01*
X196638171Y-118957171D01*
X196709600Y-118742885D01*
X196781028Y-118671457D01*
X196638171Y-117600028D02*
X197709600Y-117600028D01*
X197923885Y-117671457D01*
X198066742Y-117814314D01*
X198138171Y-118028600D01*
X198138171Y-118171457D01*
X198138171Y-116171457D02*
X198138171Y-116885742D01*
X196638171Y-116885742D01*
X197995314Y-114814314D02*
X198066742Y-114885742D01*
X198138171Y-115100028D01*
X198138171Y-115242885D01*
X198066742Y-115457171D01*
X197923885Y-115600028D01*
X197781028Y-115671457D01*
X197495314Y-115742885D01*
X197281028Y-115742885D01*
X196995314Y-115671457D01*
X196852457Y-115600028D01*
X196709600Y-115457171D01*
X196638171Y-115242885D01*
X196638171Y-115100028D01*
X196709600Y-114885742D01*
X196781028Y-114814314D01*
X196638171Y-113742885D02*
X197709600Y-113742885D01*
X197923885Y-113814314D01*
X198066742Y-113957171D01*
X198138171Y-114171457D01*
X198138171Y-114314314D01*
X198138171Y-112314314D02*
X198138171Y-113028600D01*
X196638171Y-113028600D01*
X197995314Y-110957171D02*
X198066742Y-111028600D01*
X198138171Y-111242885D01*
X198138171Y-111385742D01*
X198066742Y-111600028D01*
X197923885Y-111742885D01*
X197781028Y-111814314D01*
X197495314Y-111885742D01*
X197281028Y-111885742D01*
X196995314Y-111814314D01*
X196852457Y-111742885D01*
X196709600Y-111600028D01*
X196638171Y-111385742D01*
X196638171Y-111242885D01*
X196709600Y-111028600D01*
X196781028Y-110957171D01*
X196638171Y-109885742D02*
X197709600Y-109885742D01*
X197923885Y-109957171D01*
X198066742Y-110100028D01*
X198138171Y-110314314D01*
X198138171Y-110457171D01*
X198138171Y-108457171D02*
X198138171Y-109171457D01*
X196638171Y-109171457D01*
X197995314Y-107100028D02*
X198066742Y-107171457D01*
X198138171Y-107385742D01*
X198138171Y-107528600D01*
X198066742Y-107742885D01*
X197923885Y-107885742D01*
X197781028Y-107957171D01*
X197495314Y-108028600D01*
X197281028Y-108028600D01*
X196995314Y-107957171D01*
X196852457Y-107885742D01*
X196709600Y-107742885D01*
X196638171Y-107528600D01*
X196638171Y-107385742D01*
X196709600Y-107171457D01*
X196781028Y-107100028D01*
X225480714Y-129226571D02*
X225980714Y-130726571D01*
X226480714Y-129226571D01*
X226837857Y-129226571D02*
X227766428Y-129226571D01*
X227266428Y-129798000D01*
X227480714Y-129798000D01*
X227623571Y-129869428D01*
X227695000Y-129940857D01*
X227766428Y-130083714D01*
X227766428Y-130440857D01*
X227695000Y-130583714D01*
X227623571Y-130655142D01*
X227480714Y-130726571D01*
X227052142Y-130726571D01*
X226909285Y-130655142D01*
X226837857Y-130583714D01*
X152443571Y-129508571D02*
X152515000Y-129580000D01*
X152586428Y-129722857D01*
X152586428Y-130080000D01*
X152515000Y-130222857D01*
X152443571Y-130294285D01*
X152300714Y-130365714D01*
X152157857Y-130365714D01*
X151943571Y-130294285D01*
X151086428Y-129437142D01*
X151086428Y-130365714D01*
X152586428Y-131294285D02*
X152586428Y-131437142D01*
X152515000Y-131580000D01*
X152443571Y-131651428D01*
X152300714Y-131722857D01*
X152015000Y-131794285D01*
X151657857Y-131794285D01*
X151372142Y-131722857D01*
X151229285Y-131651428D01*
X151157857Y-131580000D01*
X151086428Y-131437142D01*
X151086428Y-131294285D01*
X151157857Y-131151428D01*
X151229285Y-131080000D01*
X151372142Y-131008571D01*
X151657857Y-130937142D01*
X152015000Y-130937142D01*
X152300714Y-131008571D01*
X152443571Y-131080000D01*
X152515000Y-131151428D01*
X152586428Y-131294285D01*
X151086428Y-133222857D02*
X151086428Y-132365714D01*
X151086428Y-132794285D02*
X152586428Y-132794285D01*
X152372142Y-132651428D01*
X152229285Y-132508571D01*
X152157857Y-132365714D01*
X151086428Y-133937142D02*
X151086428Y-134222857D01*
X151157857Y-134365714D01*
X151229285Y-134437142D01*
X151443571Y-134580000D01*
X151729285Y-134651428D01*
X152300714Y-134651428D01*
X152443571Y-134580000D01*
X152515000Y-134508571D01*
X152586428Y-134365714D01*
X152586428Y-134080000D01*
X152515000Y-133937142D01*
X152443571Y-133865714D01*
X152300714Y-133794285D01*
X151943571Y-133794285D01*
X151800714Y-133865714D01*
X151729285Y-133937142D01*
X151657857Y-134080000D01*
X151657857Y-134365714D01*
X151729285Y-134508571D01*
X151800714Y-134580000D01*
X151943571Y-134651428D01*
X158906428Y-138743571D02*
X159192142Y-139743571D01*
X159477857Y-139029285D01*
X159763571Y-139743571D01*
X160049285Y-138743571D01*
X160477857Y-138743571D02*
X160763571Y-139743571D01*
X161049285Y-139029285D01*
X161335000Y-139743571D01*
X161620714Y-138743571D01*
X162049285Y-138743571D02*
X162335000Y-139743571D01*
X162620714Y-139029285D01*
X162906428Y-139743571D01*
X163192142Y-138743571D01*
X163763571Y-139600714D02*
X163835000Y-139672142D01*
X163763571Y-139743571D01*
X163692142Y-139672142D01*
X163763571Y-139600714D01*
X163763571Y-139743571D01*
X165120714Y-139743571D02*
X165120714Y-138957857D01*
X165049285Y-138815000D01*
X164906428Y-138743571D01*
X164620714Y-138743571D01*
X164477857Y-138815000D01*
X165120714Y-139672142D02*
X164977857Y-139743571D01*
X164620714Y-139743571D01*
X164477857Y-139672142D01*
X164406428Y-139529285D01*
X164406428Y-139386428D01*
X164477857Y-139243571D01*
X164620714Y-139172142D01*
X164977857Y-139172142D01*
X165120714Y-139100714D01*
X165835000Y-139743571D02*
X165835000Y-138743571D01*
X165835000Y-138243571D02*
X165763571Y-138315000D01*
X165835000Y-138386428D01*
X165906428Y-138315000D01*
X165835000Y-138243571D01*
X165835000Y-138386428D01*
X167192142Y-139743571D02*
X167192142Y-138243571D01*
X167192142Y-139672142D02*
X167049285Y-139743571D01*
X166763571Y-139743571D01*
X166620714Y-139672142D01*
X166549285Y-139600714D01*
X166477857Y-139457857D01*
X166477857Y-139029285D01*
X166549285Y-138886428D01*
X166620714Y-138815000D01*
X166763571Y-138743571D01*
X167049285Y-138743571D01*
X167192142Y-138815000D01*
X168549285Y-139743571D02*
X168549285Y-138957857D01*
X168477857Y-138815000D01*
X168335000Y-138743571D01*
X168049285Y-138743571D01*
X167906428Y-138815000D01*
X168549285Y-139672142D02*
X168406428Y-139743571D01*
X168049285Y-139743571D01*
X167906428Y-139672142D01*
X167835000Y-139529285D01*
X167835000Y-139386428D01*
X167906428Y-139243571D01*
X168049285Y-139172142D01*
X168406428Y-139172142D01*
X168549285Y-139100714D01*
X169263571Y-138743571D02*
X169263571Y-139743571D01*
X169263571Y-138886428D02*
X169335000Y-138815000D01*
X169477857Y-138743571D01*
X169692142Y-138743571D01*
X169835000Y-138815000D01*
X169906428Y-138957857D01*
X169906428Y-139743571D01*
X170835000Y-139743571D02*
X170692142Y-139672142D01*
X170620714Y-139529285D01*
X170620714Y-138243571D01*
X172049285Y-139743571D02*
X172049285Y-138957857D01*
X171977857Y-138815000D01*
X171835000Y-138743571D01*
X171549285Y-138743571D01*
X171406428Y-138815000D01*
X172049285Y-139672142D02*
X171906428Y-139743571D01*
X171549285Y-139743571D01*
X171406428Y-139672142D01*
X171335000Y-139529285D01*
X171335000Y-139386428D01*
X171406428Y-139243571D01*
X171549285Y-139172142D01*
X171906428Y-139172142D01*
X172049285Y-139100714D01*
X172620714Y-138743571D02*
X172906428Y-139743571D01*
X173192142Y-139029285D01*
X173477857Y-139743571D01*
X173763571Y-138743571D01*
X174335000Y-139743571D02*
X174335000Y-138743571D01*
X174335000Y-139029285D02*
X174406428Y-138886428D01*
X174477857Y-138815000D01*
X174620714Y-138743571D01*
X174763571Y-138743571D01*
X175835000Y-139672142D02*
X175692142Y-139743571D01*
X175406428Y-139743571D01*
X175263571Y-139672142D01*
X175192142Y-139529285D01*
X175192142Y-138957857D01*
X175263571Y-138815000D01*
X175406428Y-138743571D01*
X175692142Y-138743571D01*
X175835000Y-138815000D01*
X175906428Y-138957857D01*
X175906428Y-139100714D01*
X175192142Y-139243571D01*
X176549285Y-138743571D02*
X176549285Y-139743571D01*
X176549285Y-138886428D02*
X176620714Y-138815000D01*
X176763571Y-138743571D01*
X176977857Y-138743571D01*
X177120714Y-138815000D01*
X177192142Y-138957857D01*
X177192142Y-139743571D01*
X178549285Y-139672142D02*
X178406428Y-139743571D01*
X178120714Y-139743571D01*
X177977857Y-139672142D01*
X177906428Y-139600714D01*
X177835000Y-139457857D01*
X177835000Y-139029285D01*
X177906428Y-138886428D01*
X177977857Y-138815000D01*
X178120714Y-138743571D01*
X178406428Y-138743571D01*
X178549285Y-138815000D01*
X179763571Y-139672142D02*
X179620714Y-139743571D01*
X179335000Y-139743571D01*
X179192142Y-139672142D01*
X179120714Y-139529285D01*
X179120714Y-138957857D01*
X179192142Y-138815000D01*
X179335000Y-138743571D01*
X179620714Y-138743571D01*
X179763571Y-138815000D01*
X179835000Y-138957857D01*
X179835000Y-139100714D01*
X179120714Y-139243571D01*
X180477857Y-139600714D02*
X180549285Y-139672142D01*
X180477857Y-139743571D01*
X180406428Y-139672142D01*
X180477857Y-139600714D01*
X180477857Y-139743571D01*
X181835000Y-139672142D02*
X181692142Y-139743571D01*
X181406428Y-139743571D01*
X181263571Y-139672142D01*
X181192142Y-139600714D01*
X181120714Y-139457857D01*
X181120714Y-139029285D01*
X181192142Y-138886428D01*
X181263571Y-138815000D01*
X181406428Y-138743571D01*
X181692142Y-138743571D01*
X181835000Y-138815000D01*
X182692142Y-139743571D02*
X182549285Y-139672142D01*
X182477857Y-139600714D01*
X182406428Y-139457857D01*
X182406428Y-139029285D01*
X182477857Y-138886428D01*
X182549285Y-138815000D01*
X182692142Y-138743571D01*
X182906428Y-138743571D01*
X183049285Y-138815000D01*
X183120714Y-138886428D01*
X183192142Y-139029285D01*
X183192142Y-139457857D01*
X183120714Y-139600714D01*
X183049285Y-139672142D01*
X182906428Y-139743571D01*
X182692142Y-139743571D01*
X183835000Y-139743571D02*
X183835000Y-138743571D01*
X183835000Y-138886428D02*
X183906428Y-138815000D01*
X184049285Y-138743571D01*
X184263571Y-138743571D01*
X184406428Y-138815000D01*
X184477857Y-138957857D01*
X184477857Y-139743571D01*
X184477857Y-138957857D02*
X184549285Y-138815000D01*
X184692142Y-138743571D01*
X184906428Y-138743571D01*
X185049285Y-138815000D01*
X185120714Y-138957857D01*
X185120714Y-139743571D01*
X198247142Y-93230000D02*
X198104285Y-93158571D01*
X197890000Y-93158571D01*
X197675714Y-93230000D01*
X197532857Y-93372857D01*
X197461428Y-93515714D01*
X197390000Y-93801428D01*
X197390000Y-94015714D01*
X197461428Y-94301428D01*
X197532857Y-94444285D01*
X197675714Y-94587142D01*
X197890000Y-94658571D01*
X198032857Y-94658571D01*
X198247142Y-94587142D01*
X198318571Y-94515714D01*
X198318571Y-94015714D01*
X198032857Y-94015714D01*
X198961428Y-94658571D02*
X198961428Y-93158571D01*
X199818571Y-94658571D01*
X199818571Y-93158571D01*
X200532857Y-94658571D02*
X200532857Y-93158571D01*
X200890000Y-93158571D01*
X201104285Y-93230000D01*
X201247142Y-93372857D01*
X201318571Y-93515714D01*
X201390000Y-93801428D01*
X201390000Y-94015714D01*
X201318571Y-94301428D01*
X201247142Y-94444285D01*
X201104285Y-94587142D01*
X200890000Y-94658571D01*
X200532857Y-94658571D01*
X197354285Y-92047142D02*
X197568571Y-92118571D01*
X197925714Y-92118571D01*
X198068571Y-92047142D01*
X198140000Y-91975714D01*
X198211428Y-91832857D01*
X198211428Y-91690000D01*
X198140000Y-91547142D01*
X198068571Y-91475714D01*
X197925714Y-91404285D01*
X197640000Y-91332857D01*
X197497142Y-91261428D01*
X197425714Y-91190000D01*
X197354285Y-91047142D01*
X197354285Y-90904285D01*
X197425714Y-90761428D01*
X197497142Y-90690000D01*
X197640000Y-90618571D01*
X197997142Y-90618571D01*
X198211428Y-90690000D01*
X198711428Y-90618571D02*
X199068571Y-92118571D01*
X199354285Y-91047142D01*
X199640000Y-92118571D01*
X199997142Y-90618571D01*
X201425714Y-91975714D02*
X201354285Y-92047142D01*
X201140000Y-92118571D01*
X200997142Y-92118571D01*
X200782857Y-92047142D01*
X200640000Y-91904285D01*
X200568571Y-91761428D01*
X200497142Y-91475714D01*
X200497142Y-91261428D01*
X200568571Y-90975714D01*
X200640000Y-90832857D01*
X200782857Y-90690000D01*
X200997142Y-90618571D01*
X201140000Y-90618571D01*
X201354285Y-90690000D01*
X201425714Y-90761428D01*
X197354285Y-89507142D02*
X197568571Y-89578571D01*
X197925714Y-89578571D01*
X198068571Y-89507142D01*
X198140000Y-89435714D01*
X198211428Y-89292857D01*
X198211428Y-89150000D01*
X198140000Y-89007142D01*
X198068571Y-88935714D01*
X197925714Y-88864285D01*
X197640000Y-88792857D01*
X197497142Y-88721428D01*
X197425714Y-88650000D01*
X197354285Y-88507142D01*
X197354285Y-88364285D01*
X197425714Y-88221428D01*
X197497142Y-88150000D01*
X197640000Y-88078571D01*
X197997142Y-88078571D01*
X198211428Y-88150000D01*
X198711428Y-88078571D02*
X199068571Y-89578571D01*
X199354285Y-88507142D01*
X199640000Y-89578571D01*
X199997142Y-88078571D01*
X200568571Y-89578571D02*
X200568571Y-88078571D01*
X200925714Y-88078571D01*
X201140000Y-88150000D01*
X201282857Y-88292857D01*
X201354285Y-88435714D01*
X201425714Y-88721428D01*
X201425714Y-88935714D01*
X201354285Y-89221428D01*
X201282857Y-89364285D01*
X201140000Y-89507142D01*
X200925714Y-89578571D01*
X200568571Y-89578571D01*
X197175714Y-85538571D02*
X198104285Y-85538571D01*
X197604285Y-86110000D01*
X197818571Y-86110000D01*
X197961428Y-86181428D01*
X198032857Y-86252857D01*
X198104285Y-86395714D01*
X198104285Y-86752857D01*
X198032857Y-86895714D01*
X197961428Y-86967142D01*
X197818571Y-87038571D01*
X197390000Y-87038571D01*
X197247142Y-86967142D01*
X197175714Y-86895714D01*
X198747142Y-86895714D02*
X198818571Y-86967142D01*
X198747142Y-87038571D01*
X198675714Y-86967142D01*
X198747142Y-86895714D01*
X198747142Y-87038571D01*
X199318571Y-85538571D02*
X200247142Y-85538571D01*
X199747142Y-86110000D01*
X199961428Y-86110000D01*
X200104285Y-86181428D01*
X200175714Y-86252857D01*
X200247142Y-86395714D01*
X200247142Y-86752857D01*
X200175714Y-86895714D01*
X200104285Y-86967142D01*
X199961428Y-87038571D01*
X199532857Y-87038571D01*
X199390000Y-86967142D01*
X199318571Y-86895714D01*
X200675714Y-85538571D02*
X201175714Y-87038571D01*
X201675714Y-85538571D01*
D11*
X187783019Y-93410885D02*
X187854447Y-93434695D01*
X187878257Y-93458504D01*
X187902066Y-93506123D01*
X187902066Y-93577552D01*
X187878257Y-93625171D01*
X187854447Y-93648980D01*
X187806828Y-93672790D01*
X187616352Y-93672790D01*
X187616352Y-93172790D01*
X187783019Y-93172790D01*
X187830638Y-93196600D01*
X187854447Y-93220409D01*
X187878257Y-93268028D01*
X187878257Y-93315647D01*
X187854447Y-93363266D01*
X187830638Y-93387076D01*
X187783019Y-93410885D01*
X187616352Y-93410885D01*
X188211590Y-93172790D02*
X188259209Y-93172790D01*
X188306828Y-93196600D01*
X188330638Y-93220409D01*
X188354447Y-93268028D01*
X188378257Y-93363266D01*
X188378257Y-93482314D01*
X188354447Y-93577552D01*
X188330638Y-93625171D01*
X188306828Y-93648980D01*
X188259209Y-93672790D01*
X188211590Y-93672790D01*
X188163971Y-93648980D01*
X188140161Y-93625171D01*
X188116352Y-93577552D01*
X188092542Y-93482314D01*
X188092542Y-93363266D01*
X188116352Y-93268028D01*
X188140161Y-93220409D01*
X188163971Y-93196600D01*
X188211590Y-93172790D01*
X193193219Y-93360085D02*
X193264647Y-93383895D01*
X193288457Y-93407704D01*
X193312266Y-93455323D01*
X193312266Y-93526752D01*
X193288457Y-93574371D01*
X193264647Y-93598180D01*
X193217028Y-93621990D01*
X193026552Y-93621990D01*
X193026552Y-93121990D01*
X193193219Y-93121990D01*
X193240838Y-93145800D01*
X193264647Y-93169609D01*
X193288457Y-93217228D01*
X193288457Y-93264847D01*
X193264647Y-93312466D01*
X193240838Y-93336276D01*
X193193219Y-93360085D01*
X193026552Y-93360085D01*
X193788457Y-93621990D02*
X193502742Y-93621990D01*
X193645600Y-93621990D02*
X193645600Y-93121990D01*
X193597980Y-93193419D01*
X193550361Y-93241038D01*
X193502742Y-93264847D01*
D12*
X153670000Y-140970000D02*
X226060000Y-140970000D01*
X149860000Y-87630000D02*
X149860000Y-137160000D01*
X226060000Y-83820000D02*
X153670000Y-83820000D01*
X229870000Y-137160000D02*
X229870000Y-87630000D01*
X229870000Y-137160000D02*
G75*
G02X226060000Y-140970000I-3810000J0D01*
G01*
X153670000Y-140970000D02*
G75*
G02X149860000Y-137160000I0J3810000D01*
G01*
X149860000Y-87630000D02*
G75*
G02X153670000Y-83820000I3810000J0D01*
G01*
X226060000Y-83820000D02*
G75*
G02X229870000Y-87630000I0J-3810000D01*
G01*
D13*
X227605000Y-105377064D02*
X227605000Y-104172936D01*
X225785000Y-105377064D02*
X225785000Y-104172936D01*
X223795000Y-105377064D02*
X223795000Y-104172936D01*
X221975000Y-105377064D02*
X221975000Y-104172936D01*
X215704336Y-120963100D02*
X216908464Y-120963100D01*
X215704336Y-119143100D02*
X216908464Y-119143100D01*
X208947936Y-102510000D02*
X210152064Y-102510000D01*
X208947936Y-100690000D02*
X210152064Y-100690000D01*
X181970000Y-101632936D02*
X181970000Y-102837064D01*
X183790000Y-101632936D02*
X183790000Y-102837064D01*
D14*
X215725000Y-80800000D02*
X209725000Y-80800000D01*
X217225000Y-82800000D02*
X215725000Y-82800000D01*
X215725000Y-82800000D02*
X209725000Y-82800000D01*
X209725000Y-82800000D02*
X208225000Y-82800000D01*
X218725000Y-95800000D02*
X206725000Y-95800000D01*
X217225000Y-83600000D02*
X218725000Y-83600000D01*
X218725000Y-83600000D02*
X218725000Y-95800000D01*
X206725000Y-95800000D02*
X206725000Y-83600000D01*
X206725000Y-83600000D02*
X208225000Y-83600000D01*
X215725000Y-80800000D02*
X215725000Y-82800000D01*
X209725000Y-80800000D02*
X209725000Y-82800000D01*
X217225000Y-82800000D02*
X217225000Y-83600000D01*
X208225000Y-83600000D02*
X208225000Y-82800000D01*
D15*
X219683000Y-87410000D02*
G75*
G03X219683000Y-87410000I-100000J0D01*
G01*
D13*
X244215000Y-93500000D02*
X244215000Y-99620000D01*
X234215000Y-93500000D02*
X234215000Y-99620000D01*
X234215000Y-99620000D02*
X244215000Y-99620000D01*
X234215000Y-93500000D02*
X244215000Y-93500000D01*
X234215000Y-93000000D02*
X234215000Y-100120000D01*
X229215000Y-93000000D02*
X229215000Y-100120000D01*
X229215000Y-100120000D02*
X234215000Y-100120000D01*
X229215000Y-93000000D02*
X234215000Y-93000000D01*
X229215000Y-91750000D02*
X229215000Y-101370000D01*
X219545000Y-91750000D02*
X219545000Y-101370000D01*
X219545000Y-101370000D02*
X229215000Y-101370000D01*
X219545000Y-91750000D02*
X229215000Y-91750000D01*
X164485000Y-130818300D02*
X164485000Y-133498300D01*
X158245000Y-133498300D02*
X158245000Y-130818300D01*
X158395000Y-129038300D02*
X164335000Y-129038300D01*
X158395000Y-135278300D02*
X164335000Y-135278300D01*
X162779214Y-132158300D02*
G75*
G03X162779214Y-132158300I-1414214J0D01*
G01*
X171999414Y-132158300D02*
G75*
G03X171999414Y-132158300I-1414214J0D01*
G01*
X167615200Y-135278300D02*
X173555200Y-135278300D01*
X167615200Y-129038300D02*
X173555200Y-129038300D01*
X167465200Y-133498300D02*
X167465200Y-130818300D01*
X173705200Y-130818300D02*
X173705200Y-133498300D01*
X182900000Y-130818300D02*
X182900000Y-133498300D01*
X176660000Y-133498300D02*
X176660000Y-130818300D01*
X176810000Y-129038300D02*
X182750000Y-129038300D01*
X176810000Y-135278300D02*
X182750000Y-135278300D01*
X181194214Y-132158300D02*
G75*
G03X181194214Y-132158300I-1414214J0D01*
G01*
X171999414Y-124805000D02*
G75*
G03X171999414Y-124805000I-1414214J0D01*
G01*
X167615200Y-127925000D02*
X173555200Y-127925000D01*
X167615200Y-121685000D02*
X173555200Y-121685000D01*
X167465200Y-126145000D02*
X167465200Y-123465000D01*
X173705200Y-123465000D02*
X173705200Y-126145000D01*
D12*
X159030000Y-83967400D02*
X159030000Y-87625000D01*
X173508000Y-83925000D02*
X159030000Y-83925000D01*
X173530000Y-87725000D02*
X173530000Y-83965800D01*
X185648600Y-135540000D02*
X223648600Y-135540000D01*
X223648600Y-135540000D02*
X223648600Y-123540000D01*
X185648600Y-123540000D02*
X223648600Y-123540000D01*
X185648600Y-129540000D02*
X185648600Y-135540000D01*
X185648600Y-129540000D02*
X185648600Y-123540000D01*
D13*
X160925000Y-126813500D02*
X162925000Y-126813500D01*
X162925000Y-124773500D02*
X160925000Y-124773500D01*
X155845000Y-126750000D02*
X157845000Y-126750000D01*
X157845000Y-124710000D02*
X155845000Y-124710000D01*
X190524500Y-104767000D02*
X190524500Y-103767000D01*
X188824500Y-103767000D02*
X188824500Y-104767000D01*
X181043200Y-95771600D02*
X180043200Y-95771600D01*
X180043200Y-97471600D02*
X181043200Y-97471600D01*
X187190000Y-95670000D02*
X186190000Y-95670000D01*
X186190000Y-97370000D02*
X187190000Y-97370000D01*
X174435849Y-105055423D02*
X174930823Y-104560449D01*
X175779351Y-105408977D02*
X175284377Y-105903951D01*
X170168649Y-109284523D02*
X170663623Y-108789549D01*
X171512151Y-109638077D02*
X171017177Y-110133051D01*
X177048606Y-119322687D02*
X177755713Y-120029794D01*
X178957794Y-118827713D02*
X178250687Y-118120606D01*
X185718287Y-106385806D02*
X185011180Y-105678699D01*
X183809099Y-106880780D02*
X184516206Y-107587887D01*
X188813320Y-115140199D02*
X188106213Y-115847306D01*
X189308294Y-117049387D02*
X190015401Y-116342280D01*
X166282000Y-100719000D02*
X166282000Y-101719000D01*
X167982000Y-101719000D02*
X167982000Y-100719000D01*
X191301000Y-104059100D02*
X191301000Y-105059100D01*
X193001000Y-105059100D02*
X193001000Y-104059100D01*
X205405100Y-107822100D02*
X206405100Y-107822100D01*
X206405100Y-106122100D02*
X205405100Y-106122100D01*
X215134900Y-115640600D02*
X215134900Y-114940600D01*
X216334900Y-114940600D02*
X216334900Y-115640600D01*
X225339200Y-110559100D02*
X225339200Y-111259100D01*
X224139200Y-111259100D02*
X224139200Y-110559100D01*
X224126500Y-114116600D02*
X224126500Y-113416600D01*
X225326500Y-113416600D02*
X225326500Y-114116600D01*
X214993600Y-108380900D02*
X215993600Y-108380900D01*
X215993600Y-106680900D02*
X214993600Y-106680900D01*
X180539900Y-126170500D02*
X178539900Y-126170500D01*
X178539900Y-128210500D02*
X180539900Y-128210500D01*
X185460000Y-93485000D02*
X185460000Y-84285000D01*
X177760000Y-93485000D02*
X185460000Y-93485000D01*
X177760000Y-84285000D02*
X177760000Y-93485000D01*
X185460000Y-84285000D02*
X177760000Y-84285000D01*
X185460000Y-85285000D02*
X177760000Y-85285000D01*
X187900000Y-85030000D02*
X189230000Y-85030000D01*
X187900000Y-86360000D02*
X187900000Y-85030000D01*
X190500000Y-85030000D02*
X193100000Y-85030000D01*
X190500000Y-87630000D02*
X190500000Y-85030000D01*
X187900000Y-87630000D02*
X190500000Y-87630000D01*
X193100000Y-85030000D02*
X193100000Y-92770000D01*
X187900000Y-87630000D02*
X187900000Y-92770000D01*
X187900000Y-92770000D02*
X193100000Y-92770000D01*
X194250000Y-85030000D02*
X195580000Y-85030000D01*
X194250000Y-86360000D02*
X194250000Y-85030000D01*
X194250000Y-87630000D02*
X196910000Y-87630000D01*
X196910000Y-87630000D02*
X196910000Y-95310000D01*
X194250000Y-87630000D02*
X194250000Y-95310000D01*
X194250000Y-95310000D02*
X196910000Y-95310000D01*
X184167400Y-97301600D02*
X183167400Y-97301600D01*
X183167400Y-95941600D02*
X184167400Y-95941600D01*
D12*
X204030200Y-102695600D02*
X200030200Y-102695600D01*
X200030200Y-106295600D02*
X204030200Y-106295600D01*
X181956300Y-123512700D02*
X181956300Y-127512700D01*
X185556300Y-127512700D02*
X185556300Y-123512700D01*
D13*
X188985000Y-95215000D02*
X188985000Y-94015000D01*
X190745000Y-94015000D02*
X190745000Y-95215000D01*
X192650000Y-94015000D02*
X192650000Y-95215000D01*
X190890000Y-95215000D02*
X190890000Y-94015000D01*
X160416800Y-109858700D02*
X159216800Y-109858700D01*
X159216800Y-108098700D02*
X160416800Y-108098700D01*
X163795600Y-116659100D02*
X163795600Y-117859100D01*
X162035600Y-117859100D02*
X162035600Y-116659100D01*
X193861800Y-105108300D02*
X193861800Y-103908300D01*
X195621800Y-103908300D02*
X195621800Y-105108300D01*
X214938500Y-114627100D02*
X214938500Y-115827100D01*
X213178500Y-115827100D02*
X213178500Y-114627100D01*
X180457400Y-122368200D02*
X179257400Y-122368200D01*
X179257400Y-120608200D02*
X180457400Y-120608200D01*
X178622400Y-124303900D02*
X179822400Y-124303900D01*
X179822400Y-126063900D02*
X178622400Y-126063900D01*
X180457400Y-124197000D02*
X179257400Y-124197000D01*
X179257400Y-122437000D02*
X180457400Y-122437000D01*
X166323600Y-114294600D02*
X163643600Y-114294600D01*
X163643600Y-108054600D02*
X166323600Y-108054600D01*
X168103600Y-108204600D02*
X168103600Y-114144600D01*
X161863600Y-108204600D02*
X161863600Y-114144600D01*
X166397814Y-111174600D02*
G75*
G03X166397814Y-111174600I-1414214J0D01*
G01*
X154857400Y-124381700D02*
X154857400Y-118371700D01*
X161677400Y-122131700D02*
X161677400Y-118371700D01*
X154857400Y-118371700D02*
X156117400Y-118371700D01*
X161677400Y-118371700D02*
X160417400Y-118371700D01*
D12*
X182612602Y-108704274D02*
X181640330Y-107732002D01*
X188057324Y-113512600D02*
X187686093Y-113141369D01*
X182930800Y-118639124D02*
X182559569Y-118267893D01*
X177804276Y-113512600D02*
X178175507Y-113883831D01*
X182930800Y-108386076D02*
X183302031Y-108757307D01*
X177804276Y-113512600D02*
X178175507Y-113141369D01*
X182930800Y-118639124D02*
X183302031Y-118267893D01*
X188057324Y-113512600D02*
X187686093Y-113883831D01*
X182930800Y-108386076D02*
X182612602Y-108704274D01*
X188330500Y-101182300D02*
X188330500Y-99957300D01*
X185205500Y-101182300D02*
X185205500Y-104532300D01*
X188555500Y-101182300D02*
X188555500Y-104532300D01*
X185205500Y-101182300D02*
X185505500Y-101182300D01*
X185205500Y-104532300D02*
X185505500Y-104532300D01*
X188555500Y-104532300D02*
X188255500Y-104532300D01*
X188555500Y-101182300D02*
X188330500Y-101182300D01*
X193203600Y-106928600D02*
X191378600Y-106928600D01*
X193203600Y-122403600D02*
X200953600Y-122403600D01*
X193203600Y-106653600D02*
X200953600Y-106653600D01*
X193203600Y-122403600D02*
X193203600Y-122038600D01*
X200953600Y-122403600D02*
X200953600Y-122038600D01*
X200953600Y-106653600D02*
X200953600Y-107018600D01*
X193203600Y-106653600D02*
X193203600Y-106928600D01*
X205733600Y-108436400D02*
X204208600Y-108436400D01*
X205733600Y-118711400D02*
X211283600Y-118711400D01*
X205733600Y-108161400D02*
X211283600Y-108161400D01*
X205733600Y-118711400D02*
X205733600Y-118356400D01*
X211283600Y-118711400D02*
X211283600Y-118356400D01*
X211283600Y-108161400D02*
X211283600Y-108516400D01*
X205733600Y-108161400D02*
X205733600Y-108436400D01*
X218181100Y-108833600D02*
X216806100Y-108833600D01*
X218181100Y-117708600D02*
X222331100Y-117708600D01*
X218181100Y-108808600D02*
X222331100Y-108808600D01*
X218181100Y-117708600D02*
X218181100Y-117593600D01*
X222331100Y-117708600D02*
X222331100Y-117593600D01*
X222331100Y-108808600D02*
X222331100Y-108923600D01*
X218181100Y-108808600D02*
X218181100Y-108833600D01*
D13*
X172744607Y-115976638D02*
X181654152Y-107067092D01*
X169138362Y-112370393D02*
X172744607Y-115976638D01*
X178047908Y-103460848D02*
X169138362Y-112370393D01*
D16*
G36*
X220250850Y-137518423D02*
G01*
X220338870Y-137521027D01*
X220411184Y-137525790D01*
X220471014Y-137533029D01*
X220521582Y-137543059D01*
X220566109Y-137556197D01*
X220607817Y-137572759D01*
X220618651Y-137577690D01*
X220701222Y-137623960D01*
X220763914Y-137678305D01*
X220812068Y-137745759D01*
X220826699Y-137773861D01*
X220862997Y-137875760D01*
X220874686Y-137981047D01*
X220865804Y-138073821D01*
X220834822Y-138182108D01*
X220783482Y-138276263D01*
X220711367Y-138356699D01*
X220618062Y-138423827D01*
X220503151Y-138478059D01*
X220433900Y-138501549D01*
X220392389Y-138514823D01*
X220365347Y-138525021D01*
X220357061Y-138530458D01*
X220359086Y-138530919D01*
X220386619Y-138541583D01*
X220421808Y-138568391D01*
X220459166Y-138605752D01*
X220493204Y-138648074D01*
X220518436Y-138689766D01*
X220521430Y-138696332D01*
X220532782Y-138728182D01*
X220548486Y-138779931D01*
X220567192Y-138846724D01*
X220587550Y-138923709D01*
X220608210Y-139006032D01*
X220612531Y-139023835D01*
X220631736Y-139103200D01*
X220649257Y-139175102D01*
X220664110Y-139235546D01*
X220675313Y-139280539D01*
X220681882Y-139306088D01*
X220682836Y-139309475D01*
X220683599Y-139317472D01*
X220678050Y-139323288D01*
X220662846Y-139327269D01*
X220634644Y-139329756D01*
X220590102Y-139331093D01*
X220525876Y-139331624D01*
X220466505Y-139331700D01*
X220394412Y-139331391D01*
X220332021Y-139330535D01*
X220283386Y-139329235D01*
X220252566Y-139327596D01*
X220243400Y-139325975D01*
X220240917Y-139312356D01*
X220233998Y-139277744D01*
X220223431Y-139226005D01*
X220210007Y-139161003D01*
X220194515Y-139086601D01*
X220192121Y-139075150D01*
X220166365Y-138958464D01*
X220141987Y-138864578D01*
X220117418Y-138791063D01*
X220091090Y-138735490D01*
X220061436Y-138695431D01*
X220026887Y-138668457D01*
X219985876Y-138652139D01*
X219936834Y-138644048D01*
X219912798Y-138642490D01*
X219845000Y-138639550D01*
X219771413Y-138982450D01*
X219752204Y-139072024D01*
X219734847Y-139153096D01*
X219720024Y-139222464D01*
X219708419Y-139276925D01*
X219700715Y-139313276D01*
X219697596Y-139328316D01*
X219697562Y-139328525D01*
X219685472Y-139329585D01*
X219652191Y-139330496D01*
X219601929Y-139331191D01*
X219538896Y-139331608D01*
X219489411Y-139331700D01*
X219281522Y-139331700D01*
X219324985Y-139125325D01*
X219336032Y-139073000D01*
X219351690Y-138999014D01*
X219371286Y-138906546D01*
X219394144Y-138798778D01*
X219419590Y-138678890D01*
X219446947Y-138550064D01*
X219475541Y-138415481D01*
X219495786Y-138320245D01*
X219913198Y-138320245D01*
X219925037Y-138324144D01*
X219957182Y-138326488D01*
X220004574Y-138327074D01*
X220056075Y-138325934D01*
X220127601Y-138322212D01*
X220180855Y-138316312D01*
X220222945Y-138307059D01*
X220260978Y-138293273D01*
X220265717Y-138291210D01*
X220339870Y-138246716D01*
X220392739Y-138188672D01*
X220423752Y-138118023D01*
X220432335Y-138035715D01*
X220431301Y-138017838D01*
X220418776Y-137952522D01*
X220391945Y-137902202D01*
X220348687Y-137865420D01*
X220286882Y-137840720D01*
X220204409Y-137826644D01*
X220147570Y-137822824D01*
X220019991Y-137817711D01*
X219966594Y-138063530D01*
X219950216Y-138139451D01*
X219935872Y-138206959D01*
X219924381Y-138262101D01*
X219916569Y-138300922D01*
X219913256Y-138319468D01*
X219913198Y-138320245D01*
X219495786Y-138320245D01*
X219504698Y-138278322D01*
X219517004Y-138220450D01*
X219665560Y-137521950D01*
X220014805Y-137518428D01*
X220143902Y-137517662D01*
X220250850Y-137518423D01*
X220250850Y-137518423D01*
G37*
X220250850Y-137518423D02*
X220338870Y-137521027D01*
X220411184Y-137525790D01*
X220471014Y-137533029D01*
X220521582Y-137543059D01*
X220566109Y-137556197D01*
X220607817Y-137572759D01*
X220618651Y-137577690D01*
X220701222Y-137623960D01*
X220763914Y-137678305D01*
X220812068Y-137745759D01*
X220826699Y-137773861D01*
X220862997Y-137875760D01*
X220874686Y-137981047D01*
X220865804Y-138073821D01*
X220834822Y-138182108D01*
X220783482Y-138276263D01*
X220711367Y-138356699D01*
X220618062Y-138423827D01*
X220503151Y-138478059D01*
X220433900Y-138501549D01*
X220392389Y-138514823D01*
X220365347Y-138525021D01*
X220357061Y-138530458D01*
X220359086Y-138530919D01*
X220386619Y-138541583D01*
X220421808Y-138568391D01*
X220459166Y-138605752D01*
X220493204Y-138648074D01*
X220518436Y-138689766D01*
X220521430Y-138696332D01*
X220532782Y-138728182D01*
X220548486Y-138779931D01*
X220567192Y-138846724D01*
X220587550Y-138923709D01*
X220608210Y-139006032D01*
X220612531Y-139023835D01*
X220631736Y-139103200D01*
X220649257Y-139175102D01*
X220664110Y-139235546D01*
X220675313Y-139280539D01*
X220681882Y-139306088D01*
X220682836Y-139309475D01*
X220683599Y-139317472D01*
X220678050Y-139323288D01*
X220662846Y-139327269D01*
X220634644Y-139329756D01*
X220590102Y-139331093D01*
X220525876Y-139331624D01*
X220466505Y-139331700D01*
X220394412Y-139331391D01*
X220332021Y-139330535D01*
X220283386Y-139329235D01*
X220252566Y-139327596D01*
X220243400Y-139325975D01*
X220240917Y-139312356D01*
X220233998Y-139277744D01*
X220223431Y-139226005D01*
X220210007Y-139161003D01*
X220194515Y-139086601D01*
X220192121Y-139075150D01*
X220166365Y-138958464D01*
X220141987Y-138864578D01*
X220117418Y-138791063D01*
X220091090Y-138735490D01*
X220061436Y-138695431D01*
X220026887Y-138668457D01*
X219985876Y-138652139D01*
X219936834Y-138644048D01*
X219912798Y-138642490D01*
X219845000Y-138639550D01*
X219771413Y-138982450D01*
X219752204Y-139072024D01*
X219734847Y-139153096D01*
X219720024Y-139222464D01*
X219708419Y-139276925D01*
X219700715Y-139313276D01*
X219697596Y-139328316D01*
X219697562Y-139328525D01*
X219685472Y-139329585D01*
X219652191Y-139330496D01*
X219601929Y-139331191D01*
X219538896Y-139331608D01*
X219489411Y-139331700D01*
X219281522Y-139331700D01*
X219324985Y-139125325D01*
X219336032Y-139073000D01*
X219351690Y-138999014D01*
X219371286Y-138906546D01*
X219394144Y-138798778D01*
X219419590Y-138678890D01*
X219446947Y-138550064D01*
X219475541Y-138415481D01*
X219495786Y-138320245D01*
X219913198Y-138320245D01*
X219925037Y-138324144D01*
X219957182Y-138326488D01*
X220004574Y-138327074D01*
X220056075Y-138325934D01*
X220127601Y-138322212D01*
X220180855Y-138316312D01*
X220222945Y-138307059D01*
X220260978Y-138293273D01*
X220265717Y-138291210D01*
X220339870Y-138246716D01*
X220392739Y-138188672D01*
X220423752Y-138118023D01*
X220432335Y-138035715D01*
X220431301Y-138017838D01*
X220418776Y-137952522D01*
X220391945Y-137902202D01*
X220348687Y-137865420D01*
X220286882Y-137840720D01*
X220204409Y-137826644D01*
X220147570Y-137822824D01*
X220019991Y-137817711D01*
X219966594Y-138063530D01*
X219950216Y-138139451D01*
X219935872Y-138206959D01*
X219924381Y-138262101D01*
X219916569Y-138300922D01*
X219913256Y-138319468D01*
X219913198Y-138320245D01*
X219495786Y-138320245D01*
X219504698Y-138278322D01*
X219517004Y-138220450D01*
X219665560Y-137521950D01*
X220014805Y-137518428D01*
X220143902Y-137517662D01*
X220250850Y-137518423D01*
G36*
X217012528Y-137515686D02*
G01*
X217145965Y-137515974D01*
X217257543Y-137516506D01*
X217349034Y-137517323D01*
X217422209Y-137518467D01*
X217478837Y-137519981D01*
X217520691Y-137521907D01*
X217549540Y-137524287D01*
X217567155Y-137527162D01*
X217575308Y-137530575D01*
X217576400Y-137532726D01*
X217573773Y-137551404D01*
X217566640Y-137589177D01*
X217556122Y-137640367D01*
X217544650Y-137693400D01*
X217532149Y-137750275D01*
X217521966Y-137797293D01*
X217515189Y-137829375D01*
X217512900Y-137841373D01*
X217500833Y-137842718D01*
X217467165Y-137843898D01*
X217415696Y-137844847D01*
X217350223Y-137845500D01*
X217274546Y-137845791D01*
X217258501Y-137845800D01*
X217166092Y-137846211D01*
X217096601Y-137847548D01*
X217047557Y-137849959D01*
X217016491Y-137853597D01*
X217000932Y-137858610D01*
X216998198Y-137861675D01*
X216994865Y-137875819D01*
X216986842Y-137912182D01*
X216974690Y-137968132D01*
X216958971Y-138041036D01*
X216940244Y-138128261D01*
X216919070Y-138227175D01*
X216896010Y-138335145D01*
X216871625Y-138449538D01*
X216846474Y-138567723D01*
X216821119Y-138687067D01*
X216796119Y-138804936D01*
X216772037Y-138918699D01*
X216749431Y-139025723D01*
X216728863Y-139123375D01*
X216710893Y-139209023D01*
X216696083Y-139280034D01*
X216692611Y-139296775D01*
X216685381Y-139331700D01*
X216475985Y-139331700D01*
X216398612Y-139331516D01*
X216343194Y-139330713D01*
X216306287Y-139328914D01*
X216284446Y-139325742D01*
X216274227Y-139320819D01*
X216272186Y-139313767D01*
X216273112Y-139309475D01*
X216278119Y-139288887D01*
X216287530Y-139246765D01*
X216300776Y-139185835D01*
X216317289Y-139108826D01*
X216336501Y-139018466D01*
X216357842Y-138917483D01*
X216380744Y-138808605D01*
X216404639Y-138694559D01*
X216428958Y-138578075D01*
X216453132Y-138461880D01*
X216476594Y-138348701D01*
X216498773Y-138241268D01*
X216519103Y-138142308D01*
X216537014Y-138054548D01*
X216551937Y-137980718D01*
X216563305Y-137923545D01*
X216570549Y-137885757D01*
X216573099Y-137870082D01*
X216573100Y-137870072D01*
X216571873Y-137861841D01*
X216566022Y-137855715D01*
X216552292Y-137851382D01*
X216527426Y-137848535D01*
X216488169Y-137846864D01*
X216431265Y-137846059D01*
X216353458Y-137845812D01*
X216317618Y-137845800D01*
X216062137Y-137845800D01*
X216069776Y-137817225D01*
X216075457Y-137793331D01*
X216084839Y-137751090D01*
X216096491Y-137697030D01*
X216105970Y-137652125D01*
X216134526Y-137515600D01*
X216855463Y-137515600D01*
X217012528Y-137515686D01*
X217012528Y-137515686D01*
G37*
X217012528Y-137515686D02*
X217145965Y-137515974D01*
X217257543Y-137516506D01*
X217349034Y-137517323D01*
X217422209Y-137518467D01*
X217478837Y-137519981D01*
X217520691Y-137521907D01*
X217549540Y-137524287D01*
X217567155Y-137527162D01*
X217575308Y-137530575D01*
X217576400Y-137532726D01*
X217573773Y-137551404D01*
X217566640Y-137589177D01*
X217556122Y-137640367D01*
X217544650Y-137693400D01*
X217532149Y-137750275D01*
X217521966Y-137797293D01*
X217515189Y-137829375D01*
X217512900Y-137841373D01*
X217500833Y-137842718D01*
X217467165Y-137843898D01*
X217415696Y-137844847D01*
X217350223Y-137845500D01*
X217274546Y-137845791D01*
X217258501Y-137845800D01*
X217166092Y-137846211D01*
X217096601Y-137847548D01*
X217047557Y-137849959D01*
X217016491Y-137853597D01*
X217000932Y-137858610D01*
X216998198Y-137861675D01*
X216994865Y-137875819D01*
X216986842Y-137912182D01*
X216974690Y-137968132D01*
X216958971Y-138041036D01*
X216940244Y-138128261D01*
X216919070Y-138227175D01*
X216896010Y-138335145D01*
X216871625Y-138449538D01*
X216846474Y-138567723D01*
X216821119Y-138687067D01*
X216796119Y-138804936D01*
X216772037Y-138918699D01*
X216749431Y-139025723D01*
X216728863Y-139123375D01*
X216710893Y-139209023D01*
X216696083Y-139280034D01*
X216692611Y-139296775D01*
X216685381Y-139331700D01*
X216475985Y-139331700D01*
X216398612Y-139331516D01*
X216343194Y-139330713D01*
X216306287Y-139328914D01*
X216284446Y-139325742D01*
X216274227Y-139320819D01*
X216272186Y-139313767D01*
X216273112Y-139309475D01*
X216278119Y-139288887D01*
X216287530Y-139246765D01*
X216300776Y-139185835D01*
X216317289Y-139108826D01*
X216336501Y-139018466D01*
X216357842Y-138917483D01*
X216380744Y-138808605D01*
X216404639Y-138694559D01*
X216428958Y-138578075D01*
X216453132Y-138461880D01*
X216476594Y-138348701D01*
X216498773Y-138241268D01*
X216519103Y-138142308D01*
X216537014Y-138054548D01*
X216551937Y-137980718D01*
X216563305Y-137923545D01*
X216570549Y-137885757D01*
X216573099Y-137870082D01*
X216573100Y-137870072D01*
X216571873Y-137861841D01*
X216566022Y-137855715D01*
X216552292Y-137851382D01*
X216527426Y-137848535D01*
X216488169Y-137846864D01*
X216431265Y-137846059D01*
X216353458Y-137845812D01*
X216317618Y-137845800D01*
X216062137Y-137845800D01*
X216069776Y-137817225D01*
X216075457Y-137793331D01*
X216084839Y-137751090D01*
X216096491Y-137697030D01*
X216105970Y-137652125D01*
X216134526Y-137515600D01*
X216855463Y-137515600D01*
X217012528Y-137515686D01*
G36*
X215778473Y-138388464D02*
G01*
X215799387Y-138535281D01*
X215819382Y-138675346D01*
X215838152Y-138806529D01*
X215855390Y-138926701D01*
X215870790Y-139033733D01*
X215884045Y-139125497D01*
X215894849Y-139199862D01*
X215902894Y-139254701D01*
X215907874Y-139287883D01*
X215909311Y-139296775D01*
X215915875Y-139331700D01*
X215704737Y-139331700D01*
X215634710Y-139331519D01*
X215574489Y-139331019D01*
X215528247Y-139330263D01*
X215500156Y-139329313D01*
X215493508Y-139328525D01*
X215491234Y-139302236D01*
X215485887Y-139259183D01*
X215478297Y-139204683D01*
X215469290Y-139144050D01*
X215459695Y-139082600D01*
X215450338Y-139025649D01*
X215442049Y-138978511D01*
X215435655Y-138946504D01*
X215432234Y-138935054D01*
X215417208Y-138932374D01*
X215380349Y-138930230D01*
X215325223Y-138928697D01*
X215255393Y-138927848D01*
X215174423Y-138927758D01*
X215107305Y-138928248D01*
X214792584Y-138931650D01*
X214688369Y-139128500D01*
X214584153Y-139325350D01*
X214353076Y-139328811D01*
X214279640Y-139329629D01*
X214215831Y-139329799D01*
X214165636Y-139329357D01*
X214133038Y-139328336D01*
X214122000Y-139326848D01*
X214128194Y-139315271D01*
X214146149Y-139283339D01*
X214174925Y-139232694D01*
X214213581Y-139164975D01*
X214261175Y-139081825D01*
X214316769Y-138984884D01*
X214379420Y-138875793D01*
X214448188Y-138756193D01*
X214522132Y-138627725D01*
X214530319Y-138613515D01*
X214957448Y-138613515D01*
X214971829Y-138615794D01*
X215007351Y-138617761D01*
X215059755Y-138619286D01*
X215124784Y-138620238D01*
X215184566Y-138620500D01*
X215404700Y-138620500D01*
X215404700Y-138583826D01*
X215403344Y-138560874D01*
X215399548Y-138516827D01*
X215393712Y-138455830D01*
X215386241Y-138382027D01*
X215377538Y-138299565D01*
X215372950Y-138257288D01*
X215363747Y-138171145D01*
X215355591Y-138090740D01*
X215348892Y-138020442D01*
X215344059Y-137964621D01*
X215341500Y-137927647D01*
X215341200Y-137918132D01*
X215340422Y-137900815D01*
X215336979Y-137894162D01*
X215329205Y-137900462D01*
X215315434Y-137922005D01*
X215294001Y-137961080D01*
X215263240Y-138019977D01*
X215253780Y-138038295D01*
X215215888Y-138111105D01*
X215170530Y-138197268D01*
X215122435Y-138287858D01*
X215076329Y-138373947D01*
X215058412Y-138407140D01*
X215024121Y-138471535D01*
X214995109Y-138528061D01*
X214973175Y-138573038D01*
X214960117Y-138602789D01*
X214957448Y-138613515D01*
X214530319Y-138613515D01*
X214600312Y-138492031D01*
X214640870Y-138421686D01*
X215159741Y-137521950D01*
X215654199Y-137515078D01*
X215778473Y-138388464D01*
X215778473Y-138388464D01*
G37*
X215778473Y-138388464D02*
X215799387Y-138535281D01*
X215819382Y-138675346D01*
X215838152Y-138806529D01*
X215855390Y-138926701D01*
X215870790Y-139033733D01*
X215884045Y-139125497D01*
X215894849Y-139199862D01*
X215902894Y-139254701D01*
X215907874Y-139287883D01*
X215909311Y-139296775D01*
X215915875Y-139331700D01*
X215704737Y-139331700D01*
X215634710Y-139331519D01*
X215574489Y-139331019D01*
X215528247Y-139330263D01*
X215500156Y-139329313D01*
X215493508Y-139328525D01*
X215491234Y-139302236D01*
X215485887Y-139259183D01*
X215478297Y-139204683D01*
X215469290Y-139144050D01*
X215459695Y-139082600D01*
X215450338Y-139025649D01*
X215442049Y-138978511D01*
X215435655Y-138946504D01*
X215432234Y-138935054D01*
X215417208Y-138932374D01*
X215380349Y-138930230D01*
X215325223Y-138928697D01*
X215255393Y-138927848D01*
X215174423Y-138927758D01*
X215107305Y-138928248D01*
X214792584Y-138931650D01*
X214688369Y-139128500D01*
X214584153Y-139325350D01*
X214353076Y-139328811D01*
X214279640Y-139329629D01*
X214215831Y-139329799D01*
X214165636Y-139329357D01*
X214133038Y-139328336D01*
X214122000Y-139326848D01*
X214128194Y-139315271D01*
X214146149Y-139283339D01*
X214174925Y-139232694D01*
X214213581Y-139164975D01*
X214261175Y-139081825D01*
X214316769Y-138984884D01*
X214379420Y-138875793D01*
X214448188Y-138756193D01*
X214522132Y-138627725D01*
X214530319Y-138613515D01*
X214957448Y-138613515D01*
X214971829Y-138615794D01*
X215007351Y-138617761D01*
X215059755Y-138619286D01*
X215124784Y-138620238D01*
X215184566Y-138620500D01*
X215404700Y-138620500D01*
X215404700Y-138583826D01*
X215403344Y-138560874D01*
X215399548Y-138516827D01*
X215393712Y-138455830D01*
X215386241Y-138382027D01*
X215377538Y-138299565D01*
X215372950Y-138257288D01*
X215363747Y-138171145D01*
X215355591Y-138090740D01*
X215348892Y-138020442D01*
X215344059Y-137964621D01*
X215341500Y-137927647D01*
X215341200Y-137918132D01*
X215340422Y-137900815D01*
X215336979Y-137894162D01*
X215329205Y-137900462D01*
X215315434Y-137922005D01*
X215294001Y-137961080D01*
X215263240Y-138019977D01*
X215253780Y-138038295D01*
X215215888Y-138111105D01*
X215170530Y-138197268D01*
X215122435Y-138287858D01*
X215076329Y-138373947D01*
X215058412Y-138407140D01*
X215024121Y-138471535D01*
X214995109Y-138528061D01*
X214973175Y-138573038D01*
X214960117Y-138602789D01*
X214957448Y-138613515D01*
X214530319Y-138613515D01*
X214600312Y-138492031D01*
X214640870Y-138421686D01*
X215159741Y-137521950D01*
X215654199Y-137515078D01*
X215778473Y-138388464D01*
G36*
X213395166Y-137515820D02*
G01*
X213534599Y-137516671D01*
X213651581Y-137519436D01*
X213749027Y-137524711D01*
X213829852Y-137533090D01*
X213896972Y-137545169D01*
X213953302Y-137561543D01*
X214001757Y-137582806D01*
X214045251Y-137609553D01*
X214086700Y-137642380D01*
X214107517Y-137661211D01*
X214159034Y-137716253D01*
X214194716Y-137772817D01*
X214216861Y-137836993D01*
X214227766Y-137914873D01*
X214229950Y-137985782D01*
X214229406Y-138047560D01*
X214226777Y-138091789D01*
X214220568Y-138126315D01*
X214209283Y-138158981D01*
X214191426Y-138197632D01*
X214188368Y-138203862D01*
X214130501Y-138293689D01*
X214052351Y-138372554D01*
X213957686Y-138437658D01*
X213850276Y-138486202D01*
X213781187Y-138506236D01*
X213713424Y-138521955D01*
X213763218Y-138551649D01*
X213819265Y-138598135D01*
X213867624Y-138664094D01*
X213898381Y-138728450D01*
X213905549Y-138751475D01*
X213917200Y-138793743D01*
X213932254Y-138850903D01*
X213949634Y-138918606D01*
X213968260Y-138992501D01*
X213987054Y-139068238D01*
X214004937Y-139141468D01*
X214020830Y-139207841D01*
X214033654Y-139263007D01*
X214042331Y-139302617D01*
X214045781Y-139322319D01*
X214045800Y-139322875D01*
X214033782Y-139325751D01*
X214000460Y-139328235D01*
X213949925Y-139330161D01*
X213886272Y-139331366D01*
X213826725Y-139331699D01*
X213607650Y-139331698D01*
X213553669Y-139074892D01*
X213529868Y-138966099D01*
X213508511Y-138879459D01*
X213488453Y-138811978D01*
X213468548Y-138760664D01*
X213447648Y-138722524D01*
X213424609Y-138694565D01*
X213400634Y-138675327D01*
X213371166Y-138661336D01*
X213330430Y-138648546D01*
X213286287Y-138638581D01*
X213246595Y-138633063D01*
X213219214Y-138633616D01*
X213212749Y-138636516D01*
X213208529Y-138650138D01*
X213199832Y-138685363D01*
X213187401Y-138738934D01*
X213171975Y-138807597D01*
X213154296Y-138888096D01*
X213135105Y-138977175D01*
X213133622Y-138984127D01*
X213060884Y-139325350D01*
X212854842Y-139328839D01*
X212769483Y-139329505D01*
X212706015Y-139328285D01*
X212665529Y-139325230D01*
X212649118Y-139320389D01*
X212648800Y-139319460D01*
X212651353Y-139305845D01*
X212658675Y-139269805D01*
X212670253Y-139213759D01*
X212685577Y-139140126D01*
X212704136Y-139051327D01*
X212725419Y-138949781D01*
X212748916Y-138837908D01*
X212774115Y-138718128D01*
X212800507Y-138592860D01*
X212827580Y-138464524D01*
X212854823Y-138335540D01*
X212857004Y-138325225D01*
X213271508Y-138325225D01*
X213282482Y-138329232D01*
X213312989Y-138330702D01*
X213357323Y-138329969D01*
X213409780Y-138327372D01*
X213464656Y-138323247D01*
X213516245Y-138317929D01*
X213558844Y-138311758D01*
X213580750Y-138306972D01*
X213655700Y-138275396D01*
X213716733Y-138228901D01*
X213762200Y-138171357D01*
X213790450Y-138106631D01*
X213799831Y-138038594D01*
X213788694Y-137971113D01*
X213755388Y-137908057D01*
X213752535Y-137904354D01*
X213722130Y-137872178D01*
X213686849Y-137850097D01*
X213641419Y-137836420D01*
X213580569Y-137829453D01*
X213513253Y-137827546D01*
X213380757Y-137826750D01*
X213326336Y-138074400D01*
X213309741Y-138149983D01*
X213295146Y-138216577D01*
X213283377Y-138270401D01*
X213275261Y-138307676D01*
X213271624Y-138324620D01*
X213271508Y-138325225D01*
X212857004Y-138325225D01*
X212881726Y-138208327D01*
X212907777Y-138085306D01*
X212932467Y-137968896D01*
X212955284Y-137861517D01*
X212975718Y-137765588D01*
X212993257Y-137683529D01*
X213007391Y-137617761D01*
X213017609Y-137570702D01*
X213023401Y-137544773D01*
X213023542Y-137544175D01*
X213030283Y-137515600D01*
X213395166Y-137515820D01*
X213395166Y-137515820D01*
G37*
X213395166Y-137515820D02*
X213534599Y-137516671D01*
X213651581Y-137519436D01*
X213749027Y-137524711D01*
X213829852Y-137533090D01*
X213896972Y-137545169D01*
X213953302Y-137561543D01*
X214001757Y-137582806D01*
X214045251Y-137609553D01*
X214086700Y-137642380D01*
X214107517Y-137661211D01*
X214159034Y-137716253D01*
X214194716Y-137772817D01*
X214216861Y-137836993D01*
X214227766Y-137914873D01*
X214229950Y-137985782D01*
X214229406Y-138047560D01*
X214226777Y-138091789D01*
X214220568Y-138126315D01*
X214209283Y-138158981D01*
X214191426Y-138197632D01*
X214188368Y-138203862D01*
X214130501Y-138293689D01*
X214052351Y-138372554D01*
X213957686Y-138437658D01*
X213850276Y-138486202D01*
X213781187Y-138506236D01*
X213713424Y-138521955D01*
X213763218Y-138551649D01*
X213819265Y-138598135D01*
X213867624Y-138664094D01*
X213898381Y-138728450D01*
X213905549Y-138751475D01*
X213917200Y-138793743D01*
X213932254Y-138850903D01*
X213949634Y-138918606D01*
X213968260Y-138992501D01*
X213987054Y-139068238D01*
X214004937Y-139141468D01*
X214020830Y-139207841D01*
X214033654Y-139263007D01*
X214042331Y-139302617D01*
X214045781Y-139322319D01*
X214045800Y-139322875D01*
X214033782Y-139325751D01*
X214000460Y-139328235D01*
X213949925Y-139330161D01*
X213886272Y-139331366D01*
X213826725Y-139331699D01*
X213607650Y-139331698D01*
X213553669Y-139074892D01*
X213529868Y-138966099D01*
X213508511Y-138879459D01*
X213488453Y-138811978D01*
X213468548Y-138760664D01*
X213447648Y-138722524D01*
X213424609Y-138694565D01*
X213400634Y-138675327D01*
X213371166Y-138661336D01*
X213330430Y-138648546D01*
X213286287Y-138638581D01*
X213246595Y-138633063D01*
X213219214Y-138633616D01*
X213212749Y-138636516D01*
X213208529Y-138650138D01*
X213199832Y-138685363D01*
X213187401Y-138738934D01*
X213171975Y-138807597D01*
X213154296Y-138888096D01*
X213135105Y-138977175D01*
X213133622Y-138984127D01*
X213060884Y-139325350D01*
X212854842Y-139328839D01*
X212769483Y-139329505D01*
X212706015Y-139328285D01*
X212665529Y-139325230D01*
X212649118Y-139320389D01*
X212648800Y-139319460D01*
X212651353Y-139305845D01*
X212658675Y-139269805D01*
X212670253Y-139213759D01*
X212685577Y-139140126D01*
X212704136Y-139051327D01*
X212725419Y-138949781D01*
X212748916Y-138837908D01*
X212774115Y-138718128D01*
X212800507Y-138592860D01*
X212827580Y-138464524D01*
X212854823Y-138335540D01*
X212857004Y-138325225D01*
X213271508Y-138325225D01*
X213282482Y-138329232D01*
X213312989Y-138330702D01*
X213357323Y-138329969D01*
X213409780Y-138327372D01*
X213464656Y-138323247D01*
X213516245Y-138317929D01*
X213558844Y-138311758D01*
X213580750Y-138306972D01*
X213655700Y-138275396D01*
X213716733Y-138228901D01*
X213762200Y-138171357D01*
X213790450Y-138106631D01*
X213799831Y-138038594D01*
X213788694Y-137971113D01*
X213755388Y-137908057D01*
X213752535Y-137904354D01*
X213722130Y-137872178D01*
X213686849Y-137850097D01*
X213641419Y-137836420D01*
X213580569Y-137829453D01*
X213513253Y-137827546D01*
X213380757Y-137826750D01*
X213326336Y-138074400D01*
X213309741Y-138149983D01*
X213295146Y-138216577D01*
X213283377Y-138270401D01*
X213275261Y-138307676D01*
X213271624Y-138324620D01*
X213271508Y-138325225D01*
X212857004Y-138325225D01*
X212881726Y-138208327D01*
X212907777Y-138085306D01*
X212932467Y-137968896D01*
X212955284Y-137861517D01*
X212975718Y-137765588D01*
X212993257Y-137683529D01*
X213007391Y-137617761D01*
X213017609Y-137570702D01*
X213023401Y-137544773D01*
X213023542Y-137544175D01*
X213030283Y-137515600D01*
X213395166Y-137515820D01*
G36*
X212288294Y-137515894D02*
G01*
X212392571Y-137516503D01*
X212485910Y-137517476D01*
X212565662Y-137518764D01*
X212629180Y-137520321D01*
X212673818Y-137522100D01*
X212696927Y-137524054D01*
X212699600Y-137525003D01*
X212697054Y-137540360D01*
X212690107Y-137575452D01*
X212679793Y-137625200D01*
X212667148Y-137684528D01*
X212665990Y-137689889D01*
X212632381Y-137845371D01*
X212314409Y-137848760D01*
X211996437Y-137852150D01*
X211961519Y-138017250D01*
X211947735Y-138082754D01*
X211935235Y-138142777D01*
X211925303Y-138191106D01*
X211919223Y-138221528D01*
X211918824Y-138223625D01*
X211911049Y-138264900D01*
X212203724Y-138264900D01*
X212292852Y-138265387D01*
X212369416Y-138266772D01*
X212430493Y-138268937D01*
X212473159Y-138271766D01*
X212494493Y-138275142D01*
X212496400Y-138276583D01*
X212493848Y-138292960D01*
X212486909Y-138328792D01*
X212476653Y-138378727D01*
X212464650Y-138435118D01*
X212452257Y-138492961D01*
X212442128Y-138541234D01*
X212435323Y-138574817D01*
X212432900Y-138588534D01*
X212420787Y-138590389D01*
X212386795Y-138592041D01*
X212334446Y-138593412D01*
X212267260Y-138594423D01*
X212188759Y-138594997D01*
X212136771Y-138595100D01*
X211840643Y-138595100D01*
X211800038Y-138782425D01*
X211785839Y-138848990D01*
X211773831Y-138907313D01*
X211764962Y-138952625D01*
X211760181Y-138980161D01*
X211759616Y-138985625D01*
X211765271Y-138990636D01*
X211783623Y-138994553D01*
X211816941Y-138997480D01*
X211867498Y-138999527D01*
X211937564Y-139000801D01*
X212029412Y-139001409D01*
X212094885Y-139001500D01*
X212429971Y-139001500D01*
X212362143Y-139325350D01*
X211811910Y-139328660D01*
X211674855Y-139329350D01*
X211561325Y-139329593D01*
X211469451Y-139329344D01*
X211397362Y-139328560D01*
X211343188Y-139327197D01*
X211305057Y-139325212D01*
X211281100Y-139322561D01*
X211269445Y-139319200D01*
X211267727Y-139315960D01*
X211271295Y-139301181D01*
X211279682Y-139263561D01*
X211292454Y-139205110D01*
X211309180Y-139127839D01*
X211329428Y-139033760D01*
X211352766Y-138924882D01*
X211378762Y-138803216D01*
X211406984Y-138670773D01*
X211437000Y-138529563D01*
X211462813Y-138407869D01*
X211651850Y-137515789D01*
X212175725Y-137515694D01*
X212288294Y-137515894D01*
X212288294Y-137515894D01*
G37*
X212288294Y-137515894D02*
X212392571Y-137516503D01*
X212485910Y-137517476D01*
X212565662Y-137518764D01*
X212629180Y-137520321D01*
X212673818Y-137522100D01*
X212696927Y-137524054D01*
X212699600Y-137525003D01*
X212697054Y-137540360D01*
X212690107Y-137575452D01*
X212679793Y-137625200D01*
X212667148Y-137684528D01*
X212665990Y-137689889D01*
X212632381Y-137845371D01*
X212314409Y-137848760D01*
X211996437Y-137852150D01*
X211961519Y-138017250D01*
X211947735Y-138082754D01*
X211935235Y-138142777D01*
X211925303Y-138191106D01*
X211919223Y-138221528D01*
X211918824Y-138223625D01*
X211911049Y-138264900D01*
X212203724Y-138264900D01*
X212292852Y-138265387D01*
X212369416Y-138266772D01*
X212430493Y-138268937D01*
X212473159Y-138271766D01*
X212494493Y-138275142D01*
X212496400Y-138276583D01*
X212493848Y-138292960D01*
X212486909Y-138328792D01*
X212476653Y-138378727D01*
X212464650Y-138435118D01*
X212452257Y-138492961D01*
X212442128Y-138541234D01*
X212435323Y-138574817D01*
X212432900Y-138588534D01*
X212420787Y-138590389D01*
X212386795Y-138592041D01*
X212334446Y-138593412D01*
X212267260Y-138594423D01*
X212188759Y-138594997D01*
X212136771Y-138595100D01*
X211840643Y-138595100D01*
X211800038Y-138782425D01*
X211785839Y-138848990D01*
X211773831Y-138907313D01*
X211764962Y-138952625D01*
X211760181Y-138980161D01*
X211759616Y-138985625D01*
X211765271Y-138990636D01*
X211783623Y-138994553D01*
X211816941Y-138997480D01*
X211867498Y-138999527D01*
X211937564Y-139000801D01*
X212029412Y-139001409D01*
X212094885Y-139001500D01*
X212429971Y-139001500D01*
X212362143Y-139325350D01*
X211811910Y-139328660D01*
X211674855Y-139329350D01*
X211561325Y-139329593D01*
X211469451Y-139329344D01*
X211397362Y-139328560D01*
X211343188Y-139327197D01*
X211305057Y-139325212D01*
X211281100Y-139322561D01*
X211269445Y-139319200D01*
X211267727Y-139315960D01*
X211271295Y-139301181D01*
X211279682Y-139263561D01*
X211292454Y-139205110D01*
X211309180Y-139127839D01*
X211329428Y-139033760D01*
X211352766Y-138924882D01*
X211378762Y-138803216D01*
X211406984Y-138670773D01*
X211437000Y-138529563D01*
X211462813Y-138407869D01*
X211651850Y-137515789D01*
X212175725Y-137515694D01*
X212288294Y-137515894D01*
G36*
X210582326Y-137518003D02*
G01*
X210657311Y-137519269D01*
X210716881Y-137521726D01*
X210764359Y-137525489D01*
X210803068Y-137530676D01*
X210822739Y-137534368D01*
X210940142Y-137569119D01*
X211038254Y-137620286D01*
X211116897Y-137687670D01*
X211175897Y-137771076D01*
X211215076Y-137870306D01*
X211234257Y-137985164D01*
X211234866Y-137994101D01*
X211231753Y-138127069D01*
X211205777Y-138249501D01*
X211157588Y-138360284D01*
X211087837Y-138458307D01*
X210997176Y-138542457D01*
X210886254Y-138611624D01*
X210868287Y-138620457D01*
X210783212Y-138655399D01*
X210692431Y-138680905D01*
X210591042Y-138697829D01*
X210474139Y-138707023D01*
X210357067Y-138709400D01*
X210176861Y-138709400D01*
X210116632Y-138998325D01*
X210099175Y-139081711D01*
X210083147Y-139157603D01*
X210069365Y-139222184D01*
X210058646Y-139271636D01*
X210051809Y-139302141D01*
X210049995Y-139309475D01*
X210045405Y-139317783D01*
X210034719Y-139323737D01*
X210014256Y-139327722D01*
X209980330Y-139330119D01*
X209929259Y-139331314D01*
X209857357Y-139331689D01*
X209836603Y-139331700D01*
X209629619Y-139331700D01*
X209660092Y-139188825D01*
X209668283Y-139150388D01*
X209681187Y-139089795D01*
X209698232Y-139009733D01*
X209718846Y-138912890D01*
X209742457Y-138801955D01*
X209768493Y-138679614D01*
X209796381Y-138548556D01*
X209825551Y-138411467D01*
X209829157Y-138394517D01*
X210245906Y-138394517D01*
X210409128Y-138389617D01*
X210481163Y-138386807D01*
X210533400Y-138382849D01*
X210571438Y-138376906D01*
X210600877Y-138368139D01*
X210624016Y-138357478D01*
X210690644Y-138310576D01*
X210743253Y-138250056D01*
X210780301Y-138180544D01*
X210800246Y-138106666D01*
X210801545Y-138033048D01*
X210782656Y-137964314D01*
X210765386Y-137933560D01*
X210732310Y-137894989D01*
X210690795Y-137867431D01*
X210636418Y-137849251D01*
X210564758Y-137838812D01*
X210499325Y-137835151D01*
X210443900Y-137833932D01*
X210399295Y-137833951D01*
X210370688Y-137835143D01*
X210362800Y-137836924D01*
X210360276Y-137850658D01*
X210353246Y-137885315D01*
X210342524Y-137936980D01*
X210328923Y-138001738D01*
X210313254Y-138075674D01*
X210311797Y-138082522D01*
X210295390Y-138159640D01*
X210280373Y-138230345D01*
X210267719Y-138290048D01*
X210258400Y-138334160D01*
X210253389Y-138358091D01*
X210253350Y-138358283D01*
X210245906Y-138394517D01*
X209829157Y-138394517D01*
X209852681Y-138283950D01*
X210014798Y-137521950D01*
X210372814Y-137518577D01*
X210488601Y-137517812D01*
X210582326Y-137518003D01*
X210582326Y-137518003D01*
G37*
X210582326Y-137518003D02*
X210657311Y-137519269D01*
X210716881Y-137521726D01*
X210764359Y-137525489D01*
X210803068Y-137530676D01*
X210822739Y-137534368D01*
X210940142Y-137569119D01*
X211038254Y-137620286D01*
X211116897Y-137687670D01*
X211175897Y-137771076D01*
X211215076Y-137870306D01*
X211234257Y-137985164D01*
X211234866Y-137994101D01*
X211231753Y-138127069D01*
X211205777Y-138249501D01*
X211157588Y-138360284D01*
X211087837Y-138458307D01*
X210997176Y-138542457D01*
X210886254Y-138611624D01*
X210868287Y-138620457D01*
X210783212Y-138655399D01*
X210692431Y-138680905D01*
X210591042Y-138697829D01*
X210474139Y-138707023D01*
X210357067Y-138709400D01*
X210176861Y-138709400D01*
X210116632Y-138998325D01*
X210099175Y-139081711D01*
X210083147Y-139157603D01*
X210069365Y-139222184D01*
X210058646Y-139271636D01*
X210051809Y-139302141D01*
X210049995Y-139309475D01*
X210045405Y-139317783D01*
X210034719Y-139323737D01*
X210014256Y-139327722D01*
X209980330Y-139330119D01*
X209929259Y-139331314D01*
X209857357Y-139331689D01*
X209836603Y-139331700D01*
X209629619Y-139331700D01*
X209660092Y-139188825D01*
X209668283Y-139150388D01*
X209681187Y-139089795D01*
X209698232Y-139009733D01*
X209718846Y-138912890D01*
X209742457Y-138801955D01*
X209768493Y-138679614D01*
X209796381Y-138548556D01*
X209825551Y-138411467D01*
X209829157Y-138394517D01*
X210245906Y-138394517D01*
X210409128Y-138389617D01*
X210481163Y-138386807D01*
X210533400Y-138382849D01*
X210571438Y-138376906D01*
X210600877Y-138368139D01*
X210624016Y-138357478D01*
X210690644Y-138310576D01*
X210743253Y-138250056D01*
X210780301Y-138180544D01*
X210800246Y-138106666D01*
X210801545Y-138033048D01*
X210782656Y-137964314D01*
X210765386Y-137933560D01*
X210732310Y-137894989D01*
X210690795Y-137867431D01*
X210636418Y-137849251D01*
X210564758Y-137838812D01*
X210499325Y-137835151D01*
X210443900Y-137833932D01*
X210399295Y-137833951D01*
X210370688Y-137835143D01*
X210362800Y-137836924D01*
X210360276Y-137850658D01*
X210353246Y-137885315D01*
X210342524Y-137936980D01*
X210328923Y-138001738D01*
X210313254Y-138075674D01*
X210311797Y-138082522D01*
X210295390Y-138159640D01*
X210280373Y-138230345D01*
X210267719Y-138290048D01*
X210258400Y-138334160D01*
X210253389Y-138358091D01*
X210253350Y-138358283D01*
X210245906Y-138394517D01*
X209829157Y-138394517D01*
X209852681Y-138283950D01*
X210014798Y-137521950D01*
X210372814Y-137518577D01*
X210488601Y-137517812D01*
X210582326Y-137518003D01*
G36*
X206938318Y-137515732D02*
G01*
X207000762Y-137516325D01*
X207044056Y-137517678D01*
X207071326Y-137520086D01*
X207085697Y-137523847D01*
X207090294Y-137529257D01*
X207088242Y-137536613D01*
X207087597Y-137537825D01*
X207076488Y-137551417D01*
X207049624Y-137581343D01*
X207008853Y-137625628D01*
X206956024Y-137682295D01*
X206892984Y-137749368D01*
X206821582Y-137824870D01*
X206743666Y-137906825D01*
X206686741Y-137966450D01*
X206605488Y-138051863D01*
X206529672Y-138132434D01*
X206461117Y-138206156D01*
X206401652Y-138271027D01*
X206353101Y-138325042D01*
X206317292Y-138366197D01*
X206296051Y-138392487D01*
X206290838Y-138400929D01*
X206290554Y-138414087D01*
X206295623Y-138434379D01*
X206307006Y-138463725D01*
X206325665Y-138504047D01*
X206352562Y-138557267D01*
X206388659Y-138625305D01*
X206434918Y-138710084D01*
X206492300Y-138813524D01*
X206540631Y-138899900D01*
X206582097Y-138974573D01*
X206624285Y-139051863D01*
X206663470Y-139124857D01*
X206695928Y-139186641D01*
X206710006Y-139214225D01*
X206768954Y-139331700D01*
X206267050Y-139329814D01*
X206073712Y-138940232D01*
X206027640Y-138846860D01*
X205985025Y-138759473D01*
X205947249Y-138680983D01*
X205915695Y-138614305D01*
X205891746Y-138562352D01*
X205876782Y-138528037D01*
X205872310Y-138515725D01*
X205863682Y-138490489D01*
X205855222Y-138480800D01*
X205850597Y-138492767D01*
X205841559Y-138526764D01*
X205828766Y-138579929D01*
X205812875Y-138649402D01*
X205794543Y-138732325D01*
X205774427Y-138825835D01*
X205758174Y-138903075D01*
X205670150Y-139325350D01*
X205463775Y-139328839D01*
X205386604Y-139329433D01*
X205324928Y-139328457D01*
X205281635Y-139326028D01*
X205259612Y-139322267D01*
X205257400Y-139320315D01*
X205259977Y-139305249D01*
X205267369Y-139267950D01*
X205279063Y-139210812D01*
X205294547Y-139136233D01*
X205313310Y-139046608D01*
X205334840Y-138944335D01*
X205358624Y-138831810D01*
X205384152Y-138711428D01*
X205410911Y-138585587D01*
X205438389Y-138456683D01*
X205466075Y-138327112D01*
X205493456Y-138199271D01*
X205520022Y-138075556D01*
X205545259Y-137958363D01*
X205568657Y-137850089D01*
X205589703Y-137753131D01*
X205607885Y-137669884D01*
X205622693Y-137602745D01*
X205633613Y-137554111D01*
X205640134Y-137526378D01*
X205641771Y-137520695D01*
X205655778Y-137518957D01*
X205690762Y-137517868D01*
X205742306Y-137517476D01*
X205805993Y-137517828D01*
X205850195Y-137518451D01*
X206052878Y-137521950D01*
X205966750Y-137928350D01*
X205945985Y-138026566D01*
X205926993Y-138116852D01*
X205910399Y-138196202D01*
X205896827Y-138261609D01*
X205886902Y-138310070D01*
X205881248Y-138338578D01*
X205880161Y-138344934D01*
X205887275Y-138340699D01*
X205906632Y-138320562D01*
X205934569Y-138288426D01*
X205945683Y-138275084D01*
X205972143Y-138243668D01*
X206012377Y-138196776D01*
X206063317Y-138137944D01*
X206121891Y-138070705D01*
X206185031Y-137998597D01*
X206241246Y-137934700D01*
X206305970Y-137861228D01*
X206368952Y-137789602D01*
X206427095Y-137723351D01*
X206477301Y-137666010D01*
X206516474Y-137621109D01*
X206539117Y-137594975D01*
X206607409Y-137515600D01*
X206853601Y-137515600D01*
X206938318Y-137515732D01*
X206938318Y-137515732D01*
G37*
X206938318Y-137515732D02*
X207000762Y-137516325D01*
X207044056Y-137517678D01*
X207071326Y-137520086D01*
X207085697Y-137523847D01*
X207090294Y-137529257D01*
X207088242Y-137536613D01*
X207087597Y-137537825D01*
X207076488Y-137551417D01*
X207049624Y-137581343D01*
X207008853Y-137625628D01*
X206956024Y-137682295D01*
X206892984Y-137749368D01*
X206821582Y-137824870D01*
X206743666Y-137906825D01*
X206686741Y-137966450D01*
X206605488Y-138051863D01*
X206529672Y-138132434D01*
X206461117Y-138206156D01*
X206401652Y-138271027D01*
X206353101Y-138325042D01*
X206317292Y-138366197D01*
X206296051Y-138392487D01*
X206290838Y-138400929D01*
X206290554Y-138414087D01*
X206295623Y-138434379D01*
X206307006Y-138463725D01*
X206325665Y-138504047D01*
X206352562Y-138557267D01*
X206388659Y-138625305D01*
X206434918Y-138710084D01*
X206492300Y-138813524D01*
X206540631Y-138899900D01*
X206582097Y-138974573D01*
X206624285Y-139051863D01*
X206663470Y-139124857D01*
X206695928Y-139186641D01*
X206710006Y-139214225D01*
X206768954Y-139331700D01*
X206267050Y-139329814D01*
X206073712Y-138940232D01*
X206027640Y-138846860D01*
X205985025Y-138759473D01*
X205947249Y-138680983D01*
X205915695Y-138614305D01*
X205891746Y-138562352D01*
X205876782Y-138528037D01*
X205872310Y-138515725D01*
X205863682Y-138490489D01*
X205855222Y-138480800D01*
X205850597Y-138492767D01*
X205841559Y-138526764D01*
X205828766Y-138579929D01*
X205812875Y-138649402D01*
X205794543Y-138732325D01*
X205774427Y-138825835D01*
X205758174Y-138903075D01*
X205670150Y-139325350D01*
X205463775Y-139328839D01*
X205386604Y-139329433D01*
X205324928Y-139328457D01*
X205281635Y-139326028D01*
X205259612Y-139322267D01*
X205257400Y-139320315D01*
X205259977Y-139305249D01*
X205267369Y-139267950D01*
X205279063Y-139210812D01*
X205294547Y-139136233D01*
X205313310Y-139046608D01*
X205334840Y-138944335D01*
X205358624Y-138831810D01*
X205384152Y-138711428D01*
X205410911Y-138585587D01*
X205438389Y-138456683D01*
X205466075Y-138327112D01*
X205493456Y-138199271D01*
X205520022Y-138075556D01*
X205545259Y-137958363D01*
X205568657Y-137850089D01*
X205589703Y-137753131D01*
X205607885Y-137669884D01*
X205622693Y-137602745D01*
X205633613Y-137554111D01*
X205640134Y-137526378D01*
X205641771Y-137520695D01*
X205655778Y-137518957D01*
X205690762Y-137517868D01*
X205742306Y-137517476D01*
X205805993Y-137517828D01*
X205850195Y-137518451D01*
X206052878Y-137521950D01*
X205966750Y-137928350D01*
X205945985Y-138026566D01*
X205926993Y-138116852D01*
X205910399Y-138196202D01*
X205896827Y-138261609D01*
X205886902Y-138310070D01*
X205881248Y-138338578D01*
X205880161Y-138344934D01*
X205887275Y-138340699D01*
X205906632Y-138320562D01*
X205934569Y-138288426D01*
X205945683Y-138275084D01*
X205972143Y-138243668D01*
X206012377Y-138196776D01*
X206063317Y-138137944D01*
X206121891Y-138070705D01*
X206185031Y-137998597D01*
X206241246Y-137934700D01*
X206305970Y-137861228D01*
X206368952Y-137789602D01*
X206427095Y-137723351D01*
X206477301Y-137666010D01*
X206516474Y-137621109D01*
X206539117Y-137594975D01*
X206607409Y-137515600D01*
X206853601Y-137515600D01*
X206938318Y-137515732D01*
G36*
X202916624Y-137515600D02*
G01*
X202992415Y-137515882D01*
X203058693Y-137516671D01*
X203111588Y-137517873D01*
X203147233Y-137519400D01*
X203161757Y-137521159D01*
X203161900Y-137521356D01*
X203163668Y-137534565D01*
X203168778Y-137570884D01*
X203176940Y-137628284D01*
X203187862Y-137704737D01*
X203201254Y-137798214D01*
X203216825Y-137906686D01*
X203234284Y-138028125D01*
X203253340Y-138160501D01*
X203273702Y-138301786D01*
X203288900Y-138407133D01*
X203310060Y-138554068D01*
X203330116Y-138693947D01*
X203348777Y-138824689D01*
X203365749Y-138944215D01*
X203380739Y-139050446D01*
X203393456Y-139141304D01*
X203403606Y-139214707D01*
X203410896Y-139268578D01*
X203415035Y-139300837D01*
X203415900Y-139309427D01*
X203413956Y-139317716D01*
X203405744Y-139323661D01*
X203387694Y-139327647D01*
X203356235Y-139330056D01*
X203307798Y-139331272D01*
X203238812Y-139331678D01*
X203208412Y-139331700D01*
X203000924Y-139331700D01*
X202978688Y-139150725D01*
X202970276Y-139084094D01*
X202962427Y-139025258D01*
X202955869Y-138979433D01*
X202951328Y-138951836D01*
X202950370Y-138947525D01*
X202946780Y-138940675D01*
X202938262Y-138935389D01*
X202921874Y-138931467D01*
X202894673Y-138928707D01*
X202853717Y-138926911D01*
X202796065Y-138925878D01*
X202718774Y-138925407D01*
X202623605Y-138925300D01*
X202302922Y-138925300D01*
X202088894Y-139331700D01*
X201622278Y-139331700D01*
X201640273Y-139303125D01*
X201649312Y-139287848D01*
X201670027Y-139252278D01*
X201701425Y-139198136D01*
X201742511Y-139127142D01*
X201792292Y-139041017D01*
X201849774Y-138941482D01*
X201913962Y-138830257D01*
X201983863Y-138709064D01*
X202041545Y-138609001D01*
X202463400Y-138609001D01*
X202475273Y-138612711D01*
X202507608Y-138615717D01*
X202555472Y-138617996D01*
X202613937Y-138619526D01*
X202678072Y-138620286D01*
X202742947Y-138620253D01*
X202803631Y-138619408D01*
X202855195Y-138617726D01*
X202892708Y-138615188D01*
X202911240Y-138611771D01*
X202912239Y-138610975D01*
X202912618Y-138596074D01*
X202910398Y-138559744D01*
X202905904Y-138505785D01*
X202899463Y-138437998D01*
X202891403Y-138360186D01*
X202887941Y-138328400D01*
X202878684Y-138240277D01*
X202870434Y-138153700D01*
X202863671Y-138074336D01*
X202858870Y-138007850D01*
X202856510Y-137959911D01*
X202856382Y-137953750D01*
X202854959Y-137852150D01*
X202828771Y-137909300D01*
X202815896Y-137935469D01*
X202792795Y-137980446D01*
X202761326Y-138040694D01*
X202723346Y-138112679D01*
X202680711Y-138192866D01*
X202635278Y-138277719D01*
X202632991Y-138281976D01*
X202589100Y-138364027D01*
X202549429Y-138438946D01*
X202515507Y-138503781D01*
X202488864Y-138555582D01*
X202471031Y-138591398D01*
X202463537Y-138608280D01*
X202463400Y-138609001D01*
X202041545Y-138609001D01*
X202058482Y-138579622D01*
X202136826Y-138443653D01*
X202164808Y-138395075D01*
X202671348Y-137515599D01*
X202916624Y-137515600D01*
X202916624Y-137515600D01*
G37*
X202916624Y-137515600D02*
X202992415Y-137515882D01*
X203058693Y-137516671D01*
X203111588Y-137517873D01*
X203147233Y-137519400D01*
X203161757Y-137521159D01*
X203161900Y-137521356D01*
X203163668Y-137534565D01*
X203168778Y-137570884D01*
X203176940Y-137628284D01*
X203187862Y-137704737D01*
X203201254Y-137798214D01*
X203216825Y-137906686D01*
X203234284Y-138028125D01*
X203253340Y-138160501D01*
X203273702Y-138301786D01*
X203288900Y-138407133D01*
X203310060Y-138554068D01*
X203330116Y-138693947D01*
X203348777Y-138824689D01*
X203365749Y-138944215D01*
X203380739Y-139050446D01*
X203393456Y-139141304D01*
X203403606Y-139214707D01*
X203410896Y-139268578D01*
X203415035Y-139300837D01*
X203415900Y-139309427D01*
X203413956Y-139317716D01*
X203405744Y-139323661D01*
X203387694Y-139327647D01*
X203356235Y-139330056D01*
X203307798Y-139331272D01*
X203238812Y-139331678D01*
X203208412Y-139331700D01*
X203000924Y-139331700D01*
X202978688Y-139150725D01*
X202970276Y-139084094D01*
X202962427Y-139025258D01*
X202955869Y-138979433D01*
X202951328Y-138951836D01*
X202950370Y-138947525D01*
X202946780Y-138940675D01*
X202938262Y-138935389D01*
X202921874Y-138931467D01*
X202894673Y-138928707D01*
X202853717Y-138926911D01*
X202796065Y-138925878D01*
X202718774Y-138925407D01*
X202623605Y-138925300D01*
X202302922Y-138925300D01*
X202088894Y-139331700D01*
X201622278Y-139331700D01*
X201640273Y-139303125D01*
X201649312Y-139287848D01*
X201670027Y-139252278D01*
X201701425Y-139198136D01*
X201742511Y-139127142D01*
X201792292Y-139041017D01*
X201849774Y-138941482D01*
X201913962Y-138830257D01*
X201983863Y-138709064D01*
X202041545Y-138609001D01*
X202463400Y-138609001D01*
X202475273Y-138612711D01*
X202507608Y-138615717D01*
X202555472Y-138617996D01*
X202613937Y-138619526D01*
X202678072Y-138620286D01*
X202742947Y-138620253D01*
X202803631Y-138619408D01*
X202855195Y-138617726D01*
X202892708Y-138615188D01*
X202911240Y-138611771D01*
X202912239Y-138610975D01*
X202912618Y-138596074D01*
X202910398Y-138559744D01*
X202905904Y-138505785D01*
X202899463Y-138437998D01*
X202891403Y-138360186D01*
X202887941Y-138328400D01*
X202878684Y-138240277D01*
X202870434Y-138153700D01*
X202863671Y-138074336D01*
X202858870Y-138007850D01*
X202856510Y-137959911D01*
X202856382Y-137953750D01*
X202854959Y-137852150D01*
X202828771Y-137909300D01*
X202815896Y-137935469D01*
X202792795Y-137980446D01*
X202761326Y-138040694D01*
X202723346Y-138112679D01*
X202680711Y-138192866D01*
X202635278Y-138277719D01*
X202632991Y-138281976D01*
X202589100Y-138364027D01*
X202549429Y-138438946D01*
X202515507Y-138503781D01*
X202488864Y-138555582D01*
X202471031Y-138591398D01*
X202463537Y-138608280D01*
X202463400Y-138609001D01*
X202041545Y-138609001D01*
X202058482Y-138579622D01*
X202136826Y-138443653D01*
X202164808Y-138395075D01*
X202671348Y-137515599D01*
X202916624Y-137515600D01*
G36*
X201115300Y-137518328D02*
G01*
X201204353Y-137520735D01*
X201277499Y-137525185D01*
X201337893Y-137531981D01*
X201388692Y-137541425D01*
X201433052Y-137553821D01*
X201474128Y-137569472D01*
X201491934Y-137577448D01*
X201575319Y-137625330D01*
X201636814Y-137682487D01*
X201678186Y-137751794D01*
X201701203Y-137836123D01*
X201707685Y-137928350D01*
X201706647Y-137987959D01*
X201702313Y-138031283D01*
X201692968Y-138067390D01*
X201676903Y-138105345D01*
X201672565Y-138114297D01*
X201618602Y-138196494D01*
X201544471Y-138267739D01*
X201454148Y-138324961D01*
X201351611Y-138365090D01*
X201345587Y-138366770D01*
X201288650Y-138382314D01*
X201339450Y-138397672D01*
X201436397Y-138437916D01*
X201513754Y-138493791D01*
X201570962Y-138564660D01*
X201607464Y-138649885D01*
X201620544Y-138719140D01*
X201619722Y-138828680D01*
X201595314Y-138933948D01*
X201549107Y-139031874D01*
X201482887Y-139119389D01*
X201398440Y-139193423D01*
X201316145Y-139242261D01*
X201274707Y-139262005D01*
X201237195Y-139278287D01*
X201200632Y-139291469D01*
X201162040Y-139301913D01*
X201118442Y-139309983D01*
X201066861Y-139316039D01*
X201004320Y-139320446D01*
X200927842Y-139323565D01*
X200834449Y-139325759D01*
X200721164Y-139327390D01*
X200606999Y-139328605D01*
X200484192Y-139329771D01*
X200384434Y-139330535D01*
X200305377Y-139330807D01*
X200244671Y-139330494D01*
X200199969Y-139329506D01*
X200168922Y-139327753D01*
X200149180Y-139325142D01*
X200138396Y-139321584D01*
X200134220Y-139316986D01*
X200134303Y-139311258D01*
X200134539Y-139310294D01*
X200138116Y-139294317D01*
X200146532Y-139255537D01*
X200159351Y-139195996D01*
X200176135Y-139117736D01*
X200196447Y-139022800D01*
X200199214Y-139009846D01*
X200613474Y-139009846D01*
X200616304Y-139017760D01*
X200627888Y-139022746D01*
X200652080Y-139025479D01*
X200692733Y-139026636D01*
X200753698Y-139026896D01*
X200778145Y-139026900D01*
X200863360Y-139025678D01*
X200928032Y-139021725D01*
X200976917Y-139014613D01*
X201008798Y-139006039D01*
X201075671Y-138972789D01*
X201127225Y-138926414D01*
X201163136Y-138870896D01*
X201183079Y-138810218D01*
X201186730Y-138748362D01*
X201173763Y-138689311D01*
X201143854Y-138637049D01*
X201096679Y-138595557D01*
X201044176Y-138572152D01*
X201018314Y-138567542D01*
X200976660Y-138563468D01*
X200924869Y-138560112D01*
X200868594Y-138557653D01*
X200813489Y-138556273D01*
X200765207Y-138556150D01*
X200729403Y-138557467D01*
X200711729Y-138560403D01*
X200710800Y-138561512D01*
X200708239Y-138574588D01*
X200701266Y-138607585D01*
X200690946Y-138655621D01*
X200678343Y-138713814D01*
X200664522Y-138777284D01*
X200650547Y-138841148D01*
X200637482Y-138900525D01*
X200626393Y-138950533D01*
X200618343Y-138986290D01*
X200615547Y-138998325D01*
X200613474Y-139009846D01*
X200199214Y-139009846D01*
X200219852Y-138913230D01*
X200245913Y-138791069D01*
X200274192Y-138658358D01*
X200304253Y-138517141D01*
X200328190Y-138404600D01*
X200362839Y-138241630D01*
X200776902Y-138241630D01*
X200782154Y-138248118D01*
X200798086Y-138251563D01*
X200828724Y-138252473D01*
X200878092Y-138251357D01*
X200922156Y-138249787D01*
X200998206Y-138245729D01*
X201054741Y-138239545D01*
X201097617Y-138230353D01*
X201129900Y-138218541D01*
X201196001Y-138177595D01*
X201244734Y-138123750D01*
X201273701Y-138061054D01*
X201280503Y-137993555D01*
X201277262Y-137969839D01*
X201258772Y-137914955D01*
X201226587Y-137873909D01*
X201178305Y-137845427D01*
X201111521Y-137828237D01*
X201023830Y-137821064D01*
X200995696Y-137820678D01*
X200867843Y-137820400D01*
X200826446Y-138014075D01*
X200811692Y-138082620D01*
X200798354Y-138143700D01*
X200787523Y-138192383D01*
X200780292Y-138223735D01*
X200778306Y-138231589D01*
X200776902Y-138241630D01*
X200362839Y-138241630D01*
X200515851Y-137521950D01*
X200876850Y-137518432D01*
X201007185Y-137517661D01*
X201115300Y-137518328D01*
X201115300Y-137518328D01*
G37*
X201115300Y-137518328D02*
X201204353Y-137520735D01*
X201277499Y-137525185D01*
X201337893Y-137531981D01*
X201388692Y-137541425D01*
X201433052Y-137553821D01*
X201474128Y-137569472D01*
X201491934Y-137577448D01*
X201575319Y-137625330D01*
X201636814Y-137682487D01*
X201678186Y-137751794D01*
X201701203Y-137836123D01*
X201707685Y-137928350D01*
X201706647Y-137987959D01*
X201702313Y-138031283D01*
X201692968Y-138067390D01*
X201676903Y-138105345D01*
X201672565Y-138114297D01*
X201618602Y-138196494D01*
X201544471Y-138267739D01*
X201454148Y-138324961D01*
X201351611Y-138365090D01*
X201345587Y-138366770D01*
X201288650Y-138382314D01*
X201339450Y-138397672D01*
X201436397Y-138437916D01*
X201513754Y-138493791D01*
X201570962Y-138564660D01*
X201607464Y-138649885D01*
X201620544Y-138719140D01*
X201619722Y-138828680D01*
X201595314Y-138933948D01*
X201549107Y-139031874D01*
X201482887Y-139119389D01*
X201398440Y-139193423D01*
X201316145Y-139242261D01*
X201274707Y-139262005D01*
X201237195Y-139278287D01*
X201200632Y-139291469D01*
X201162040Y-139301913D01*
X201118442Y-139309983D01*
X201066861Y-139316039D01*
X201004320Y-139320446D01*
X200927842Y-139323565D01*
X200834449Y-139325759D01*
X200721164Y-139327390D01*
X200606999Y-139328605D01*
X200484192Y-139329771D01*
X200384434Y-139330535D01*
X200305377Y-139330807D01*
X200244671Y-139330494D01*
X200199969Y-139329506D01*
X200168922Y-139327753D01*
X200149180Y-139325142D01*
X200138396Y-139321584D01*
X200134220Y-139316986D01*
X200134303Y-139311258D01*
X200134539Y-139310294D01*
X200138116Y-139294317D01*
X200146532Y-139255537D01*
X200159351Y-139195996D01*
X200176135Y-139117736D01*
X200196447Y-139022800D01*
X200199214Y-139009846D01*
X200613474Y-139009846D01*
X200616304Y-139017760D01*
X200627888Y-139022746D01*
X200652080Y-139025479D01*
X200692733Y-139026636D01*
X200753698Y-139026896D01*
X200778145Y-139026900D01*
X200863360Y-139025678D01*
X200928032Y-139021725D01*
X200976917Y-139014613D01*
X201008798Y-139006039D01*
X201075671Y-138972789D01*
X201127225Y-138926414D01*
X201163136Y-138870896D01*
X201183079Y-138810218D01*
X201186730Y-138748362D01*
X201173763Y-138689311D01*
X201143854Y-138637049D01*
X201096679Y-138595557D01*
X201044176Y-138572152D01*
X201018314Y-138567542D01*
X200976660Y-138563468D01*
X200924869Y-138560112D01*
X200868594Y-138557653D01*
X200813489Y-138556273D01*
X200765207Y-138556150D01*
X200729403Y-138557467D01*
X200711729Y-138560403D01*
X200710800Y-138561512D01*
X200708239Y-138574588D01*
X200701266Y-138607585D01*
X200690946Y-138655621D01*
X200678343Y-138713814D01*
X200664522Y-138777284D01*
X200650547Y-138841148D01*
X200637482Y-138900525D01*
X200626393Y-138950533D01*
X200618343Y-138986290D01*
X200615547Y-138998325D01*
X200613474Y-139009846D01*
X200199214Y-139009846D01*
X200219852Y-138913230D01*
X200245913Y-138791069D01*
X200274192Y-138658358D01*
X200304253Y-138517141D01*
X200328190Y-138404600D01*
X200362839Y-138241630D01*
X200776902Y-138241630D01*
X200782154Y-138248118D01*
X200798086Y-138251563D01*
X200828724Y-138252473D01*
X200878092Y-138251357D01*
X200922156Y-138249787D01*
X200998206Y-138245729D01*
X201054741Y-138239545D01*
X201097617Y-138230353D01*
X201129900Y-138218541D01*
X201196001Y-138177595D01*
X201244734Y-138123750D01*
X201273701Y-138061054D01*
X201280503Y-137993555D01*
X201277262Y-137969839D01*
X201258772Y-137914955D01*
X201226587Y-137873909D01*
X201178305Y-137845427D01*
X201111521Y-137828237D01*
X201023830Y-137821064D01*
X200995696Y-137820678D01*
X200867843Y-137820400D01*
X200826446Y-138014075D01*
X200811692Y-138082620D01*
X200798354Y-138143700D01*
X200787523Y-138192383D01*
X200780292Y-138223735D01*
X200778306Y-138231589D01*
X200776902Y-138241630D01*
X200362839Y-138241630D01*
X200515851Y-137521950D01*
X200876850Y-137518432D01*
X201007185Y-137517661D01*
X201115300Y-137518328D01*
G36*
X198138752Y-137734675D02*
G01*
X198140710Y-137800144D01*
X198142270Y-137886254D01*
X198143401Y-137988248D01*
X198144072Y-138101370D01*
X198144252Y-138220862D01*
X198143909Y-138341969D01*
X198143292Y-138430825D01*
X198142296Y-138553723D01*
X198141755Y-138653180D01*
X198141725Y-138731150D01*
X198142264Y-138789588D01*
X198143429Y-138830451D01*
X198145278Y-138855694D01*
X198147869Y-138867271D01*
X198151260Y-138867138D01*
X198155508Y-138857250D01*
X198155828Y-138856275D01*
X198164415Y-138835391D01*
X198183066Y-138793932D01*
X198210713Y-138734155D01*
X198246289Y-138658318D01*
X198288728Y-138568677D01*
X198336962Y-138467490D01*
X198389925Y-138357012D01*
X198446549Y-138239502D01*
X198484954Y-138160125D01*
X198797302Y-137515600D01*
X199237600Y-137515600D01*
X199237842Y-137582275D01*
X199238539Y-137609900D01*
X199240418Y-137659637D01*
X199243333Y-137728231D01*
X199247136Y-137812426D01*
X199251679Y-137908969D01*
X199256816Y-138014606D01*
X199262398Y-138126082D01*
X199263000Y-138137900D01*
X199268718Y-138253319D01*
X199274010Y-138366281D01*
X199278719Y-138472961D01*
X199282688Y-138569539D01*
X199285759Y-138652192D01*
X199287776Y-138717097D01*
X199288580Y-138760200D01*
X199289246Y-138893550D01*
X199336448Y-138771294D01*
X199351011Y-138734461D01*
X199374124Y-138677135D01*
X199404576Y-138602271D01*
X199441156Y-138512827D01*
X199482652Y-138411757D01*
X199527853Y-138302018D01*
X199575549Y-138186566D01*
X199618600Y-138082647D01*
X199853550Y-137516256D01*
X200066275Y-137515928D01*
X200136576Y-137516357D01*
X200197084Y-137517753D01*
X200243644Y-137519935D01*
X200272100Y-137522725D01*
X200279062Y-137525125D01*
X200273729Y-137537817D01*
X200258264Y-137571666D01*
X200233495Y-137624914D01*
X200200252Y-137695803D01*
X200159366Y-137782578D01*
X200111665Y-137883481D01*
X200057979Y-137996756D01*
X199999139Y-138120645D01*
X199935972Y-138253393D01*
X199869310Y-138393241D01*
X199850437Y-138432792D01*
X199421750Y-139330934D01*
X198984750Y-139331700D01*
X198978240Y-139290425D01*
X198974589Y-139258726D01*
X198969945Y-139205111D01*
X198964509Y-139133037D01*
X198958479Y-139045959D01*
X198952053Y-138947335D01*
X198945429Y-138840619D01*
X198938808Y-138729269D01*
X198932386Y-138616740D01*
X198926363Y-138506489D01*
X198920937Y-138401972D01*
X198916307Y-138306646D01*
X198912671Y-138223965D01*
X198910228Y-138157388D01*
X198909177Y-138110370D01*
X198909351Y-138091499D01*
X198911113Y-138043220D01*
X198911993Y-138006457D01*
X198911871Y-137987083D01*
X198911559Y-137985498D01*
X198906824Y-137996291D01*
X198897718Y-138023181D01*
X198894583Y-138033125D01*
X198886299Y-138053349D01*
X198867889Y-138094092D01*
X198840433Y-138153081D01*
X198805016Y-138228040D01*
X198762719Y-138316697D01*
X198714626Y-138416778D01*
X198661818Y-138526009D01*
X198605379Y-138642116D01*
X198574089Y-138706225D01*
X198268383Y-139331700D01*
X198035683Y-139331700D01*
X197953630Y-139331619D01*
X197893468Y-139331097D01*
X197851686Y-139329713D01*
X197824777Y-139327047D01*
X197809230Y-139322676D01*
X197801536Y-139316181D01*
X197798186Y-139307141D01*
X197797356Y-139303125D01*
X197795793Y-139285755D01*
X197793170Y-139245217D01*
X197789603Y-139183714D01*
X197785208Y-139103450D01*
X197780100Y-139006628D01*
X197774395Y-138895452D01*
X197768208Y-138772127D01*
X197761656Y-138638855D01*
X197754854Y-138497841D01*
X197752529Y-138449050D01*
X197745640Y-138305058D01*
X197738954Y-138167397D01*
X197732589Y-138038360D01*
X197726663Y-137920240D01*
X197721293Y-137815330D01*
X197716597Y-137725923D01*
X197712694Y-137654312D01*
X197709700Y-137602790D01*
X197707734Y-137573650D01*
X197707358Y-137569575D01*
X197701385Y-137515600D01*
X198129969Y-137515600D01*
X198138752Y-137734675D01*
X198138752Y-137734675D01*
G37*
X198138752Y-137734675D02*
X198140710Y-137800144D01*
X198142270Y-137886254D01*
X198143401Y-137988248D01*
X198144072Y-138101370D01*
X198144252Y-138220862D01*
X198143909Y-138341969D01*
X198143292Y-138430825D01*
X198142296Y-138553723D01*
X198141755Y-138653180D01*
X198141725Y-138731150D01*
X198142264Y-138789588D01*
X198143429Y-138830451D01*
X198145278Y-138855694D01*
X198147869Y-138867271D01*
X198151260Y-138867138D01*
X198155508Y-138857250D01*
X198155828Y-138856275D01*
X198164415Y-138835391D01*
X198183066Y-138793932D01*
X198210713Y-138734155D01*
X198246289Y-138658318D01*
X198288728Y-138568677D01*
X198336962Y-138467490D01*
X198389925Y-138357012D01*
X198446549Y-138239502D01*
X198484954Y-138160125D01*
X198797302Y-137515600D01*
X199237600Y-137515600D01*
X199237842Y-137582275D01*
X199238539Y-137609900D01*
X199240418Y-137659637D01*
X199243333Y-137728231D01*
X199247136Y-137812426D01*
X199251679Y-137908969D01*
X199256816Y-138014606D01*
X199262398Y-138126082D01*
X199263000Y-138137900D01*
X199268718Y-138253319D01*
X199274010Y-138366281D01*
X199278719Y-138472961D01*
X199282688Y-138569539D01*
X199285759Y-138652192D01*
X199287776Y-138717097D01*
X199288580Y-138760200D01*
X199289246Y-138893550D01*
X199336448Y-138771294D01*
X199351011Y-138734461D01*
X199374124Y-138677135D01*
X199404576Y-138602271D01*
X199441156Y-138512827D01*
X199482652Y-138411757D01*
X199527853Y-138302018D01*
X199575549Y-138186566D01*
X199618600Y-138082647D01*
X199853550Y-137516256D01*
X200066275Y-137515928D01*
X200136576Y-137516357D01*
X200197084Y-137517753D01*
X200243644Y-137519935D01*
X200272100Y-137522725D01*
X200279062Y-137525125D01*
X200273729Y-137537817D01*
X200258264Y-137571666D01*
X200233495Y-137624914D01*
X200200252Y-137695803D01*
X200159366Y-137782578D01*
X200111665Y-137883481D01*
X200057979Y-137996756D01*
X199999139Y-138120645D01*
X199935972Y-138253393D01*
X199869310Y-138393241D01*
X199850437Y-138432792D01*
X199421750Y-139330934D01*
X198984750Y-139331700D01*
X198978240Y-139290425D01*
X198974589Y-139258726D01*
X198969945Y-139205111D01*
X198964509Y-139133037D01*
X198958479Y-139045959D01*
X198952053Y-138947335D01*
X198945429Y-138840619D01*
X198938808Y-138729269D01*
X198932386Y-138616740D01*
X198926363Y-138506489D01*
X198920937Y-138401972D01*
X198916307Y-138306646D01*
X198912671Y-138223965D01*
X198910228Y-138157388D01*
X198909177Y-138110370D01*
X198909351Y-138091499D01*
X198911113Y-138043220D01*
X198911993Y-138006457D01*
X198911871Y-137987083D01*
X198911559Y-137985498D01*
X198906824Y-137996291D01*
X198897718Y-138023181D01*
X198894583Y-138033125D01*
X198886299Y-138053349D01*
X198867889Y-138094092D01*
X198840433Y-138153081D01*
X198805016Y-138228040D01*
X198762719Y-138316697D01*
X198714626Y-138416778D01*
X198661818Y-138526009D01*
X198605379Y-138642116D01*
X198574089Y-138706225D01*
X198268383Y-139331700D01*
X198035683Y-139331700D01*
X197953630Y-139331619D01*
X197893468Y-139331097D01*
X197851686Y-139329713D01*
X197824777Y-139327047D01*
X197809230Y-139322676D01*
X197801536Y-139316181D01*
X197798186Y-139307141D01*
X197797356Y-139303125D01*
X197795793Y-139285755D01*
X197793170Y-139245217D01*
X197789603Y-139183714D01*
X197785208Y-139103450D01*
X197780100Y-139006628D01*
X197774395Y-138895452D01*
X197768208Y-138772127D01*
X197761656Y-138638855D01*
X197754854Y-138497841D01*
X197752529Y-138449050D01*
X197745640Y-138305058D01*
X197738954Y-138167397D01*
X197732589Y-138038360D01*
X197726663Y-137920240D01*
X197721293Y-137815330D01*
X197716597Y-137725923D01*
X197712694Y-137654312D01*
X197709700Y-137602790D01*
X197707734Y-137573650D01*
X197707358Y-137569575D01*
X197701385Y-137515600D01*
X198129969Y-137515600D01*
X198138752Y-137734675D01*
G36*
X194940058Y-137518421D02*
G01*
X195027956Y-137521029D01*
X195100187Y-137525803D01*
X195159986Y-137533065D01*
X195210589Y-137543133D01*
X195255230Y-137556328D01*
X195297144Y-137572968D01*
X195308516Y-137578142D01*
X195396897Y-137629038D01*
X195464649Y-137690991D01*
X195515389Y-137767476D01*
X195524044Y-137785325D01*
X195541902Y-137827309D01*
X195552814Y-137864047D01*
X195558408Y-137904502D01*
X195560312Y-137957639D01*
X195560404Y-137985500D01*
X195559447Y-138045698D01*
X195555607Y-138089641D01*
X195547101Y-138126446D01*
X195532142Y-138165233D01*
X195520030Y-138191757D01*
X195465096Y-138284561D01*
X195393760Y-138362083D01*
X195304048Y-138425863D01*
X195193983Y-138477443D01*
X195122800Y-138501549D01*
X195081549Y-138514801D01*
X195055035Y-138524991D01*
X195047420Y-138530445D01*
X195049738Y-138530919D01*
X195076592Y-138541386D01*
X195111351Y-138567807D01*
X195148380Y-138604643D01*
X195182046Y-138646357D01*
X195204664Y-138683194D01*
X195216285Y-138712762D01*
X195232244Y-138762491D01*
X195251220Y-138827782D01*
X195271893Y-138904033D01*
X195292942Y-138986645D01*
X195299669Y-139014200D01*
X195319220Y-139094992D01*
X195337060Y-139168335D01*
X195352231Y-139230322D01*
X195363774Y-139277046D01*
X195370733Y-139304598D01*
X195372047Y-139309475D01*
X195372689Y-139317472D01*
X195367031Y-139323290D01*
X195351724Y-139327270D01*
X195323423Y-139329757D01*
X195278778Y-139331094D01*
X195214443Y-139331624D01*
X195155405Y-139331700D01*
X195083309Y-139331186D01*
X195020909Y-139329762D01*
X194972263Y-139327599D01*
X194941428Y-139324872D01*
X194932248Y-139322175D01*
X194929724Y-139307332D01*
X194922723Y-139271620D01*
X194912052Y-139219013D01*
X194898519Y-139153485D01*
X194882929Y-139079011D01*
X194881315Y-139071350D01*
X194855398Y-138955091D01*
X194830772Y-138861637D01*
X194805856Y-138788558D01*
X194779067Y-138733421D01*
X194748821Y-138693795D01*
X194713537Y-138667249D01*
X194671631Y-138651351D01*
X194621520Y-138643670D01*
X194602155Y-138642490D01*
X194534814Y-138639550D01*
X194460886Y-138982450D01*
X194441587Y-139072015D01*
X194424139Y-139153081D01*
X194409231Y-139222446D01*
X194397550Y-139276907D01*
X194389782Y-139313264D01*
X194386616Y-139328314D01*
X194386579Y-139328525D01*
X194374448Y-139329585D01*
X194341130Y-139330496D01*
X194290839Y-139331192D01*
X194227788Y-139331608D01*
X194178359Y-139331700D01*
X193970519Y-139331700D01*
X194000992Y-139188825D01*
X194009183Y-139150388D01*
X194022087Y-139089795D01*
X194039132Y-139009733D01*
X194059746Y-138912890D01*
X194083357Y-138801955D01*
X194109393Y-138679614D01*
X194137281Y-138548556D01*
X194166450Y-138411467D01*
X194183517Y-138331251D01*
X194598630Y-138331251D01*
X194743240Y-138325989D01*
X194814908Y-138322306D01*
X194868212Y-138316543D01*
X194910173Y-138307543D01*
X194947811Y-138294153D01*
X194954617Y-138291210D01*
X195028823Y-138246779D01*
X195081556Y-138188895D01*
X195112444Y-138118182D01*
X195121113Y-138035259D01*
X195119991Y-138015300D01*
X195107644Y-137950743D01*
X195081181Y-137901059D01*
X195038433Y-137864775D01*
X194977234Y-137840418D01*
X194895416Y-137826516D01*
X194836361Y-137822613D01*
X194708673Y-137817703D01*
X194660643Y-138044476D01*
X194644809Y-138119073D01*
X194630380Y-138186757D01*
X194618342Y-138242915D01*
X194609684Y-138282937D01*
X194605622Y-138301250D01*
X194598630Y-138331251D01*
X194183517Y-138331251D01*
X194193581Y-138283950D01*
X194355698Y-137521950D01*
X194704324Y-137518428D01*
X194833259Y-137517661D01*
X194940058Y-137518421D01*
X194940058Y-137518421D01*
G37*
X194940058Y-137518421D02*
X195027956Y-137521029D01*
X195100187Y-137525803D01*
X195159986Y-137533065D01*
X195210589Y-137543133D01*
X195255230Y-137556328D01*
X195297144Y-137572968D01*
X195308516Y-137578142D01*
X195396897Y-137629038D01*
X195464649Y-137690991D01*
X195515389Y-137767476D01*
X195524044Y-137785325D01*
X195541902Y-137827309D01*
X195552814Y-137864047D01*
X195558408Y-137904502D01*
X195560312Y-137957639D01*
X195560404Y-137985500D01*
X195559447Y-138045698D01*
X195555607Y-138089641D01*
X195547101Y-138126446D01*
X195532142Y-138165233D01*
X195520030Y-138191757D01*
X195465096Y-138284561D01*
X195393760Y-138362083D01*
X195304048Y-138425863D01*
X195193983Y-138477443D01*
X195122800Y-138501549D01*
X195081549Y-138514801D01*
X195055035Y-138524991D01*
X195047420Y-138530445D01*
X195049738Y-138530919D01*
X195076592Y-138541386D01*
X195111351Y-138567807D01*
X195148380Y-138604643D01*
X195182046Y-138646357D01*
X195204664Y-138683194D01*
X195216285Y-138712762D01*
X195232244Y-138762491D01*
X195251220Y-138827782D01*
X195271893Y-138904033D01*
X195292942Y-138986645D01*
X195299669Y-139014200D01*
X195319220Y-139094992D01*
X195337060Y-139168335D01*
X195352231Y-139230322D01*
X195363774Y-139277046D01*
X195370733Y-139304598D01*
X195372047Y-139309475D01*
X195372689Y-139317472D01*
X195367031Y-139323290D01*
X195351724Y-139327270D01*
X195323423Y-139329757D01*
X195278778Y-139331094D01*
X195214443Y-139331624D01*
X195155405Y-139331700D01*
X195083309Y-139331186D01*
X195020909Y-139329762D01*
X194972263Y-139327599D01*
X194941428Y-139324872D01*
X194932248Y-139322175D01*
X194929724Y-139307332D01*
X194922723Y-139271620D01*
X194912052Y-139219013D01*
X194898519Y-139153485D01*
X194882929Y-139079011D01*
X194881315Y-139071350D01*
X194855398Y-138955091D01*
X194830772Y-138861637D01*
X194805856Y-138788558D01*
X194779067Y-138733421D01*
X194748821Y-138693795D01*
X194713537Y-138667249D01*
X194671631Y-138651351D01*
X194621520Y-138643670D01*
X194602155Y-138642490D01*
X194534814Y-138639550D01*
X194460886Y-138982450D01*
X194441587Y-139072015D01*
X194424139Y-139153081D01*
X194409231Y-139222446D01*
X194397550Y-139276907D01*
X194389782Y-139313264D01*
X194386616Y-139328314D01*
X194386579Y-139328525D01*
X194374448Y-139329585D01*
X194341130Y-139330496D01*
X194290839Y-139331192D01*
X194227788Y-139331608D01*
X194178359Y-139331700D01*
X193970519Y-139331700D01*
X194000992Y-139188825D01*
X194009183Y-139150388D01*
X194022087Y-139089795D01*
X194039132Y-139009733D01*
X194059746Y-138912890D01*
X194083357Y-138801955D01*
X194109393Y-138679614D01*
X194137281Y-138548556D01*
X194166450Y-138411467D01*
X194183517Y-138331251D01*
X194598630Y-138331251D01*
X194743240Y-138325989D01*
X194814908Y-138322306D01*
X194868212Y-138316543D01*
X194910173Y-138307543D01*
X194947811Y-138294153D01*
X194954617Y-138291210D01*
X195028823Y-138246779D01*
X195081556Y-138188895D01*
X195112444Y-138118182D01*
X195121113Y-138035259D01*
X195119991Y-138015300D01*
X195107644Y-137950743D01*
X195081181Y-137901059D01*
X195038433Y-137864775D01*
X194977234Y-137840418D01*
X194895416Y-137826516D01*
X194836361Y-137822613D01*
X194708673Y-137817703D01*
X194660643Y-138044476D01*
X194644809Y-138119073D01*
X194630380Y-138186757D01*
X194618342Y-138242915D01*
X194609684Y-138282937D01*
X194605622Y-138301250D01*
X194598630Y-138331251D01*
X194183517Y-138331251D01*
X194193581Y-138283950D01*
X194355698Y-137521950D01*
X194704324Y-137518428D01*
X194833259Y-137517661D01*
X194940058Y-137518421D01*
G36*
X192781658Y-137544175D02*
G01*
X192777001Y-137564555D01*
X192768174Y-137604618D01*
X192756011Y-137660473D01*
X192741347Y-137728229D01*
X192725016Y-137803994D01*
X192707852Y-137883878D01*
X192690691Y-137963989D01*
X192674364Y-138040436D01*
X192659709Y-138109329D01*
X192647557Y-138166775D01*
X192638744Y-138208885D01*
X192634104Y-138231766D01*
X192633600Y-138234738D01*
X192645776Y-138235944D01*
X192680212Y-138237038D01*
X192733767Y-138237979D01*
X192803300Y-138238728D01*
X192885670Y-138239243D01*
X192977738Y-138239486D01*
X193005851Y-138239500D01*
X193378102Y-138239500D01*
X193530708Y-137521950D01*
X193736204Y-137518460D01*
X193819097Y-137517617D01*
X193878836Y-137518402D01*
X193917620Y-137520937D01*
X193937653Y-137525342D01*
X193941700Y-137529759D01*
X193939136Y-137543970D01*
X193931787Y-137580595D01*
X193920165Y-137637208D01*
X193904785Y-137711382D01*
X193886158Y-137800691D01*
X193864799Y-137902708D01*
X193841219Y-138015006D01*
X193815934Y-138135159D01*
X193789454Y-138260740D01*
X193762295Y-138389323D01*
X193734968Y-138518480D01*
X193707987Y-138645785D01*
X193681865Y-138768812D01*
X193657115Y-138885133D01*
X193634251Y-138992323D01*
X193613785Y-139087954D01*
X193596230Y-139169600D01*
X193582101Y-139234834D01*
X193571909Y-139281229D01*
X193566168Y-139306360D01*
X193565366Y-139309475D01*
X193560781Y-139317792D01*
X193550093Y-139323750D01*
X193529612Y-139327734D01*
X193495651Y-139330128D01*
X193444521Y-139331318D01*
X193372534Y-139331690D01*
X193352544Y-139331700D01*
X193146101Y-139331700D01*
X193219614Y-138985625D01*
X193238837Y-138894427D01*
X193256215Y-138810633D01*
X193271061Y-138737667D01*
X193282687Y-138678952D01*
X193290406Y-138637912D01*
X193293531Y-138617970D01*
X193293563Y-138617325D01*
X193292202Y-138610889D01*
X193286040Y-138605826D01*
X193272380Y-138601972D01*
X193248525Y-138599165D01*
X193211778Y-138597241D01*
X193159443Y-138596036D01*
X193088823Y-138595388D01*
X192997221Y-138595132D01*
X192926555Y-138595100D01*
X192819968Y-138595197D01*
X192736034Y-138595598D01*
X192672006Y-138596467D01*
X192625137Y-138597966D01*
X192592680Y-138600259D01*
X192571888Y-138603509D01*
X192560014Y-138607879D01*
X192554312Y-138613534D01*
X192552790Y-138617325D01*
X192548598Y-138635208D01*
X192539939Y-138674523D01*
X192527549Y-138731840D01*
X192512167Y-138803729D01*
X192494528Y-138886760D01*
X192475370Y-138977503D01*
X192473661Y-138985625D01*
X192400853Y-139331700D01*
X191983146Y-139331700D01*
X191990189Y-139303125D01*
X191994835Y-139282579D01*
X192004048Y-139240345D01*
X192017317Y-139178840D01*
X192034127Y-139100480D01*
X192053967Y-139007683D01*
X192076325Y-138902866D01*
X192100687Y-138788446D01*
X192126543Y-138666841D01*
X192153378Y-138540468D01*
X192180682Y-138411744D01*
X192207942Y-138283087D01*
X192234644Y-138156913D01*
X192260278Y-138035640D01*
X192284330Y-137921686D01*
X192306288Y-137817467D01*
X192325639Y-137725401D01*
X192341873Y-137647906D01*
X192354475Y-137587397D01*
X192362933Y-137546293D01*
X192366736Y-137527012D01*
X192366900Y-137525885D01*
X192378903Y-137522473D01*
X192412134Y-137519539D01*
X192462420Y-137517287D01*
X192525589Y-137515921D01*
X192577826Y-137515600D01*
X192788753Y-137515600D01*
X192781658Y-137544175D01*
X192781658Y-137544175D01*
G37*
X192781658Y-137544175D02*
X192777001Y-137564555D01*
X192768174Y-137604618D01*
X192756011Y-137660473D01*
X192741347Y-137728229D01*
X192725016Y-137803994D01*
X192707852Y-137883878D01*
X192690691Y-137963989D01*
X192674364Y-138040436D01*
X192659709Y-138109329D01*
X192647557Y-138166775D01*
X192638744Y-138208885D01*
X192634104Y-138231766D01*
X192633600Y-138234738D01*
X192645776Y-138235944D01*
X192680212Y-138237038D01*
X192733767Y-138237979D01*
X192803300Y-138238728D01*
X192885670Y-138239243D01*
X192977738Y-138239486D01*
X193005851Y-138239500D01*
X193378102Y-138239500D01*
X193530708Y-137521950D01*
X193736204Y-137518460D01*
X193819097Y-137517617D01*
X193878836Y-137518402D01*
X193917620Y-137520937D01*
X193937653Y-137525342D01*
X193941700Y-137529759D01*
X193939136Y-137543970D01*
X193931787Y-137580595D01*
X193920165Y-137637208D01*
X193904785Y-137711382D01*
X193886158Y-137800691D01*
X193864799Y-137902708D01*
X193841219Y-138015006D01*
X193815934Y-138135159D01*
X193789454Y-138260740D01*
X193762295Y-138389323D01*
X193734968Y-138518480D01*
X193707987Y-138645785D01*
X193681865Y-138768812D01*
X193657115Y-138885133D01*
X193634251Y-138992323D01*
X193613785Y-139087954D01*
X193596230Y-139169600D01*
X193582101Y-139234834D01*
X193571909Y-139281229D01*
X193566168Y-139306360D01*
X193565366Y-139309475D01*
X193560781Y-139317792D01*
X193550093Y-139323750D01*
X193529612Y-139327734D01*
X193495651Y-139330128D01*
X193444521Y-139331318D01*
X193372534Y-139331690D01*
X193352544Y-139331700D01*
X193146101Y-139331700D01*
X193219614Y-138985625D01*
X193238837Y-138894427D01*
X193256215Y-138810633D01*
X193271061Y-138737667D01*
X193282687Y-138678952D01*
X193290406Y-138637912D01*
X193293531Y-138617970D01*
X193293563Y-138617325D01*
X193292202Y-138610889D01*
X193286040Y-138605826D01*
X193272380Y-138601972D01*
X193248525Y-138599165D01*
X193211778Y-138597241D01*
X193159443Y-138596036D01*
X193088823Y-138595388D01*
X192997221Y-138595132D01*
X192926555Y-138595100D01*
X192819968Y-138595197D01*
X192736034Y-138595598D01*
X192672006Y-138596467D01*
X192625137Y-138597966D01*
X192592680Y-138600259D01*
X192571888Y-138603509D01*
X192560014Y-138607879D01*
X192554312Y-138613534D01*
X192552790Y-138617325D01*
X192548598Y-138635208D01*
X192539939Y-138674523D01*
X192527549Y-138731840D01*
X192512167Y-138803729D01*
X192494528Y-138886760D01*
X192475370Y-138977503D01*
X192473661Y-138985625D01*
X192400853Y-139331700D01*
X191983146Y-139331700D01*
X191990189Y-139303125D01*
X191994835Y-139282579D01*
X192004048Y-139240345D01*
X192017317Y-139178840D01*
X192034127Y-139100480D01*
X192053967Y-139007683D01*
X192076325Y-138902866D01*
X192100687Y-138788446D01*
X192126543Y-138666841D01*
X192153378Y-138540468D01*
X192180682Y-138411744D01*
X192207942Y-138283087D01*
X192234644Y-138156913D01*
X192260278Y-138035640D01*
X192284330Y-137921686D01*
X192306288Y-137817467D01*
X192325639Y-137725401D01*
X192341873Y-137647906D01*
X192354475Y-137587397D01*
X192362933Y-137546293D01*
X192366736Y-137527012D01*
X192366900Y-137525885D01*
X192378903Y-137522473D01*
X192412134Y-137519539D01*
X192462420Y-137517287D01*
X192525589Y-137515921D01*
X192577826Y-137515600D01*
X192788753Y-137515600D01*
X192781658Y-137544175D01*
G36*
X192117600Y-137549399D02*
G01*
X192111379Y-137576038D01*
X192101507Y-137620362D01*
X192089566Y-137675201D01*
X192081823Y-137711324D01*
X192054528Y-137839450D01*
X191798737Y-137842885D01*
X191711368Y-137844244D01*
X191646110Y-137845858D01*
X191599672Y-137848048D01*
X191568765Y-137851131D01*
X191550100Y-137855426D01*
X191540387Y-137861251D01*
X191536515Y-137868285D01*
X191532763Y-137884503D01*
X191524282Y-137923265D01*
X191511564Y-137982257D01*
X191495104Y-138059166D01*
X191475393Y-138151677D01*
X191452926Y-138257478D01*
X191428195Y-138374255D01*
X191401694Y-138499694D01*
X191382917Y-138588750D01*
X191355487Y-138718768D01*
X191329480Y-138841704D01*
X191305391Y-138955245D01*
X191283715Y-139057074D01*
X191264946Y-139144878D01*
X191249578Y-139216341D01*
X191238106Y-139269149D01*
X191231024Y-139300986D01*
X191228969Y-139309475D01*
X191224167Y-139317867D01*
X191213209Y-139323856D01*
X191192361Y-139327836D01*
X191157889Y-139330204D01*
X191106060Y-139331359D01*
X191033140Y-139331695D01*
X191019844Y-139331700D01*
X190940190Y-139331233D01*
X190883028Y-139329677D01*
X190845464Y-139326799D01*
X190824605Y-139322366D01*
X190817556Y-139316145D01*
X190817500Y-139315394D01*
X190820061Y-139300299D01*
X190827437Y-139262608D01*
X190839161Y-139204571D01*
X190854769Y-139128437D01*
X190873795Y-139036455D01*
X190895775Y-138930876D01*
X190920244Y-138813949D01*
X190946736Y-138687923D01*
X190969900Y-138578159D01*
X190997674Y-138446674D01*
X191023817Y-138322731D01*
X191047864Y-138208536D01*
X191069354Y-138106296D01*
X191087823Y-138018217D01*
X191102808Y-137946507D01*
X191113847Y-137893372D01*
X191120477Y-137861019D01*
X191122300Y-137851514D01*
X191110228Y-137849792D01*
X191076525Y-137848277D01*
X191024961Y-137847054D01*
X190959304Y-137846206D01*
X190883323Y-137845816D01*
X190863841Y-137845800D01*
X190605383Y-137845800D01*
X190635076Y-137709275D01*
X190647872Y-137650660D01*
X190659262Y-137598890D01*
X190667808Y-137560472D01*
X190671526Y-137544175D01*
X190678283Y-137515600D01*
X191402183Y-137515600D01*
X192126083Y-137515599D01*
X192117600Y-137549399D01*
X192117600Y-137549399D01*
G37*
X192117600Y-137549399D02*
X192111379Y-137576038D01*
X192101507Y-137620362D01*
X192089566Y-137675201D01*
X192081823Y-137711324D01*
X192054528Y-137839450D01*
X191798737Y-137842885D01*
X191711368Y-137844244D01*
X191646110Y-137845858D01*
X191599672Y-137848048D01*
X191568765Y-137851131D01*
X191550100Y-137855426D01*
X191540387Y-137861251D01*
X191536515Y-137868285D01*
X191532763Y-137884503D01*
X191524282Y-137923265D01*
X191511564Y-137982257D01*
X191495104Y-138059166D01*
X191475393Y-138151677D01*
X191452926Y-138257478D01*
X191428195Y-138374255D01*
X191401694Y-138499694D01*
X191382917Y-138588750D01*
X191355487Y-138718768D01*
X191329480Y-138841704D01*
X191305391Y-138955245D01*
X191283715Y-139057074D01*
X191264946Y-139144878D01*
X191249578Y-139216341D01*
X191238106Y-139269149D01*
X191231024Y-139300986D01*
X191228969Y-139309475D01*
X191224167Y-139317867D01*
X191213209Y-139323856D01*
X191192361Y-139327836D01*
X191157889Y-139330204D01*
X191106060Y-139331359D01*
X191033140Y-139331695D01*
X191019844Y-139331700D01*
X190940190Y-139331233D01*
X190883028Y-139329677D01*
X190845464Y-139326799D01*
X190824605Y-139322366D01*
X190817556Y-139316145D01*
X190817500Y-139315394D01*
X190820061Y-139300299D01*
X190827437Y-139262608D01*
X190839161Y-139204571D01*
X190854769Y-139128437D01*
X190873795Y-139036455D01*
X190895775Y-138930876D01*
X190920244Y-138813949D01*
X190946736Y-138687923D01*
X190969900Y-138578159D01*
X190997674Y-138446674D01*
X191023817Y-138322731D01*
X191047864Y-138208536D01*
X191069354Y-138106296D01*
X191087823Y-138018217D01*
X191102808Y-137946507D01*
X191113847Y-137893372D01*
X191120477Y-137861019D01*
X191122300Y-137851514D01*
X191110228Y-137849792D01*
X191076525Y-137848277D01*
X191024961Y-137847054D01*
X190959304Y-137846206D01*
X190883323Y-137845816D01*
X190863841Y-137845800D01*
X190605383Y-137845800D01*
X190635076Y-137709275D01*
X190647872Y-137650660D01*
X190659262Y-137598890D01*
X190667808Y-137560472D01*
X190671526Y-137544175D01*
X190678283Y-137515600D01*
X191402183Y-137515600D01*
X192126083Y-137515599D01*
X192117600Y-137549399D01*
G36*
X218508109Y-137495161D02*
G01*
X218580496Y-137502617D01*
X218610629Y-137508336D01*
X218738047Y-137550458D01*
X218851142Y-137612708D01*
X218948722Y-137693471D01*
X219029590Y-137791130D01*
X219092554Y-137904069D01*
X219136420Y-138030672D01*
X219159993Y-138169324D01*
X219163900Y-138257095D01*
X219153386Y-138425633D01*
X219122718Y-138586170D01*
X219073205Y-138736819D01*
X219006157Y-138875690D01*
X218922883Y-139000895D01*
X218824693Y-139110547D01*
X218712897Y-139202755D01*
X218588804Y-139275633D01*
X218453724Y-139327292D01*
X218414600Y-139337580D01*
X218333327Y-139352003D01*
X218239255Y-139360936D01*
X218141729Y-139364076D01*
X218050096Y-139361119D01*
X217974314Y-139351878D01*
X217846298Y-139315012D01*
X217730209Y-139256549D01*
X217627833Y-139178177D01*
X217540955Y-139081587D01*
X217471364Y-138968468D01*
X217420844Y-138840511D01*
X217415998Y-138823700D01*
X217401075Y-138745773D01*
X217393317Y-138650948D01*
X217392882Y-138590022D01*
X217824758Y-138590022D01*
X217835323Y-138695029D01*
X217861519Y-138789012D01*
X217890624Y-138847481D01*
X217948948Y-138918935D01*
X218020901Y-138970531D01*
X218103415Y-139001550D01*
X218193422Y-139011273D01*
X218287853Y-138998981D01*
X218383638Y-138963956D01*
X218385028Y-138963275D01*
X218476930Y-138903942D01*
X218555613Y-138822995D01*
X218620978Y-138720571D01*
X218672923Y-138596806D01*
X218686615Y-138552991D01*
X218716196Y-138422562D01*
X218727519Y-138301398D01*
X218721402Y-138191104D01*
X218698665Y-138093285D01*
X218660128Y-138009548D01*
X218606610Y-137941497D01*
X218538932Y-137890739D01*
X218457912Y-137858879D01*
X218364369Y-137847522D01*
X218327176Y-137848807D01*
X218241665Y-137863148D01*
X218163579Y-137894633D01*
X218087014Y-137946061D01*
X218044376Y-137982969D01*
X217978123Y-138058685D01*
X217922652Y-138150645D01*
X217878773Y-138254302D01*
X217847291Y-138365114D01*
X217829017Y-138478535D01*
X217824758Y-138590022D01*
X217392882Y-138590022D01*
X217392571Y-138546646D01*
X217398679Y-138440289D01*
X217411486Y-138339299D01*
X217427783Y-138262233D01*
X217464406Y-138150751D01*
X217514622Y-138036538D01*
X217573743Y-137929160D01*
X217633265Y-137842982D01*
X217724846Y-137744966D01*
X217835182Y-137657310D01*
X217958459Y-137583933D01*
X218088862Y-137528751D01*
X218109800Y-137521935D01*
X218169239Y-137508721D01*
X218246312Y-137499232D01*
X218333496Y-137493673D01*
X218423269Y-137492248D01*
X218508109Y-137495161D01*
X218508109Y-137495161D01*
G37*
X218508109Y-137495161D02*
X218580496Y-137502617D01*
X218610629Y-137508336D01*
X218738047Y-137550458D01*
X218851142Y-137612708D01*
X218948722Y-137693471D01*
X219029590Y-137791130D01*
X219092554Y-137904069D01*
X219136420Y-138030672D01*
X219159993Y-138169324D01*
X219163900Y-138257095D01*
X219153386Y-138425633D01*
X219122718Y-138586170D01*
X219073205Y-138736819D01*
X219006157Y-138875690D01*
X218922883Y-139000895D01*
X218824693Y-139110547D01*
X218712897Y-139202755D01*
X218588804Y-139275633D01*
X218453724Y-139327292D01*
X218414600Y-139337580D01*
X218333327Y-139352003D01*
X218239255Y-139360936D01*
X218141729Y-139364076D01*
X218050096Y-139361119D01*
X217974314Y-139351878D01*
X217846298Y-139315012D01*
X217730209Y-139256549D01*
X217627833Y-139178177D01*
X217540955Y-139081587D01*
X217471364Y-138968468D01*
X217420844Y-138840511D01*
X217415998Y-138823700D01*
X217401075Y-138745773D01*
X217393317Y-138650948D01*
X217392882Y-138590022D01*
X217824758Y-138590022D01*
X217835323Y-138695029D01*
X217861519Y-138789012D01*
X217890624Y-138847481D01*
X217948948Y-138918935D01*
X218020901Y-138970531D01*
X218103415Y-139001550D01*
X218193422Y-139011273D01*
X218287853Y-138998981D01*
X218383638Y-138963956D01*
X218385028Y-138963275D01*
X218476930Y-138903942D01*
X218555613Y-138822995D01*
X218620978Y-138720571D01*
X218672923Y-138596806D01*
X218686615Y-138552991D01*
X218716196Y-138422562D01*
X218727519Y-138301398D01*
X218721402Y-138191104D01*
X218698665Y-138093285D01*
X218660128Y-138009548D01*
X218606610Y-137941497D01*
X218538932Y-137890739D01*
X218457912Y-137858879D01*
X218364369Y-137847522D01*
X218327176Y-137848807D01*
X218241665Y-137863148D01*
X218163579Y-137894633D01*
X218087014Y-137946061D01*
X218044376Y-137982969D01*
X217978123Y-138058685D01*
X217922652Y-138150645D01*
X217878773Y-138254302D01*
X217847291Y-138365114D01*
X217829017Y-138478535D01*
X217824758Y-138590022D01*
X217392882Y-138590022D01*
X217392571Y-138546646D01*
X217398679Y-138440289D01*
X217411486Y-138339299D01*
X217427783Y-138262233D01*
X217464406Y-138150751D01*
X217514622Y-138036538D01*
X217573743Y-137929160D01*
X217633265Y-137842982D01*
X217724846Y-137744966D01*
X217835182Y-137657310D01*
X217958459Y-137583933D01*
X218088862Y-137528751D01*
X218109800Y-137521935D01*
X218169239Y-137508721D01*
X218246312Y-137499232D01*
X218333496Y-137493673D01*
X218423269Y-137492248D01*
X218508109Y-137495161D01*
G36*
X208870695Y-137496089D02*
G01*
X208947112Y-137506070D01*
X208965128Y-137509874D01*
X209091629Y-137552040D01*
X209204316Y-137614824D01*
X209301702Y-137696633D01*
X209382301Y-137795875D01*
X209444624Y-137910960D01*
X209487184Y-138040294D01*
X209494996Y-138076933D01*
X209506585Y-138172637D01*
X209509126Y-138282906D01*
X209502996Y-138398719D01*
X209488569Y-138511052D01*
X209473966Y-138581846D01*
X209424845Y-138734934D01*
X209356736Y-138875779D01*
X209271437Y-139002440D01*
X209170746Y-139112974D01*
X209056462Y-139205439D01*
X208930383Y-139277892D01*
X208794306Y-139328392D01*
X208779116Y-139332444D01*
X208709546Y-139346330D01*
X208627090Y-139356665D01*
X208539946Y-139362974D01*
X208456316Y-139364782D01*
X208384397Y-139361615D01*
X208350802Y-139357225D01*
X208214083Y-139320643D01*
X208092057Y-139263740D01*
X207985821Y-139187512D01*
X207896471Y-139092959D01*
X207825102Y-138981075D01*
X207772811Y-138852859D01*
X207764288Y-138823700D01*
X207750391Y-138750383D01*
X207742699Y-138659945D01*
X207741124Y-138559873D01*
X207742075Y-138538057D01*
X208175019Y-138538057D01*
X208176579Y-138641546D01*
X208179346Y-138665237D01*
X208203928Y-138771500D01*
X208244995Y-138858544D01*
X208302806Y-138926689D01*
X208377619Y-138976255D01*
X208451450Y-139003160D01*
X208510759Y-139010201D01*
X208582491Y-139005991D01*
X208656947Y-138991764D01*
X208724430Y-138968756D01*
X208725566Y-138968249D01*
X208810874Y-138916514D01*
X208886856Y-138843603D01*
X208951957Y-138752518D01*
X209004626Y-138646266D01*
X209043309Y-138527849D01*
X209066454Y-138400271D01*
X209072718Y-138296650D01*
X209068444Y-138192841D01*
X209052811Y-138107576D01*
X209024393Y-138036025D01*
X208981767Y-137973356D01*
X208975123Y-137965628D01*
X208922330Y-137913190D01*
X208869279Y-137879001D01*
X208808613Y-137859900D01*
X208732976Y-137852726D01*
X208711611Y-137852428D01*
X208654290Y-137853387D01*
X208612085Y-137858068D01*
X208574758Y-137868656D01*
X208532072Y-137887330D01*
X208519778Y-137893314D01*
X208431115Y-137949874D01*
X208351735Y-138025946D01*
X208289430Y-138112685D01*
X208246045Y-138204100D01*
X208211410Y-138311014D01*
X208187182Y-138425106D01*
X208175019Y-138538057D01*
X207742075Y-138538057D01*
X207745582Y-138457656D01*
X207755986Y-138360780D01*
X207770460Y-138283950D01*
X207813173Y-138148297D01*
X207873493Y-138016589D01*
X207948252Y-137893948D01*
X208034284Y-137785495D01*
X208128422Y-137696352D01*
X208138846Y-137688168D01*
X208221848Y-137632480D01*
X208317484Y-137581530D01*
X208416217Y-137539799D01*
X208508511Y-137511771D01*
X208518955Y-137509489D01*
X208596086Y-137498125D01*
X208686324Y-137492109D01*
X208780814Y-137491432D01*
X208870695Y-137496089D01*
X208870695Y-137496089D01*
G37*
X208870695Y-137496089D02*
X208947112Y-137506070D01*
X208965128Y-137509874D01*
X209091629Y-137552040D01*
X209204316Y-137614824D01*
X209301702Y-137696633D01*
X209382301Y-137795875D01*
X209444624Y-137910960D01*
X209487184Y-138040294D01*
X209494996Y-138076933D01*
X209506585Y-138172637D01*
X209509126Y-138282906D01*
X209502996Y-138398719D01*
X209488569Y-138511052D01*
X209473966Y-138581846D01*
X209424845Y-138734934D01*
X209356736Y-138875779D01*
X209271437Y-139002440D01*
X209170746Y-139112974D01*
X209056462Y-139205439D01*
X208930383Y-139277892D01*
X208794306Y-139328392D01*
X208779116Y-139332444D01*
X208709546Y-139346330D01*
X208627090Y-139356665D01*
X208539946Y-139362974D01*
X208456316Y-139364782D01*
X208384397Y-139361615D01*
X208350802Y-139357225D01*
X208214083Y-139320643D01*
X208092057Y-139263740D01*
X207985821Y-139187512D01*
X207896471Y-139092959D01*
X207825102Y-138981075D01*
X207772811Y-138852859D01*
X207764288Y-138823700D01*
X207750391Y-138750383D01*
X207742699Y-138659945D01*
X207741124Y-138559873D01*
X207742075Y-138538057D01*
X208175019Y-138538057D01*
X208176579Y-138641546D01*
X208179346Y-138665237D01*
X208203928Y-138771500D01*
X208244995Y-138858544D01*
X208302806Y-138926689D01*
X208377619Y-138976255D01*
X208451450Y-139003160D01*
X208510759Y-139010201D01*
X208582491Y-139005991D01*
X208656947Y-138991764D01*
X208724430Y-138968756D01*
X208725566Y-138968249D01*
X208810874Y-138916514D01*
X208886856Y-138843603D01*
X208951957Y-138752518D01*
X209004626Y-138646266D01*
X209043309Y-138527849D01*
X209066454Y-138400271D01*
X209072718Y-138296650D01*
X209068444Y-138192841D01*
X209052811Y-138107576D01*
X209024393Y-138036025D01*
X208981767Y-137973356D01*
X208975123Y-137965628D01*
X208922330Y-137913190D01*
X208869279Y-137879001D01*
X208808613Y-137859900D01*
X208732976Y-137852726D01*
X208711611Y-137852428D01*
X208654290Y-137853387D01*
X208612085Y-137858068D01*
X208574758Y-137868656D01*
X208532072Y-137887330D01*
X208519778Y-137893314D01*
X208431115Y-137949874D01*
X208351735Y-138025946D01*
X208289430Y-138112685D01*
X208246045Y-138204100D01*
X208211410Y-138311014D01*
X208187182Y-138425106D01*
X208175019Y-138538057D01*
X207742075Y-138538057D01*
X207745582Y-138457656D01*
X207755986Y-138360780D01*
X207770460Y-138283950D01*
X207813173Y-138148297D01*
X207873493Y-138016589D01*
X207948252Y-137893948D01*
X208034284Y-137785495D01*
X208128422Y-137696352D01*
X208138846Y-137688168D01*
X208221848Y-137632480D01*
X208317484Y-137581530D01*
X208416217Y-137539799D01*
X208508511Y-137511771D01*
X208518955Y-137509489D01*
X208596086Y-137498125D01*
X208686324Y-137492109D01*
X208780814Y-137491432D01*
X208870695Y-137496089D01*
G36*
X204883316Y-137497736D02*
G01*
X204952763Y-137498914D01*
X205007559Y-137501600D01*
X205053077Y-137506215D01*
X205094687Y-137513179D01*
X205137760Y-137522915D01*
X205147494Y-137525351D01*
X205199133Y-137538995D01*
X205242183Y-137551414D01*
X205270070Y-137560667D01*
X205275915Y-137563276D01*
X205280213Y-137579943D01*
X205277364Y-137619938D01*
X205267537Y-137682264D01*
X205250903Y-137765926D01*
X205227632Y-137869927D01*
X205212991Y-137931606D01*
X205206075Y-137960262D01*
X205141619Y-137927600D01*
X205053486Y-137891714D01*
X204952147Y-137864582D01*
X204849050Y-137848852D01*
X204788643Y-137845987D01*
X204653292Y-137857690D01*
X204529418Y-137891208D01*
X204418564Y-137944980D01*
X204322276Y-138017444D01*
X204242097Y-138107039D01*
X204179573Y-138212201D01*
X204136249Y-138331370D01*
X204113668Y-138462983D01*
X204110644Y-138531600D01*
X204120126Y-138649824D01*
X204149478Y-138752513D01*
X204198522Y-138839391D01*
X204267079Y-138910179D01*
X204354972Y-138964601D01*
X204400150Y-138983445D01*
X204470370Y-139000452D01*
X204556468Y-139007951D01*
X204650861Y-139006162D01*
X204745963Y-138995304D01*
X204834190Y-138975597D01*
X204851000Y-138970399D01*
X204904305Y-138952247D01*
X204952206Y-138934652D01*
X204986652Y-138920613D01*
X204993875Y-138917179D01*
X205009139Y-138909451D01*
X205019594Y-138906443D01*
X205025128Y-138911264D01*
X205025630Y-138927022D01*
X205020990Y-138956822D01*
X205011096Y-139003774D01*
X204995838Y-139070984D01*
X204987012Y-139109450D01*
X204946250Y-139287250D01*
X204863700Y-139314657D01*
X204767346Y-139339595D01*
X204655640Y-139356996D01*
X204537726Y-139366033D01*
X204422748Y-139365878D01*
X204355700Y-139360660D01*
X204212960Y-139333051D01*
X204084126Y-139284963D01*
X203970362Y-139217373D01*
X203872834Y-139131255D01*
X203792707Y-139027585D01*
X203731146Y-138907339D01*
X203698962Y-138811000D01*
X203684338Y-138731544D01*
X203677186Y-138635429D01*
X203677325Y-138530217D01*
X203684573Y-138423468D01*
X203698749Y-138322743D01*
X203712121Y-138262057D01*
X203764921Y-138105619D01*
X203836989Y-137965646D01*
X203928179Y-137842323D01*
X204038343Y-137735832D01*
X204167334Y-137646356D01*
X204235050Y-137609922D01*
X204313284Y-137573212D01*
X204383836Y-137545299D01*
X204452406Y-137525038D01*
X204524694Y-137511284D01*
X204606399Y-137502892D01*
X204703223Y-137498716D01*
X204793850Y-137497647D01*
X204883316Y-137497736D01*
X204883316Y-137497736D01*
G37*
X204883316Y-137497736D02*
X204952763Y-137498914D01*
X205007559Y-137501600D01*
X205053077Y-137506215D01*
X205094687Y-137513179D01*
X205137760Y-137522915D01*
X205147494Y-137525351D01*
X205199133Y-137538995D01*
X205242183Y-137551414D01*
X205270070Y-137560667D01*
X205275915Y-137563276D01*
X205280213Y-137579943D01*
X205277364Y-137619938D01*
X205267537Y-137682264D01*
X205250903Y-137765926D01*
X205227632Y-137869927D01*
X205212991Y-137931606D01*
X205206075Y-137960262D01*
X205141619Y-137927600D01*
X205053486Y-137891714D01*
X204952147Y-137864582D01*
X204849050Y-137848852D01*
X204788643Y-137845987D01*
X204653292Y-137857690D01*
X204529418Y-137891208D01*
X204418564Y-137944980D01*
X204322276Y-138017444D01*
X204242097Y-138107039D01*
X204179573Y-138212201D01*
X204136249Y-138331370D01*
X204113668Y-138462983D01*
X204110644Y-138531600D01*
X204120126Y-138649824D01*
X204149478Y-138752513D01*
X204198522Y-138839391D01*
X204267079Y-138910179D01*
X204354972Y-138964601D01*
X204400150Y-138983445D01*
X204470370Y-139000452D01*
X204556468Y-139007951D01*
X204650861Y-139006162D01*
X204745963Y-138995304D01*
X204834190Y-138975597D01*
X204851000Y-138970399D01*
X204904305Y-138952247D01*
X204952206Y-138934652D01*
X204986652Y-138920613D01*
X204993875Y-138917179D01*
X205009139Y-138909451D01*
X205019594Y-138906443D01*
X205025128Y-138911264D01*
X205025630Y-138927022D01*
X205020990Y-138956822D01*
X205011096Y-139003774D01*
X204995838Y-139070984D01*
X204987012Y-139109450D01*
X204946250Y-139287250D01*
X204863700Y-139314657D01*
X204767346Y-139339595D01*
X204655640Y-139356996D01*
X204537726Y-139366033D01*
X204422748Y-139365878D01*
X204355700Y-139360660D01*
X204212960Y-139333051D01*
X204084126Y-139284963D01*
X203970362Y-139217373D01*
X203872834Y-139131255D01*
X203792707Y-139027585D01*
X203731146Y-138907339D01*
X203698962Y-138811000D01*
X203684338Y-138731544D01*
X203677186Y-138635429D01*
X203677325Y-138530217D01*
X203684573Y-138423468D01*
X203698749Y-138322743D01*
X203712121Y-138262057D01*
X203764921Y-138105619D01*
X203836989Y-137965646D01*
X203928179Y-137842323D01*
X204038343Y-137735832D01*
X204167334Y-137646356D01*
X204235050Y-137609922D01*
X204313284Y-137573212D01*
X204383836Y-137545299D01*
X204452406Y-137525038D01*
X204524694Y-137511284D01*
X204606399Y-137502892D01*
X204703223Y-137498716D01*
X204793850Y-137497647D01*
X204883316Y-137497736D01*
G36*
X196805627Y-137495236D02*
G01*
X196882863Y-137503992D01*
X196912828Y-137509874D01*
X197034444Y-137550623D01*
X197145704Y-137611873D01*
X197243261Y-137690999D01*
X197323771Y-137785373D01*
X197374872Y-137872611D01*
X197422364Y-137999726D01*
X197450244Y-138138873D01*
X197458667Y-138286133D01*
X197447787Y-138437584D01*
X197417757Y-138589306D01*
X197368732Y-138737379D01*
X197338214Y-138806598D01*
X197259326Y-138944668D01*
X197164081Y-139065691D01*
X197054283Y-139168144D01*
X196931741Y-139250503D01*
X196798259Y-139311244D01*
X196708161Y-139338012D01*
X196628323Y-139352169D01*
X196535307Y-139360951D01*
X196438503Y-139364062D01*
X196347301Y-139361205D01*
X196271091Y-139352082D01*
X196270014Y-139351878D01*
X196141987Y-139315011D01*
X196025896Y-139256547D01*
X195923520Y-139178168D01*
X195836639Y-139081556D01*
X195767030Y-138968394D01*
X195716473Y-138840366D01*
X195711664Y-138823700D01*
X195696907Y-138746598D01*
X195689230Y-138652501D01*
X195688536Y-138557000D01*
X196122803Y-138557000D01*
X196129758Y-138677968D01*
X196154188Y-138780729D01*
X196196236Y-138865646D01*
X196256047Y-138933080D01*
X196279768Y-138951603D01*
X196353341Y-138989126D01*
X196438529Y-139007662D01*
X196529897Y-139007053D01*
X196622014Y-138987140D01*
X196680728Y-138963275D01*
X196749473Y-138919749D01*
X196817530Y-138859867D01*
X196876868Y-138791590D01*
X196915851Y-138730191D01*
X196953808Y-138642223D01*
X196986581Y-138540333D01*
X197010669Y-138435942D01*
X197016115Y-138402893D01*
X197024959Y-138281460D01*
X197015118Y-138170262D01*
X196987155Y-138071941D01*
X196941638Y-137989140D01*
X196922518Y-137965281D01*
X196869804Y-137912975D01*
X196816729Y-137878875D01*
X196755956Y-137859836D01*
X196680150Y-137852713D01*
X196659311Y-137852428D01*
X196602062Y-137853378D01*
X196559898Y-137858048D01*
X196522548Y-137868638D01*
X196479743Y-137887351D01*
X196466631Y-137893731D01*
X196376018Y-137952109D01*
X196297051Y-138031064D01*
X196231105Y-138127941D01*
X196179557Y-138240086D01*
X196143784Y-138364843D01*
X196125161Y-138499557D01*
X196122803Y-138557000D01*
X195688536Y-138557000D01*
X195688476Y-138548759D01*
X195694487Y-138442724D01*
X195707105Y-138341745D01*
X195723725Y-138262233D01*
X195759992Y-138151274D01*
X195809873Y-138037445D01*
X195868681Y-137930329D01*
X195928548Y-137843514D01*
X196014516Y-137751315D01*
X196118312Y-137667572D01*
X196233481Y-137596324D01*
X196353569Y-137541608D01*
X196462650Y-137509383D01*
X196536111Y-137498451D01*
X196623557Y-137492456D01*
X196716294Y-137491388D01*
X196805627Y-137495236D01*
X196805627Y-137495236D01*
G37*
X196805627Y-137495236D02*
X196882863Y-137503992D01*
X196912828Y-137509874D01*
X197034444Y-137550623D01*
X197145704Y-137611873D01*
X197243261Y-137690999D01*
X197323771Y-137785373D01*
X197374872Y-137872611D01*
X197422364Y-137999726D01*
X197450244Y-138138873D01*
X197458667Y-138286133D01*
X197447787Y-138437584D01*
X197417757Y-138589306D01*
X197368732Y-138737379D01*
X197338214Y-138806598D01*
X197259326Y-138944668D01*
X197164081Y-139065691D01*
X197054283Y-139168144D01*
X196931741Y-139250503D01*
X196798259Y-139311244D01*
X196708161Y-139338012D01*
X196628323Y-139352169D01*
X196535307Y-139360951D01*
X196438503Y-139364062D01*
X196347301Y-139361205D01*
X196271091Y-139352082D01*
X196270014Y-139351878D01*
X196141987Y-139315011D01*
X196025896Y-139256547D01*
X195923520Y-139178168D01*
X195836639Y-139081556D01*
X195767030Y-138968394D01*
X195716473Y-138840366D01*
X195711664Y-138823700D01*
X195696907Y-138746598D01*
X195689230Y-138652501D01*
X195688536Y-138557000D01*
X196122803Y-138557000D01*
X196129758Y-138677968D01*
X196154188Y-138780729D01*
X196196236Y-138865646D01*
X196256047Y-138933080D01*
X196279768Y-138951603D01*
X196353341Y-138989126D01*
X196438529Y-139007662D01*
X196529897Y-139007053D01*
X196622014Y-138987140D01*
X196680728Y-138963275D01*
X196749473Y-138919749D01*
X196817530Y-138859867D01*
X196876868Y-138791590D01*
X196915851Y-138730191D01*
X196953808Y-138642223D01*
X196986581Y-138540333D01*
X197010669Y-138435942D01*
X197016115Y-138402893D01*
X197024959Y-138281460D01*
X197015118Y-138170262D01*
X196987155Y-138071941D01*
X196941638Y-137989140D01*
X196922518Y-137965281D01*
X196869804Y-137912975D01*
X196816729Y-137878875D01*
X196755956Y-137859836D01*
X196680150Y-137852713D01*
X196659311Y-137852428D01*
X196602062Y-137853378D01*
X196559898Y-137858048D01*
X196522548Y-137868638D01*
X196479743Y-137887351D01*
X196466631Y-137893731D01*
X196376018Y-137952109D01*
X196297051Y-138031064D01*
X196231105Y-138127941D01*
X196179557Y-138240086D01*
X196143784Y-138364843D01*
X196125161Y-138499557D01*
X196122803Y-138557000D01*
X195688536Y-138557000D01*
X195688476Y-138548759D01*
X195694487Y-138442724D01*
X195707105Y-138341745D01*
X195723725Y-138262233D01*
X195759992Y-138151274D01*
X195809873Y-138037445D01*
X195868681Y-137930329D01*
X195928548Y-137843514D01*
X196014516Y-137751315D01*
X196118312Y-137667572D01*
X196233481Y-137596324D01*
X196353569Y-137541608D01*
X196462650Y-137509383D01*
X196536111Y-137498451D01*
X196623557Y-137492456D01*
X196716294Y-137491388D01*
X196805627Y-137495236D01*
G36*
X205390816Y-97453471D02*
G01*
X205505889Y-97466505D01*
X205744521Y-97509192D01*
X205942140Y-97570463D01*
X206092038Y-97647477D01*
X206187506Y-97737391D01*
X206202028Y-97761446D01*
X206229692Y-97852869D01*
X206247270Y-97988039D01*
X206254735Y-98148007D01*
X206252059Y-98313823D01*
X206239216Y-98466537D01*
X206216177Y-98587198D01*
X206203267Y-98624192D01*
X206107854Y-98774400D01*
X205958783Y-98919103D01*
X205765868Y-99050890D01*
X205538923Y-99162354D01*
X205441460Y-99199363D01*
X205414379Y-99216251D01*
X205426282Y-99241876D01*
X205483915Y-99285154D01*
X205527845Y-99313577D01*
X205635165Y-99397299D01*
X205691779Y-99488991D01*
X205705451Y-99606785D01*
X205695221Y-99704436D01*
X205632412Y-99915369D01*
X205513333Y-100126384D01*
X205344938Y-100331630D01*
X205134179Y-100525261D01*
X204888011Y-100701428D01*
X204613386Y-100854281D01*
X204317258Y-100977974D01*
X204103266Y-101043459D01*
X203962512Y-101068359D01*
X203783012Y-101083386D01*
X203585534Y-101088470D01*
X203390848Y-101083541D01*
X203219720Y-101068528D01*
X203104750Y-101046823D01*
X202883272Y-100968609D01*
X202712118Y-100866717D01*
X202586678Y-100734446D01*
X202502340Y-100565094D01*
X202454495Y-100351957D01*
X202438533Y-100088333D01*
X202438495Y-100078222D01*
X202438000Y-99842320D01*
X202550457Y-99973701D01*
X202707452Y-100112950D01*
X202909811Y-100224574D01*
X203143734Y-100304012D01*
X203395421Y-100346703D01*
X203651072Y-100348086D01*
X203676250Y-100345784D01*
X204018113Y-100297331D01*
X204339085Y-100224514D01*
X204630842Y-100130500D01*
X204885059Y-100018457D01*
X205093411Y-99891552D01*
X205247575Y-99752953D01*
X205253966Y-99745469D01*
X205335543Y-99648522D01*
X205180584Y-99580734D01*
X204937890Y-99497365D01*
X204671338Y-99452016D01*
X204424699Y-99441000D01*
X204266127Y-99435773D01*
X204165091Y-99420356D01*
X204127950Y-99401312D01*
X204103789Y-99353071D01*
X204069492Y-99261856D01*
X204031819Y-99145905D01*
X204025663Y-99125376D01*
X203991322Y-99005778D01*
X203975134Y-98931939D01*
X203976365Y-98888992D01*
X203994282Y-98862069D01*
X204011991Y-98847968D01*
X204081744Y-98815068D01*
X204174932Y-98790904D01*
X204181828Y-98789814D01*
X204609654Y-98719810D01*
X204975834Y-98646938D01*
X205282178Y-98570711D01*
X205530494Y-98490644D01*
X205722593Y-98406249D01*
X205815392Y-98350758D01*
X205906659Y-98288043D01*
X205825309Y-98245419D01*
X205723704Y-98211374D01*
X205574383Y-98186170D01*
X205392673Y-98171028D01*
X205193900Y-98167172D01*
X204993388Y-98175822D01*
X204973046Y-98177489D01*
X204765495Y-98203615D01*
X204526391Y-98246856D01*
X204279330Y-98301940D01*
X204047909Y-98363596D01*
X203855724Y-98426551D01*
X203852000Y-98427954D01*
X203759704Y-98457324D01*
X203692296Y-98468596D01*
X203671370Y-98464225D01*
X203647388Y-98420914D01*
X203610791Y-98334182D01*
X203567743Y-98221266D01*
X203524408Y-98099405D01*
X203486951Y-97985837D01*
X203461535Y-97897799D01*
X203454000Y-97856338D01*
X203469002Y-97823569D01*
X203520194Y-97790572D01*
X203616851Y-97752664D01*
X203731812Y-97716056D01*
X203965443Y-97647284D01*
X204160148Y-97595078D01*
X204336866Y-97554826D01*
X204516537Y-97521919D01*
X204720098Y-97491743D01*
X204796994Y-97481480D01*
X204985905Y-97458693D01*
X205133637Y-97446729D01*
X205261503Y-97445138D01*
X205390816Y-97453471D01*
X205390816Y-97453471D01*
G37*
X205390816Y-97453471D02*
X205505889Y-97466505D01*
X205744521Y-97509192D01*
X205942140Y-97570463D01*
X206092038Y-97647477D01*
X206187506Y-97737391D01*
X206202028Y-97761446D01*
X206229692Y-97852869D01*
X206247270Y-97988039D01*
X206254735Y-98148007D01*
X206252059Y-98313823D01*
X206239216Y-98466537D01*
X206216177Y-98587198D01*
X206203267Y-98624192D01*
X206107854Y-98774400D01*
X205958783Y-98919103D01*
X205765868Y-99050890D01*
X205538923Y-99162354D01*
X205441460Y-99199363D01*
X205414379Y-99216251D01*
X205426282Y-99241876D01*
X205483915Y-99285154D01*
X205527845Y-99313577D01*
X205635165Y-99397299D01*
X205691779Y-99488991D01*
X205705451Y-99606785D01*
X205695221Y-99704436D01*
X205632412Y-99915369D01*
X205513333Y-100126384D01*
X205344938Y-100331630D01*
X205134179Y-100525261D01*
X204888011Y-100701428D01*
X204613386Y-100854281D01*
X204317258Y-100977974D01*
X204103266Y-101043459D01*
X203962512Y-101068359D01*
X203783012Y-101083386D01*
X203585534Y-101088470D01*
X203390848Y-101083541D01*
X203219720Y-101068528D01*
X203104750Y-101046823D01*
X202883272Y-100968609D01*
X202712118Y-100866717D01*
X202586678Y-100734446D01*
X202502340Y-100565094D01*
X202454495Y-100351957D01*
X202438533Y-100088333D01*
X202438495Y-100078222D01*
X202438000Y-99842320D01*
X202550457Y-99973701D01*
X202707452Y-100112950D01*
X202909811Y-100224574D01*
X203143734Y-100304012D01*
X203395421Y-100346703D01*
X203651072Y-100348086D01*
X203676250Y-100345784D01*
X204018113Y-100297331D01*
X204339085Y-100224514D01*
X204630842Y-100130500D01*
X204885059Y-100018457D01*
X205093411Y-99891552D01*
X205247575Y-99752953D01*
X205253966Y-99745469D01*
X205335543Y-99648522D01*
X205180584Y-99580734D01*
X204937890Y-99497365D01*
X204671338Y-99452016D01*
X204424699Y-99441000D01*
X204266127Y-99435773D01*
X204165091Y-99420356D01*
X204127950Y-99401312D01*
X204103789Y-99353071D01*
X204069492Y-99261856D01*
X204031819Y-99145905D01*
X204025663Y-99125376D01*
X203991322Y-99005778D01*
X203975134Y-98931939D01*
X203976365Y-98888992D01*
X203994282Y-98862069D01*
X204011991Y-98847968D01*
X204081744Y-98815068D01*
X204174932Y-98790904D01*
X204181828Y-98789814D01*
X204609654Y-98719810D01*
X204975834Y-98646938D01*
X205282178Y-98570711D01*
X205530494Y-98490644D01*
X205722593Y-98406249D01*
X205815392Y-98350758D01*
X205906659Y-98288043D01*
X205825309Y-98245419D01*
X205723704Y-98211374D01*
X205574383Y-98186170D01*
X205392673Y-98171028D01*
X205193900Y-98167172D01*
X204993388Y-98175822D01*
X204973046Y-98177489D01*
X204765495Y-98203615D01*
X204526391Y-98246856D01*
X204279330Y-98301940D01*
X204047909Y-98363596D01*
X203855724Y-98426551D01*
X203852000Y-98427954D01*
X203759704Y-98457324D01*
X203692296Y-98468596D01*
X203671370Y-98464225D01*
X203647388Y-98420914D01*
X203610791Y-98334182D01*
X203567743Y-98221266D01*
X203524408Y-98099405D01*
X203486951Y-97985837D01*
X203461535Y-97897799D01*
X203454000Y-97856338D01*
X203469002Y-97823569D01*
X203520194Y-97790572D01*
X203616851Y-97752664D01*
X203731812Y-97716056D01*
X203965443Y-97647284D01*
X204160148Y-97595078D01*
X204336866Y-97554826D01*
X204516537Y-97521919D01*
X204720098Y-97491743D01*
X204796994Y-97481480D01*
X204985905Y-97458693D01*
X205133637Y-97446729D01*
X205261503Y-97445138D01*
X205390816Y-97453471D01*
G36*
X199779926Y-97495883D02*
G01*
X200084954Y-97517581D01*
X200345707Y-97556421D01*
X200571058Y-97614164D01*
X200769881Y-97692570D01*
X200950223Y-97792870D01*
X201083193Y-97891610D01*
X201168776Y-97994214D01*
X201214609Y-98116749D01*
X201228324Y-98275278D01*
X201225566Y-98372267D01*
X201210592Y-98538822D01*
X201183193Y-98662292D01*
X201140125Y-98760566D01*
X201044570Y-98887053D01*
X200898588Y-99024033D01*
X200712768Y-99164414D01*
X200497700Y-99301102D01*
X200263973Y-99427003D01*
X200022177Y-99535025D01*
X199933574Y-99568757D01*
X199677239Y-99652582D01*
X199425939Y-99714334D01*
X199156693Y-99758737D01*
X198860130Y-99789417D01*
X198660372Y-99802457D01*
X198514338Y-99802556D01*
X198413131Y-99787328D01*
X198347856Y-99754381D01*
X198309620Y-99701328D01*
X198291370Y-99636650D01*
X198281166Y-99574013D01*
X198272105Y-99527675D01*
X198258924Y-99501475D01*
X198236360Y-99499253D01*
X198199150Y-99524848D01*
X198142032Y-99582098D01*
X198059741Y-99674842D01*
X197947016Y-99806920D01*
X197798593Y-99982169D01*
X197767578Y-100018716D01*
X197550058Y-100279025D01*
X197368958Y-100504590D01*
X197225868Y-100693235D01*
X197122378Y-100842783D01*
X197060081Y-100951059D01*
X197040500Y-101013518D01*
X197030485Y-101072772D01*
X197011562Y-101092000D01*
X196978613Y-101070011D01*
X196914776Y-101011151D01*
X196831274Y-100926076D01*
X196788558Y-100880210D01*
X196676236Y-100752163D01*
X196607170Y-100654723D01*
X196577838Y-100575550D01*
X196584722Y-100502306D01*
X196624301Y-100422651D01*
X196647887Y-100387113D01*
X196689446Y-100331126D01*
X196765323Y-100232961D01*
X196869818Y-100099743D01*
X196997229Y-99938596D01*
X197141855Y-99756643D01*
X197297994Y-99561010D01*
X197459945Y-99358820D01*
X197600451Y-99184015D01*
X198504064Y-99184015D01*
X198505948Y-99186910D01*
X198555125Y-99183412D01*
X198650409Y-99174136D01*
X198774846Y-99160776D01*
X198834375Y-99154052D01*
X199296506Y-99084880D01*
X199720245Y-98985519D01*
X200125771Y-98850299D01*
X200517125Y-98681276D01*
X200711278Y-98584811D01*
X200848539Y-98507150D01*
X200931923Y-98446048D01*
X200964448Y-98399257D01*
X200949131Y-98364531D01*
X200945750Y-98362085D01*
X200884444Y-98333513D01*
X200777553Y-98296111D01*
X200641485Y-98254796D01*
X200492649Y-98214485D01*
X200347453Y-98180095D01*
X200317124Y-98173709D01*
X200208075Y-98157485D01*
X200071824Y-98146153D01*
X199920763Y-98139615D01*
X199767283Y-98137773D01*
X199623775Y-98140528D01*
X199502630Y-98147782D01*
X199416240Y-98159436D01*
X199376995Y-98175393D01*
X199376330Y-98181174D01*
X199360088Y-98216624D01*
X199304047Y-98290607D01*
X199213501Y-98396943D01*
X199093738Y-98529453D01*
X198950051Y-98681955D01*
X198927845Y-98705049D01*
X198792681Y-98847243D01*
X198676973Y-98972802D01*
X198586468Y-99075161D01*
X198526915Y-99147754D01*
X198504064Y-99184015D01*
X197600451Y-99184015D01*
X197622007Y-99157197D01*
X197778477Y-98963265D01*
X197923656Y-98784149D01*
X198051841Y-98626972D01*
X198157331Y-98498859D01*
X198200321Y-98447286D01*
X198285011Y-98345189D01*
X198332259Y-98282994D01*
X198345907Y-98252355D01*
X198329799Y-98244928D01*
X198290359Y-98251788D01*
X198106939Y-98296473D01*
X197943882Y-98343144D01*
X197813408Y-98387839D01*
X197727741Y-98426595D01*
X197707347Y-98440786D01*
X197671671Y-98466225D01*
X197643940Y-98456704D01*
X197611175Y-98402865D01*
X197588095Y-98354794D01*
X197529180Y-98218084D01*
X197477770Y-98079002D01*
X197440038Y-97956074D01*
X197422156Y-97867821D01*
X197421500Y-97854852D01*
X197427761Y-97824413D01*
X197452099Y-97797760D01*
X197502840Y-97771752D01*
X197588313Y-97743248D01*
X197716846Y-97709109D01*
X197896767Y-97666193D01*
X197961250Y-97651311D01*
X198241243Y-97590767D01*
X198489291Y-97546771D01*
X198726356Y-97517003D01*
X198973395Y-97499142D01*
X199251369Y-97490866D01*
X199421750Y-97489565D01*
X199779926Y-97495883D01*
X199779926Y-97495883D01*
G37*
X199779926Y-97495883D02*
X200084954Y-97517581D01*
X200345707Y-97556421D01*
X200571058Y-97614164D01*
X200769881Y-97692570D01*
X200950223Y-97792870D01*
X201083193Y-97891610D01*
X201168776Y-97994214D01*
X201214609Y-98116749D01*
X201228324Y-98275278D01*
X201225566Y-98372267D01*
X201210592Y-98538822D01*
X201183193Y-98662292D01*
X201140125Y-98760566D01*
X201044570Y-98887053D01*
X200898588Y-99024033D01*
X200712768Y-99164414D01*
X200497700Y-99301102D01*
X200263973Y-99427003D01*
X200022177Y-99535025D01*
X199933574Y-99568757D01*
X199677239Y-99652582D01*
X199425939Y-99714334D01*
X199156693Y-99758737D01*
X198860130Y-99789417D01*
X198660372Y-99802457D01*
X198514338Y-99802556D01*
X198413131Y-99787328D01*
X198347856Y-99754381D01*
X198309620Y-99701328D01*
X198291370Y-99636650D01*
X198281166Y-99574013D01*
X198272105Y-99527675D01*
X198258924Y-99501475D01*
X198236360Y-99499253D01*
X198199150Y-99524848D01*
X198142032Y-99582098D01*
X198059741Y-99674842D01*
X197947016Y-99806920D01*
X197798593Y-99982169D01*
X197767578Y-100018716D01*
X197550058Y-100279025D01*
X197368958Y-100504590D01*
X197225868Y-100693235D01*
X197122378Y-100842783D01*
X197060081Y-100951059D01*
X197040500Y-101013518D01*
X197030485Y-101072772D01*
X197011562Y-101092000D01*
X196978613Y-101070011D01*
X196914776Y-101011151D01*
X196831274Y-100926076D01*
X196788558Y-100880210D01*
X196676236Y-100752163D01*
X196607170Y-100654723D01*
X196577838Y-100575550D01*
X196584722Y-100502306D01*
X196624301Y-100422651D01*
X196647887Y-100387113D01*
X196689446Y-100331126D01*
X196765323Y-100232961D01*
X196869818Y-100099743D01*
X196997229Y-99938596D01*
X197141855Y-99756643D01*
X197297994Y-99561010D01*
X197459945Y-99358820D01*
X197600451Y-99184015D01*
X198504064Y-99184015D01*
X198505948Y-99186910D01*
X198555125Y-99183412D01*
X198650409Y-99174136D01*
X198774846Y-99160776D01*
X198834375Y-99154052D01*
X199296506Y-99084880D01*
X199720245Y-98985519D01*
X200125771Y-98850299D01*
X200517125Y-98681276D01*
X200711278Y-98584811D01*
X200848539Y-98507150D01*
X200931923Y-98446048D01*
X200964448Y-98399257D01*
X200949131Y-98364531D01*
X200945750Y-98362085D01*
X200884444Y-98333513D01*
X200777553Y-98296111D01*
X200641485Y-98254796D01*
X200492649Y-98214485D01*
X200347453Y-98180095D01*
X200317124Y-98173709D01*
X200208075Y-98157485D01*
X200071824Y-98146153D01*
X199920763Y-98139615D01*
X199767283Y-98137773D01*
X199623775Y-98140528D01*
X199502630Y-98147782D01*
X199416240Y-98159436D01*
X199376995Y-98175393D01*
X199376330Y-98181174D01*
X199360088Y-98216624D01*
X199304047Y-98290607D01*
X199213501Y-98396943D01*
X199093738Y-98529453D01*
X198950051Y-98681955D01*
X198927845Y-98705049D01*
X198792681Y-98847243D01*
X198676973Y-98972802D01*
X198586468Y-99075161D01*
X198526915Y-99147754D01*
X198504064Y-99184015D01*
X197600451Y-99184015D01*
X197622007Y-99157197D01*
X197778477Y-98963265D01*
X197923656Y-98784149D01*
X198051841Y-98626972D01*
X198157331Y-98498859D01*
X198200321Y-98447286D01*
X198285011Y-98345189D01*
X198332259Y-98282994D01*
X198345907Y-98252355D01*
X198329799Y-98244928D01*
X198290359Y-98251788D01*
X198106939Y-98296473D01*
X197943882Y-98343144D01*
X197813408Y-98387839D01*
X197727741Y-98426595D01*
X197707347Y-98440786D01*
X197671671Y-98466225D01*
X197643940Y-98456704D01*
X197611175Y-98402865D01*
X197588095Y-98354794D01*
X197529180Y-98218084D01*
X197477770Y-98079002D01*
X197440038Y-97956074D01*
X197422156Y-97867821D01*
X197421500Y-97854852D01*
X197427761Y-97824413D01*
X197452099Y-97797760D01*
X197502840Y-97771752D01*
X197588313Y-97743248D01*
X197716846Y-97709109D01*
X197896767Y-97666193D01*
X197961250Y-97651311D01*
X198241243Y-97590767D01*
X198489291Y-97546771D01*
X198726356Y-97517003D01*
X198973395Y-97499142D01*
X199251369Y-97490866D01*
X199421750Y-97489565D01*
X199779926Y-97495883D01*
G36*
X196758600Y-97382622D02*
G01*
X196823984Y-97407554D01*
X196887733Y-97465267D01*
X196921585Y-97503755D01*
X197002701Y-97609869D01*
X197084519Y-97734215D01*
X197116541Y-97789505D01*
X197164015Y-97879147D01*
X197182288Y-97926683D01*
X197173135Y-97945441D01*
X197138328Y-97948749D01*
X197137731Y-97948750D01*
X197084997Y-97955540D01*
X197072250Y-97965354D01*
X197087195Y-97998262D01*
X197127328Y-98072952D01*
X197185590Y-98176501D01*
X197223062Y-98241515D01*
X197373875Y-98501071D01*
X197373875Y-98805015D01*
X197372023Y-98953627D01*
X197363482Y-99060826D01*
X197343775Y-99148661D01*
X197308423Y-99239180D01*
X197268794Y-99322408D01*
X197089575Y-99630197D01*
X196859771Y-99936215D01*
X196591396Y-100228034D01*
X196296464Y-100493230D01*
X195986989Y-100719374D01*
X195822228Y-100818566D01*
X195604537Y-100920084D01*
X195362803Y-100999949D01*
X195112221Y-101055632D01*
X194867988Y-101084604D01*
X194645300Y-101084335D01*
X194459353Y-101052296D01*
X194445052Y-101047805D01*
X194249097Y-100959448D01*
X194057823Y-100831219D01*
X193898884Y-100682054D01*
X193882432Y-100662591D01*
X193733305Y-100438815D01*
X194185108Y-100438815D01*
X194193755Y-100501454D01*
X194221925Y-100541953D01*
X194250056Y-100563867D01*
X194335767Y-100596575D01*
X194463644Y-100613054D01*
X194614420Y-100613146D01*
X194768828Y-100596690D01*
X194889841Y-100569178D01*
X195120037Y-100479611D01*
X195373273Y-100346911D01*
X195636287Y-100180043D01*
X195895814Y-99987972D01*
X196138590Y-99779662D01*
X196310049Y-99609265D01*
X196498070Y-99393956D01*
X196660192Y-99180388D01*
X196792471Y-98975728D01*
X196890962Y-98787142D01*
X196951724Y-98621795D01*
X196970811Y-98486854D01*
X196961351Y-98425713D01*
X196940276Y-98388688D01*
X196896244Y-98369205D01*
X196812787Y-98362068D01*
X196757854Y-98361499D01*
X196588839Y-98376173D01*
X196399556Y-98422070D01*
X196181437Y-98502010D01*
X195925914Y-98618810D01*
X195831372Y-98666205D01*
X195654324Y-98754068D01*
X195528584Y-98809767D01*
X195450885Y-98833601D01*
X195417959Y-98825866D01*
X195426539Y-98786861D01*
X195473358Y-98716884D01*
X195488369Y-98697484D01*
X195529993Y-98637170D01*
X195543847Y-98601432D01*
X195542866Y-98599532D01*
X195510459Y-98609143D01*
X195440805Y-98654160D01*
X195343368Y-98726972D01*
X195227612Y-98819969D01*
X195102999Y-98925542D01*
X194978994Y-99036079D01*
X194865061Y-99143971D01*
X194861561Y-99147418D01*
X194602479Y-99431719D01*
X194405586Y-99711850D01*
X194271195Y-99987259D01*
X194199619Y-100257392D01*
X194190737Y-100333679D01*
X194185108Y-100438815D01*
X193733305Y-100438815D01*
X193727153Y-100429585D01*
X193634476Y-100185976D01*
X193604398Y-99931783D01*
X193636916Y-99667029D01*
X193732027Y-99391734D01*
X193889729Y-99105917D01*
X194110017Y-98809601D01*
X194154048Y-98757772D01*
X194486586Y-98418706D01*
X194866564Y-98112540D01*
X195283177Y-97846878D01*
X195725620Y-97629323D01*
X195802250Y-97597821D01*
X195979920Y-97533237D01*
X196170862Y-97474483D01*
X196357740Y-97425991D01*
X196523223Y-97392194D01*
X196649975Y-97377526D01*
X196664740Y-97377249D01*
X196758600Y-97382622D01*
X196758600Y-97382622D01*
G37*
X196758600Y-97382622D02*
X196823984Y-97407554D01*
X196887733Y-97465267D01*
X196921585Y-97503755D01*
X197002701Y-97609869D01*
X197084519Y-97734215D01*
X197116541Y-97789505D01*
X197164015Y-97879147D01*
X197182288Y-97926683D01*
X197173135Y-97945441D01*
X197138328Y-97948749D01*
X197137731Y-97948750D01*
X197084997Y-97955540D01*
X197072250Y-97965354D01*
X197087195Y-97998262D01*
X197127328Y-98072952D01*
X197185590Y-98176501D01*
X197223062Y-98241515D01*
X197373875Y-98501071D01*
X197373875Y-98805015D01*
X197372023Y-98953627D01*
X197363482Y-99060826D01*
X197343775Y-99148661D01*
X197308423Y-99239180D01*
X197268794Y-99322408D01*
X197089575Y-99630197D01*
X196859771Y-99936215D01*
X196591396Y-100228034D01*
X196296464Y-100493230D01*
X195986989Y-100719374D01*
X195822228Y-100818566D01*
X195604537Y-100920084D01*
X195362803Y-100999949D01*
X195112221Y-101055632D01*
X194867988Y-101084604D01*
X194645300Y-101084335D01*
X194459353Y-101052296D01*
X194445052Y-101047805D01*
X194249097Y-100959448D01*
X194057823Y-100831219D01*
X193898884Y-100682054D01*
X193882432Y-100662591D01*
X193733305Y-100438815D01*
X194185108Y-100438815D01*
X194193755Y-100501454D01*
X194221925Y-100541953D01*
X194250056Y-100563867D01*
X194335767Y-100596575D01*
X194463644Y-100613054D01*
X194614420Y-100613146D01*
X194768828Y-100596690D01*
X194889841Y-100569178D01*
X195120037Y-100479611D01*
X195373273Y-100346911D01*
X195636287Y-100180043D01*
X195895814Y-99987972D01*
X196138590Y-99779662D01*
X196310049Y-99609265D01*
X196498070Y-99393956D01*
X196660192Y-99180388D01*
X196792471Y-98975728D01*
X196890962Y-98787142D01*
X196951724Y-98621795D01*
X196970811Y-98486854D01*
X196961351Y-98425713D01*
X196940276Y-98388688D01*
X196896244Y-98369205D01*
X196812787Y-98362068D01*
X196757854Y-98361499D01*
X196588839Y-98376173D01*
X196399556Y-98422070D01*
X196181437Y-98502010D01*
X195925914Y-98618810D01*
X195831372Y-98666205D01*
X195654324Y-98754068D01*
X195528584Y-98809767D01*
X195450885Y-98833601D01*
X195417959Y-98825866D01*
X195426539Y-98786861D01*
X195473358Y-98716884D01*
X195488369Y-98697484D01*
X195529993Y-98637170D01*
X195543847Y-98601432D01*
X195542866Y-98599532D01*
X195510459Y-98609143D01*
X195440805Y-98654160D01*
X195343368Y-98726972D01*
X195227612Y-98819969D01*
X195102999Y-98925542D01*
X194978994Y-99036079D01*
X194865061Y-99143971D01*
X194861561Y-99147418D01*
X194602479Y-99431719D01*
X194405586Y-99711850D01*
X194271195Y-99987259D01*
X194199619Y-100257392D01*
X194190737Y-100333679D01*
X194185108Y-100438815D01*
X193733305Y-100438815D01*
X193727153Y-100429585D01*
X193634476Y-100185976D01*
X193604398Y-99931783D01*
X193636916Y-99667029D01*
X193732027Y-99391734D01*
X193889729Y-99105917D01*
X194110017Y-98809601D01*
X194154048Y-98757772D01*
X194486586Y-98418706D01*
X194866564Y-98112540D01*
X195283177Y-97846878D01*
X195725620Y-97629323D01*
X195802250Y-97597821D01*
X195979920Y-97533237D01*
X196170862Y-97474483D01*
X196357740Y-97425991D01*
X196523223Y-97392194D01*
X196649975Y-97377526D01*
X196664740Y-97377249D01*
X196758600Y-97382622D01*
G36*
X202424321Y-97492749D02*
G01*
X202506955Y-97536437D01*
X202611308Y-97602457D01*
X202662875Y-97638286D01*
X202787676Y-97731198D01*
X202867176Y-97806634D01*
X202901551Y-97876081D01*
X202890979Y-97951026D01*
X202835637Y-98042957D01*
X202735702Y-98163362D01*
X202672076Y-98234500D01*
X202488223Y-98439370D01*
X202294749Y-98657026D01*
X202095987Y-98882419D01*
X201896268Y-99110500D01*
X201699925Y-99336219D01*
X201511291Y-99554528D01*
X201334698Y-99760377D01*
X201174478Y-99948718D01*
X201034965Y-100114500D01*
X200920491Y-100252675D01*
X200835387Y-100358193D01*
X200783988Y-100426005D01*
X200770290Y-100450873D01*
X200805538Y-100450320D01*
X200875711Y-100432680D01*
X200888060Y-100428737D01*
X201026682Y-100389839D01*
X201206926Y-100348579D01*
X201407250Y-100309089D01*
X201606109Y-100275506D01*
X201781960Y-100251963D01*
X201836960Y-100246618D01*
X202014266Y-100237846D01*
X202141733Y-100251226D01*
X202231408Y-100294705D01*
X202295343Y-100376228D01*
X202345586Y-100503741D01*
X202372672Y-100599875D01*
X202399670Y-100708787D01*
X202405497Y-100778101D01*
X202380760Y-100816760D01*
X202316065Y-100833710D01*
X202202016Y-100837897D01*
X202122599Y-100838000D01*
X201920155Y-100848811D01*
X201674255Y-100879363D01*
X201400798Y-100926830D01*
X201115683Y-100988385D01*
X200834811Y-101061204D01*
X200783726Y-101075936D01*
X200632529Y-101119053D01*
X200527745Y-101143302D01*
X200455167Y-101148725D01*
X200400589Y-101135366D01*
X200349805Y-101103268D01*
X200318001Y-101077354D01*
X200257041Y-101015245D01*
X200180156Y-100921900D01*
X200097127Y-100811244D01*
X200017733Y-100697199D01*
X199951757Y-100593690D01*
X199908978Y-100514639D01*
X199898000Y-100479464D01*
X199918091Y-100433820D01*
X199975432Y-100345569D01*
X200065619Y-100220036D01*
X200184252Y-100062548D01*
X200326928Y-99878429D01*
X200489245Y-99673005D01*
X200666801Y-99451601D01*
X200855195Y-99219542D01*
X201050024Y-98982153D01*
X201246887Y-98744761D01*
X201441382Y-98512689D01*
X201629106Y-98291264D01*
X201805658Y-98085811D01*
X201966637Y-97901655D01*
X202107640Y-97744121D01*
X202224265Y-97618535D01*
X202312110Y-97530222D01*
X202366773Y-97484507D01*
X202377829Y-97479431D01*
X202424321Y-97492749D01*
X202424321Y-97492749D01*
G37*
X202424321Y-97492749D02*
X202506955Y-97536437D01*
X202611308Y-97602457D01*
X202662875Y-97638286D01*
X202787676Y-97731198D01*
X202867176Y-97806634D01*
X202901551Y-97876081D01*
X202890979Y-97951026D01*
X202835637Y-98042957D01*
X202735702Y-98163362D01*
X202672076Y-98234500D01*
X202488223Y-98439370D01*
X202294749Y-98657026D01*
X202095987Y-98882419D01*
X201896268Y-99110500D01*
X201699925Y-99336219D01*
X201511291Y-99554528D01*
X201334698Y-99760377D01*
X201174478Y-99948718D01*
X201034965Y-100114500D01*
X200920491Y-100252675D01*
X200835387Y-100358193D01*
X200783988Y-100426005D01*
X200770290Y-100450873D01*
X200805538Y-100450320D01*
X200875711Y-100432680D01*
X200888060Y-100428737D01*
X201026682Y-100389839D01*
X201206926Y-100348579D01*
X201407250Y-100309089D01*
X201606109Y-100275506D01*
X201781960Y-100251963D01*
X201836960Y-100246618D01*
X202014266Y-100237846D01*
X202141733Y-100251226D01*
X202231408Y-100294705D01*
X202295343Y-100376228D01*
X202345586Y-100503741D01*
X202372672Y-100599875D01*
X202399670Y-100708787D01*
X202405497Y-100778101D01*
X202380760Y-100816760D01*
X202316065Y-100833710D01*
X202202016Y-100837897D01*
X202122599Y-100838000D01*
X201920155Y-100848811D01*
X201674255Y-100879363D01*
X201400798Y-100926830D01*
X201115683Y-100988385D01*
X200834811Y-101061204D01*
X200783726Y-101075936D01*
X200632529Y-101119053D01*
X200527745Y-101143302D01*
X200455167Y-101148725D01*
X200400589Y-101135366D01*
X200349805Y-101103268D01*
X200318001Y-101077354D01*
X200257041Y-101015245D01*
X200180156Y-100921900D01*
X200097127Y-100811244D01*
X200017733Y-100697199D01*
X199951757Y-100593690D01*
X199908978Y-100514639D01*
X199898000Y-100479464D01*
X199918091Y-100433820D01*
X199975432Y-100345569D01*
X200065619Y-100220036D01*
X200184252Y-100062548D01*
X200326928Y-99878429D01*
X200489245Y-99673005D01*
X200666801Y-99451601D01*
X200855195Y-99219542D01*
X201050024Y-98982153D01*
X201246887Y-98744761D01*
X201441382Y-98512689D01*
X201629106Y-98291264D01*
X201805658Y-98085811D01*
X201966637Y-97901655D01*
X202107640Y-97744121D01*
X202224265Y-97618535D01*
X202312110Y-97530222D01*
X202366773Y-97484507D01*
X202377829Y-97479431D01*
X202424321Y-97492749D01*
D12*
X225232142Y-105417857D02*
X225279761Y-105465476D01*
X225327380Y-105608333D01*
X225327380Y-105703571D01*
X225279761Y-105846428D01*
X225184523Y-105941666D01*
X225089285Y-105989285D01*
X224898809Y-106036904D01*
X224755952Y-106036904D01*
X224565476Y-105989285D01*
X224470238Y-105941666D01*
X224375000Y-105846428D01*
X224327380Y-105703571D01*
X224327380Y-105608333D01*
X224375000Y-105465476D01*
X224422619Y-105417857D01*
X224422619Y-105036904D02*
X224375000Y-104989285D01*
X224327380Y-104894047D01*
X224327380Y-104655952D01*
X224375000Y-104560714D01*
X224422619Y-104513095D01*
X224517857Y-104465476D01*
X224613095Y-104465476D01*
X224755952Y-104513095D01*
X225327380Y-105084523D01*
X225327380Y-104465476D01*
X224327380Y-104132142D02*
X224327380Y-103513095D01*
X224708333Y-103846428D01*
X224708333Y-103703571D01*
X224755952Y-103608333D01*
X224803571Y-103560714D01*
X224898809Y-103513095D01*
X225136904Y-103513095D01*
X225232142Y-103560714D01*
X225279761Y-103608333D01*
X225327380Y-103703571D01*
X225327380Y-103989285D01*
X225279761Y-104084523D01*
X225232142Y-104132142D01*
X221422142Y-105417857D02*
X221469761Y-105465476D01*
X221517380Y-105608333D01*
X221517380Y-105703571D01*
X221469761Y-105846428D01*
X221374523Y-105941666D01*
X221279285Y-105989285D01*
X221088809Y-106036904D01*
X220945952Y-106036904D01*
X220755476Y-105989285D01*
X220660238Y-105941666D01*
X220565000Y-105846428D01*
X220517380Y-105703571D01*
X220517380Y-105608333D01*
X220565000Y-105465476D01*
X220612619Y-105417857D01*
X220612619Y-105036904D02*
X220565000Y-104989285D01*
X220517380Y-104894047D01*
X220517380Y-104655952D01*
X220565000Y-104560714D01*
X220612619Y-104513095D01*
X220707857Y-104465476D01*
X220803095Y-104465476D01*
X220945952Y-104513095D01*
X221517380Y-105084523D01*
X221517380Y-104465476D01*
X220612619Y-104084523D02*
X220565000Y-104036904D01*
X220517380Y-103941666D01*
X220517380Y-103703571D01*
X220565000Y-103608333D01*
X220612619Y-103560714D01*
X220707857Y-103513095D01*
X220803095Y-103513095D01*
X220945952Y-103560714D01*
X221517380Y-104132142D01*
X221517380Y-103513095D01*
X215663542Y-118590242D02*
X215615923Y-118637861D01*
X215473066Y-118685480D01*
X215377828Y-118685480D01*
X215234971Y-118637861D01*
X215139733Y-118542623D01*
X215092114Y-118447385D01*
X215044495Y-118256909D01*
X215044495Y-118114052D01*
X215092114Y-117923576D01*
X215139733Y-117828338D01*
X215234971Y-117733100D01*
X215377828Y-117685480D01*
X215473066Y-117685480D01*
X215615923Y-117733100D01*
X215663542Y-117780719D01*
X216615923Y-118685480D02*
X216044495Y-118685480D01*
X216330209Y-118685480D02*
X216330209Y-117685480D01*
X216234971Y-117828338D01*
X216139733Y-117923576D01*
X216044495Y-117971195D01*
X217092114Y-118685480D02*
X217282590Y-118685480D01*
X217377828Y-118637861D01*
X217425447Y-118590242D01*
X217520685Y-118447385D01*
X217568304Y-118256909D01*
X217568304Y-117875957D01*
X217520685Y-117780719D01*
X217473066Y-117733100D01*
X217377828Y-117685480D01*
X217187352Y-117685480D01*
X217092114Y-117733100D01*
X217044495Y-117780719D01*
X216996876Y-117875957D01*
X216996876Y-118114052D01*
X217044495Y-118209290D01*
X217092114Y-118256909D01*
X217187352Y-118304528D01*
X217377828Y-118304528D01*
X217473066Y-118256909D01*
X217520685Y-118209290D01*
X217568304Y-118114052D01*
X208907142Y-100137142D02*
X208859523Y-100184761D01*
X208716666Y-100232380D01*
X208621428Y-100232380D01*
X208478571Y-100184761D01*
X208383333Y-100089523D01*
X208335714Y-99994285D01*
X208288095Y-99803809D01*
X208288095Y-99660952D01*
X208335714Y-99470476D01*
X208383333Y-99375238D01*
X208478571Y-99280000D01*
X208621428Y-99232380D01*
X208716666Y-99232380D01*
X208859523Y-99280000D01*
X208907142Y-99327619D01*
X209859523Y-100232380D02*
X209288095Y-100232380D01*
X209573809Y-100232380D02*
X209573809Y-99232380D01*
X209478571Y-99375238D01*
X209383333Y-99470476D01*
X209288095Y-99518095D01*
X210192857Y-99232380D02*
X210811904Y-99232380D01*
X210478571Y-99613333D01*
X210621428Y-99613333D01*
X210716666Y-99660952D01*
X210764285Y-99708571D01*
X210811904Y-99803809D01*
X210811904Y-100041904D01*
X210764285Y-100137142D01*
X210716666Y-100184761D01*
X210621428Y-100232380D01*
X210335714Y-100232380D01*
X210240476Y-100184761D01*
X210192857Y-100137142D01*
X185057142Y-102401666D02*
X185104761Y-102449285D01*
X185152380Y-102592142D01*
X185152380Y-102687380D01*
X185104761Y-102830238D01*
X185009523Y-102925476D01*
X184914285Y-102973095D01*
X184723809Y-103020714D01*
X184580952Y-103020714D01*
X184390476Y-102973095D01*
X184295238Y-102925476D01*
X184200000Y-102830238D01*
X184152380Y-102687380D01*
X184152380Y-102592142D01*
X184200000Y-102449285D01*
X184247619Y-102401666D01*
X184152380Y-101544523D02*
X184152380Y-101735000D01*
X184200000Y-101830238D01*
X184247619Y-101877857D01*
X184390476Y-101973095D01*
X184580952Y-102020714D01*
X184961904Y-102020714D01*
X185057142Y-101973095D01*
X185104761Y-101925476D01*
X185152380Y-101830238D01*
X185152380Y-101639761D01*
X185104761Y-101544523D01*
X185057142Y-101496904D01*
X184961904Y-101449285D01*
X184723809Y-101449285D01*
X184628571Y-101496904D01*
X184580952Y-101544523D01*
X184533333Y-101639761D01*
X184533333Y-101830238D01*
X184580952Y-101925476D01*
X184628571Y-101973095D01*
X184723809Y-102020714D01*
D17*
X216365670Y-96418607D02*
X216365670Y-97135650D01*
X216317867Y-97279058D01*
X216222261Y-97374664D01*
X216078852Y-97422467D01*
X215983247Y-97422467D01*
X217321727Y-96418607D02*
X216843698Y-96418607D01*
X216795895Y-96896635D01*
X216843698Y-96848832D01*
X216939304Y-96801030D01*
X217178318Y-96801030D01*
X217273924Y-96848832D01*
X217321727Y-96896635D01*
X217369530Y-96992241D01*
X217369530Y-97231255D01*
X217321727Y-97326861D01*
X217273924Y-97374664D01*
X217178318Y-97422467D01*
X216939304Y-97422467D01*
X216843698Y-97374664D01*
X216795895Y-97326861D01*
X210938940Y-79328171D02*
X211416316Y-79328171D01*
X210843465Y-79614597D02*
X211177628Y-78612107D01*
X211511792Y-79614597D01*
X212275594Y-78946270D02*
X212275594Y-79614597D01*
X211845955Y-78946270D02*
X211845955Y-79471384D01*
X211893693Y-79566859D01*
X211989168Y-79614597D01*
X212132381Y-79614597D01*
X212227856Y-79566859D01*
X212275594Y-79519122D01*
X213182608Y-79614597D02*
X213182608Y-78612107D01*
X213182608Y-79566859D02*
X213087133Y-79614597D01*
X212896183Y-79614597D01*
X212800707Y-79566859D01*
X212752970Y-79519122D01*
X212705232Y-79423646D01*
X212705232Y-79137221D01*
X212752970Y-79041745D01*
X212800707Y-78994008D01*
X212896183Y-78946270D01*
X213087133Y-78946270D01*
X213182608Y-78994008D01*
X213659985Y-79614597D02*
X213659985Y-78946270D01*
X213659985Y-78612107D02*
X213612247Y-78659845D01*
X213659985Y-78707582D01*
X213707722Y-78659845D01*
X213659985Y-78612107D01*
X213659985Y-78707582D01*
X214280574Y-79614597D02*
X214185098Y-79566859D01*
X214137361Y-79519122D01*
X214089623Y-79423646D01*
X214089623Y-79137221D01*
X214137361Y-79041745D01*
X214185098Y-78994008D01*
X214280574Y-78946270D01*
X214423786Y-78946270D01*
X214519262Y-78994008D01*
X214566999Y-79041745D01*
X214614737Y-79137221D01*
X214614737Y-79423646D01*
X214566999Y-79519122D01*
X214519262Y-79566859D01*
X214423786Y-79614597D01*
X214280574Y-79614597D01*
X215044375Y-79232696D02*
X215808177Y-79232696D01*
X216571979Y-78612107D02*
X216571979Y-79328171D01*
X216524242Y-79471384D01*
X216428766Y-79566859D01*
X216285554Y-79614597D01*
X216190078Y-79614597D01*
X217478994Y-79614597D02*
X217478994Y-79089483D01*
X217431256Y-78994008D01*
X217335781Y-78946270D01*
X217144831Y-78946270D01*
X217049355Y-78994008D01*
X217478994Y-79566859D02*
X217383519Y-79614597D01*
X217144831Y-79614597D01*
X217049355Y-79566859D01*
X217001618Y-79471384D01*
X217001618Y-79375909D01*
X217049355Y-79280434D01*
X217144831Y-79232696D01*
X217383519Y-79232696D01*
X217478994Y-79184958D01*
X218386009Y-79566859D02*
X218290534Y-79614597D01*
X218099583Y-79614597D01*
X218004108Y-79566859D01*
X217956370Y-79519122D01*
X217908633Y-79423646D01*
X217908633Y-79137221D01*
X217956370Y-79041745D01*
X218004108Y-78994008D01*
X218099583Y-78946270D01*
X218290534Y-78946270D01*
X218386009Y-78994008D01*
X218815647Y-79614597D02*
X218815647Y-78612107D01*
X218911123Y-79232696D02*
X219197548Y-79614597D01*
X219197548Y-78946270D02*
X218815647Y-79328171D01*
X219627187Y-79232696D02*
X220390989Y-79232696D01*
X220772890Y-78612107D02*
X221393479Y-78612107D01*
X221059315Y-78994008D01*
X221202528Y-78994008D01*
X221298004Y-79041745D01*
X221345741Y-79089483D01*
X221393479Y-79184958D01*
X221393479Y-79423646D01*
X221345741Y-79519122D01*
X221298004Y-79566859D01*
X221202528Y-79614597D01*
X220916103Y-79614597D01*
X220820627Y-79566859D01*
X220772890Y-79519122D01*
D12*
X219749761Y-91012380D02*
X219416428Y-90536190D01*
X219178333Y-91012380D02*
X219178333Y-90012380D01*
X219559285Y-90012380D01*
X219654523Y-90060000D01*
X219702142Y-90107619D01*
X219749761Y-90202857D01*
X219749761Y-90345714D01*
X219702142Y-90440952D01*
X219654523Y-90488571D01*
X219559285Y-90536190D01*
X219178333Y-90536190D01*
X220035476Y-90012380D02*
X220368809Y-91012380D01*
X220702142Y-90012380D01*
X221559285Y-91012380D02*
X220987857Y-91012380D01*
X221273571Y-91012380D02*
X221273571Y-90012380D01*
X221178333Y-90155238D01*
X221083095Y-90250476D01*
X220987857Y-90298095D01*
X160031666Y-136929761D02*
X160174523Y-136977380D01*
X160412619Y-136977380D01*
X160507857Y-136929761D01*
X160555476Y-136882142D01*
X160603095Y-136786904D01*
X160603095Y-136691666D01*
X160555476Y-136596428D01*
X160507857Y-136548809D01*
X160412619Y-136501190D01*
X160222142Y-136453571D01*
X160126904Y-136405952D01*
X160079285Y-136358333D01*
X160031666Y-136263095D01*
X160031666Y-136167857D01*
X160079285Y-136072619D01*
X160126904Y-136025000D01*
X160222142Y-135977380D01*
X160460238Y-135977380D01*
X160603095Y-136025000D01*
X160936428Y-135977380D02*
X161174523Y-136977380D01*
X161365000Y-136263095D01*
X161555476Y-136977380D01*
X161793571Y-135977380D01*
X162126904Y-136072619D02*
X162174523Y-136025000D01*
X162269761Y-135977380D01*
X162507857Y-135977380D01*
X162603095Y-136025000D01*
X162650714Y-136072619D01*
X162698333Y-136167857D01*
X162698333Y-136263095D01*
X162650714Y-136405952D01*
X162079285Y-136977380D01*
X162698333Y-136977380D01*
X169251866Y-136929761D02*
X169394723Y-136977380D01*
X169632819Y-136977380D01*
X169728057Y-136929761D01*
X169775676Y-136882142D01*
X169823295Y-136786904D01*
X169823295Y-136691666D01*
X169775676Y-136596428D01*
X169728057Y-136548809D01*
X169632819Y-136501190D01*
X169442342Y-136453571D01*
X169347104Y-136405952D01*
X169299485Y-136358333D01*
X169251866Y-136263095D01*
X169251866Y-136167857D01*
X169299485Y-136072619D01*
X169347104Y-136025000D01*
X169442342Y-135977380D01*
X169680438Y-135977380D01*
X169823295Y-136025000D01*
X170156628Y-135977380D02*
X170394723Y-136977380D01*
X170585200Y-136263095D01*
X170775676Y-136977380D01*
X171013771Y-135977380D01*
X171299485Y-135977380D02*
X171918533Y-135977380D01*
X171585200Y-136358333D01*
X171728057Y-136358333D01*
X171823295Y-136405952D01*
X171870914Y-136453571D01*
X171918533Y-136548809D01*
X171918533Y-136786904D01*
X171870914Y-136882142D01*
X171823295Y-136929761D01*
X171728057Y-136977380D01*
X171442342Y-136977380D01*
X171347104Y-136929761D01*
X171299485Y-136882142D01*
X178446666Y-136929761D02*
X178589523Y-136977380D01*
X178827619Y-136977380D01*
X178922857Y-136929761D01*
X178970476Y-136882142D01*
X179018095Y-136786904D01*
X179018095Y-136691666D01*
X178970476Y-136596428D01*
X178922857Y-136548809D01*
X178827619Y-136501190D01*
X178637142Y-136453571D01*
X178541904Y-136405952D01*
X178494285Y-136358333D01*
X178446666Y-136263095D01*
X178446666Y-136167857D01*
X178494285Y-136072619D01*
X178541904Y-136025000D01*
X178637142Y-135977380D01*
X178875238Y-135977380D01*
X179018095Y-136025000D01*
X179351428Y-135977380D02*
X179589523Y-136977380D01*
X179780000Y-136263095D01*
X179970476Y-136977380D01*
X180208571Y-135977380D01*
X181018095Y-136310714D02*
X181018095Y-136977380D01*
X180780000Y-135929761D02*
X180541904Y-136644047D01*
X181160952Y-136644047D01*
X169251866Y-120909761D02*
X169394723Y-120957380D01*
X169632819Y-120957380D01*
X169728057Y-120909761D01*
X169775676Y-120862142D01*
X169823295Y-120766904D01*
X169823295Y-120671666D01*
X169775676Y-120576428D01*
X169728057Y-120528809D01*
X169632819Y-120481190D01*
X169442342Y-120433571D01*
X169347104Y-120385952D01*
X169299485Y-120338333D01*
X169251866Y-120243095D01*
X169251866Y-120147857D01*
X169299485Y-120052619D01*
X169347104Y-120005000D01*
X169442342Y-119957380D01*
X169680438Y-119957380D01*
X169823295Y-120005000D01*
X170156628Y-119957380D02*
X170394723Y-120957380D01*
X170585200Y-120243095D01*
X170775676Y-120957380D01*
X171013771Y-119957380D01*
X171870914Y-119957380D02*
X171394723Y-119957380D01*
X171347104Y-120433571D01*
X171394723Y-120385952D01*
X171489961Y-120338333D01*
X171728057Y-120338333D01*
X171823295Y-120385952D01*
X171870914Y-120433571D01*
X171918533Y-120528809D01*
X171918533Y-120766904D01*
X171870914Y-120862142D01*
X171823295Y-120909761D01*
X171728057Y-120957380D01*
X171489961Y-120957380D01*
X171394723Y-120909761D01*
X171347104Y-120862142D01*
X175447366Y-96645480D02*
X175447366Y-97359766D01*
X175399747Y-97502623D01*
X175304509Y-97597861D01*
X175161652Y-97645480D01*
X175066414Y-97645480D01*
X175828319Y-96645480D02*
X176447366Y-96645480D01*
X176114033Y-97026433D01*
X176256890Y-97026433D01*
X176352128Y-97074052D01*
X176399747Y-97121671D01*
X176447366Y-97216909D01*
X176447366Y-97455004D01*
X176399747Y-97550242D01*
X176352128Y-97597861D01*
X176256890Y-97645480D01*
X175971176Y-97645480D01*
X175875938Y-97597861D01*
X175828319Y-97550242D01*
X189514314Y-135072380D02*
X189514314Y-134072380D01*
X189752409Y-134072380D01*
X189895266Y-134120000D01*
X189990504Y-134215238D01*
X190038123Y-134310476D01*
X190085742Y-134500952D01*
X190085742Y-134643809D01*
X190038123Y-134834285D01*
X189990504Y-134929523D01*
X189895266Y-135024761D01*
X189752409Y-135072380D01*
X189514314Y-135072380D01*
X190466695Y-135024761D02*
X190609552Y-135072380D01*
X190847647Y-135072380D01*
X190942885Y-135024761D01*
X190990504Y-134977142D01*
X191038123Y-134881904D01*
X191038123Y-134786666D01*
X190990504Y-134691428D01*
X190942885Y-134643809D01*
X190847647Y-134596190D01*
X190657171Y-134548571D01*
X190561933Y-134500952D01*
X190514314Y-134453333D01*
X190466695Y-134358095D01*
X190466695Y-134262857D01*
X190514314Y-134167619D01*
X190561933Y-134120000D01*
X190657171Y-134072380D01*
X190895266Y-134072380D01*
X191038123Y-134120000D01*
X191990504Y-135072380D02*
X191419076Y-135072380D01*
X191704790Y-135072380D02*
X191704790Y-134072380D01*
X191609552Y-134215238D01*
X191514314Y-134310476D01*
X191419076Y-134358095D01*
X163028333Y-124400642D02*
X162980714Y-124448261D01*
X162837857Y-124495880D01*
X162742619Y-124495880D01*
X162599761Y-124448261D01*
X162504523Y-124353023D01*
X162456904Y-124257785D01*
X162409285Y-124067309D01*
X162409285Y-123924452D01*
X162456904Y-123733976D01*
X162504523Y-123638738D01*
X162599761Y-123543500D01*
X162742619Y-123495880D01*
X162837857Y-123495880D01*
X162980714Y-123543500D01*
X163028333Y-123591119D01*
X163980714Y-124495880D02*
X163409285Y-124495880D01*
X163695000Y-124495880D02*
X163695000Y-123495880D01*
X163599761Y-123638738D01*
X163504523Y-123733976D01*
X163409285Y-123781595D01*
X153503333Y-126087142D02*
X153455714Y-126134761D01*
X153312857Y-126182380D01*
X153217619Y-126182380D01*
X153074761Y-126134761D01*
X152979523Y-126039523D01*
X152931904Y-125944285D01*
X152884285Y-125753809D01*
X152884285Y-125610952D01*
X152931904Y-125420476D01*
X152979523Y-125325238D01*
X153074761Y-125230000D01*
X153217619Y-125182380D01*
X153312857Y-125182380D01*
X153455714Y-125230000D01*
X153503333Y-125277619D01*
X153884285Y-125277619D02*
X153931904Y-125230000D01*
X154027142Y-125182380D01*
X154265238Y-125182380D01*
X154360476Y-125230000D01*
X154408095Y-125277619D01*
X154455714Y-125372857D01*
X154455714Y-125468095D01*
X154408095Y-125610952D01*
X153836666Y-126182380D01*
X154455714Y-126182380D01*
X190222142Y-107481666D02*
X190269761Y-107529285D01*
X190317380Y-107672142D01*
X190317380Y-107767380D01*
X190269761Y-107910238D01*
X190174523Y-108005476D01*
X190079285Y-108053095D01*
X189888809Y-108100714D01*
X189745952Y-108100714D01*
X189555476Y-108053095D01*
X189460238Y-108005476D01*
X189365000Y-107910238D01*
X189317380Y-107767380D01*
X189317380Y-107672142D01*
X189365000Y-107529285D01*
X189412619Y-107481666D01*
X189317380Y-107148333D02*
X189317380Y-106529285D01*
X189698333Y-106862619D01*
X189698333Y-106719761D01*
X189745952Y-106624523D01*
X189793571Y-106576904D01*
X189888809Y-106529285D01*
X190126904Y-106529285D01*
X190222142Y-106576904D01*
X190269761Y-106624523D01*
X190317380Y-106719761D01*
X190317380Y-107005476D01*
X190269761Y-107100714D01*
X190222142Y-107148333D01*
X180376533Y-98782142D02*
X180328914Y-98829761D01*
X180186057Y-98877380D01*
X180090819Y-98877380D01*
X179947961Y-98829761D01*
X179852723Y-98734523D01*
X179805104Y-98639285D01*
X179757485Y-98448809D01*
X179757485Y-98305952D01*
X179805104Y-98115476D01*
X179852723Y-98020238D01*
X179947961Y-97925000D01*
X180090819Y-97877380D01*
X180186057Y-97877380D01*
X180328914Y-97925000D01*
X180376533Y-97972619D01*
X181233676Y-98210714D02*
X181233676Y-98877380D01*
X180995580Y-97829761D02*
X180757485Y-98544047D01*
X181376533Y-98544047D01*
X186523333Y-98782142D02*
X186475714Y-98829761D01*
X186332857Y-98877380D01*
X186237619Y-98877380D01*
X186094761Y-98829761D01*
X185999523Y-98734523D01*
X185951904Y-98639285D01*
X185904285Y-98448809D01*
X185904285Y-98305952D01*
X185951904Y-98115476D01*
X185999523Y-98020238D01*
X186094761Y-97925000D01*
X186237619Y-97877380D01*
X186332857Y-97877380D01*
X186475714Y-97925000D01*
X186523333Y-97972619D01*
X187428095Y-97877380D02*
X186951904Y-97877380D01*
X186904285Y-98353571D01*
X186951904Y-98305952D01*
X187047142Y-98258333D01*
X187285238Y-98258333D01*
X187380476Y-98305952D01*
X187428095Y-98353571D01*
X187475714Y-98448809D01*
X187475714Y-98686904D01*
X187428095Y-98782142D01*
X187380476Y-98829761D01*
X187285238Y-98877380D01*
X187047142Y-98877380D01*
X186951904Y-98829761D01*
X186904285Y-98782142D01*
X173616687Y-105323189D02*
X173616687Y-105390532D01*
X173549343Y-105525219D01*
X173482000Y-105592563D01*
X173347312Y-105659906D01*
X173212625Y-105659906D01*
X173111610Y-105626235D01*
X172943251Y-105525219D01*
X172842236Y-105424204D01*
X172741221Y-105255845D01*
X172707549Y-105154830D01*
X172707549Y-105020143D01*
X172774893Y-104885456D01*
X172842236Y-104818112D01*
X172976923Y-104750769D01*
X173044267Y-104750769D01*
X173212625Y-104447723D02*
X173684030Y-103976319D01*
X174088091Y-104986471D01*
X169914427Y-108771029D02*
X169914427Y-108838372D01*
X169847083Y-108973059D01*
X169779740Y-109040403D01*
X169645052Y-109107746D01*
X169510365Y-109107746D01*
X169409350Y-109074075D01*
X169240991Y-108973059D01*
X169139976Y-108872044D01*
X169038961Y-108703685D01*
X169005289Y-108602670D01*
X169005289Y-108467983D01*
X169072633Y-108333296D01*
X169139976Y-108265952D01*
X169274663Y-108198609D01*
X169342007Y-108198609D01*
X169981770Y-108030250D02*
X169880755Y-108063922D01*
X169813411Y-108063922D01*
X169712396Y-108030250D01*
X169678724Y-107996578D01*
X169645052Y-107895563D01*
X169645052Y-107828220D01*
X169678724Y-107727204D01*
X169813411Y-107592517D01*
X169914427Y-107558846D01*
X169981770Y-107558846D01*
X170082785Y-107592517D01*
X170116457Y-107626189D01*
X170150129Y-107727204D01*
X170150129Y-107794548D01*
X170116457Y-107895563D01*
X169981770Y-108030250D01*
X169948098Y-108131265D01*
X169948098Y-108198609D01*
X169981770Y-108299624D01*
X170116457Y-108434311D01*
X170217472Y-108467983D01*
X170284816Y-108467983D01*
X170385831Y-108434311D01*
X170520518Y-108299624D01*
X170554190Y-108198609D01*
X170554190Y-108131265D01*
X170520518Y-108030250D01*
X170385831Y-107895563D01*
X170284816Y-107861891D01*
X170217472Y-107861891D01*
X170116457Y-107895563D01*
X176572150Y-120270547D02*
X176504807Y-120270547D01*
X176370120Y-120203203D01*
X176302776Y-120135860D01*
X176235433Y-120001172D01*
X176235433Y-119866485D01*
X176269104Y-119765470D01*
X176370120Y-119597111D01*
X176471135Y-119496096D01*
X176639494Y-119395081D01*
X176740509Y-119361409D01*
X176875196Y-119361409D01*
X177009883Y-119428753D01*
X177077227Y-119496096D01*
X177144570Y-119630783D01*
X177144570Y-119698127D01*
X176841524Y-120674608D02*
X176976211Y-120809295D01*
X177077227Y-120842966D01*
X177144570Y-120842966D01*
X177312929Y-120809295D01*
X177481288Y-120708279D01*
X177750662Y-120438905D01*
X177784333Y-120337890D01*
X177784333Y-120270547D01*
X177750662Y-120169531D01*
X177615975Y-120034844D01*
X177514959Y-120001172D01*
X177447616Y-120001172D01*
X177346601Y-120034844D01*
X177178242Y-120203203D01*
X177144570Y-120304218D01*
X177144570Y-120371562D01*
X177178242Y-120472577D01*
X177312929Y-120607264D01*
X177413944Y-120640936D01*
X177481288Y-120640936D01*
X177582303Y-120607264D01*
X186592493Y-108306769D02*
X186525149Y-108306769D01*
X186390462Y-108239425D01*
X186323119Y-108172082D01*
X186255775Y-108037395D01*
X186255775Y-107902708D01*
X186289447Y-107801693D01*
X186390462Y-107633334D01*
X186491477Y-107532319D01*
X186659836Y-107431303D01*
X186760851Y-107397632D01*
X186895538Y-107397632D01*
X187030225Y-107464975D01*
X187097569Y-107532319D01*
X187164912Y-107667006D01*
X187164912Y-107734349D01*
X187198584Y-109047548D02*
X186794523Y-108643487D01*
X186996554Y-108845517D02*
X187703661Y-108138410D01*
X187535302Y-108172082D01*
X187400615Y-108172082D01*
X187299600Y-108138410D01*
X188343424Y-108778174D02*
X188410767Y-108845517D01*
X188444439Y-108946532D01*
X188444439Y-109013876D01*
X188410767Y-109114891D01*
X188309752Y-109283250D01*
X188141393Y-109451609D01*
X187973035Y-109552624D01*
X187872019Y-109586296D01*
X187804676Y-109586296D01*
X187703661Y-109552624D01*
X187636317Y-109485280D01*
X187602645Y-109384265D01*
X187602645Y-109316922D01*
X187636317Y-109215906D01*
X187737332Y-109047548D01*
X187905691Y-108879189D01*
X188074050Y-108778174D01*
X188175065Y-108744502D01*
X188242409Y-108744502D01*
X188343424Y-108778174D01*
X189662969Y-118182106D02*
X189662969Y-118249450D01*
X189595625Y-118384137D01*
X189528282Y-118451480D01*
X189393595Y-118518824D01*
X189258908Y-118518824D01*
X189157893Y-118485152D01*
X188989534Y-118384137D01*
X188888519Y-118283122D01*
X188787503Y-118114763D01*
X188753832Y-118013748D01*
X188753832Y-117879061D01*
X188821175Y-117744374D01*
X188888519Y-117677030D01*
X189023206Y-117609687D01*
X189090549Y-117609687D01*
X190403748Y-117576015D02*
X189999687Y-117980076D01*
X190201717Y-117778045D02*
X189494610Y-117070938D01*
X189528282Y-117239297D01*
X189528282Y-117373984D01*
X189494610Y-117475000D01*
X191077183Y-116902580D02*
X190673122Y-117306641D01*
X190875152Y-117104610D02*
X190168045Y-116397503D01*
X190201717Y-116565862D01*
X190201717Y-116700549D01*
X190168045Y-116801564D01*
X164050742Y-101550742D02*
X164003123Y-101598361D01*
X163860266Y-101645980D01*
X163765028Y-101645980D01*
X163622171Y-101598361D01*
X163526933Y-101503123D01*
X163479314Y-101407885D01*
X163431695Y-101217409D01*
X163431695Y-101074552D01*
X163479314Y-100884076D01*
X163526933Y-100788838D01*
X163622171Y-100693600D01*
X163765028Y-100645980D01*
X163860266Y-100645980D01*
X164003123Y-100693600D01*
X164050742Y-100741219D01*
X165003123Y-101645980D02*
X164431695Y-101645980D01*
X164717409Y-101645980D02*
X164717409Y-100645980D01*
X164622171Y-100788838D01*
X164526933Y-100884076D01*
X164431695Y-100931695D01*
X165384076Y-100741219D02*
X165431695Y-100693600D01*
X165526933Y-100645980D01*
X165765028Y-100645980D01*
X165860266Y-100693600D01*
X165907885Y-100741219D01*
X165955504Y-100836457D01*
X165955504Y-100931695D01*
X165907885Y-101074552D01*
X165336457Y-101645980D01*
X165955504Y-101645980D01*
X192762142Y-102242857D02*
X192809761Y-102290476D01*
X192857380Y-102433333D01*
X192857380Y-102528571D01*
X192809761Y-102671428D01*
X192714523Y-102766666D01*
X192619285Y-102814285D01*
X192428809Y-102861904D01*
X192285952Y-102861904D01*
X192095476Y-102814285D01*
X192000238Y-102766666D01*
X191905000Y-102671428D01*
X191857380Y-102528571D01*
X191857380Y-102433333D01*
X191905000Y-102290476D01*
X191952619Y-102242857D01*
X192857380Y-101290476D02*
X192857380Y-101861904D01*
X192857380Y-101576190D02*
X191857380Y-101576190D01*
X192000238Y-101671428D01*
X192095476Y-101766666D01*
X192143095Y-101861904D01*
X192190714Y-100433333D02*
X192857380Y-100433333D01*
X191809761Y-100671428D02*
X192524047Y-100909523D01*
X192524047Y-100290476D01*
X205097142Y-105767142D02*
X205049523Y-105814761D01*
X204906666Y-105862380D01*
X204811428Y-105862380D01*
X204668571Y-105814761D01*
X204573333Y-105719523D01*
X204525714Y-105624285D01*
X204478095Y-105433809D01*
X204478095Y-105290952D01*
X204525714Y-105100476D01*
X204573333Y-105005238D01*
X204668571Y-104910000D01*
X204811428Y-104862380D01*
X204906666Y-104862380D01*
X205049523Y-104910000D01*
X205097142Y-104957619D01*
X206049523Y-105862380D02*
X205478095Y-105862380D01*
X205763809Y-105862380D02*
X205763809Y-104862380D01*
X205668571Y-105005238D01*
X205573333Y-105100476D01*
X205478095Y-105148095D01*
X206954285Y-104862380D02*
X206478095Y-104862380D01*
X206430476Y-105338571D01*
X206478095Y-105290952D01*
X206573333Y-105243333D01*
X206811428Y-105243333D01*
X206906666Y-105290952D01*
X206954285Y-105338571D01*
X207001904Y-105433809D01*
X207001904Y-105671904D01*
X206954285Y-105767142D01*
X206906666Y-105814761D01*
X206811428Y-105862380D01*
X206573333Y-105862380D01*
X206478095Y-105814761D01*
X206430476Y-105767142D01*
X216155542Y-113126757D02*
X216203161Y-113174376D01*
X216250780Y-113317233D01*
X216250780Y-113412471D01*
X216203161Y-113555328D01*
X216107923Y-113650566D01*
X216012685Y-113698185D01*
X215822209Y-113745804D01*
X215679352Y-113745804D01*
X215488876Y-113698185D01*
X215393638Y-113650566D01*
X215298400Y-113555328D01*
X215250780Y-113412471D01*
X215250780Y-113317233D01*
X215298400Y-113174376D01*
X215346019Y-113126757D01*
X216250780Y-112174376D02*
X216250780Y-112745804D01*
X216250780Y-112460090D02*
X215250780Y-112460090D01*
X215393638Y-112555328D01*
X215488876Y-112650566D01*
X215536495Y-112745804D01*
X215250780Y-111317233D02*
X215250780Y-111507709D01*
X215298400Y-111602947D01*
X215346019Y-111650566D01*
X215488876Y-111745804D01*
X215679352Y-111793423D01*
X216060304Y-111793423D01*
X216155542Y-111745804D01*
X216203161Y-111698185D01*
X216250780Y-111602947D01*
X216250780Y-111412471D01*
X216203161Y-111317233D01*
X216155542Y-111269614D01*
X216060304Y-111221995D01*
X215822209Y-111221995D01*
X215726971Y-111269614D01*
X215679352Y-111317233D01*
X215631733Y-111412471D01*
X215631733Y-111602947D01*
X215679352Y-111698185D01*
X215726971Y-111745804D01*
X215822209Y-111793423D01*
X226417142Y-111132857D02*
X226464761Y-111180476D01*
X226512380Y-111323333D01*
X226512380Y-111418571D01*
X226464761Y-111561428D01*
X226369523Y-111656666D01*
X226274285Y-111704285D01*
X226083809Y-111751904D01*
X225940952Y-111751904D01*
X225750476Y-111704285D01*
X225655238Y-111656666D01*
X225560000Y-111561428D01*
X225512380Y-111418571D01*
X225512380Y-111323333D01*
X225560000Y-111180476D01*
X225607619Y-111132857D01*
X226512380Y-110180476D02*
X226512380Y-110751904D01*
X226512380Y-110466190D02*
X225512380Y-110466190D01*
X225655238Y-110561428D01*
X225750476Y-110656666D01*
X225798095Y-110751904D01*
X225512380Y-109847142D02*
X225512380Y-109180476D01*
X226512380Y-109609047D01*
X226417142Y-114942857D02*
X226464761Y-114990476D01*
X226512380Y-115133333D01*
X226512380Y-115228571D01*
X226464761Y-115371428D01*
X226369523Y-115466666D01*
X226274285Y-115514285D01*
X226083809Y-115561904D01*
X225940952Y-115561904D01*
X225750476Y-115514285D01*
X225655238Y-115466666D01*
X225560000Y-115371428D01*
X225512380Y-115228571D01*
X225512380Y-115133333D01*
X225560000Y-114990476D01*
X225607619Y-114942857D01*
X226512380Y-113990476D02*
X226512380Y-114561904D01*
X226512380Y-114276190D02*
X225512380Y-114276190D01*
X225655238Y-114371428D01*
X225750476Y-114466666D01*
X225798095Y-114561904D01*
X225940952Y-113419047D02*
X225893333Y-113514285D01*
X225845714Y-113561904D01*
X225750476Y-113609523D01*
X225702857Y-113609523D01*
X225607619Y-113561904D01*
X225560000Y-113514285D01*
X225512380Y-113419047D01*
X225512380Y-113228571D01*
X225560000Y-113133333D01*
X225607619Y-113085714D01*
X225702857Y-113038095D01*
X225750476Y-113038095D01*
X225845714Y-113085714D01*
X225893333Y-113133333D01*
X225940952Y-113228571D01*
X225940952Y-113419047D01*
X225988571Y-113514285D01*
X226036190Y-113561904D01*
X226131428Y-113609523D01*
X226321904Y-113609523D01*
X226417142Y-113561904D01*
X226464761Y-113514285D01*
X226512380Y-113419047D01*
X226512380Y-113228571D01*
X226464761Y-113133333D01*
X226417142Y-113085714D01*
X226321904Y-113038095D01*
X226131428Y-113038095D01*
X226036190Y-113085714D01*
X225988571Y-113133333D01*
X225940952Y-113228571D01*
X218089242Y-107951542D02*
X218041623Y-107999161D01*
X217898766Y-108046780D01*
X217803528Y-108046780D01*
X217660671Y-107999161D01*
X217565433Y-107903923D01*
X217517814Y-107808685D01*
X217470195Y-107618209D01*
X217470195Y-107475352D01*
X217517814Y-107284876D01*
X217565433Y-107189638D01*
X217660671Y-107094400D01*
X217803528Y-107046780D01*
X217898766Y-107046780D01*
X218041623Y-107094400D01*
X218089242Y-107142019D01*
X218470195Y-107142019D02*
X218517814Y-107094400D01*
X218613052Y-107046780D01*
X218851147Y-107046780D01*
X218946385Y-107094400D01*
X218994004Y-107142019D01*
X219041623Y-107237257D01*
X219041623Y-107332495D01*
X218994004Y-107475352D01*
X218422576Y-108046780D01*
X219041623Y-108046780D01*
X219660671Y-107046780D02*
X219755909Y-107046780D01*
X219851147Y-107094400D01*
X219898766Y-107142019D01*
X219946385Y-107237257D01*
X219994004Y-107427733D01*
X219994004Y-107665828D01*
X219946385Y-107856304D01*
X219898766Y-107951542D01*
X219851147Y-107999161D01*
X219755909Y-108046780D01*
X219660671Y-108046780D01*
X219565433Y-107999161D01*
X219517814Y-107951542D01*
X219470195Y-107856304D01*
X219422576Y-107665828D01*
X219422576Y-107427733D01*
X219470195Y-107237257D01*
X219517814Y-107142019D01*
X219565433Y-107094400D01*
X219660671Y-107046780D01*
X175455342Y-127649242D02*
X175407723Y-127696861D01*
X175264866Y-127744480D01*
X175169628Y-127744480D01*
X175026771Y-127696861D01*
X174931533Y-127601623D01*
X174883914Y-127506385D01*
X174836295Y-127315909D01*
X174836295Y-127173052D01*
X174883914Y-126982576D01*
X174931533Y-126887338D01*
X175026771Y-126792100D01*
X175169628Y-126744480D01*
X175264866Y-126744480D01*
X175407723Y-126792100D01*
X175455342Y-126839719D01*
X175836295Y-126839719D02*
X175883914Y-126792100D01*
X175979152Y-126744480D01*
X176217247Y-126744480D01*
X176312485Y-126792100D01*
X176360104Y-126839719D01*
X176407723Y-126934957D01*
X176407723Y-127030195D01*
X176360104Y-127173052D01*
X175788676Y-127744480D01*
X176407723Y-127744480D01*
X177360104Y-127744480D02*
X176788676Y-127744480D01*
X177074390Y-127744480D02*
X177074390Y-126744480D01*
X176979152Y-126887338D01*
X176883914Y-126982576D01*
X176788676Y-127030195D01*
X174382180Y-92484533D02*
X175096466Y-92484533D01*
X175239323Y-92532152D01*
X175334561Y-92627390D01*
X175382180Y-92770247D01*
X175382180Y-92865485D01*
X175382180Y-91484533D02*
X175382180Y-92055961D01*
X175382180Y-91770247D02*
X174382180Y-91770247D01*
X174525038Y-91865485D01*
X174620276Y-91960723D01*
X174667895Y-92055961D01*
X187652066Y-93864180D02*
X187652066Y-94578466D01*
X187604447Y-94721323D01*
X187509209Y-94816561D01*
X187366352Y-94864180D01*
X187271114Y-94864180D01*
X188080638Y-93959419D02*
X188128257Y-93911800D01*
X188223495Y-93864180D01*
X188461590Y-93864180D01*
X188556828Y-93911800D01*
X188604447Y-93959419D01*
X188652066Y-94054657D01*
X188652066Y-94149895D01*
X188604447Y-94292752D01*
X188033019Y-94864180D01*
X188652066Y-94864180D01*
X195246666Y-95921580D02*
X195246666Y-96635866D01*
X195199047Y-96778723D01*
X195103809Y-96873961D01*
X194960952Y-96921580D01*
X194865714Y-96921580D01*
X196151428Y-96254914D02*
X196151428Y-96921580D01*
X195913333Y-95873961D02*
X195675238Y-96588247D01*
X196294285Y-96588247D01*
X183500733Y-98877380D02*
X183024542Y-98877380D01*
X183024542Y-97877380D01*
X184357876Y-98877380D02*
X183786447Y-98877380D01*
X184072161Y-98877380D02*
X184072161Y-97877380D01*
X183976923Y-98020238D01*
X183881685Y-98115476D01*
X183786447Y-98163095D01*
X198766133Y-105176580D02*
X198289942Y-105176580D01*
X198289942Y-104176580D01*
X199051847Y-104271819D02*
X199099466Y-104224200D01*
X199194704Y-104176580D01*
X199432800Y-104176580D01*
X199528038Y-104224200D01*
X199575657Y-104271819D01*
X199623276Y-104367057D01*
X199623276Y-104462295D01*
X199575657Y-104605152D01*
X199004228Y-105176580D01*
X199623276Y-105176580D01*
X184183280Y-122658166D02*
X184183280Y-123134357D01*
X183183280Y-123134357D01*
X183183280Y-122420071D02*
X183183280Y-121801023D01*
X183564233Y-122134357D01*
X183564233Y-121991500D01*
X183611852Y-121896261D01*
X183659471Y-121848642D01*
X183754709Y-121801023D01*
X183992804Y-121801023D01*
X184088042Y-121848642D01*
X184135661Y-121896261D01*
X184183280Y-121991500D01*
X184183280Y-122277214D01*
X184135661Y-122372452D01*
X184088042Y-122420071D01*
X190342780Y-97258166D02*
X189866590Y-97591500D01*
X190342780Y-97829595D02*
X189342780Y-97829595D01*
X189342780Y-97448642D01*
X189390400Y-97353404D01*
X189438019Y-97305785D01*
X189533257Y-97258166D01*
X189676114Y-97258166D01*
X189771352Y-97305785D01*
X189818971Y-97353404D01*
X189866590Y-97448642D01*
X189866590Y-97829595D01*
X190342780Y-96305785D02*
X190342780Y-96877214D01*
X190342780Y-96591500D02*
X189342780Y-96591500D01*
X189485638Y-96686738D01*
X189580876Y-96781976D01*
X189628495Y-96877214D01*
X192260480Y-97308966D02*
X191784290Y-97642300D01*
X192260480Y-97880395D02*
X191260480Y-97880395D01*
X191260480Y-97499442D01*
X191308100Y-97404204D01*
X191355719Y-97356585D01*
X191450957Y-97308966D01*
X191593814Y-97308966D01*
X191689052Y-97356585D01*
X191736671Y-97404204D01*
X191784290Y-97499442D01*
X191784290Y-97880395D01*
X191355719Y-96928014D02*
X191308100Y-96880395D01*
X191260480Y-96785157D01*
X191260480Y-96547061D01*
X191308100Y-96451823D01*
X191355719Y-96404204D01*
X191450957Y-96356585D01*
X191546195Y-96356585D01*
X191689052Y-96404204D01*
X192260480Y-96975633D01*
X192260480Y-96356585D01*
X159650133Y-111081080D02*
X159316800Y-110604890D01*
X159078704Y-111081080D02*
X159078704Y-110081080D01*
X159459657Y-110081080D01*
X159554895Y-110128700D01*
X159602514Y-110176319D01*
X159650133Y-110271557D01*
X159650133Y-110414414D01*
X159602514Y-110509652D01*
X159554895Y-110557271D01*
X159459657Y-110604890D01*
X159078704Y-110604890D01*
X159983466Y-110081080D02*
X160602514Y-110081080D01*
X160269180Y-110462033D01*
X160412038Y-110462033D01*
X160507276Y-110509652D01*
X160554895Y-110557271D01*
X160602514Y-110652509D01*
X160602514Y-110890604D01*
X160554895Y-110985842D01*
X160507276Y-111033461D01*
X160412038Y-111081080D01*
X160126323Y-111081080D01*
X160031085Y-111033461D01*
X159983466Y-110985842D01*
X164993580Y-117400366D02*
X164517390Y-117733700D01*
X164993580Y-117971795D02*
X163993580Y-117971795D01*
X163993580Y-117590842D01*
X164041200Y-117495604D01*
X164088819Y-117447985D01*
X164184057Y-117400366D01*
X164326914Y-117400366D01*
X164422152Y-117447985D01*
X164469771Y-117495604D01*
X164517390Y-117590842D01*
X164517390Y-117971795D01*
X164326914Y-116543223D02*
X164993580Y-116543223D01*
X163945961Y-116781319D02*
X164660247Y-117019414D01*
X164660247Y-116400366D01*
X196845180Y-103976466D02*
X196368990Y-104309800D01*
X196845180Y-104547895D02*
X195845180Y-104547895D01*
X195845180Y-104166942D01*
X195892800Y-104071704D01*
X195940419Y-104024085D01*
X196035657Y-103976466D01*
X196178514Y-103976466D01*
X196273752Y-104024085D01*
X196321371Y-104071704D01*
X196368990Y-104166942D01*
X196368990Y-104547895D01*
X195845180Y-103071704D02*
X195845180Y-103547895D01*
X196321371Y-103595514D01*
X196273752Y-103547895D01*
X196226133Y-103452657D01*
X196226133Y-103214561D01*
X196273752Y-103119323D01*
X196321371Y-103071704D01*
X196416609Y-103024085D01*
X196654704Y-103024085D01*
X196749942Y-103071704D01*
X196797561Y-103119323D01*
X196845180Y-103214561D01*
X196845180Y-103452657D01*
X196797561Y-103547895D01*
X196749942Y-103595514D01*
X214536280Y-112891866D02*
X214060090Y-113225200D01*
X214536280Y-113463295D02*
X213536280Y-113463295D01*
X213536280Y-113082342D01*
X213583900Y-112987104D01*
X213631519Y-112939485D01*
X213726757Y-112891866D01*
X213869614Y-112891866D01*
X213964852Y-112939485D01*
X214012471Y-112987104D01*
X214060090Y-113082342D01*
X214060090Y-113463295D01*
X213536280Y-112034723D02*
X213536280Y-112225200D01*
X213583900Y-112320438D01*
X213631519Y-112368057D01*
X213774376Y-112463295D01*
X213964852Y-112510914D01*
X214345804Y-112510914D01*
X214441042Y-112463295D01*
X214488661Y-112415676D01*
X214536280Y-112320438D01*
X214536280Y-112129961D01*
X214488661Y-112034723D01*
X214441042Y-111987104D01*
X214345804Y-111939485D01*
X214107709Y-111939485D01*
X214012471Y-111987104D01*
X213964852Y-112034723D01*
X213917233Y-112129961D01*
X213917233Y-112320438D01*
X213964852Y-112415676D01*
X214012471Y-112463295D01*
X214107709Y-112510914D01*
X177074533Y-121978680D02*
X176741200Y-121502490D01*
X176503104Y-121978680D02*
X176503104Y-120978680D01*
X176884057Y-120978680D01*
X176979295Y-121026300D01*
X177026914Y-121073919D01*
X177074533Y-121169157D01*
X177074533Y-121312014D01*
X177026914Y-121407252D01*
X176979295Y-121454871D01*
X176884057Y-121502490D01*
X176503104Y-121502490D01*
X177407866Y-120978680D02*
X178074533Y-120978680D01*
X177645961Y-121978680D01*
X176490333Y-125699780D02*
X176157000Y-125223590D01*
X175918904Y-125699780D02*
X175918904Y-124699780D01*
X176299857Y-124699780D01*
X176395095Y-124747400D01*
X176442714Y-124795019D01*
X176490333Y-124890257D01*
X176490333Y-125033114D01*
X176442714Y-125128352D01*
X176395095Y-125175971D01*
X176299857Y-125223590D01*
X175918904Y-125223590D01*
X177061761Y-125128352D02*
X176966523Y-125080733D01*
X176918904Y-125033114D01*
X176871285Y-124937876D01*
X176871285Y-124890257D01*
X176918904Y-124795019D01*
X176966523Y-124747400D01*
X177061761Y-124699780D01*
X177252238Y-124699780D01*
X177347476Y-124747400D01*
X177395095Y-124795019D01*
X177442714Y-124890257D01*
X177442714Y-124937876D01*
X177395095Y-125033114D01*
X177347476Y-125080733D01*
X177252238Y-125128352D01*
X177061761Y-125128352D01*
X176966523Y-125175971D01*
X176918904Y-125223590D01*
X176871285Y-125318828D01*
X176871285Y-125509304D01*
X176918904Y-125604542D01*
X176966523Y-125652161D01*
X177061761Y-125699780D01*
X177252238Y-125699780D01*
X177347476Y-125652161D01*
X177395095Y-125604542D01*
X177442714Y-125509304D01*
X177442714Y-125318828D01*
X177395095Y-125223590D01*
X177347476Y-125175971D01*
X177252238Y-125128352D01*
X177150733Y-123896380D02*
X176817400Y-123420190D01*
X176579304Y-123896380D02*
X176579304Y-122896380D01*
X176960257Y-122896380D01*
X177055495Y-122944000D01*
X177103114Y-122991619D01*
X177150733Y-123086857D01*
X177150733Y-123229714D01*
X177103114Y-123324952D01*
X177055495Y-123372571D01*
X176960257Y-123420190D01*
X176579304Y-123420190D01*
X177626923Y-123896380D02*
X177817400Y-123896380D01*
X177912638Y-123848761D01*
X177960257Y-123801142D01*
X178055495Y-123658285D01*
X178103114Y-123467809D01*
X178103114Y-123086857D01*
X178055495Y-122991619D01*
X178007876Y-122944000D01*
X177912638Y-122896380D01*
X177722161Y-122896380D01*
X177626923Y-122944000D01*
X177579304Y-122991619D01*
X177531685Y-123086857D01*
X177531685Y-123324952D01*
X177579304Y-123420190D01*
X177626923Y-123467809D01*
X177722161Y-123515428D01*
X177912638Y-123515428D01*
X178007876Y-123467809D01*
X178055495Y-123420190D01*
X178103114Y-123324952D01*
X163766666Y-106449761D02*
X163909523Y-106497380D01*
X164147619Y-106497380D01*
X164242857Y-106449761D01*
X164290476Y-106402142D01*
X164338095Y-106306904D01*
X164338095Y-106211666D01*
X164290476Y-106116428D01*
X164242857Y-106068809D01*
X164147619Y-106021190D01*
X163957142Y-105973571D01*
X163861904Y-105925952D01*
X163814285Y-105878333D01*
X163766666Y-105783095D01*
X163766666Y-105687857D01*
X163814285Y-105592619D01*
X163861904Y-105545000D01*
X163957142Y-105497380D01*
X164195238Y-105497380D01*
X164338095Y-105545000D01*
X164671428Y-105497380D02*
X164909523Y-106497380D01*
X165100000Y-105783095D01*
X165290476Y-106497380D01*
X165528571Y-105497380D01*
X166433333Y-106497380D02*
X165861904Y-106497380D01*
X166147619Y-106497380D02*
X166147619Y-105497380D01*
X166052380Y-105640238D01*
X165957142Y-105735476D01*
X165861904Y-105783095D01*
X162063180Y-120942004D02*
X162872704Y-120942004D01*
X162967942Y-120894385D01*
X163015561Y-120846766D01*
X163063180Y-120751528D01*
X163063180Y-120561052D01*
X163015561Y-120465814D01*
X162967942Y-120418195D01*
X162872704Y-120370576D01*
X162063180Y-120370576D01*
X163063180Y-119370576D02*
X163063180Y-119942004D01*
X163063180Y-119656290D02*
X162063180Y-119656290D01*
X162206038Y-119751528D01*
X162301276Y-119846766D01*
X162348895Y-119942004D01*
X182982477Y-106681126D02*
X182410057Y-107253546D01*
X182376385Y-107354561D01*
X182376385Y-107421905D01*
X182410057Y-107522920D01*
X182544744Y-107657607D01*
X182645759Y-107691279D01*
X182713103Y-107691279D01*
X182814118Y-107657607D01*
X183386538Y-107085187D01*
X183622240Y-107455577D02*
X183689583Y-107455577D01*
X183790599Y-107489248D01*
X183958957Y-107657607D01*
X183992629Y-107758622D01*
X183992629Y-107825966D01*
X183958957Y-107926981D01*
X183891614Y-107994325D01*
X183756927Y-108061668D01*
X182948805Y-108061668D01*
X183386538Y-108499401D01*
X189317380Y-101726904D02*
X190126904Y-101726904D01*
X190222142Y-101679285D01*
X190269761Y-101631666D01*
X190317380Y-101536428D01*
X190317380Y-101345952D01*
X190269761Y-101250714D01*
X190222142Y-101203095D01*
X190126904Y-101155476D01*
X189317380Y-101155476D01*
X189317380Y-100774523D02*
X189317380Y-100155476D01*
X189698333Y-100488809D01*
X189698333Y-100345952D01*
X189745952Y-100250714D01*
X189793571Y-100203095D01*
X189888809Y-100155476D01*
X190126904Y-100155476D01*
X190222142Y-100203095D01*
X190269761Y-100250714D01*
X190317380Y-100345952D01*
X190317380Y-100631666D01*
X190269761Y-100726904D01*
X190222142Y-100774523D01*
X196316695Y-105180980D02*
X196316695Y-105990504D01*
X196364314Y-106085742D01*
X196411933Y-106133361D01*
X196507171Y-106180980D01*
X196697647Y-106180980D01*
X196792885Y-106133361D01*
X196840504Y-106085742D01*
X196888123Y-105990504D01*
X196888123Y-105180980D01*
X197792885Y-105514314D02*
X197792885Y-106180980D01*
X197554790Y-105133361D02*
X197316695Y-105847647D01*
X197935742Y-105847647D01*
X207746695Y-119187980D02*
X207746695Y-119997504D01*
X207794314Y-120092742D01*
X207841933Y-120140361D01*
X207937171Y-120187980D01*
X208127647Y-120187980D01*
X208222885Y-120140361D01*
X208270504Y-120092742D01*
X208318123Y-119997504D01*
X208318123Y-119187980D01*
X209270504Y-119187980D02*
X208794314Y-119187980D01*
X208746695Y-119664171D01*
X208794314Y-119616552D01*
X208889552Y-119568933D01*
X209127647Y-119568933D01*
X209222885Y-119616552D01*
X209270504Y-119664171D01*
X209318123Y-119759409D01*
X209318123Y-119997504D01*
X209270504Y-120092742D01*
X209222885Y-120140361D01*
X209127647Y-120187980D01*
X208889552Y-120187980D01*
X208794314Y-120140361D01*
X208746695Y-120092742D01*
X222529495Y-118121180D02*
X222529495Y-118930704D01*
X222577114Y-119025942D01*
X222624733Y-119073561D01*
X222719971Y-119121180D01*
X222910447Y-119121180D01*
X223005685Y-119073561D01*
X223053304Y-119025942D01*
X223100923Y-118930704D01*
X223100923Y-118121180D01*
X224005685Y-118121180D02*
X223815209Y-118121180D01*
X223719971Y-118168800D01*
X223672352Y-118216419D01*
X223577114Y-118359276D01*
X223529495Y-118549752D01*
X223529495Y-118930704D01*
X223577114Y-119025942D01*
X223624733Y-119073561D01*
X223719971Y-119121180D01*
X223910447Y-119121180D01*
X224005685Y-119073561D01*
X224053304Y-119025942D01*
X224100923Y-118930704D01*
X224100923Y-118692609D01*
X224053304Y-118597371D01*
X224005685Y-118549752D01*
X223910447Y-118502133D01*
X223719971Y-118502133D01*
X223624733Y-118549752D01*
X223577114Y-118597371D01*
X223529495Y-118692609D01*
X172815317Y-107245552D02*
X173152035Y-107582270D01*
X172209226Y-107110865D02*
X172815317Y-107245552D01*
X172680630Y-106639461D01*
X173993828Y-106740476D02*
X173589767Y-107144537D01*
X173791798Y-106942506D02*
X173084691Y-106235400D01*
X173118363Y-106403758D01*
X173118363Y-106538445D01*
X173084691Y-106639461D01*
M02*
